<svg width="42" height="42" viewBox="0 0 64 64" fill="none" xmlns="http://www.w3.org/2000/svg">
<g clip-path="url(#clip0_194_164)">
<path fill-rule="evenodd" clip-rule="evenodd" d="M44.6353 0.138055C39.7272 -0.416691 34.7761 0.710629 30.592 3.3356C26.4079 5.96057 23.2385 9.92778 21.6022 14.5882C20.1795 18.6405 19.9891 23.0083 21.0318 27.1456L0.879278 47.2982C0.316286 47.8611 0 48.6247 0 49.4209V58.1037C0 59.6542 0.529932 61.1795 1.6752 62.3248C2.82047 63.4701 4.34582 64 5.8963 64H17.4733C19.1313 64 20.4754 62.6559 20.4754 60.998V55.3172H26.1561C27.8141 55.3172 29.1582 53.9732 29.1582 52.3152V46.6344H31.9446C32.7408 46.6344 33.5044 46.3181 34.0674 45.7552L36.8544 42.9682C40.9917 44.0109 45.3595 43.8205 49.4118 42.3978C54.0722 40.7615 58.0394 37.5921 60.6644 33.408C63.2894 29.2239 64.4167 24.2728 63.8619 19.3647C63.3072 14.4566 61.1032 9.88207 57.6106 6.38942C54.1179 2.89678 49.5434 0.692802 44.6353 0.138055ZM33.7828 8.42163C36.8153 6.51913 40.4037 5.70209 43.961 6.10415C47.5182 6.50621 50.8337 8.10359 53.3651 10.6349C55.8964 13.1663 57.4938 16.4818 57.8958 20.039C58.2979 23.5963 57.4809 27.1847 55.5784 30.2172C53.6759 33.2497 50.8006 35.5468 47.4228 36.7327C44.045 37.9186 40.3648 37.9231 36.9842 36.7455C35.8966 36.3666 34.6882 36.6433 33.8739 37.4577L30.7012 40.6304H26.1561C24.4981 40.6304 23.1541 41.9744 23.1541 43.6324V49.3131H17.4733C15.8154 49.3131 14.4713 50.6572 14.4713 52.3152V57.9959H6.00408V50.6644L26.5423 30.1261C27.3567 29.3118 27.6334 28.1034 27.2545 27.0158C26.0769 23.6352 26.0814 19.955 27.2673 16.5772C28.4532 13.1994 30.7503 10.3241 33.7828 8.42163ZM46.5184 19.0318C46.5184 19.8905 45.8223 20.5867 44.9635 20.5867C44.1048 20.5867 43.4086 19.8905 43.4086 19.0318C43.4086 18.173 44.1048 17.4769 44.9635 17.4769C45.8223 17.4769 46.5184 18.173 46.5184 19.0318ZM44.9635 14.5826C42.5063 14.5826 40.5144 16.5746 40.5144 19.0318C40.5144 21.489 42.5063 23.481 44.9635 23.481C47.4207 23.481 49.4127 21.489 49.4127 19.0318C49.4127 16.5746 47.4207 14.5826 44.9635 14.5826Z" fill="black"/>
</g>
<defs>
<clipPath id="clip0_194_164">
<rect width="64" height="64" fill="white"/>
</clipPath>
</defs>
</svg>
