<svg xmlns="http://www.w3.org/2000/svg" xmlns:xlink="http://www.w3.org/1999/xlink" xmlns:lucid="lucid" width="1280.93" height="1463.96"><g transform="translate(-79.07007292855883 100)" lucid:page-tab-id="0_0"><path d="M0-1258.83h1870.87v3840.5H0z" fill="#fff"/><path d="M100 681.56a6 6 0 0 1 6-6h1228a6 6 0 0 1 6 6v248a6 6 0 0 1-6 6H106a6 6 0 0 1-6-6z" stroke="#3a414a" fill="#edf5ff"/><path d="M267.05 825.56c0 38.66-32.06 70-71.6 70-39.53 0-71.6-31.34-71.6-70s32.07-70 71.6-70c39.54 0 71.6 31.34 71.6 70z" stroke="#3a414a" fill="#cfe4ff"/><use xlink:href="#a" transform="matrix(1,0,0,1,128.86363636363637,760.5587160281254) translate(26.320987654320987 70.59027777777777)"/><path d="M410.23 825.56c0 38.66-32.06 70-71.6 70-39.53 0-71.58-31.34-71.58-70s32.05-70 71.6-70c39.52 0 71.58 31.34 71.58 70z" stroke="#3a414a" fill="#cfe4ff"/><use xlink:href="#b" transform="matrix(1,0,0,1,272.04545454545456,760.5587160281254) translate(35.58024691358025 70.59027777777777)"/><path d="M555 825.56c0 38.66-32.05 70-71.6 70-39.53 0-71.58-31.34-71.58-70s32.05-70 71.6-70c39.53 0 71.58 31.34 71.58 70z" stroke="#3a414a" fill="#cfe4ff"/><use xlink:href="#c" transform="matrix(1,0,0,1,416.81818181818187,760.5587160281254) translate(23.851851851851855 70.59027777777777)"/><path d="M696.6 825.56c0 38.66-32.06 70-71.6 70-39.54 0-71.6-31.34-71.6-70s32.06-70 71.6-70c39.54 0 71.6 31.34 71.6 70z" stroke="#3a414a" fill="#cfe4ff"/><use xlink:href="#d" transform="matrix(1,0,0,1,558.4090909090909,760.5587160281254) translate(15.827160493827158 70.59027777777777)"/><path d="M560 621.56a6 6 0 0 1 6-6h298a6 6 0 0 1 6 6v48a6 6 0 0 1-6 6H566a6 6 0 0 1-6-6z" stroke="#3a414a" fill="#edf5ff"/><use xlink:href="#e" transform="matrix(1,0,0,1,565,620.5587160281256) translate(120.40123456790124 30.52777777777778)"/><path d="M285 701.56a6 6 0 0 1 6-6h228a6 6 0 0 1 6 6v48a6 6 0 0 1-6 6H291a6 6 0 0 1-6-6z" stroke="#000" stroke-opacity="0" fill="#fff" fill-opacity="0"/><use xlink:href="#f" transform="matrix(1,0,0,1,290,700.5587160281254) translate(36.080246913580254 30.27777777777778)"/><use xlink:href="#g" transform="matrix(1,0,0,1,290,700.5587160281254) translate(123.61111111111111 30.27777777777778)"/><path d="M886.6 825.56c0 38.66-32.06 70-71.6 70-39.54 0-71.6-31.34-71.6-70s32.06-70 71.6-70c39.54 0 71.6 31.34 71.6 70z" stroke="#3a414a" fill="#cfe4ff"/><use xlink:href="#h" transform="matrix(1,0,0,1,748.4090909090908,760.5587160281254) translate(28.111111111111114 70.59027777777777)"/><path d="M1029.77 825.56c0 38.66-32.05 70-71.6 70-39.53 0-71.58-31.34-71.58-70s32.04-70 71.58-70 71.6 31.34 71.6 70z" stroke="#3a414a" fill="#cfe4ff"/><use xlink:href="#i" transform="matrix(1,0,0,1,891.5909090909089,760.5587160281254) translate(21.351851851851848 70.59027777777777)"/><path d="M1172.95 825.56c0 38.66-32.05 70-71.6 70-39.52 0-71.58-31.34-71.58-70s32.06-70 71.6-70c39.53 0 71.58 31.34 71.58 70z" stroke="#3a414a" fill="#cfe4ff"/><use xlink:href="#j" transform="matrix(1,0,0,1,1034.7727272727275,760.5587160281254) translate(23.203703703703695 70.59027777777777)"/><path d="M1316.14 825.56c0 38.66-32.06 70-71.6 70-39.53 0-71.6-31.34-71.6-70s32.07-70 71.6-70c39.54 0 71.6 31.34 71.6 70z" stroke="#3a414a" fill="#cfe4ff"/><use xlink:href="#k" transform="matrix(1,0,0,1,1177.9545454545455,760.5587160281254) translate(26.320987654320987 70.59027777777777)"/><path d="M910 701.56a6 6 0 0 1 6-6h238a6 6 0 0 1 6 6v51.33a6 6 0 0 1-6 6H916a6 6 0 0 1-6-6z" stroke="#000" stroke-opacity="0" fill="#fff" fill-opacity="0"/><use xlink:href="#l" transform="matrix(1,0,0,1,915,700.5587160281256) translate(26.851851851851862 31.27777777777778)"/><use xlink:href="#m" transform="matrix(1,0,0,1,915,700.5587160281256) translate(111.9753086419753 31.27777777777778)"/><use xlink:href="#n" transform="matrix(1,0,0,1,915,700.5587160281256) translate(165 31.27777777777778)"/><g fill="none"><path d="M720.5 675.8a.25.25 0 0 1 .25.26v259a.25.25 0 0 1-.25.25.25.25 0 0 1-.25-.24v-259a.25.25 0 0 1 .25-.25z"/><path d="M720.75 682.1v4.04m0 4.05v4.03m0 4.05v4.05m0 4.05v4.04m0 4.05v4.05m0 4.05v4.04m0 4.06v4.05m0 4.06v4.04m0 4.05v4.05m0 4.05V759m0 4.04v4.05m0 4.04v4.04m0 4.05v4.05m0 4.05v4.04m0 4.05v4.05m0 4.05v4.04m0 4.05v4.06m0 4.05v4.05m0 4.05v4.05m0 4.05v4.04m0 4.05v4.04m0 4.05v4.03m0 4.05v4.05m0 4.05v4.04m0 4.05v4.05m0 4.05v4.04m0 4.06v4.05m0 4.06v4.04m0 4.05v4.05m0 4.05v4.04m0 4.04V929m0 4.03v2.11l-.03.03-.02.04-.02.04-.03.02-.04.02-.02.02h-.16l-.03-.02-.05-.02-.03-.02-.02-.03-.02-.03-.02-.03v-2.07m0-4.04v-4.05m0-4.05v-4.05m0-4.04v-4.05m0-4.06v-4.05m0-4.05v-4.05m0-4.05v-4.05m0-4.04v-4.05m0-4.04v-4.05m0-4.03v-4.05m0-4.05v-4.05m0-4.04v-4.05m0-4.05v-4.05m0-4.04v-4.06m0-4.05v-4.06m0-4.04v-4.05m0-4.05v-4.05m0-4.04v-4.04m0-4.05v-4.04m0-4.04v-4.05m0-4.05v-4.05m0-4.04v-4.05m0-4.05v-4.05m0-4.04v-4.05m0-4.06v-4.05m0-4.05v-4.05m0-4.05v-4.05m0-4.04v-4.05m0-4.04v-4.05m0-4.03v-4.05m0-4.05v-4.05m0-4.04v-4.05m0-4.05v-2.1l.02-.03.02-.04.02-.02.03-.02.04-.02.02-.02h.16l.03.02.05.02.03.02.02.03.02.05.02.03v2.06" stroke="#3a414a" stroke-width=".5"/></g><path d="M540 386a6 6 0 0 1 6-6h338a6 6 0 0 1 6 6v148a6 6 0 0 1-6 6H546a6 6 0 0 1-6-6z" stroke="#3a414a" fill="#ffd6f5"/><use xlink:href="#o" transform="matrix(1,0,0,1,545,385) translate(61.5555555555556 80.00694444444443)"/><use xlink:href="#p" transform="matrix(1,0,0,1,545,385) translate(197.7530864197531 80.00694444444443)"/><path d="M401.63 1025.46v-35.38a.08.08 0 0 0-.08-.08.08.08 0 0 1-.08-.08v-35.38" stroke="#3a414a" stroke-width="2" fill="none"/><path d="M401.63 1040.72l-4.64-14.26h9.26zM401.47 939.28l4.64 14.26h-9.26z" stroke="#3a414a" stroke-width="2" fill="#3a414a"/><path d="M105 1049.96a6 6 0 0 1 6-6h588a6 6 0 0 1 6 6v288a6 6 0 0 1-6 6H111a6 6 0 0 1-6-6z" stroke="#3a414a" fill="#edf5ff"/><path d="M1041.63 1025.46v-62.52" stroke="#3a414a" stroke-width="2" fill="none"/><path d="M1041.63 1040.72l-4.64-14.26h9.26zM1041.63 947.68l4.63 14.26H1037z" stroke="#3a414a" stroke-width="2" fill="#3a414a"/><path d="M740 1049.96a6 6 0 0 1 6-6h588a6 6 0 0 1 6 6v288a6 6 0 0 1-6 6H746a6 6 0 0 1-6-6z" stroke="#3a414a" fill="#edf5ff"/><path d="M919.56 1049.96a6 6 0 0 1 6-6h238a6 6 0 0 1 6 6v51.33a6 6 0 0 1-6 6h-238a6 6 0 0 1-6-6z" stroke="#000" stroke-opacity="0" fill="#fff" fill-opacity="0"/><use xlink:href="#l" transform="matrix(1,0,0,1,924.5565964598766,1048.959064863607) translate(38.580246913580254 31.27777777777778)"/><use xlink:href="#q" transform="matrix(1,0,0,1,924.5565964598766,1048.959064863607) translate(123.7037037037037 31.27777777777778)"/><path d="M275 1049.96a6 6 0 0 1 6-6h238a6 6 0 0 1 6 6v51.33a6 6 0 0 1-6 6H281a6 6 0 0 1-6-6z" stroke="#000" stroke-opacity="0" fill="#fff" fill-opacity="0"/><use xlink:href="#r" transform="matrix(1,0,0,1,280,1048.959064863607) translate(27.46913580246914 31.27777777777778)"/><use xlink:href="#s" transform="matrix(1,0,0,1,280,1048.959064863607) translate(115.06172839506173 31.27777777777778)"/><use xlink:href="#t" transform="matrix(1,0,0,1,280,1048.959064863607) translate(158.27160493827162 31.27777777777778)"/><path d="M720 596.6v-37.64" stroke="#3a414a" stroke-width="2" fill="none"/><path d="M720 611.86l-4.64-14.27h9.28zM720 543.7l4.64 14.26h-9.28z" stroke="#3a414a" stroke-width="2" fill="#3a414a"/><path d="M605 205.57a6 6 0 0 1 6-6h208a6 6 0 0 1 6 6v78a6 6 0 0 1-6 6H611a6 6 0 0 1-6-6z" stroke="#3a414a" fill="#edf5ff"/><use xlink:href="#u" transform="matrix(1,0,0,1,617,211.5726174500094) translate(69.01851851851852 38.40277777777778)"/><path d="M999.1 206a6 6 0 0 1 6-6h208a6 6 0 0 1 6 6v78a6 6 0 0 1-6 6h-208a6 6 0 0 1-6-6z" stroke="#3a414a" fill="#edf5ff"/><use xlink:href="#v" transform="matrix(1,0,0,1,1011.1131929197531,212) translate(71.51851851851852 38.40277777777778)"/><path d="M716.04 361.03v-52.5" stroke="#3a414a" stroke-width="2" fill="none"/><path d="M716.04 376.3l-4.64-14.27h9.27zM716.04 293.27l4.63 14.26h-9.27z" stroke="#3a414a" stroke-width="2" fill="#3a414a"/><path d="M553.4 526a6 6 0 0 1 6-6h128a6 6 0 0 1 6 6v28a6 6 0 0 1-6 6h-128a6 6 0 0 1-6-6z" stroke="#3a414a" fill="#fff0fb"/><use xlink:href="#w" transform="matrix(1,0,0,1,558.4090909090908,525) translate(24.47222222222223 19.75)"/><path d="M740 526a6 6 0 0 1 6-6h128a6 6 0 0 1 6 6v28a6 6 0 0 1-6 6H746a6 6 0 0 1-6-6z" stroke="#3a414a" fill="#fff0fb"/><use xlink:href="#x" transform="matrix(1,0,0,1,745,525) translate(-1.7222222222222143 19)"/><path d="M555 366a6 6 0 0 1 6-6h128a6 6 0 0 1 6 6v28a6 6 0 0 1-6 6H561a6 6 0 0 1-6-6z" stroke="#3a414a" fill="#fff0fb"/><use xlink:href="#y" transform="matrix(1,0,0,1,560,365) translate(13.388888888888893 19.75)"/><path d="M740 366a6 6 0 0 1 6-6h128a6 6 0 0 1 6 6v28a6 6 0 0 1-6 6H746a6 6 0 0 1-6-6z" stroke="#3a414a" fill="#fff0fb"/><use xlink:href="#z" transform="matrix(1,0,0,1,745,365) translate(29.000000000000007 19.75)"/><path d="M1109.3 656.57v-173.7a.1.1 0 0 0-.1-.1.1.1 0 0 1-.1-.1v-173.7" stroke="#3a414a" stroke-width="2" fill="none"/><path d="M1109.3 671.84l-4.63-14.27h9.27zM1109.1 293.7l4.65 14.26h-9.27z" stroke="#3a414a" stroke-width="2" fill="#3a414a"/><path d="M99.07 90a6 6 0 0 1 6-6h1228a6 6 0 0 1 6 6v24a6 6 0 0 1-6 6h-1228a6 6 0 0 1-6-6z" stroke="#3a414a" fill="#edf5ff"/><use xlink:href="#A" transform="matrix(1,0,0,1,104.07007292855883,88.99026451141958) translate(500.30864197530866 19.40277777777778)"/><use xlink:href="#B" transform="matrix(1,0,0,1,104.07007292855883,88.99026451141958) translate(587.7777777777778 19.40277777777778)"/><use xlink:href="#C" transform="matrix(1,0,0,1,104.07007292855883,88.99026451141958) translate(600.1234567901234 19.40277777777778)"/><use xlink:href="#D" transform="matrix(1,0,0,1,104.07007292855883,88.99026451141958) translate(642.0987654320988 19.40277777777778)"/><path d="M1109.56 181.03v-42.1" stroke="#3a414a" stroke-width="2" fill="none"/><path d="M1109.56 196.3l-4.64-14.27h9.27zM1109.56 123.66l4.63 14.27h-9.28z" stroke="#3a414a" stroke-width="2" fill="#3a414a"/><path d="M430-74a6 6 0 0 1 6-6h548a6 6 0 0 1 6 6V4a6 6 0 0 1-6 6H436a6 6 0 0 1-6-6z" stroke="#3a414a" stroke-width="2" fill="#edf5ff"/><use xlink:href="#l" transform="matrix(1,0,0,1,435,-75) translate(172.62345679012347 45.27777777777778)"/><use xlink:href="#E" transform="matrix(1,0,0,1,435,-75) translate(257.7469135802469 45.27777777777778)"/><use xlink:href="#F" transform="matrix(1,0,0,1,435,-75) translate(326.75925925925924 45.27777777777778)"/><path d="M715 180.6v-41.65" stroke="#3a414a" stroke-width="2" fill="none"/><path d="M715 195.87l-4.64-14.26h9.28zM715 123.7l4.64 14.25h-9.28z" stroke="#3a414a" stroke-width="2" fill="#3a414a"/><path d="M908.97 460h134.95a6 6 0 0 0 6-6V308.98" stroke="#3a414a" stroke-width="2" fill="none"/><path d="M893.7 460l14.27-4.64v9.28zM1049.92 293.7l4.63 14.28h-9.27z" stroke="#3a414a" stroke-width="2" fill="#3a414a"/><path d="M1050-74a6 6 0 0 1 6-6h248a6 6 0 0 1 6 6V4a6 6 0 0 1-6 6h-248a6 6 0 0 1-6-6z" stroke="#3a414a" stroke-width="2" fill="#edf5ff"/><use xlink:href="#l" transform="matrix(1,0,0,1,1055,-75) translate(65.18518518518519 45.27777777777778)"/><use xlink:href="#G" transform="matrix(1,0,0,1,1055,-75) translate(150.30864197530863 45.27777777777778)"/><path d="M710 65.03V29.46" stroke="#3a414a" stroke-width="2" fill="none"/><path d="M710 80.3l-4.64-14.27h9.28zM710 14.2l4.64 14.26h-9.28z" stroke="#3a414a" stroke-width="2" fill="#3a414a"/><path d="M1190.12 65V29.46" stroke="#3a414a" stroke-width="2" fill="none"/><path d="M1190.12 80.26L1185.48 66h9.28zM1190.12 14.2l4.64 14.26h-9.28z" stroke="#3a414a" stroke-width="2" fill="#3a414a"/><path d="M130-73.56a6 6 0 0 1 6-6h248a6 6 0 0 1 6 6v78a6 6 0 0 1-6 6H136a6 6 0 0 1-6-6z" stroke="#3a414a" stroke-width="2" fill="#edf5ff"/><use xlink:href="#f" transform="matrix(1,0,0,1,135,-74.56470929280742) translate(55.925925925925924 45.27777777777778)"/><use xlink:href="#F" transform="matrix(1,0,0,1,135,-74.56470929280742) translate(143.45679012345678 45.27777777777778)"/><path d="M260 29.9v35.15" stroke="#3a414a" stroke-width="2" fill="none"/><path d="M260 14.63l4.64 14.26h-9.28zM260 80.32l-4.64-14.27h9.28z" stroke="#3a414a" stroke-width="2" fill="#3a414a"/><path d="M210.9 206a6 6 0 0 1 6-6h208a6 6 0 0 1 6 6v78a6 6 0 0 1-6 6h-208a6 6 0 0 1-6-6z" stroke="#3a414a" fill="#edf5ff"/><use xlink:href="#H" transform="matrix(1,0,0,1,222.88680708024685,212.00000000000003) translate(58.586419753086425 38.40277777777778)"/><path d="M320.9 181.03V139" stroke="#3a414a" stroke-width="2" fill="none"/><path d="M320.9 196.3l-4.65-14.27h9.27zM320.9 123.7L325.5 138h-9.27z" stroke="#3a414a" stroke-width="2" fill="#3a414a"/><path d="M320.9 308.96V656.6" stroke="#3a414a" stroke-width="2" fill="none"/><path d="M320.9 293.7l4.62 14.26h-9.27zM320.9 671.88l-4.65-14.26h9.27z" stroke="#3a414a" stroke-width="2" fill="#3a414a"/><path d="M148.4 1192.48l12.72 6.9 4.44-.53 1.2-16.44-1.8-3h-3.78l-1.86 10.92-7.2-3.9c-3.78-.16-4.56.47-5.04 1.26-1.02 1.7-.42 3.8 1.32 4.8m30.48 6.9l12.72-6.9c1.8-1 2.4-3.1 1.32-4.8l-12.18 2.58v-7.85l-7.44 13.6c.96 2.9 1.8 3.5 2.76 3.7m-8.46 7.54c0-.22.12-.43.3-.58l1.44-1.43.72-.2 2.1 1.63.3.63-1.74 2-.72.25c-.24 0-.48-.1-.66-.26l-1.44-1.38zm-4.5-.58v1.2l5.4 5.6 2.16.3 5.94-5.05.36-2.04-5.4-5.54-2.16-.37-5.88 5.1m-21.66-2.46l7.2 3.9-7.2 3.94-1.38 4.8c3.24 1.84 4.26 1.74 5.1 1.26l12.66-6.9c1.2-.7 1.86-1.85 1.86-3.1l-14.52-9.97c-3.78-.16-4.62.47-5.1 1.26-1.02 1.68-.42 3.8 1.38 4.8m38.04 3.94l14.52 9.96c.84.48 1.86.58 2.82.37.96-.26 1.8-.84 2.22-1.63l-8.52-8.75 7.2-3.9c1.8-1 2.4-3.12 1.38-4.8-3.24-1.9-4.26-1.75-5.1-1.27l-12.66 6.9m-18.12 10.6l-15.24 7.32c-1.74 1-2.34 3.1-1.32 4.8.48.8 1.26 1.37 2.22 1.63l10.02-4.27v7.8l7.44-13.85m24.84 3.9l-12.72-6.9-2.82-.37-2.22 1.63-.48 15.6 7.38-7.73 7.14 3.84c3.78.12 4.62-.46 5.04-1.25 1.08-1.7.48-3.8-1.32-4.8" stroke="#000" stroke-opacity="0" fill="#29b5e8"/><path d="M170.68 1119.08l-6.6 2.7-5.82 3.12-1.56.54-1.32 1.5-1.38 1.38c-.42.42-1.02 1.14-1.32 1.62-.42.72-.78 1.44-.96 2.04-.24 1.02-.12 2.1.42 3.06.66 1.26 2.04 2.52 3.6 3.36.78.42 2.16 1.02 3.18 1.32 1.68.54 4.98 1.08 6.78 1.2h.9c.06-.06.3-.72.66-1.5 1.08-2.82 1.92-5.46 2.34-7.74.24-1.32.48-3.18.6-5.28 0-.6.06-2.64 0-3.3-.06-1.14-.12-2.04-.24-2.94v-.24s.06-.06.9-.36l-.18-.48zm-1.5 1.14c.06 0 .18 1.86.24 3.06v.42c-.06 0-.84-.54-1.44-1.02-.48-.36-1.44-1.14-1.56-1.32-.06-.06-.06-.06.36-.24.66-.24 2.34-.9 2.4-.9zm-3.36 1.38l.42.24c1.02.84 2.4 1.8 3 2.1.18.12.24.06-.18.42-.96.78-2.04 1.56-3.48 2.28-.24.18-.42.24-.42.24s0-.12.06-.3c.3-1.56.48-3.12.54-4.38 0-.6 0-.6.06-.6-.06 0-.06 0 0 0zm-.72.3c0 .06 0 1.44-.06 1.8-.06.9-.18 1.74-.42 2.7l-.12.42c-.06.06-.72-.78-.96-1.08-.36-.6-.66-1.14-.9-1.68-.12-.3-.3-.84-.3-.84l2.76-1.32zm-3.3 1.62h.06s0 .12.06.18c.12.54.48 1.38.84 1.86.3.54.78 1.14 1.14 1.56l.24.24c.06.06.06.06-.78.42-.96.42-1.98.9-3.18 1.38-.84.36-.84.3-.72.06.6-1.14 1.5-3.36 1.98-4.92.06-.3.18-.54.18-.6 0-.12.06-.12.12-.18h.06zm-.96.48s-.24.66-.54 1.32c-.48 1.14-1.02 2.28-1.68 3.72-.12.24-.24.42-.3.48l-.06-.18c-.18-.42-.36-.96-.42-1.44s-.06-1.32.06-1.86c.06-.36.06-.36.18-.42.66-.42 2.7-1.62 2.76-1.62zm8.64.42v.3c0 1.38-.12 3.24-.3 4.62-.06.24-.06.48-.06.48l-.36-.12c-.72-.3-1.56-.72-2.28-1.2l-1.2-.9c.06 0 .24-.18.48-.3 1.02-.66 1.92-1.32 2.76-1.98.3-.3.78-.66.84-.78l.12-.12zm-12.42 1.86s0 .06-.06.3c0 .12 0 .42-.06.66 0 .9.12 1.56.48 2.46.06.24.18.48.18.48-.06.06-3.36 1.26-4.44 1.56-.3.12-.54.24-.6.24v-.12c.12-.9.66-2.1 1.44-3.12.54-.66.96-1.02 1.68-1.56.48-.36 1.26-.9 1.32-.9h.06zm7.8 1.74s.12.06.24.18c1.08.78 2.58 1.44 3.84 1.86h.12l-.12.12c-.72.48-2.88 1.56-5.1 2.64-.36.12-.66.3-.72.3-.06.06-.12.06-.12.06s.06-.24.18-.48c.66-1.5 1.26-3.24 1.62-4.44 0-.12.06-.24.06-.24zm-.78.3s-.06.12-.12.3c-.42 1.32-1.02 2.7-1.74 4.32-.18.42-.36.72-.36.72s-.12-.12-.3-.24c-1.08-.78-2.04-1.8-2.64-2.76l-.06-.12.42-.18c1.62-.54 3.06-1.14 4.44-1.86.18-.12.3-.18.36-.18zm4.92 2.16c0 .12-.24 1.38-.48 2.34-.18.78-.3 1.38-.6 2.46-.12.48-.18.84-.24.84h-.06c-1.44-.36-2.82-.84-4.02-1.44-.36-.18-.9-.42-.9-.48 0 0 .3-.18.66-.36 2.28-1.26 4.62-2.64 5.46-3.24.12-.12.18-.12.18-.12zm-11.4.48l-1.56 2.7c-.3.54-.66 1.14-.78 1.38s-.36.6-.48.84l-.18.42-.24-.24-.96-1.2c-.42-.66-.72-1.38-.78-1.98-.06-.3-.06-.48-.06-.48.12 0 1.44-.42 2.7-.78.66-.18 1.5-.42 1.8-.54l.54-.12zm.6.3l.18.24c.72.96 1.44 1.74 2.34 2.34.18.12.3.24.3.24-.06 0-3.12 1.38-4.56 1.98-.78.36-1.44.6-1.44.6s-.06 0-.12-.06l-.06-.06.12-.3c.48-.84 1.08-1.74 2.4-3.66l.84-1.32zm4.02 3.54s.24.06.48.18c.66.36 1.2.54 1.86.72.84.3 2.1.54 2.82.6.12.06.18.06.12.06 0 0-.72.36-1.26.54-.9.36-3.54 1.32-5.64 2.04-.42.18-.78.3-.78.3-.06 0-.24-.06-.24-.06 0-.06.12-.24.3-.42.72-1.08 1.44-2.28 2.04-3.42.18-.3.3-.54.3-.54zm-.9 0l-.96 1.92c-.24.54-.54 1.14-.66 1.32-.12.18-.24.54-.36.72l-.12.3-.06-.06c-.18-.06-1.44-.6-1.8-.78-.42-.18-.84-.42-1.2-.66-.36-.24-.9-.66-.84-.66l1.56-.54c2.16-.72 3.36-1.14 4.2-1.44l.24-.12zm6.24 1.8c.06.12-.78 2.88-1.08 3.78-.06.18-.06.24-.12.24s-1.26-.24-1.98-.36c-1.26-.24-3.36-.66-3.84-.84h-.12l.72-.24c1.62-.42 2.4-.66 3.18-.96.96-.42 1.92-.84 2.94-1.44.12-.06.3-.12.3-.18z" stroke="#000" stroke-opacity="0" stroke-width=".19" fill="url(#I)"/><path d="M163.84 1100c-.12 0-1.86.78-3 1.38-1.56.78-2.76 1.5-3.54 2.16-.24.24-.6.66-.66.84v.18l.66.78 1.56.66 3.84.84 4.32.9.06-.48h-.06l-.54-.12-.12-.24c-.6-1.26-1.26-2.88-1.62-3.96-.3-.84-.6-1.8-.72-2.46-.12-.42-.12-.48-.18-.48zm-.06.3s0 .18.06.42c.06.84.24 1.68.48 2.58.18.66.18.66-.06.6-.48-.18-2.76-.72-4.44-.96-.3-.06-.48-.12-.48-.12-.06 0 1.2-.78 1.74-1.08.66-.42 2.52-1.38 2.7-1.44zm-4.86 2.82l.24.06c1.02.42 3.72 1.08 5.16 1.2.18.06.3.06.3.06.06 0-.12.12-.3.18-.72.48-1.5 1.02-2.04 1.44-.12.12-.3.18-.3.18h-.24l-.18-.06-.54-.6c-.84-1.08-1.56-1.86-1.8-2.22l-.3-.24zm-.18.18l.72 1.08c.36.6.78 1.2.84 1.32.12.12.18.24.18.24-.06 0-1.02-.24-1.56-.36l-1.14-.36-.24-.12v-.12c0-.36.42-1.02 1.14-1.62l.06-.06zm6 1.5s.06 0 .12.18c.18.48.66 1.74.84 1.98 0 .06.06.06-.6-.06l-2.28-.48s.06-.06.12-.06c.54-.36 1.08-.84 1.56-1.32.12-.12.18-.24.24-.24 0 0 0-.06 0 0z" stroke="#000" stroke-opacity="0" stroke-width=".19" fill="url(#J)"/><path d="M156.7 1104.26s-.12.24 0 .54c.06.18.24.42.42.72 0 0 2.28 2.64 2.52 3.06 1.26 1.74 1.8 3.48 1.8 5.88.06 1.5-.18 2.88-.78 4.44-1.02 2.82-3.24 5.94-6.6 9.36l.48-.18c.3-.3.78-.66 1.8-1.32 2.34-1.62 4.98-3.06 8.22-4.56 4.74-2.22 12.42-4.74 16.8-5.58l.48-.12-.06-.12c-.42-.78-.72-1.26-1.02-1.74-.96-1.5-2.16-2.7-3.6-3.66-1.92-1.38-4.5-2.4-7.68-3.18-.6-.18-1.92-.48-3-.66-2.34-.42-3.78-.72-5.46-1.08-.54-.12-1.44-.3-2.04-.48-.3-.06-.84-.24-1.32-.42-.36-.18-.9-.36-.96-.9zm1.26 1.56s.12 0 .18.06c.24.12.48.18.72.3l1.26.36c0 .06.54 2.04.72 2.82.06.3.12.54.06.54 0 0-.06-.06-.12-.24-.54-1.26-1.5-2.58-2.58-3.6l-.24-.24zm2.46.84c.06 0 .18 0 .3.06.84.24 2.34.6 3.36.78.12.06.3.06.3.12 0 0-.06.06-.18.06-.12.12-.78.6-1.02.78-.54.48-1.08.96-1.44 1.44-.12.18-.24.3-.24.3s-.06-.12-.06-.24c-.18-.84-.54-2.1-.9-3-.06-.18-.12-.3-.12-.3zm4.38 1.02l.18.66c.18.9.24 1.92.24 2.88-.06.24-.06.48-.06.54v.06l-.3-.12c-.48-.24-1.38-.54-2.1-.78l-.78-.3c0-.06.6-.78.9-1.08.48-.54 1.86-1.86 1.92-1.86zm.3.06c.06 0 2.1.42 3 .66.72.18 1.74.42 1.8.42 0 .06-.06.12-.42.3-1.32.72-2.28 1.38-3.3 2.22-.24.18-.42.36-.42.36-.06 0-.06-.18-.06-.36 0-1.2-.18-2.4-.54-3.42 0-.06-.06-.18-.06-.18zm5.34 1.32s-.06.48-.12.78c-.18.96-.66 2.34-1.26 3.6-.12.24-.18.42-.18.42s-.18-.06-.3-.18c-.6-.42-1.26-.84-1.98-1.2-.18-.12-.36-.18-.36-.18-.06-.06 1.56-1.38 2.4-2.04.66-.48 1.8-1.26 1.8-1.2zm.36.06c.06 0 .96.3 1.44.48 1.2.42 2.52 1.02 3.42 1.56l.36.18-.24.06c-2.16.66-4.02 1.32-5.76 2.22-.18.06-.3.18-.3.18l.12-.36c.54-1.38.84-2.88.96-4.14v-.18zm-9.06 2.58s.72.18 1.08.3l1.8.72c0 .06-.12.18-.3.36-.66.66-1.26 1.38-2.04 2.28-.24.24-.42.48-.42.48v-.06c.12-1.08.06-2.4-.06-3.78-.06-.12-.06-.3-.06-.3zm14.64 0s-.3.66-.54 1.02c-.3.54-.72 1.26-1.74 2.82-.54.78-1.08 1.74-1.32 2.04-.18.3-.36.54-.36.54s-.06-.06-.12-.24c-.6-1.02-1.26-1.92-2.04-2.76-.18-.12-.3-.3-.36-.36l-.12-.12s.84-.48 1.5-.78c1.14-.6 2.7-1.26 3.84-1.68.6-.24 1.26-.48 1.26-.48zm.36.12c.06 0 .18.06.3.18 1.2.9 2.4 1.98 3.36 3.12.24.3.9 1.14.9 1.2h-.48c-2.1.24-4.8.78-7.44 1.56-.12.06-.3.06-.3.06l.42-.54c1.5-1.8 2.22-2.94 3.06-4.98.12-.3.18-.54.18-.6zm-11.16 1.44c.12 0 .78.36 1.26.72.42.24 1.08.72 1.14.72 0 0-.24.18-.54.36-.9.6-1.74 1.14-2.58 1.74-.24.18-.42.36-.42.36-.06 0-.06-.06.12-.36.42-1.02.78-2.22 1.02-3.42v-.12zm-.6.12c0 .06-.18.78-.3 1.2-.18.78-.54 1.8-.84 2.52-.12.18-.24.42-.3.6l-.12.24-.3-.36c-.3-.36-.6-.6-.9-.84-.12-.06-.24-.18-.24-.18 0-.06.84-1.02 1.5-1.68.48-.54 1.44-1.5 1.5-1.5zm3.96 2.04l.24.18c.54.48 1.2 1.08 1.74 1.62.3.3.84.9.96 1.02l.06.12-.42.12c-2.28.78-4.08 1.5-6.12 2.4-.24.12-.42.24-.48.24 0 0-.06 0 .48-.6 1.32-1.5 2.52-3.12 3.36-4.74l.18-.36zm-1.02.3c0 .06-.72 1.26-1.14 1.92-.48.78-1.32 2.16-1.92 3-.24.42-.48.72-.48.72s-.06-.12-.06-.24c0-.78-.12-1.56-.42-2.22-.12-.3-.12-.36-.06-.42s1.5-1.14 2.46-1.74c.6-.42 1.56-1.02 1.62-1.02zm-6.36 1.92s.12.12.24.18c.36.24.6.48.9.72 0 0-.12.18-.3.3-.48.42-1.2 1.08-1.62 1.5-.42.48-.48.48-.42.36.36-.6.48-.96.66-1.44.18-.36.36-.84.42-1.26l.12-.36zm1.68 1.68c.06 0 .06.06.18.3.3.48.54 1.2.6 1.8v.12l-.72.3c-1.2.6-2.34 1.2-3.12 1.62-.18.12-.6.36-.84.48l-.42.3.36-.36c1.5-1.32 2.76-2.82 3.78-4.26.06-.18.18-.3.18-.3zm-.78.24c.06 0-.54.78-.9 1.32-1.02 1.2-1.98 2.16-3.12 3.06-.18.12-.3.24-.3.24-.06.06 0 0 .54-.72.3-.42.54-.84.84-1.26.18-.3.24-.36.48-.6.78-.66 2.46-2.1 2.46-2.04z" stroke="#000" stroke-opacity="0" stroke-width=".19" fill="url(#K)"/><path d="M140.8 1145.18h-.3c-1.86.12-3.12 1.14-3.84 3.12-.66 1.8-.6 4.14 0 5.94.66 1.8 1.74 2.7 3.48 3.06.42.06.66.36 1.38 1.38l.9 1.32h1.62l-1.08-1.38c-.6-.72-1.08-1.38-1.08-1.44 0 0 .24-.18.54-.24.9-.36 1.62-1.26 2.16-2.58.42-1.08.48-1.38.54-2.76.18-3.96-1.5-6.42-4.32-6.42zm1.44 10.44c-.84.42-1.98.54-2.7.18-.78-.3-1.56-1.32-1.86-2.46-.42-1.2-.36-3.48.06-4.56.72-1.62 1.62-2.34 2.94-2.34 1.98 0 3.12 1.5 3.3 4.32.12 2.34-.54 4.08-1.74 4.86zm28.08-7.02c-.66 0-1.2.36-1.56 1.02l-.24.54v-1.38h-1.2v8.28h1.2v-2.64c0-2.46 0-2.7.3-3.42.36-.9 1.02-1.32 1.62-1.14l.42.18v-1.44h-.54zm-6.9-.06c-.24 0-.48 0-.72.06-1.62.54-2.52 2.4-2.46 4.32 0 1.62.3 2.4.9 3.3 1.32 1.26 2.46 1.38 4.02.66.3-.12.6-.3.6-.3v-1.26l-.6.36c-1.26.66-2.22.66-3-.18-.48-.6-.72-1.32-.78-2.16h4.74v-1.14c0-2.28-1.08-3.72-2.7-3.66zm-1.92 3.6s.12-1.38.78-1.98c.36-.24.72-.42 1.02-.42.36 0 .72.18 1.02.42.6.6.72 1.98.72 1.98h-3.54zm-28.5-1.5c-1.32-.96-1.86-1.62-1.8-2.46.18-2.22 2.46-1.92 3.72-1.08v-1.5s-.72-.42-1.68-.42c-1.56 0-2.52.6-3 1.86-.66 1.86-.06 3.24 2.1 4.8 1.2.84 1.74 1.62 1.74 2.46 0 1.68-1.62 2.28-3.36 1.2-.36-.18-.66-.36-.66-.36-.06.48-.06 1.62-.06 1.62s.54.3 1.32.48c1.98.48 3.78-.66 3.96-2.52.12-1.74-.36-2.64-2.28-4.08zm47.82-2.16c-.24 0-.48.06-.72.12-1.62.48-2.52 2.4-2.46 4.32 0 1.62.3 2.4.9 3.24 1.32 1.32 2.46 1.44 4.02.72.3-.12.6-.3.6-.3v-1.32l-.6.36c-1.26.66-2.22.66-3-.12-.48-.6-.66-1.32-.78-2.22h4.74v-1.08c0-2.28-1.08-3.72-2.7-3.72zm-1.92 3.66s.18-1.44.78-1.98c.36-.3.72-.42 1.08-.42.3 0 .66.12.96.42.6.54.72 1.98.72 1.98h-3.54zm-21.66-1.44c-1.32-.96-1.86-1.68-1.8-2.52.18-2.22 2.46-1.92 3.72-1.08v-1.5s-.72-.36-1.68-.42c-1.56 0-2.52.6-3 1.86-.66 1.86-.06 3.24 2.1 4.8 1.2.9 1.74 1.62 1.74 2.46 0 1.74-1.62 2.34-3.36 1.26l-.66-.42c-.06.48-.06 1.62-.06 1.62s.54.3 1.32.48c1.98.48 3.78-.66 3.96-2.52.12-1.68-.36-2.64-2.28-4.02zm30.54-2.16c-.72 0-1.26.36-1.56 1.02l-.3.54v-1.38h-1.2v8.34h1.2v-2.7c0-2.4 0-2.7.3-3.36.36-.9 1.02-1.38 1.68-1.14l.42.18v-1.5h-.54zm-39.96 2.1v-5.28h-1.2v11.7h5.04v-1.38h-3.84v-5.04zm27.54 1.62l-.96 3.18-.96-3.18-.96-3.54h-1.2c.78 2.82 1.62 5.64 2.52 8.34h1.14l1.32-4.14 1.32-4.2h-1.14s-.54 1.68-1.08 3.54zm-24.78-10.14c.18 0 .3-.06.48-.24.12-.12.18-.36.18-.6s-.06-.42-.18-.54c-.18-.18-.3-.24-.48-.24s-.36.06-.48.24c-.18.12-.24.36-.24.6s.12.42.24.54c.12.18.24.24.48.24zm-.42-1.32c.06-.18.24-.24.42-.24s.3.06.42.24c.12.12.18.3.18.48 0 .24-.06.42-.18.54-.12.18-.24.24-.42.24s-.3-.06-.42-.24c-.12-.12-.18-.3-.18-.54 0-.18.06-.36.18-.48zm.24.6h.12c.06 0 .06.06.12.18l.12.24h.12l-.12-.3c-.06-.12-.06-.18-.12-.18.06 0 .12-.06.12-.12.06 0 .06-.12.06-.18s0-.12-.06-.18-.12-.12-.24-.12h-.24v1.08h.12v-.42zm0-.54h.12c.06 0 .12.06.18.06v.12c0 .18-.06.24-.18.24h-.12v-.42zm-19.68.42v-.78c.06.18.06.3.12.42l1.14 3.18h.18l1.14-3.24c.06-.06.06-.18.12-.36-.06.3-.06.6-.06.78v2.82h.42v-4.14h-.48l-1.08 2.88c0 .12-.06.24-.18.48 0-.12-.06-.3-.12-.48l-1.02-2.94h-.54v4.2h.36v-2.82zm3.9 0h.36v2.58h-.36v-2.58zm.18-.96c.06 0 .12 0 .18-.06s.06-.12.06-.24c0-.06 0-.12-.06-.18s-.12-.12-.18-.12-.12.06-.18.12-.06.12-.06.18c0 .12 0 .18.06.24s.12.06.18.06zm2.58 3.6v-.42c-.18.18-.36.24-.6.24s-.42-.12-.6-.3c-.12-.18-.18-.48-.18-.84s.06-.6.24-.84c.12-.24.3-.3.54-.3.24 0 .42.06.6.18v-.48c-.18-.06-.36-.12-.54-.12-.42 0-.72.12-.9.42-.24.3-.36.72-.36 1.2 0 .42.12.78.3 1.08.24.24.48.42.84.42.24 0 .48-.12.66-.24zm.96-1.38c0-.3.06-.6.18-.78.12-.18.24-.24.42-.24.12 0 .18 0 .24.06v-.48c0-.06-.12-.06-.18-.06-.18 0-.3.06-.42.18-.06.12-.18.3-.24.48v-.6h-.36v3h.36v-1.56zm2.22 1.62c.36 0 .66-.18.84-.48.24-.24.36-.66.36-1.14 0-.48-.12-.84-.3-1.08-.24-.3-.48-.42-.84-.42s-.66.12-.9.36c-.24.3-.36.72-.36 1.2s.12.84.3 1.08c.24.3.54.48.9.48zm-.54-2.46c.12-.18.3-.24.54-.24.24 0 .48.06.6.24.12.24.18.48.18.9 0 .36-.06.66-.18.84-.12.18-.3.3-.6.3-.24 0-.42-.12-.54-.3-.18-.24-.24-.48-.24-.84s.06-.66.24-.9zm3.42 2.16c.12-.12.18-.36.18-.6 0-.18-.06-.36-.18-.54-.06-.12-.24-.18-.42-.3s-.3-.18-.36-.24c-.06-.12-.12-.18-.12-.3s.06-.24.12-.3c.12-.12.18-.12.3-.12.24 0 .42.06.54.18v-.48c-.12-.06-.3-.12-.48-.12-.24 0-.48.06-.6.24-.18.18-.24.36-.24.6s.06.42.12.54c.12.12.24.24.48.36.18.12.3.18.36.24.06.12.12.18.12.3 0 .3-.18.42-.48.42-.24 0-.42-.06-.6-.3v.54c.18.12.36.18.6.18s.48-.12.66-.3zm1.8-2.82c-.36 0-.66.12-.84.36-.24.3-.36.72-.36 1.2s.06.84.3 1.08c.18.3.48.48.84.48s.66-.18.9-.48c.18-.24.3-.66.3-1.14 0-.48-.12-.84-.3-1.08-.18-.3-.48-.42-.84-.42zm.78 1.56c0 .36-.12.66-.24.84-.12.18-.3.3-.54.3-.24 0-.48-.12-.6-.3-.12-.24-.24-.48-.24-.84 0-.42.12-.66.24-.9.18-.18.36-.3.6-.3s.42.12.54.3c.12.24.18.48.18.9h.06zm1.02 1.5h.36v-2.58h.6v-.42h-.6v-.42c0-.42.12-.66.42-.66.06 0 .18.06.24.06v-.42c-.06 0-.18-.06-.3-.06-.18 0-.36.12-.48.24-.18.24-.24.48-.24.78v.48h-.42v.42h.42v2.58zm1.56-.84c0 .6.18.9.6.9.18 0 .3-.06.42-.12v-.42c-.12.06-.18.12-.3.12s-.18-.06-.24-.12c-.06-.12-.12-.24-.12-.42v-1.68h.66v-.42h-.66v-.84c-.12.06-.24.06-.36.12v.72h-.42v.42h.42v1.74zm41.22 5.46c-.18-.18-.3-.24-.48-.24-.24 0-.36.06-.48.24-.18.18-.24.36-.24.6s.06.42.24.6c.12.12.24.24.48.24.18 0 .3-.12.48-.24.12-.18.18-.36.18-.6s-.06-.42-.18-.6zm-.06 1.14c-.12.12-.3.18-.48.18-.12 0-.3-.06-.42-.18-.06-.18-.12-.36-.12-.54 0-.24 0-.36.12-.54.12-.12.3-.18.42-.18.18 0 .36.06.48.18.06.18.12.3.12.54 0 .18 0 .36-.12.54zm-.36-.48c.06-.06.12-.06.12-.12.06-.06.06-.12.06-.18 0-.12 0-.18-.06-.24s-.12-.06-.24-.06h-.24v1.08h.12v-.48h.06c.06 0 .12.06.18.18l.06.3h.18l-.12-.3c-.06-.12-.06-.18-.12-.18zm-.12-.12h-.12v-.36h.12c.06 0 .12 0 .18.06v.12c0 .12-.06.18-.18.18zm-21.42-8.28h.12v-1.08h.3v-.12h-.66v.12h.24v1.08zm.66-.78v-.24c0 .06.06.06.06.12l.3.9h.06l.36-.9v-.12 1.02h.12v-1.2h-.12l-.3.84s-.06.06-.06.12c0 0-.06-.06-.06-.12l-.3-.84h-.18v1.2h.12v-.78z" stroke="#000" stroke-opacity="0" stroke-width=".34" fill="#231f1f"/><path d="M282.4 1213.2l-10.3.07c.43-1.08.67-2.22.67-3.42l3.32-6 6.3 2.7 8.5-7.86-8.5-7.8c-8.43 8.57-8.3 9.3-8.07 10l-4 2.6c-1.64-1.87-4.04-3.25-6.76-3.6v-4.45l6.72-7.68-8.5-7.8c-8.43 11.52-5.63 14.64-1.87 15.42v4.5c-5.12.83-9.04 4.97-9.04 9.95 0 4.98 3.95 9.12 9.1 9.96v4.7c-3.8.77-6.63 3.9-6.63 7.67l8.44 7.8c8.5-11.58 5.65-14.7 1.85-15.48v-4.7c2.68-.4 5-1.73 6.64-3.6l4 2.65-.33 2.16 8.44 7.87 8.5-7.86zm0-18.3c2.3 0 4.13 1.7 4.13 3.8 0 2.1-1.84 3.77-4.12 3.77-2.23 0-4.07-1.68-4.07-3.78 0-2.1 1.84-3.8 4.08-3.8zm-24.67-7.13c0-2.04 1.84-3.78 4.08-3.78 2.3 0 4.13 1.73 4.13 3.77 0 2.1-1.84 3.84-4.12 3.84-2.23 0-4.07-1.73-4.07-3.83zm8.2 44.4c0 2.1-1.84 3.78-4.12 3.78-2.23 0-4.07-1.68-4.07-3.78 0-2.1 1.84-3.78 4.08-3.78 2.3 0 4.13 1.67 4.13 3.77zm-4.12-17.04c-3.15 0-5.7-2.4-5.7-5.28 0-2.94 2.55-5.28 5.7-5.28 3.17 0 5.73 2.34 5.73 5.28 0 2.88-2.56 5.28-5.72 5.28zm20.6 9.66c-2.23 0-4.07-1.7-4.07-3.8 0-2.1 1.84-3.77 4.08-3.77 2.3 0 4.13 1.68 4.13 3.78 0 2.1-1.84 3.8-4.12 3.8z" stroke="#000" stroke-opacity="0" stroke-width="2"/><path d="M416.6 1157.74c-2.72-.05-4.83.26-6.64 1.05-.5.2-1.3.2-1.4.9.3.3.3.78.55 1.15.4.74 1.16 1.74 1.8 2.26l2.17 1.65c1.36.9 2.82 1.42 4.12 2.26.75.54 1.5 1.23 2.25 1.75.4.32.6.8 1.1.95v-.1c-.24-.32-.3-.8-.55-1.16l-1-1.06c-1-1.42-2.26-2.68-3.57-3.7-1.1-.83-3.46-1.88-3.9-3.25l-.1-.06c.74-.1 1.64-.37 2.35-.63 1.15-.32 2.26-.2 3.4-.58l1.67-.47v-.38c-.6-.63-1.06-1.53-1.7-2.1-1.77-1.64-3.68-3.23-5.63-4.54-1.06-.7-2.47-1.22-3.57-1.8-.4-.2-1.1-.36-1.36-.68-.6-.84-.96-1.9-1.36-2.85l-2.82-6.32c-.6-1.42-1-2.85-1.75-4.17-3.52-6.2-7.34-9.96-13.2-13.65-1.27-.78-2.78-1.1-4.38-1.52l-2.57-.15c-.56-.2-1.1-.95-1.56-1.27-1.96-1.32-6.98-4.16-8.44-.42-.9 2.37 1.4 4.74 2.16 5.96.6.84 1.35 1.8 1.75 2.74.2.58.3 1.26.55 1.9.5 1.63 1.06 3.42 1.76 4.9.4.8.8 1.58 1.25 2.26.32.42.77.58.87 1.27-.45.74-.5 1.8-.8 2.74-1.2 4.12-.76 9.23 1 12.3.55.9 1.86 2.9 3.62 2.1 1.5-.64 1.14-2.74 1.6-4.54.1-.47.04-.73.24-1.05v.12l1.4 3c1.07 1.8 2.92 3.7 4.43 4.9.85.7 1.5 1.8 2.5 2.22v-.1h-.04c-.2-.33-.55-.48-.8-.75-.6-.7-1.3-1.48-1.76-2.22-1.46-2-2.7-4.27-3.87-6.64-.5-1.1-1-2.37-1.45-3.48-.2-.48-.2-1.1-.56-1.32-.5.8-1.26 1.48-1.6 2.48-.67 1.58-.77 3.48-.97 5.53-.15 0-.1 0-.15.06-1.1-.26-1.46-1.47-1.9-2.52-1-2.6-1.16-6.75-.3-9.76.24-.73 1.3-3.16.84-3.9-.2-.68-.85-1.1-1.25-1.63-.45-.7-.9-1.6-1.2-2.33-.86-2.05-1.26-4.32-2.12-6.38-.45-.96-1.15-1.96-1.75-2.8-.6-1-1.36-1.7-1.86-2.85-.15-.42-.4-1.05-.15-1.52.1-.27.2-.37.5-.48.44-.37 1.7.1 2.15.37 1.25.53 2.3 1.05 3.36 1.8.52.36 1.02 1.05 1.62 1.26h.7c1.1.26 2.37.05 3.37.42 1.8.58 3.46 1.53 4.9 2.48 4.48 3.05 8.2 7.37 10.66 12.5.4.83.6 1.62.95 2.46.77 1.8 1.62 3.64 2.33 5.38.75 1.74 1.4 3.48 2.46 4.9.5.8 2.55 1.16 3.45 1.58.7.32 1.76.64 2.36 1 1.17.8 2.32 1.64 3.43 2.48.55.48 2.26 1.37 2.36 2.1zM381.72 1126l-1.35.32h.05c.25.58.75.95 1.1 1.48l.75 1.74.1-.05c.46-.38.7-.96.7-1.86-.2-.26-.24-.52-.4-.8-.2-.3-.65-.52-.95-.78z" stroke="#000" stroke-opacity="0" stroke-width=".97" fill="#00678c"/><path d="M622.44 1147.02c.44-3 .33-3.4 2.75-2.94l.6.05c1.93.1 4.35-.26 5.84-.87 3.14-1.3 4.96-3.5 1.88-2.9-7 1.3-7.5-.86-7.5-.86 7.4-9.9 10.53-22.52 7.83-25.6-7.28-8.4-19.9-4.44-20.12-4.34l-.06.05c-1.43-.24-2.92-.4-4.68-.45-3.2-.05-5.63.77-7.45 2 0 0-22.54-8.34-21.5 10.52.23 4.02 6.4 30.45 13.78 22.46 2.7-2.93 5.3-5.4 5.3-5.4 1.26.77 2.8 1.18 4.4 1.02l.17-.05c-1.88 3.04-1.32 3.35-5.07 4.07-3.86.72-1.6 1.96-.1 2.32 1.75.35 5.9.97 8.64-2.6l-.1.43c.76.5.7 3.86.82 6.23.1 2.37.26 4.6.8 5.87.5 1.3 1.17 4.7 6.13 3.7 4.2-.76 7.33-1.95 7.66-12.7" stroke="#000" stroke-width="5.37"/><path d="M633.52 1140.37c-7 1.3-7.56-.82-7.56-.82 7.45-9.95 10.53-22.52 7.9-25.6-7.34-8.4-19.97-4.44-20.2-4.34h-.04c-7.83-.45-10.25.32-12.07 1.56 0 0-22.54-8.35-21.5 10.56.23 4.02 6.4 30.45 13.73 22.4 2.75-2.92 5.34-5.4 5.34-5.4 1.27.78 2.82 1.2 4.4 1.03l.18-.05c-1.88 3.04-1.32 3.35-5.07 4.07-3.86.72-1.6 1.96-.1 2.32 1.75.35 5.9.97 8.64-2.6l-.1.43c.76.5 1.26 3.5 1.2 6.18-.1 2.7-.16 4.5.44 5.93.57 1.45 1.17 4.7 6.13 3.7 4.14-.76 6.34-2.87 6.62-6.32.22-2.47.7-2.1.7-4.32l.4-1.03c.44-3.35.1-4.43 2.64-3.92l.6.05c1.93.06 4.35-.3 5.84-.92 3.1-1.3 4.96-3.46 1.88-2.9z" stroke="#000" stroke-opacity="0" stroke-width="2.5" fill="#336791"/><path d="M607.5 1142.28c-.22 6.23.06 12.52.72 14 .66 1.5 2.1 4.5 7.1 3.5 4.14-.76 5.68-2.3 6.35-5.76l1.48-10.97m-21.6-32.04s-22.54-8.3-21.5 10.62c.23 4.02 6.34 30.45 13.73 22.4 2.7-2.88 5.12-5.2 5.12-5.2m14.77-29.3c-.77.2 12.57-4.4 20.12 4.32 2.7 3.1-.45 15.66-7.84 25.6" stroke="#fff" stroke-width="1.79" fill-opacity="0"/><path d="M625.96 1139.44s.5 2.12 7.56.83c3.03-.57 1.2 1.6-1.93 2.88-2.55 1.1-8.28 1.4-8.4-.1-.2-3.8 3.04-2.68 2.76-3.6-.16-.88-1.65-1.7-2.6-3.82-.87-1.85-11.56-15.97 3-13.9.5-.1-3.8-12.48-17.43-12.63-13.55-.2-13.17 15.04-13.17 15.04M603.7 1140.73c-1.93 1.9-1.32 2.27-5.13 2.94-3.85.72-1.6 2-.1 2.32 1.76.4 5.9.97 8.65-2.54.88-1.08 0-2.78-1.16-3.24-.55-.2-1.32-.47-2.26.5z" stroke="#fff" stroke-width="1.79" fill-opacity="0"/><path d="M603.6 1140.68c-.23-1.08.37-2.42 1.04-4.02.93-2.32 3.2-4.7 1.37-12.1-1.3-5.57-10.24-1.14-10.24-.42 0 .78.44 3.82-.1 7.37-.72 4.65 3.24 8.6 7.87 8.2" stroke="#fff" stroke-width="1.79" fill-opacity="0"/><path d="M601.44 1124.04c-.06.26.5.93 1.27 1.03.72.1 1.33-.4 1.38-.67.06-.3-.5-.57-1.26-.67-.72-.1-1.33.05-1.38.3z" stroke="#fff" stroke-width=".6" fill="#fff"/><path d="M623.7 1123.52c0 .26-.55.93-1.26 1.03-.72.1-1.38-.46-1.38-.72-.06-.25.5-.5 1.2-.6.78-.12 1.4.04 1.45.3z" stroke="#fff" stroke-width=".3" fill="#fff"/><path d="M626.3 1121.72c.1 2.06-.5 3.4-.56 5.57-.1 3.08 1.66 6.63-1 10.24" stroke="#fff" stroke-width="1.79" fill-opacity="0"/><path d="M243.65 1129.42h-8.04c-2.15-5.32-4.43-9.42-7.55-9.42-4.08 0-5.88 4.52-7.8 8.92l-.12.38h-9.24v2.6h5.4c1.9 0 2.27.82 2.27.82-1.56 2.96-3.36 5.85-6.24 5.85h-1.44v2.75h1.43c5.76 0 8.28-6 10.32-10.78 1.8-4.43 3.12-7.12 5.4-7.12 2.4 0 4.92 6.62 7.08 12.46l1.08 2.6c-8.5.33-12.6 2.87-15.83 4.93-2.4 1.52-4.32 3.38-7.44 3.38h-2.04v2.74h2.03c3.72 0 6.12-1.47 8.64-3.04 3.48-2.18 7.32-4.63 16.56-4.63h5.28v-2.75h-3c-1.8-1.98-2.27-3.33-2.87-4.72l-.6-1.8s.48-.7 1.8-.7h4.92z" stroke="#000" stroke-opacity="0" stroke-width="1.34" fill="#188fff"/><path d="M253.73 1129.4h-5.52v2.56h5.4c2.3 0 3.6 1.3 3.6 3.63 0 2.23-1.43 3.65-3.7 3.65h-5.3v8.92h2.17v-6.38h3.12c2.87 0 5.87-1.96 5.87-6.33 0-3.7-2.28-6.08-5.64-6.08zM271.73 1140.25c0 3.64-1.44 5.64-3.96 5.64-2.64 0-4.08-2.1-4.08-5.76v-10.75h-2.17v10.85c0 5.08 2.28 8.24 6.12 8.24 3.84 0 6.24-3.14 6.24-8.4v-10.7h-2.17zM279.3 1129.4h-2.17v18.8h10.08v-2.57h-7.9v-16.24zM295 1137.48c-3.1-.86-3.6-1.74-3.6-3.25 0-1.53 1.1-2.57 2.77-2.57l4.08 2.1 1.32-2.1-.24-.2c-8.04-2.3-10.08-.1-10.08 3 0 3.5 2.04 4.76 4.92 5.6 3 .8 3.48 1.64 3.48 3.15 0 1.63-1.08 2.75-2.88 2.75-1.8 0-3.12-.68-4.68-2.48l-.25-.23-1.32 2 .24.24c9 2.98 11.04.74 11.04-2.5 0-2.93-1.43-4.56-4.8-5.5zM307.6 1129.27l-6.7 18.93h2.27l1.68-4.82h7.44l1.55 4.82h2.4l-6.72-18.93zm-1.9 11.63l2.87-8.1 2.76 8.1zM326.45 1140.67c2.28-.7 3.6-2.75 3.6-5.58l-1.08-3.82-10.68-1.9v18.82h2.15v-7.06h3.72l4.08 7.06h2.64zm-6-2.07v-6.64h4.08c2.16 0 3.36 1.18 3.36 3.27 0 2.13-1.33 3.43-3.37 3.43z" stroke="#000" stroke-opacity="0" stroke-width="1.34" fill="#464e56"/><path d="M289.04 1273.75c1.2 1.7 1.82 3.8 2.27 5.9 2.14 10.9-3.63 21.38-13.2 23.7-10.62 2.56-19.57-5.74-20.94-16.2 2.13-12.8 2.28-13.25 2.74-13.4l4.85.1-1.67 4.06v.4c1.22 4.06 3.5 7.36 5.77 10.74.15 1.42 0 2.95.6 4.33 1.53 2 3.2 4 4.7 6.05.16.16.32.24.47 0 .6-.47.9-1.4 1.2-2.16.92-1.7 1.98-3.3 2.74-5.1l.16-.4c.9-.4 1.5-1.3 2.27-1.85.75-3.37.75-5.1.75-6.76 1.67-2.47 2.88-3.3 3.34-4.8.75-.78.45-1.2.3-1.72-.3-.9-.77-1.73-.92-2.76z" stroke="#000" stroke-opacity="0" stroke-width=".4" fill="#287abe"/><path d="M264.75 1273.86l-4.85-.1c.6-1.94 1.97-3.32 3.18-4.58 2.43-2.2 5-3.73 8.05-4.32 5.16-1.06 9.86.23 14.1 3.9 1.53 1.33 2.9 2.9 3.8 5l-4.55.1-3.5-.04v-1.37l2.6-.04v-.19c-7-1.3-10.48-1.36-13.97-1.36-1.36 0-2.42.6-3.33 1.33-.9.04-.9.95-1.2 1.6z" stroke="#000" stroke-opacity="0" stroke-width=".4" fill="#b8e1f2"/><path d="M263.08 1278.3v-.4c2.13-.7 4.1-1.87 5.92-2.9.76-.3 1.52-.27 1.82-1.18 1.22.04 2.43-.23 3.65.16v9.56h-.16c-2.26-1.1-4.54-2.24-6.82-3.3-1.5-.64-2.73-1.66-4.4-1.93z" stroke="#000" stroke-opacity="0" stroke-width=".4" fill="#b6e0f2"/><path d="M263.08 1278.3c1.67.28 2.9 1.3 4.4 1.97 2.28 1.03 4.56 2.17 6.83 3.27-.14.98-1.05 1.22-1.5 1.77-1.22 1.34-2.74 2.33-3.95 3.7-2.28-3.34-4.55-6.64-5.77-10.7z" stroke="#000" stroke-opacity="0" stroke-width=".4" fill="#90d4f0"/><path d="M281.75 1283.1v5.12c-1.52 2.24-2.12 3.1-3.03 3.5-.92-1.34-1.52-3-2.43-4.4-.47-1-.77-2.25-1.83-2.88 0-.2 0-.43.15-.63l.3-.22c.15.23.46.2.6.2 2.13-.2 4.1-.44 6.23-.68z" stroke="#000" stroke-opacity="0" stroke-width=".4" fill="#4d8ac8"/><path d="M269.46 1293.37c-.6-1.38-.46-2.9-.6-4.33 1.8.04 3.63.12 5.45.43v4.76c-2.4-.35-3.63-.86-4.84-.86z" stroke="#000" stroke-opacity="0" stroke-width=".4" fill="#b6e0f2"/><path d="M274.3 1294.23v-4.76c.47-1.65 0-3.34.17-5 1.06.64 1.36 1.9 1.82 2.84.9 1.47 1.5 3.08 2.42 4.45l-.16.4-4.1 2.08z" stroke="#000" stroke-opacity="0" stroke-width=".4" fill="#58afdd"/><path d="M281 1273.82l3.48.04c.15 1.03.6 1.85.9 2.76.17.47.47.94.17 1.5l-.46.23c-.77.15-1.38.6-1.98.94-.76.34-1.37.9-2.13.9v-6.34z" stroke="#000" stroke-opacity="0" stroke-width=".4" fill="#4d8ac8"/><path d="M281 1280.2c.75 0 1.36-.56 2.12-.9.6-.36 1.2-.8 1.97-.95-.47 1.45-1.68 2.28-2.44 3.5-7.28 1.92-7.6 1.96-7.74 1.73 1.37-.75 2.88-1.46 4.25-2.25.6-.3 1.37-.47 1.82-1.14z" stroke="#000" stroke-opacity="0" stroke-width=".4" fill="#266fa8"/><path d="M274.3 1294.23c.17 5.43 0 5.35-.14 5.2-1.52-2-3.18-4.06-4.7-6.06 1.2 0 2.43.5 3.8.74zM270.82 1273.82c-.3.9-1.06.87-1.82 1.18-1.82 1.03-3.8 2.2-5.92 2.9l1.67-4.04.3-.04z" stroke="#000" stroke-opacity="0" stroke-width=".4" fill="#90d4f0"/><path d="M274.62 1299.42c-.15-1.73-.15-3.46-.15-5.23l4.1-2.1c-.77 1.82-1.83 3.47-2.74 5.16-.3.75-.6 1.65-1.2 2.16zM285.1 1278.35l.45-.24z" stroke="#000" stroke-opacity="0" stroke-width=".4" fill="#266fa8"/><path d="M266.27 1272.17c.9-.74 1.97-1.33 3.2-1.33 3.63 0 7.12.07 10.76-.04l.76 1.65h-13.52c-.45 0-.9.04-1.2-.28z" stroke="#000" stroke-opacity="0" stroke-width=".4" fill="#f4fafd"/><path d="M266.27 1272.17c.3.32.76.28 1.2.28H281V1273.86l-6.53.16c-1.22-.43-2.43-.12-3.65-.2h-5.76c.3-.7.3-1.57 1.2-1.65zM283.57 1272.4v-.2.17z" stroke="#000" stroke-opacity="0" stroke-width=".4" fill="#e9f6fd"/><path d="M274.47 1274.02l6.52-.16v6.33c-.46.66-1.22.82-1.83 1.13-1.37.8-2.88 1.5-4.25 2.25l-.45.23v-.22z" stroke="#000" stroke-opacity="0" stroke-width=".4" fill="#68c1ea"/><path d="M143.8 1295.14H140v-20.33h3.8zM146.98 1284.95c0-6.2 3.95-10.54 9.4-10.54 3.35 0 6.08 1.74 7.6 4.1l-3.2 2.4c-.9-1.5-2.57-2.4-4.4-2.4-3.33 0-5.45 2.64-5.45 6.45 0 3.86 2.12 6.5 5.3 6.5 1.98 0 3.8-1 4.7-2.84l3.2 2.53c-1.67 2.8-4.55 4.36-7.9 4.36-5.3 0-9.25-4.33-9.25-10.55zM180.67 1291.2v3.94h-13.35v-20.33h13.2v3.9h-9.4v4.17h8.95v3.97h-8.96v4.36zM199.04 1289.4c0 3.26-2.13 5.74-5.62 5.74h-9.4v-20.33h8.8c3.33 0 5.46 2.25 5.46 5.47 0 2.1-.9 3.7-2.58 4.37 2.12.43 3.34 2.2 3.34 4.76zm-11.4-11v4.63h4.57c1.37 0 2.13-.9 2.13-2.44 0-1.4-.76-2.2-2.12-2.2zm7.6 10.6c0-1.57-.9-2.44-2.42-2.44h-5.17v4.96h5.17c1.5 0 2.42-.9 2.42-2.52zM215.73 1291.2v3.94h-13.5v-20.33h13.35v3.9h-9.56v4.17h9.1v3.97h-9.1v4.36zM225.14 1287.7h-2.43v7.44h-3.78v-20.33h8.04c3.95 0 6.23 2.64 6.23 6.46 0 3.02-1.53 5.34-4.1 6.17l4.7 7.7h-4.56zm-2.43-3.93h4.26c1.52 0 2.43-.86 2.43-2.47 0-1.66-.92-2.56-2.44-2.56h-4.25zM244.72 1295.5c-5.3 0-9.4-4.33-9.4-10.55 0-6.25 4.1-10.54 9.55-10.54 2.73 0 5.3 1.2 7.13 3.55l-2.88 2.76c-7.6-2.2-9.86.48-9.86 4.25 0 3.82 2.27 6.5 5.6 6.5 2.44 0 4.26-1.5 4.72-4.14h-4.7v-3.5h8.8c.15 7.52-3.65 11.7-8.96 11.7z" stroke="#000" stroke-opacity="0" stroke-width=".4" fill="#2c7cbf"/><path d="M780 1146a6 6 0 0 1 6-6h207.1a6 6 0 0 1 6 6v62.46a6 6 0 0 1-6 6H786a6 6 0 0 1-6-6z" stroke="#3a414a" fill="#fff"/><use xlink:href="#L" transform="matrix(1,0,0,1,792,1152) translate(71.51851851851852 30.52777777777778)"/><path d="M1070.44 1146a6 6 0 0 1 6-6h207.12a6 6 0 0 1 6 6v62.46a6 6 0 0 1-6 6h-207.12a6 6 0 0 1-6-6z" stroke="#3a414a" fill="#fff"/><use xlink:href="#M" transform="matrix(1,0,0,1,1082.4434035401234,1152) translate(62.25925925925927 30.52777777777778)"/><path d="M780 1243.06a6 6 0 0 1 6-6h207.1a6 6 0 0 1 6 6v62.46a6 6 0 0 1-6 6H786a6 6 0 0 1-6-6z" stroke="#3a414a" fill="#fff"/><use xlink:href="#N" transform="matrix(1,0,0,1,792,1249.0554281513241) translate(71.48765432098766 30.52777777777778)"/><path d="M1070.44 1243.06a6 6 0 0 1 6-6h207.12a6 6 0 0 1 6 6v62.46a6 6 0 0 1-6 6h-207.12a6 6 0 0 1-6-6z" stroke="#3a414a" fill="#fff"/><use xlink:href="#O" transform="matrix(1,0,0,1,1082.4434035401234,1249.0554281513241) translate(50.5 30.52777777777778)"/><path d="M350.9 1298.93l-20-8.4v-4.62l20-8.35v5.46l-13.98 5.15 13.97 5.35v5.43z" stroke="#000" stroke-opacity="0" fill="#00f"/><path d="M355.55 1298.3l7.68-10.5-7.4-9.9h6.85l3.84 5.62 3.83-5.6h6.58l-7.12 9.64 7.82 10.75h-6.85l-4.25-6.3-4.4 6.3h-6.57zm25.08-20.4h5.07v2.8c1.92-2.17 4.1-3.24 6.72-3.24 1.23 0 2.46.27 3.42.8 1.1.53 1.92 1.36 2.47 2.45.97-1.08 1.93-1.9 3.03-2.44 1.1-.53 2.32-.8 3.56-.8 1.5 0 2.73.3 3.83.92 1.1.6 1.9 1.5 2.46 2.66.4.88.54 2.3.54 4.22v13.05h-5.62v-11.65c0-2-.14-3.3-.55-3.9-.54-.77-1.37-1.15-2.33-1.15-.82 0-1.64.2-2.33.68-.67.47-1.08 1.12-1.5 2.03-.27.9-.4 2.3-.4 4.2v9.8h-5.62v-11.18c0-1.98-.14-3.25-.28-3.84-.27-.56-.55-1-.96-1.27-.4-.28-.96-.4-1.64-.4-.96 0-1.65.2-2.33.65-.7.47-1.23 1.1-1.5 1.95-.28.85-.42 2.24-.42 4.2v9.9h-5.62v-20.4zm36.73 20.4v-28.13h5.62v28.14h-5.62z" stroke="#000" stroke-opacity="0" fill="#d40000"/><path d="M434.5 1298.5l7.25-29.1H446l-7.26 29.1h-4.25zM447.78 1298.93v-5.43l14.12-5.3-14.12-5.24v-5.38l20.15 8.33v4.6l-20.15 8.43z" stroke="#000" stroke-opacity="0" fill="#00f"/><path d="M489.87 1179.97h51.03c.44 0 1.05-.05 1.44.16.33.22.27.5.27.82v10.6c0 .28 0 .6-.26.77-.28.27-.6.27-1 .27h-4.9c-.4 0-.83 0-1.1-.33-.22-.27-.22-.65-.22-.98v-4.18h-39.7v4.28c0 .33-.04.65-.26.92-.28.27-.66.27-1 .27h-5.12c-.4 0-.72 0-1-.28-.27-.27-.27-.54-.32-.92v-9.6c0-.37 0-.75.05-1.12.06-.33.4-.6.72-.65.5-.06.93-.06 1.37-.06z" stroke="#000" stroke-opacity="0" stroke-width="3.07" fill="#006fd4"/><path d="M500.45 1192.48h6.78c.38 0 .88.06 1.16.38.26.27.26.6.26.92v4.83c0 .38 0 .7-.27.98-.3.27-.68.27-1.06.27h-6.17c-.45 0-.94.06-1.38-.05-.4-.17-.56-.54-.56-.98v-5.04c0-.32 0-.7.22-.92.27-.32.66-.38 1-.38zm13.34 5.75h6.88c.33 0 .66 0 .93.2.3.28.3.55.3.88v4.94c0 .43-.12.76-.5.97-.45.18-1 .07-1.44.07h-6.06c-.4 0-.72 0-1-.22-.27-.27-.27-.65-.27-.97v-4.55c0-.38 0-.7.27-.98.23-.27.5-.27.9-.32zm-12.58 5.36h6.12c.38 0 .66 0 .94.2.27.28.27.66.27.98v4.7c0 .34-.05.6-.27.83-.28.28-.67.28-1.05.28h-6.73c-.33 0-.66 0-.93-.22-.28-.22-.33-.54-.33-.87v-4.72c0-.32 0-.7.27-.97.4-.32 1.17-.2 1.72-.2zm25.68 0h7c.4 0 .66 0 .94.2.28.28.28.66.28 1.03v4.72c0 .32-.06.6-.34.86-.27.23-.6.23-1 .23h-5.94c-.5 0-1.05.05-1.5-.05-.37-.17-.54-.55-.54-.92v-4.77c0-.4 0-.72.28-1 .22-.26.55-.3.82-.3zm-13.1 5.4h6.88c.33 0 .66 0 .93.28.3.2.3.54.3.86v4.93c0 .38-.12.7-.45.87-.4.22-1 .16-1.5.16h-6.05c-.4 0-.72 0-1-.27-.27-.27-.27-.6-.33-.97v-4.55c0-.37 0-.75.28-.97.28-.27.55-.27.94-.32zm-12.58 5.37h6.17c.32 0 .65 0 .88.27.27.27.27.6.27.92v4.7c0 .34 0 .6-.27.88-.23.27-.56.32-.94.32h-6.9c-.38 0-.76 0-.98-.32-.22-.33-.22-.65-.22-1.03v-4.7c0-.44.16-.76.55-.92.43-.17.92-.1 1.42-.1zm-12 7.2h5c.4 0 .77 0 1.05.33.22.27.16.54.22.86v4.23h39.84v-4.13c0-.32 0-.65.27-.92.3-.32.67-.32 1.06-.32h4.68c.33 0 .78 0 1.05.2.27.23.43.66.43 1.04V1233c0 .38-.05.65-.33.92-.33.33-.94.17-1.43.22H489.1c-.28 0-.56-.05-.78-.22-.27-.27-.33-.6-.33-.92v-10.24c0-.43.05-.75.38-1.02.16-.17.5-.17.83-.17z" stroke="#000" stroke-opacity="0" stroke-width="3.07" fill="#006fd4"/><path d="M537.28 1268.48h127.7v21.4h-127.7z" stroke="#000" stroke-opacity="0" stroke-width=".73" fill-opacity="0"/><path d="M543.4 1287.75c-1.5 0-2.82-.63-3.8-1.84-1-1.2-1.33-2.92-1.33-5.05 0-2.2.33-3.97 1.16-5.22 1-1.26 2.14-1.9 3.63-1.9 1.32 0 2.47.52 3.3 1.64.82 1.1 1.15 2.55 1.15 4.48v1.6h-6.92c0 1.28.33 2.28.83 3 .5.75 1.16 1.04 2.15 1.04.66 0 1.16-.05 1.82-.22.5-.17 1-.42 1.65-.75v2.38c-.5.3-1 .55-1.65.72-.5.17-1.16.13-1.98.13zm-.34-11.83c-.83 0-1.32.33-1.82.92-.33.54-.66 1.38-.66 2.55h4.8c0-1.1-.18-2.02-.67-2.56-.32-.6-.98-.92-1.64-.92zM552.3 1287.54h-2.15v-19.06h2.14zM562.2 1287.54l-.5-1.88c-.5.83-1 1.38-1.65 1.67-.5.25-1.16.46-1.98.46-1 0-1.82-.4-2.48-1.1-.5-.75-.83-1.75-.83-3.05 0-1.42.5-2.47 1.32-3.13.8-.67 1.97-1.1 3.62-1.13l1.8-.1v-.7c0-.88-.15-1.5-.48-1.93-.33-.42-.83-.63-1.5-.63-.48 0-.98.1-1.47.3-.5.2-1 .46-1.5.75l-.65-2.06c.5-.38 1.16-.67 1.82-.88.82-.2 1.32-.33 1.98-.33 1.32 0 2.3.37 3.13 1.17.66.75 1 1.92 1 3.55v9zm-3.3-2c.82 0 1.48-.3 1.97-.9.5-.57.66-1.4.66-2.45v-1.14l-1.32.04c-1.14.04-1.8.25-2.3.67-.5.42-.82 1.04-.82 1.88 0 .63.16 1.1.5 1.42.32.3.65.46 1.3.46zM574.07 1283.65c0 1.34-.33 2.38-1.16 3.05-.8.67-1.8 1.05-3.28 1.05-1.32 0-2.48-.25-3.3-.84v-2.5c1.15.7 2.3 1.1 3.46 1.1 1.32 0 1.98-.5 1.98-1.64 0-.33 0-.63-.16-.84-.17-.2-.5-.46-.83-.7-.33-.26-.82-.55-1.48-.84-1.17-.63-2-1.2-2.5-1.84-.32-.63-.65-1.42-.65-2.34 0-1.17.5-2.05 1.16-2.72.67-.67 1.66-.96 2.98-.96 1.15 0 2.47.33 3.46 1l-.66 2.13c-1.16-.62-2.14-.87-2.97-.87-1.14 0-1.8.4-1.8 1.3 0 .4.16.8.5 1.12.32.3.98.67 1.97 1.17 1 .42 1.65.84 1.98 1.2.5.4.66.8 1 1.27.15.54.32 1.04.32 1.7zM580.34 1285.45c.66 0 1.15-.13 1.65-.34v2.2c-.18.1-.5.24-1 .32-.33.13-.83.17-1.16.17-2.14 0-3.13-1.47-3.13-4.27v-7.32h-1.48v-1.24l1.5-1.05.8-2.87h1.33v3H582v2.22h-3.15v7.28c0 .66.17 1.17.5 1.5.33.3.66.42 1 .42zM583.97 1270.4c0-.54.16-.88.33-1.2.33-.3.66-.43 1-.43.48 0 .65.17.98.42.16.24.33.66.33 1.2 0 .46-.16.88-.32 1.13-.17.3-.5.42-1 .42-.32 0-.65-.13-.98-.42-.17-.25-.33-.67-.33-1.13zm2.47 17.14h-2.3V1274h2.3zM593.87 1287.75c-1.5 0-2.8-.6-3.63-1.8-.83-1.2-1.16-2.93-1.16-5.18 0-2.3.33-4.02 1.32-5.27.83-1.25 1.98-1.8 3.63-1.8 1.16 0 2.14.25 3.13.76l-.82 2.3c-.82-.47-1.65-.72-2.3-.72-1.82 0-2.8 1.55-2.8 4.64 0 1.5.32 2.68.8 3.47.34.75 1.17 1.13 2 1.13.98 0 1.97-.33 2.8-.96v2.55c-.34.3-.83.5-1.32.58-.5.13-1 .3-1.65.3zM606.4 1283.65c0 1.34-.33 2.38-1.15 3.05-.66.67-1.82 1.05-3.14 1.05-1.47 0-2.63-.25-3.45-.84v-2.5c1.32.7 2.47 1.1 3.46 1.1 1.5 0 2.16-.5 2.16-1.64 0-.33-.17-.63-.33-.84-.17-.2-.33-.46-.66-.7-.5-.26-1-.55-1.5-.84-1.3-.63-2.13-1.2-2.46-1.84-.5-.63-.65-1.42-.65-2.34 0-1.17.33-2.05 1-2.72.8-.67 1.8-.96 2.96-.96 1.33 0 2.48.33 3.64 1l-.83 2.13c-1.14-.62-1.97-.87-2.8-.87-1.15 0-1.8.4-1.8 1.3 0 .4.16.8.5 1.12.15.3.8.67 1.97 1.17.82.42 1.48.84 1.98 1.2.33.4.66.8.82 1.27.33.54.33 1.04.33 1.7zM613.5 1287.75c-1.65 0-2.97-.63-3.8-1.84-1-1.2-1.48-2.92-1.48-5.05 0-2.2.5-3.97 1.32-5.22.82-1.26 1.98-1.9 3.63-1.9 1.32 0 2.47.52 3.3 1.64.82 1.1 1.15 2.55 1.15 4.48v1.6h-7.1c0 1.28.34 2.28.83 3 .5.75 1.32 1.04 2.3 1.04.5 0 1.17-.05 1.66-.22.5-.17 1.17-.42 1.83-.75v2.38c-.5.3-1.16.55-1.65.72-.66.17-1.32.13-1.98.13zm-.33-11.83c-.83 0-1.32.33-1.82.92-.33.54-.66 1.38-.82 2.55h4.95c0-1.1-.33-2.02-.66-2.56-.5-.6-1-.92-1.65-.92zM626.7 1287.54l-.34-1.88h-.16c-.5.83-1 1.38-1.5 1.67-.48.25-1.14.46-1.97.46-1 0-1.8-.4-2.47-1.1-.66-.75-.83-1.75-.83-3.05 0-1.42.33-2.47 1.16-3.13.8-.67 1.97-1.1 3.78-1.13l1.82-.1v-.7c0-.88-.17-1.5-.5-1.93-.33-.42-.82-.63-1.48-.63-.5 0-1.16.1-1.65.3-.5.2-.83.46-1.32.75l-.83-2.06c.66-.38 1.32-.67 1.98-.88.66-.2 1.32-.33 1.82-.33 1.48 0 2.47.37 3.13 1.17.66.75 1 1.92 1 3.55v9zm-3.3-2c.82 0 1.48-.3 1.97-.9.5-.57.66-1.4.66-2.45v-1.14l-1.32.04c-.98.04-1.8.25-2.3.67-.5.42-.66 1.04-.66 1.88 0 .63 0 1.1.33 1.42.33.3.83.46 1.32.46zM636.92 1273.74c.5 0 .83.05 1 .1l-.17 2.66c-.33-.08-.66-.16-1-.16-.82 0-1.64.37-2.14 1.17-.65.8-.8 1.72-.8 2.93v7.1h-2.32V1274h1.8l.34 2.42c.33-.8.83-1.5 1.5-1.96.48-.46 1.14-.72 1.8-.72zM644.18 1287.75c-1.48 0-2.8-.6-3.63-1.8-.82-1.2-1.15-2.93-1.15-5.18 0-2.3.33-4.02 1.32-5.27.82-1.25 1.98-1.8 3.62-1.8 1.16 0 2.15.25 3.14.76l-.83 2.3c-.82-.47-1.65-.72-2.3-.72-1.82 0-2.8 1.55-2.8 4.64 0 1.5.32 2.68.82 3.47.33.75 1.15 1.13 1.97 1.13 1 0 1.98-.33 2.8-.96v2.55c-.32.3-.82.5-1.3.58-.5.13-1 .3-1.66.3zM659.03 1287.54h-2.3v-8.36c0-1.05-.18-1.84-.5-2.38-.34-.5-.83-.76-1.5-.76-.98 0-1.64.38-2.14 1.1-.5.7-.67 1.9-.67 3.58v6.82h-2.3v-19.06h2.3v4.85c0 .75 0 1.6-.16 2.5h.16c.33-.62.83-1.17 1.32-1.54.5-.35 1.16-.5 1.98-.5 2.48 0 3.8 1.66 3.8 4.96v8.78z" stroke="#000" stroke-opacity="0" stroke-width=".73"/><path d="M522.44 1275.25h-8.58c.16.25.16.5.16.75.33 1.26.5 2.55.66 3.9v3.25c-.16 1.34-.33 2.63-.66 3.93 0 .25 0 .5-.16.7h8.58c2.63 0 4.94-2.83 4.94-6.26 0-3.43-2.3-6.27-4.94-6.27z" stroke="#000" stroke-opacity="0" stroke-width=".73" fill="#00a9e5"/><path d="M514.68 1283.15v-1.63-1.63c-.16-1.35-.33-2.64-.66-3.9 0-.3 0-.54-.16-.75h-13.2c-.5 1.96-.66 4.1-.66 6.27 0 2.2.16 4.26.66 6.27h13.2c.16-.26.16-.5.16-.72.33-1.3.5-2.6.66-3.93z" stroke="#000" stroke-opacity="0" stroke-width=".73" fill="#353535"/><path d="M523.92 1289.88h-10.56c-.33.96-.82 1.84-1.15 2.67-.65 1.3-1.3 2.43-2.14 3.56-.33.34-.66.68-.82 1.05-.66.67-1.32 1.26-1.98 1.8 2.64 2.2 5.77 3.47 9.07 3.47 5.6 0 10.56-3.72 13.53-9.32-1.5-1.97-3.63-3.22-5.94-3.22z" stroke="#000" stroke-opacity="0" stroke-width=".73" fill="#00bfb3"/><path d="M512.2 1292.55c.34-.83.83-1.75 1.16-2.67h-12.04c1.32 3.72 3.3 6.9 6.1 9.1.5-.57 1.16-1.16 1.82-1.83.33-.33.5-.67.82-1.04.83-1.04 1.5-2.25 2.15-3.55z" stroke="#000" stroke-opacity="0" stroke-width=".73" fill="#019b8f"/><path d="M510.06 1266.93c-.33-.37-.66-.67-.82-1.04-.66-.68-1.32-1.27-1.98-1.8-2.64 2.16-4.62 5.34-5.94 9.06h11.88c-.33-.92-.66-1.84-1-2.68-.65-1.3-1.3-2.5-2.14-3.55z" stroke="#000" stroke-opacity="0" stroke-width=".73" fill="#f9b110"/><path d="M516.33 1260.62c-3.3 0-6.43 1.25-9.07 3.43.66.58 1.32 1.17 1.98 1.84.16.32.5.66.82 1.03.83 1.13 1.5 2.26 2.15 3.55.34.84.83 1.72 1.16 2.68h10.56c2.3 0 4.45-1.25 5.94-3.26-2.97-5.56-7.92-9.28-13.53-9.28z" stroke="#000" stroke-opacity="0" stroke-width=".73" fill="#fed10a"/><path d="M621.28 1179.97h-28c-.77 0-1.43.6-1.43 1.3v51.57c0 .7.66 1.3 1.43 1.3h40.46c.77 0 1.37-.6 1.37-1.3v-39.76c0-.38-.15-.7-.37-.92l-12.46-11.8c-.27-.23-.6-.4-1-.4z" stroke="#979593" stroke-width="3.13" fill="#fff"/><path d="M621.17 1179.97v11.92c0 .7.6 1.3 1.38 1.3h12.56" stroke="#979593" stroke-width="3.13" fill-opacity="0"/><path d="M609.98 1215.67h-6.94v-1.36h6.94c.4 0 .72.34.72.66 0 .38-.33.7-.72.7zm0-4h-6.94v-1.3h6.94c.4 0 .72.26.72.64 0 .4-.33.66-.72.66zm0-3.96h-6.94v-1.3h6.94c.4 0 .72.28.72.66 0 .37-.33.65-.72.65zm0-3.95h-6.94v-1.3h6.94c.4 0 .72.27.72.65s-.33.65-.72.65zm0 15.87h-6.94v-1.35h6.94c.4 0 .72.32.72.7 0 .33-.33.65-.72.65zm19.57-3.95h-7c-.4 0-.72-.33-.72-.7 0-.33.33-.66.72-.66h7c.38 0 .66.34.66.66 0 .38-.27.7-.65.7zm0 3.95h-7c-.4 0-.72-.32-.72-.65 0-.38.33-.7.72-.7h7c.38 0 .66.32.66.7 0 .33-.27.65-.65.65zm0-7.96h-7c-.4 0-.72-.27-.72-.65 0-.37.33-.64.72-.64h7c.38 0 .66.27.66.65 0 .4-.27.66-.65.66zm0-3.95h-7c-.4 0-.72-.27-.72-.64 0-.38.33-.65.72-.65h7c.38 0 .66.28.66.66 0 .37-.27.65-.65.65zm0-3.95h-7c-.4 0-.72-.27-.72-.65s.33-.65.72-.65h7c.38 0 .66.27.66.65s-.27.65-.65.65zm-9.76 11.92h-7c-.4 0-.72-.33-.72-.7 0-.33.33-.66.7-.66h7c.4 0 .67.34.67.66 0 .38-.27.7-.66.7zm0 3.95h-7c-.4 0-.72-.32-.72-.65 0-.38.33-.7.7-.7h7c.4 0 .67.32.67.7 0 .33-.27.65-.66.65zm0-7.96h-7c-.4 0-.72-.27-.72-.65 0-.37.33-.64.7-.64h7c.4 0 .67.27.67.65 0 .4-.27.66-.66.66zm0-3.95h-7c-.4 0-.72-.27-.72-.64 0-.38.33-.65.7-.65h7c.4 0 .67.28.67.66 0 .37-.27.65-.66.65zm0-3.95h-7c-.4 0-.72-.27-.72-.65s.33-.65.7-.65h7c.4 0 .67.27.67.65s-.27.65-.66.65z" stroke="#000" stroke-opacity="0" stroke-width="3.13" fill="#c8c6c4"/><path d="M582.8 1224.23h22.33c1.54 0 2.76-1.2 2.76-2.66v-21.12c0-1.47-1.23-2.66-2.77-2.66H582.8c-1.53 0-2.8 1.18-2.8 2.65v21.12c0 1.47 1.27 2.66 2.8 2.66z" stroke="#000" stroke-opacity="0" stroke-width="3.13" fill="#107c41"/><path d="M586.23 1218.97l5.5-7.96-5-7.9h4.02l2.75 5.04c.28.5.44.87.55 1.08.22-.38.4-.76.6-1.14l2.93-4.98h3.7l-5.13 7.86 5.3 8h-3.98l-3.2-5.57-.38-.77c-.07.22-.23.44-.4.76l-3.25 5.57h-4.02z" stroke="#000" stroke-opacity="0" stroke-width="3.13" fill="#fff"/><path d="M512.44 1150.26l23.15 5.26v-41.64l-23.16 5.27z" stroke="#000" stroke-opacity="0" stroke-width=".08" fill="#205b97"/><path d="M535.6 1113.88l4.4 2.1v37.44l-4.4 2.1zm-23.16 36.38l-23.14 5.26v-41.64l23.14 5.27z" stroke="#000" stroke-opacity="0" stroke-width=".08" fill="#5193ce"/><path d="M489.3 1113.88l-4.4 2.1v37.44l4.4 2.1z" stroke="#000" stroke-opacity="0" stroke-width=".08" fill="#205b97"/><path d="M518.34 1164l8.82-4.2v-50.07l-8.82-4.2-2.7 27.77z" stroke="#000" stroke-opacity="0" stroke-width=".08" fill="#5193ce"/><path d="M506.55 1164l-8.82-4.2v-50.07l8.82-4.2 2.7 27.77z" stroke="#000" stroke-opacity="0" stroke-width=".08" fill="#205b97"/><path d="M506.55 1105.52h11.9v58.37h-11.9z" stroke="#000" stroke-opacity="0" stroke-width=".08" fill="#2e73b7"/><path d="M345 1218.93c-1.2-1.6-1.2-1.66-.95-1.95.36-.47 15.32-17.07 15.44-17.2.23-.13 2.02.93 2.5 1.4.12.18-1.08 1.72-7.54 9.75-4.3 5.25-7.9 9.56-7.9 9.6-.12.02-.84-.72-1.55-1.6zm66.18-.18c-.12-.12-.12-1-.12-3.13 0-1.62 0-2.95-.12-2.95 0 0-.36.32-.72.74-.95.95-1.67 1.25-3 1.2-2.86-.2-4.66-3.23-4.66-8.2 0-3.06.6-5.22 1.92-6.7 1.32-1.53 3.23-1.94 4.8-1.03.46.27.94.68 1.18.98l.48.5s.12-.35.12-.77l.12-.77 3.35-.07v10.15l-.12 10.2-1.54.02c-1.08.06-1.56 0-1.68-.15zm-1.56-8.1c1.92-1.17 2.04-6.57.24-8.23-.6-.62-1.8-.68-2.4-.14-.95.73-1.43 2.27-1.43 4.1 0 3.4 1.68 5.43 3.6 4.28zm-67.96 4.06c-.6-.8-1.08-1.44-.96-1.56 0-.24 8.6-8.65 8.73-8.65.24 0 2.28 1.85 2.28 2.03 0 .17-8.6 9.53-8.85 9.53 0 0-.6-.62-1.2-1.35zm93.33-.17c-1.08-.3-1.92-.92-2.88-2.04-1.2-1.57-1.8-3.46-1.8-6.06 0-3.54 1.32-6.32 3.48-7.62.83-.5.95-.53 2.4-.53 1.3 0 1.43.05 2.14.43 2.16 1.18 3.35 4.28 3.23 7.86v1.34l-3.7.03c-2.16.03-3.95.12-3.95.18-.24.24.48 1.74.95 2.27.96 1.13 2.52 1.07 3.95-.2l.6-.5.48.7c.36.42.72.98.96 1.27l.36.53-.6.64c-1.08 1.16-2.75 1.92-4.2 1.9-.35-.04-.95-.12-1.43-.24zm3.1-9.45c.24-.18.24-.27 0-1.06-.47-2.16-2.03-3.04-3.23-1.83-.47.46-.7 1.02-.95 2.02-.12.65-.12.8 0 .92.36.24 3.95.18 4.18-.06zm-54.8 9.3c-1.8-.8-2.75-3.16-2.4-5.73.25-1.8.96-2.86 2.16-3.54.96-.5 3-.6 4.07-.23.48.12.84.24.84.24.12 0 .24-.55.12-1.17-.25-.74-.6-1.3-1.2-1.65-.6-.4-2.05-.36-3.24.1-.48.22-.96.3-1.08.22-.12-.18-.72-2.54-.72-2.86 0-.6 2.28-1.4 4.2-1.4 2.15-.02 3.58.63 4.42 2.08.96 1.5.96 1.7.96 8.14v5.8l-1.56.05c-.84.04-1.56-.02-1.56-.08-.1-.1-.1-.38-.23-.68 0-.3 0-.56-.13-.62 0-.03-.24.15-.48.45-.85.85-1.2 1.03-2.53 1.1-.83.02-1.43-.04-1.67-.2zm3.83-3.2c.72-.46 1.08-1.23 1.08-2.38s-.1-1.3-1.67-1.4c-.96-.05-1.08-.02-1.56.34-.6.5-.83 1-.7 2 .1 1.3.47 1.78 1.78 1.8.36 0 .72-.1 1.08-.35zm32.55 3.23c-.72-.3-1.68-1.47-2.04-2.5-.24-.9-.24-1-.24-7.1v-6.2l3.35-.07v5.34c.12 4.75.12 5.4.36 5.88.6 1.53 2.53 1.5 3.12-.03.36-.62.36-.86.36-5.94v-5.25l3.47.08v7.72c0 5.64 0 7.74-.12 7.9-.12.2-.48.22-1.67.2l-1.56-.07-.12-.7c0-.42 0-.8-.12-.86 0-.1-.36.16-.7.52-.85 1-1.45 1.27-2.65 1.27-.47 0-1.18-.1-1.42-.2zm26.8.04c-.72-.3-1.2-.8-1.67-1.74l-.35-.92v-9.7h-.6c-.72 0-.72-.25-.72-1.96 0-1.48 0-1.5.36-1.56.95-.12.95 0 .95-2 0-1.2 0-1.9.12-2.02.24-.27 3.1-.27 3.23 0 .12.12.24 1.03.24 2.07v1.84l2.5.12v1.7l-.1 1.72-2.4.1v4.1c0 5.16-.12 4.95 2.15 4.54.23-.06.23.06.35 1.53v1.57l-.6.35c-.72.4-2.75.54-3.47.27zm-78.74-.18V1193.64h3.6c3.46 0 3.7.04 4.54.37 2.27 1 3.6 3.1 3.83 6.2.13 3.2-1.07 5.83-3.22 7-1.2.63-2.04.8-3.6.8-.95 0-1.43.1-1.55.24-.12.12-.12 1.3-.24 3.16v2.95l-1.56.06c-1.32.04-1.68 0-1.8-.14zm6.82-10.4c.96-.55 1.56-1.64 1.56-3.03 0-2.22-.96-3.2-3.23-3.37-1.8-.14-1.7-.3-1.7 3.22v3.22c.13.38 2.65.35 3.36-.06zm19.75 10.37c-.1-.17-.1-2.36-.1-7.9v-7.72l1.66-.04c1.32-.03 1.68.03 1.8.17 0 .12.12.6.12 1.04 0 .82.12 1.12.36.56 0-.4.95-1.45 1.43-1.74.12-.13.6-.28.96-.34l.72-.1v4.53l-.6.1c-.96.18-1.56.57-2.03 1.25-.72 1.06-.84 1.77-.84 6.02 0 2.27-.12 3.87-.12 4.07-.12.27-.36.3-1.68.3-1.07 0-1.55-.06-1.67-.2zm-55.75-3.42c-.48-.67-.84-1.26-.72-1.32.36-.4 4.07-3.54 4.2-3.54.22 0 2.02 1.86 2.02 2.06 0 .27-4.07 4.05-4.3 4.05-.25 0-.73-.56-1.2-1.24zm-2.52-3.18c-.84-.92-.84-1.1-.72-1.27.25-.27 12.1-9.57 12.34-9.65.24-.1 1.9 1.12 1.9 1.32 0 .18-12.2 10.5-12.55 10.57-.13.05-.5-.36-.97-.98zm7.9-1.48c-.48-.47-.96-.97-.96-1.06 0-.12.48-.56.96-1 .6-.48 3-2.5 5.27-4.55 2.4-2.07 4.42-3.72 4.54-3.72.36 0 1.92 1.13 1.92 1.3-.12.27-10.4 9.96-10.65 9.96-.1 0-.6-.4-1.07-.92zm-10.3-1.44c-.6-.74-.7-.92-.6-1.1.13-.14 7.55-5.4 8.4-6 .23-.08 1.78 1.28 1.66 1.46 0 .23-8.38 6.55-8.62 6.55-.12 0-.48-.4-.96-.9zm17.72.06c-.48-.45-.96-.92-.96-1 0-.16 4.78-5.06 5.97-6 .12-.18.36-.12 1.32.47.47.38.95.77.95.86 0 .22-5.75 6.42-6.1 6.48-.12.03-.6-.35-1.2-.82zm-19.75-2.6l-.7-.86.35-.26c.12-.12 3.6-2.45 7.77-5.14l7.42-4.9.72.4c.48.25.72.5.72.63 0 .12-15.32 11-15.56 11 0 0-.36-.4-.72-.87zm11.5-4.37c-.37-.34-.6-.66-.6-.78 0-.1 1.43-1.18 3.1-2.4l3.12-2.23.83.52c.36.3.72.56.72.65 0 .17-6.1 4.8-6.34 4.8-.12-.02-.48-.26-.84-.58zm6.2-1c-.34-.28-.7-.64-.7-.72 0-.18 2.15-1.92 2.5-2 .13-.07 1.57.84 1.7 1.08 0 .06 0 .24-.13.35-.48.5-2.28 1.9-2.4 1.9-.12 0-.48-.26-.96-.6z" stroke="#000" stroke-opacity="0" stroke-width=".56" fill="#50abf1"/><defs><path fill="#3a414a" d="M30 0v-248h187v28H63v79h144v27H63v87h162V0H30" id="P"/><path fill="#3a414a" d="M141 0L90-78 38 0H4l68-98-65-92h35l48 74 47-74h35l-64 92 68 98h-35" id="Q"/><path fill="#3a414a" d="M59-47c-2 24 18 29 38 22v24C64 9 27 4 27-40v-127H5v-23h24l9-43h21v43h35v23H59v120" id="R"/><path fill="#3a414a" d="M100-194c63 0 86 42 84 106H49c0 40 14 67 53 68 26 1 43-12 49-29l28 8c-11 28-37 45-77 45C44 4 14-33 15-96c1-61 26-98 85-98zm52 81c6-60-76-77-97-28-3 7-6 17-6 28h103" id="S"/><path fill="#3a414a" d="M114-163C36-179 61-72 57 0H25l-1-190h30c1 12-1 29 2 39 6-27 23-49 58-41v29" id="T"/><path fill="#3a414a" d="M117-194c89-4 53 116 60 194h-32v-121c0-31-8-49-39-48C34-167 62-67 57 0H25l-1-190h30c1 10-1 24 2 32 11-22 29-35 61-36" id="U"/><path fill="#3a414a" d="M141-36C126-15 110 5 73 4 37 3 15-17 15-53c-1-64 63-63 125-63 3-35-9-54-41-54-24 1-41 7-42 31l-33-3c5-37 33-52 76-52 45 0 72 20 72 64v82c-1 20 7 32 28 27v20c-31 9-61-2-59-35zM48-53c0 20 12 33 32 33 41-3 63-29 60-74-43 2-92-5-92 41" id="V"/><path fill="#3a414a" d="M24 0v-261h32V0H24" id="W"/><g id="a"><use transform="matrix(0.06172839506172839,0,0,0.06172839506172839,0,0)" xlink:href="#P"/><use transform="matrix(0.06172839506172839,0,0,0.06172839506172839,14.814814814814813,0)" xlink:href="#Q"/><use transform="matrix(0.06172839506172839,0,0,0.06172839506172839,25.925925925925924,0)" xlink:href="#R"/><use transform="matrix(0.06172839506172839,0,0,0.06172839506172839,32.098765432098766,0)" xlink:href="#S"/><use transform="matrix(0.06172839506172839,0,0,0.06172839506172839,44.44444444444444,0)" xlink:href="#T"/><use transform="matrix(0.06172839506172839,0,0,0.06172839506172839,51.79012345679012,0)" xlink:href="#U"/><use transform="matrix(0.06172839506172839,0,0,0.06172839506172839,64.1358024691358,0)" xlink:href="#V"/><use transform="matrix(0.06172839506172839,0,0,0.06172839506172839,76.48148148148148,0)" xlink:href="#W"/></g><path fill="#3a414a" d="M30-248c87 1 191-15 191 75 0 78-77 80-158 76V0H30v-248zm33 125c57 0 124 11 124-50 0-59-68-47-124-48v98" id="X"/><path fill="#3a414a" d="M84 4C-5 8 30-112 23-190h32v120c0 31 7 50 39 49 72-2 45-101 50-169h31l1 190h-30c-1-10 1-25-2-33-11 22-28 36-60 37" id="Y"/><path fill="#3a414a" d="M135-143c-3-34-86-38-87 0 15 53 115 12 119 90S17 21 10-45l28-5c4 36 97 45 98 0-10-56-113-15-118-90-4-57 82-63 122-42 12 7 21 19 24 35" id="Z"/><g id="b"><use transform="matrix(0.06172839506172839,0,0,0.06172839506172839,0,0)" xlink:href="#X"/><use transform="matrix(0.06172839506172839,0,0,0.06172839506172839,14.814814814814813,0)" xlink:href="#Y"/><use transform="matrix(0.06172839506172839,0,0,0.06172839506172839,27.160493827160494,0)" xlink:href="#W"/><use transform="matrix(0.06172839506172839,0,0,0.06172839506172839,32.03703703703704,0)" xlink:href="#Z"/><use transform="matrix(0.06172839506172839,0,0,0.06172839506172839,43.14814814814815,0)" xlink:href="#V"/><use transform="matrix(0.06172839506172839,0,0,0.06172839506172839,55.49382716049383,0)" xlink:href="#T"/></g><path fill="#3a414a" d="M127-220V0H93v-220H8v-28h204v28h-85" id="aa"/><path fill="#3a414a" d="M85-194c31 0 48 13 60 33l-1-100h32l1 261h-30c-2-10 0-23-3-31C134-8 116 4 85 4 32 4 16-35 15-94c0-66 23-100 70-100zm9 24c-40 0-46 34-46 75 0 40 6 74 45 74 42 0 51-32 51-76 0-42-9-74-50-73" id="ab"/><g id="c"><use transform="matrix(0.06172839506172839,0,0,0.06172839506172839,0,0)" xlink:href="#aa"/><use transform="matrix(0.06172839506172839,0,0,0.06172839506172839,11.049382716049381,0)" xlink:href="#S"/><use transform="matrix(0.06172839506172839,0,0,0.06172839506172839,23.39506172839506,0)" xlink:href="#T"/><use transform="matrix(0.06172839506172839,0,0,0.06172839506172839,30.74074074074074,0)" xlink:href="#V"/><use transform="matrix(0.06172839506172839,0,0,0.06172839506172839,43.08641975308642,0)" xlink:href="#ab"/><use transform="matrix(0.06172839506172839,0,0,0.06172839506172839,55.432098765432094,0)" xlink:href="#V"/><use transform="matrix(0.06172839506172839,0,0,0.06172839506172839,67.77777777777777,0)" xlink:href="#R"/><use transform="matrix(0.06172839506172839,0,0,0.06172839506172839,73.9506172839506,0)" xlink:href="#V"/></g><path fill="#3a414a" d="M185-189c-5-48-123-54-124 2 14 75 158 14 163 119 3 78-121 87-175 55-17-10-28-26-33-46l33-7c5 56 141 63 141-1 0-78-155-14-162-118-5-82 145-84 179-34 5 7 8 16 11 25" id="ac"/><path fill="#3a414a" d="M100-194c62-1 85 37 85 99 1 63-27 99-86 99S16-35 15-95c0-66 28-99 85-99zM99-20c44 1 53-31 53-75 0-43-8-75-51-75s-53 32-53 75 10 74 51 75" id="ad"/><path fill="#3a414a" d="M206 0h-36l-40-164L89 0H53L-1-190h32L70-26l43-164h34l41 164 42-164h31" id="ae"/><path fill="#3a414a" d="M101-234c-31-9-42 10-38 44h38v23H63V0H32v-167H5v-23h27c-7-52 17-82 69-68v24" id="af"/><path fill="#3a414a" d="M143 0L79-87 56-68V0H24v-261h32v163l83-92h37l-77 82L181 0h-38" id="ag"/><g id="d"><use transform="matrix(0.06172839506172839,0,0,0.06172839506172839,0,0)" xlink:href="#ac"/><use transform="matrix(0.06172839506172839,0,0,0.06172839506172839,14.814814814814813,0)" xlink:href="#U"/><use transform="matrix(0.06172839506172839,0,0,0.06172839506172839,27.160493827160494,0)" xlink:href="#ad"/><use transform="matrix(0.06172839506172839,0,0,0.06172839506172839,39.50617283950617,0)" xlink:href="#ae"/><use transform="matrix(0.06172839506172839,0,0,0.06172839506172839,55.49382716049382,0)" xlink:href="#af"/><use transform="matrix(0.06172839506172839,0,0,0.06172839506172839,61.666666666666664,0)" xlink:href="#W"/><use transform="matrix(0.06172839506172839,0,0,0.06172839506172839,66.5432098765432,0)" xlink:href="#V"/><use transform="matrix(0.06172839506172839,0,0,0.06172839506172839,78.88888888888889,0)" xlink:href="#ag"/><use transform="matrix(0.06172839506172839,0,0,0.06172839506172839,90,0)" xlink:href="#S"/></g><path fill="#3a414a" d="M30-248c118-7 216 8 213 122C240-48 200 0 122 0H30v-248zM63-27c89 8 146-16 146-99s-60-101-146-95v194" id="ah"/><path fill="#3a414a" d="M115-194c55 1 70 41 70 98S169 2 115 4C84 4 66-9 55-30l1 105H24l-1-265h31l2 30c10-21 28-34 59-34zm-8 174c40 0 45-34 45-75s-6-73-45-74c-42 0-51 32-51 76 0 43 10 73 51 73" id="ai"/><g id="e"><use transform="matrix(0.06172839506172839,0,0,0.06172839506172839,0,0)" xlink:href="#ah"/><use transform="matrix(0.06172839506172839,0,0,0.06172839506172839,15.987654320987653,0)" xlink:href="#S"/><use transform="matrix(0.06172839506172839,0,0,0.06172839506172839,28.333333333333332,0)" xlink:href="#ai"/><use transform="matrix(0.06172839506172839,0,0,0.06172839506172839,40.67901234567901,0)" xlink:href="#ad"/><use transform="matrix(0.06172839506172839,0,0,0.06172839506172839,53.02469135802469,0)" xlink:href="#R"/></g><g id="f"><use transform="matrix(0.06172839506172839,0,0,0.06172839506172839,0,0)" xlink:href="#P"/><use transform="matrix(0.06172839506172839,0,0,0.06172839506172839,14.814814814814813,0)" xlink:href="#Q"/><use transform="matrix(0.06172839506172839,0,0,0.06172839506172839,25.925925925925924,0)" xlink:href="#R"/><use transform="matrix(0.06172839506172839,0,0,0.06172839506172839,32.098765432098766,0)" xlink:href="#S"/><use transform="matrix(0.06172839506172839,0,0,0.06172839506172839,44.44444444444444,0)" xlink:href="#T"/><use transform="matrix(0.06172839506172839,0,0,0.06172839506172839,51.79012345679012,0)" xlink:href="#U"/><use transform="matrix(0.06172839506172839,0,0,0.06172839506172839,64.1358024691358,0)" xlink:href="#V"/><use transform="matrix(0.06172839506172839,0,0,0.06172839506172839,76.48148148148148,0)" xlink:href="#W"/></g><g id="g"><use transform="matrix(0.06172839506172839,0,0,0.06172839506172839,0,0)" xlink:href="#ah"/><use transform="matrix(0.06172839506172839,0,0,0.06172839506172839,15.987654320987653,0)" xlink:href="#S"/><use transform="matrix(0.06172839506172839,0,0,0.06172839506172839,28.333333333333332,0)" xlink:href="#ai"/><use transform="matrix(0.06172839506172839,0,0,0.06172839506172839,40.67901234567901,0)" xlink:href="#ad"/><use transform="matrix(0.06172839506172839,0,0,0.06172839506172839,53.02469135802469,0)" xlink:href="#R"/><use transform="matrix(0.06172839506172839,0,0,0.06172839506172839,59.19753086419753,0)" xlink:href="#Z"/></g><path fill="#3a414a" d="M33 0v-248h34V0H33" id="aj"/><path fill="#3a414a" d="M96-169c-40 0-48 33-48 73s9 75 48 75c24 0 41-14 43-38l32 2c-6 37-31 61-74 61-59 0-76-41-82-99-10-93 101-131 147-64 4 7 5 14 7 22l-32 3c-4-21-16-35-41-35" id="ak"/><path fill="#3a414a" d="M115-194c53 0 69 39 70 98 0 66-23 100-70 100C84 3 66-7 56-30L54 0H23l1-261h32v101c10-23 28-34 59-34zm-8 174c40 0 45-34 45-75 0-40-5-75-45-74-42 0-51 32-51 76 0 43 10 73 51 73" id="al"/><g id="h"><use transform="matrix(0.06172839506172839,0,0,0.06172839506172839,0,0)" xlink:href="#aj"/><use transform="matrix(0.06172839506172839,0,0,0.06172839506172839,6.172839506172839,0)" xlink:href="#ak"/><use transform="matrix(0.06172839506172839,0,0,0.06172839506172839,17.28395061728395,0)" xlink:href="#S"/><use transform="matrix(0.06172839506172839,0,0,0.06172839506172839,29.629629629629626,0)" xlink:href="#al"/><use transform="matrix(0.06172839506172839,0,0,0.06172839506172839,41.9753086419753,0)" xlink:href="#V"/><use transform="matrix(0.06172839506172839,0,0,0.06172839506172839,54.32098765432098,0)" xlink:href="#Z"/><use transform="matrix(0.06172839506172839,0,0,0.06172839506172839,65.43209876543209,0)" xlink:href="#S"/></g><path fill="#3a414a" d="M63-220v92h138v28H63V0H30v-248h175v28H63" id="am"/><g id="i"><use transform="matrix(0.06172839506172839,0,0,0.06172839506172839,0,0)" xlink:href="#am"/><use transform="matrix(0.06172839506172839,0,0,0.06172839506172839,13.518518518518517,0)" xlink:href="#V"/><use transform="matrix(0.06172839506172839,0,0,0.06172839506172839,25.864197530864196,0)" xlink:href="#Z"/><use transform="matrix(0.06172839506172839,0,0,0.06172839506172839,36.9753086419753,0)" xlink:href="#R"/><use transform="matrix(0.06172839506172839,0,0,0.06172839506172839,43.148148148148145,0)" xlink:href="#al"/><use transform="matrix(0.06172839506172839,0,0,0.06172839506172839,55.49382716049382,0)" xlink:href="#V"/><use transform="matrix(0.06172839506172839,0,0,0.06172839506172839,67.8395061728395,0)" xlink:href="#Z"/><use transform="matrix(0.06172839506172839,0,0,0.06172839506172839,78.95061728395062,0)" xlink:href="#S"/></g><path fill="#3a414a" d="M177-190C167-65 218 103 67 71c-23-6-38-20-44-43l32-5c15 47 100 32 89-28v-30C133-14 115 1 83 1 29 1 15-40 15-95c0-56 16-97 71-98 29-1 48 16 59 35 1-10 0-23 2-32h30zM94-22c36 0 50-32 50-73 0-42-14-75-50-75-39 0-46 34-46 75s6 73 46 73" id="an"/><g id="j"><use transform="matrix(0.06172839506172839,0,0,0.06172839506172839,0,0)" xlink:href="#X"/><use transform="matrix(0.06172839506172839,0,0,0.06172839506172839,14.814814814814813,0)" xlink:href="#ad"/><use transform="matrix(0.06172839506172839,0,0,0.06172839506172839,27.160493827160494,0)" xlink:href="#Z"/><use transform="matrix(0.06172839506172839,0,0,0.06172839506172839,38.27160493827161,0)" xlink:href="#R"/><use transform="matrix(0.06172839506172839,0,0,0.06172839506172839,44.44444444444445,0)" xlink:href="#an"/><use transform="matrix(0.06172839506172839,0,0,0.06172839506172839,56.79012345679013,0)" xlink:href="#T"/><use transform="matrix(0.06172839506172839,0,0,0.06172839506172839,64.13580246913581,0)" xlink:href="#S"/><use transform="matrix(0.06172839506172839,0,0,0.06172839506172839,76.4814814814815,0)" xlink:href="#Z"/></g><path fill="#3a414a" d="M233-177c-1 41-23 64-60 70L243 0h-38l-65-103H63V0H30v-248c88 3 205-21 203 71zM63-129c60-2 137 13 137-47 0-61-80-42-137-45v92" id="ao"/><path fill="#3a414a" d="M106-169C34-169 62-67 57 0H25v-261h32l-1 103c12-21 28-36 61-36 89 0 53 116 60 194h-32v-121c2-32-8-49-39-48" id="ap"/><path fill="#3a414a" d="M24-231v-30h32v30H24zM24 0v-190h32V0H24" id="aq"/><g id="k"><use transform="matrix(0.06172839506172839,0,0,0.06172839506172839,0,0)" xlink:href="#ao"/><use transform="matrix(0.06172839506172839,0,0,0.06172839506172839,15.987654320987653,0)" xlink:href="#S"/><use transform="matrix(0.06172839506172839,0,0,0.06172839506172839,28.333333333333332,0)" xlink:href="#ab"/><use transform="matrix(0.06172839506172839,0,0,0.06172839506172839,40.67901234567901,0)" xlink:href="#Z"/><use transform="matrix(0.06172839506172839,0,0,0.06172839506172839,51.79012345679013,0)" xlink:href="#ap"/><use transform="matrix(0.06172839506172839,0,0,0.06172839506172839,64.13580246913581,0)" xlink:href="#aq"/><use transform="matrix(0.06172839506172839,0,0,0.06172839506172839,69.01234567901236,0)" xlink:href="#af"/><use transform="matrix(0.06172839506172839,0,0,0.06172839506172839,75.18518518518519,0)" xlink:href="#R"/></g><path fill="#3a414a" d="M140-251c81 0 123 46 123 126C263-46 219 4 140 4 59 4 17-45 17-125s42-126 123-126zm0 227c63 0 89-41 89-101s-29-99-89-99c-61 0-89 39-89 99S79-25 140-24" id="ar"/><g id="l"><use transform="matrix(0.06172839506172839,0,0,0.06172839506172839,0,0)" xlink:href="#ah"/><use transform="matrix(0.06172839506172839,0,0,0.06172839506172839,15.987654320987653,0)" xlink:href="#V"/><use transform="matrix(0.06172839506172839,0,0,0.06172839506172839,28.333333333333332,0)" xlink:href="#R"/><use transform="matrix(0.06172839506172839,0,0,0.06172839506172839,34.50617283950617,0)" xlink:href="#V"/><use transform="matrix(0.06172839506172839,0,0,0.06172839506172839,46.85185185185185,0)" xlink:href="#ar"/><use transform="matrix(0.06172839506172839,0,0,0.06172839506172839,64.1358024691358,0)" xlink:href="#ac"/></g><g id="m"><use transform="matrix(0.06172839506172839,0,0,0.06172839506172839,0,0)" xlink:href="#ah"/><use transform="matrix(0.06172839506172839,0,0,0.06172839506172839,15.987654320987653,0)" xlink:href="#V"/><use transform="matrix(0.06172839506172839,0,0,0.06172839506172839,28.333333333333332,0)" xlink:href="#R"/><use transform="matrix(0.06172839506172839,0,0,0.06172839506172839,34.50617283950617,0)" xlink:href="#V"/></g><path fill="#3a414a" d="M30 0v-248h33v221h125V0H30" id="as"/><g id="n"><use transform="matrix(0.06172839506172839,0,0,0.06172839506172839,0,0)" xlink:href="#as"/><use transform="matrix(0.06172839506172839,0,0,0.06172839506172839,12.345679012345679,0)" xlink:href="#V"/><use transform="matrix(0.06172839506172839,0,0,0.06172839506172839,24.691358024691358,0)" xlink:href="#ag"/><use transform="matrix(0.06172839506172839,0,0,0.06172839506172839,35.80246913580247,0)" xlink:href="#S"/></g><g id="o"><use transform="matrix(0.0987654320987654,0,0,0.0987654320987654,0,0)" xlink:href="#ah"/><use transform="matrix(0.0987654320987654,0,0,0.0987654320987654,25.58024691358024,0)" xlink:href="#V"/><use transform="matrix(0.0987654320987654,0,0,0.0987654320987654,45.333333333333314,0)" xlink:href="#R"/><use transform="matrix(0.0987654320987654,0,0,0.0987654320987654,55.209876543209845,0)" xlink:href="#V"/><use transform="matrix(0.0987654320987654,0,0,0.0987654320987654,74.96296296296293,0)" xlink:href="#ar"/><use transform="matrix(0.0987654320987654,0,0,0.0987654320987654,102.61728395061725,0)" xlink:href="#ac"/></g><g id="p"><use transform="matrix(0.0987654320987654,0,0,0.0987654320987654,0,0)" xlink:href="#am"/><use transform="matrix(0.0987654320987654,0,0,0.0987654320987654,21.629629629629623,0)" xlink:href="#W"/><use transform="matrix(0.0987654320987654,0,0,0.0987654320987654,29.432098765432087,0)" xlink:href="#V"/><use transform="matrix(0.0987654320987654,0,0,0.0987654320987654,49.18518518518516,0)" xlink:href="#T"/><use transform="matrix(0.0987654320987654,0,0,0.0987654320987654,60.93827160493824,0)" xlink:href="#S"/></g><g id="q"><use transform="matrix(0.06172839506172839,0,0,0.06172839506172839,0,0)" xlink:href="#ac"/><use transform="matrix(0.06172839506172839,0,0,0.06172839506172839,14.814814814814813,0)" xlink:href="#R"/><use transform="matrix(0.06172839506172839,0,0,0.06172839506172839,20.98765432098765,0)" xlink:href="#ad"/><use transform="matrix(0.06172839506172839,0,0,0.06172839506172839,33.33333333333333,0)" xlink:href="#T"/><use transform="matrix(0.06172839506172839,0,0,0.06172839506172839,40.679012345679006,0)" xlink:href="#V"/><use transform="matrix(0.06172839506172839,0,0,0.06172839506172839,53.02469135802468,0)" xlink:href="#an"/><use transform="matrix(0.06172839506172839,0,0,0.06172839506172839,65.37037037037037,0)" xlink:href="#S"/></g><g id="r"><use transform="matrix(0.06172839506172839,0,0,0.06172839506172839,0,0)" xlink:href="#ac"/><use transform="matrix(0.06172839506172839,0,0,0.06172839506172839,14.814814814814813,0)" xlink:href="#ad"/><use transform="matrix(0.06172839506172839,0,0,0.06172839506172839,27.160493827160494,0)" xlink:href="#Y"/><use transform="matrix(0.06172839506172839,0,0,0.06172839506172839,39.50617283950617,0)" xlink:href="#T"/><use transform="matrix(0.06172839506172839,0,0,0.06172839506172839,46.85185185185185,0)" xlink:href="#ak"/><use transform="matrix(0.06172839506172839,0,0,0.06172839506172839,57.96296296296296,0)" xlink:href="#S"/><use transform="matrix(0.06172839506172839,0,0,0.06172839506172839,70.30864197530865,0)" xlink:href="#Z"/></g><g id="s"><use transform="matrix(0.06172839506172839,0,0,0.06172839506172839,0,0)" xlink:href="#V"/><use transform="matrix(0.06172839506172839,0,0,0.06172839506172839,12.345679012345679,0)" xlink:href="#U"/><use transform="matrix(0.06172839506172839,0,0,0.06172839506172839,24.691358024691358,0)" xlink:href="#ab"/></g><g id="t"><use transform="matrix(0.06172839506172839,0,0,0.06172839506172839,0,0)" xlink:href="#ac"/><use transform="matrix(0.06172839506172839,0,0,0.06172839506172839,14.814814814814813,0)" xlink:href="#aq"/><use transform="matrix(0.06172839506172839,0,0,0.06172839506172839,19.691358024691354,0)" xlink:href="#U"/><use transform="matrix(0.06172839506172839,0,0,0.06172839506172839,32.03703703703703,0)" xlink:href="#ag"/><use transform="matrix(0.06172839506172839,0,0,0.06172839506172839,43.14814814814814,0)" xlink:href="#Z"/></g><g id="u"><use transform="matrix(0.06172839506172839,0,0,0.06172839506172839,0,0)" xlink:href="#X"/><use transform="matrix(0.06172839506172839,0,0,0.06172839506172839,14.814814814814813,0)" xlink:href="#ad"/><use transform="matrix(0.06172839506172839,0,0,0.06172839506172839,27.160493827160494,0)" xlink:href="#T"/><use transform="matrix(0.06172839506172839,0,0,0.06172839506172839,34.50617283950617,0)" xlink:href="#ad"/><use transform="matrix(0.06172839506172839,0,0,0.06172839506172839,46.85185185185185,0)" xlink:href="#Z"/></g><path fill="#3a414a" d="M240 0l2-218c-23 76-54 145-80 218h-23L58-218 59 0H30v-248h44l77 211c21-75 51-140 76-211h43V0h-30" id="at"/><g id="v"><use transform="matrix(0.06172839506172839,0,0,0.06172839506172839,0,0)" xlink:href="#at"/><use transform="matrix(0.06172839506172839,0,0,0.06172839506172839,18.456790123456788,0)" xlink:href="#S"/><use transform="matrix(0.06172839506172839,0,0,0.06172839506172839,30.80246913580247,0)" xlink:href="#R"/><use transform="matrix(0.06172839506172839,0,0,0.06172839506172839,36.97530864197531,0)" xlink:href="#aq"/><use transform="matrix(0.06172839506172839,0,0,0.06172839506172839,41.851851851851855,0)" xlink:href="#Z"/></g><g id="w"><use transform="matrix(0.055555555555555546,0,0,0.055555555555555546,0,0)" xlink:href="#aj"/><use transform="matrix(0.055555555555555546,0,0,0.055555555555555546,5.5555555555555545,0)" xlink:href="#U"/><use transform="matrix(0.055555555555555546,0,0,0.055555555555555546,16.666666666666664,0)" xlink:href="#an"/><use transform="matrix(0.055555555555555546,0,0,0.055555555555555546,27.77777777777777,0)" xlink:href="#S"/><use transform="matrix(0.055555555555555546,0,0,0.055555555555555546,38.88888888888888,0)" xlink:href="#Z"/><use transform="matrix(0.055555555555555546,0,0,0.055555555555555546,48.88888888888888,0)" xlink:href="#R"/><use transform="matrix(0.055555555555555546,0,0,0.055555555555555546,54.444444444444436,0)" xlink:href="#aq"/><use transform="matrix(0.055555555555555546,0,0,0.055555555555555546,58.83333333333332,0)" xlink:href="#ad"/><use transform="matrix(0.055555555555555546,0,0,0.055555555555555546,69.94444444444443,0)" xlink:href="#U"/></g><path fill="#3a414a" d="M210-169c-67 3-38 105-44 169h-31v-121c0-29-5-50-35-48C34-165 62-65 56 0H25l-1-190h30c1 10-1 24 2 32 10-44 99-50 107 0 11-21 27-35 58-36 85-2 47 119 55 194h-31v-121c0-29-5-49-35-48" id="au"/><g id="x"><use transform="matrix(0.055555555555555546,0,0,0.055555555555555546,0,0)" xlink:href="#aa"/><use transform="matrix(0.055555555555555546,0,0,0.055555555555555546,11.444444444444443,0)" xlink:href="#T"/><use transform="matrix(0.055555555555555546,0,0,0.055555555555555546,18.055555555555554,0)" xlink:href="#V"/><use transform="matrix(0.055555555555555546,0,0,0.055555555555555546,29.16666666666666,0)" xlink:href="#U"/><use transform="matrix(0.055555555555555546,0,0,0.055555555555555546,40.27777777777777,0)" xlink:href="#Z"/><use transform="matrix(0.055555555555555546,0,0,0.055555555555555546,50.27777777777777,0)" xlink:href="#af"/><use transform="matrix(0.055555555555555546,0,0,0.055555555555555546,55.83333333333333,0)" xlink:href="#ad"/><use transform="matrix(0.055555555555555546,0,0,0.055555555555555546,66.94444444444444,0)" xlink:href="#T"/><use transform="matrix(0.055555555555555546,0,0,0.055555555555555546,73.55555555555556,0)" xlink:href="#au"/><use transform="matrix(0.055555555555555546,0,0,0.055555555555555546,90.16666666666666,0)" xlink:href="#V"/><use transform="matrix(0.055555555555555546,0,0,0.055555555555555546,101.27777777777777,0)" xlink:href="#R"/><use transform="matrix(0.055555555555555546,0,0,0.055555555555555546,106.83333333333333,0)" xlink:href="#aq"/><use transform="matrix(0.055555555555555546,0,0,0.055555555555555546,111.22222222222221,0)" xlink:href="#ad"/><use transform="matrix(0.055555555555555546,0,0,0.055555555555555546,122.33333333333334,0)" xlink:href="#U"/></g><path fill="#3a414a" d="M179-190L93 31C79 59 56 82 12 73V49c39 6 53-20 64-50L1-190h34L92-34l54-156h33" id="av"/><g id="y"><use transform="matrix(0.055555555555555546,0,0,0.055555555555555546,0,0)" xlink:href="#ac"/><use transform="matrix(0.055555555555555546,0,0,0.055555555555555546,13.33333333333333,0)" xlink:href="#av"/><use transform="matrix(0.055555555555555546,0,0,0.055555555555555546,23.33333333333333,0)" xlink:href="#U"/><use transform="matrix(0.055555555555555546,0,0,0.055555555555555546,34.444444444444436,0)" xlink:href="#ab"/><use transform="matrix(0.055555555555555546,0,0,0.055555555555555546,45.55555555555554,0)" xlink:href="#aq"/><use transform="matrix(0.055555555555555546,0,0,0.055555555555555546,49.94444444444443,0)" xlink:href="#ak"/><use transform="matrix(0.055555555555555546,0,0,0.055555555555555546,59.944444444444436,0)" xlink:href="#V"/><use transform="matrix(0.055555555555555546,0,0,0.055555555555555546,71.05555555555554,0)" xlink:href="#R"/><use transform="matrix(0.055555555555555546,0,0,0.055555555555555546,76.6111111111111,0)" xlink:href="#aq"/><use transform="matrix(0.055555555555555546,0,0,0.055555555555555546,80.99999999999999,0)" xlink:href="#ad"/><use transform="matrix(0.055555555555555546,0,0,0.055555555555555546,92.1111111111111,0)" xlink:href="#U"/></g><g id="z"><use transform="matrix(0.055555555555555546,0,0,0.055555555555555546,0,0)" xlink:href="#X"/><use transform="matrix(0.055555555555555546,0,0,0.055555555555555546,13.33333333333333,0)" xlink:href="#T"/><use transform="matrix(0.055555555555555546,0,0,0.055555555555555546,19.94444444444444,0)" xlink:href="#ad"/><use transform="matrix(0.055555555555555546,0,0,0.055555555555555546,31.05555555555555,0)" xlink:href="#af"/><use transform="matrix(0.055555555555555546,0,0,0.055555555555555546,36.61111111111111,0)" xlink:href="#aq"/><use transform="matrix(0.055555555555555546,0,0,0.055555555555555546,40.99999999999999,0)" xlink:href="#W"/><use transform="matrix(0.055555555555555546,0,0,0.055555555555555546,45.38888888888888,0)" xlink:href="#aq"/><use transform="matrix(0.055555555555555546,0,0,0.055555555555555546,49.777777777777764,0)" xlink:href="#U"/><use transform="matrix(0.055555555555555546,0,0,0.055555555555555546,60.888888888888864,0)" xlink:href="#an"/></g><path fill="#3a414a" d="M190 0L58-211 59 0H30v-248h39L202-35l-2-213h31V0h-41" id="aw"/><g id="A"><use transform="matrix(0.06172839506172839,0,0,0.06172839506172839,0,0)" xlink:href="#aw"/><use transform="matrix(0.06172839506172839,0,0,0.06172839506172839,15.987654320987653,0)" xlink:href="#S"/><use transform="matrix(0.06172839506172839,0,0,0.06172839506172839,28.333333333333332,0)" xlink:href="#R"/><use transform="matrix(0.06172839506172839,0,0,0.06172839506172839,34.50617283950617,0)" xlink:href="#ae"/><use transform="matrix(0.06172839506172839,0,0,0.06172839506172839,50.49382716049382,0)" xlink:href="#ad"/><use transform="matrix(0.06172839506172839,0,0,0.06172839506172839,62.8395061728395,0)" xlink:href="#T"/><use transform="matrix(0.06172839506172839,0,0,0.06172839506172839,70.18518518518518,0)" xlink:href="#ag"/></g><path fill="#3a414a" d="M0 4l72-265h28L28 4H0" id="ax"/><use transform="matrix(0.06172839506172839,0,0,0.06172839506172839,0,0)" xlink:href="#ax" id="B"/><path fill="#3a414a" d="M205 0l-28-72H64L36 0H1l101-248h38L239 0h-34zm-38-99l-47-123c-12 45-31 82-46 123h93" id="ay"/><g id="C"><use transform="matrix(0.06172839506172839,0,0,0.06172839506172839,0,0)" xlink:href="#ay"/><use transform="matrix(0.06172839506172839,0,0,0.06172839506172839,14.814814814814813,0)" xlink:href="#X"/><use transform="matrix(0.06172839506172839,0,0,0.06172839506172839,29.629629629629626,0)" xlink:href="#aj"/></g><path fill="#3a414a" d="M143 4C61 4 22-44 18-125c-5-107 100-154 193-111 17 8 29 25 37 43l-32 9c-13-25-37-40-76-40-61 0-88 39-88 99 0 61 29 100 91 101 35 0 62-11 79-27v-45h-74v-28h105v86C228-13 192 4 143 4" id="az"/><g id="D"><use transform="matrix(0.06172839506172839,0,0,0.06172839506172839,0,0)" xlink:href="#az"/><use transform="matrix(0.06172839506172839,0,0,0.06172839506172839,17.28395061728395,0)" xlink:href="#V"/><use transform="matrix(0.06172839506172839,0,0,0.06172839506172839,29.629629629629626,0)" xlink:href="#R"/><use transform="matrix(0.06172839506172839,0,0,0.06172839506172839,35.80246913580247,0)" xlink:href="#S"/><use transform="matrix(0.06172839506172839,0,0,0.06172839506172839,48.148148148148145,0)" xlink:href="#ae"/><use transform="matrix(0.06172839506172839,0,0,0.06172839506172839,64.1358024691358,0)" xlink:href="#V"/><use transform="matrix(0.06172839506172839,0,0,0.06172839506172839,76.48148148148148,0)" xlink:href="#av"/></g><path fill="#3a414a" d="M108 0H70L1-190h34L89-25l56-165h34" id="aA"/><g id="E"><use transform="matrix(0.06172839506172839,0,0,0.06172839506172839,0,0)" xlink:href="#aw"/><use transform="matrix(0.06172839506172839,0,0,0.06172839506172839,15.987654320987653,0)" xlink:href="#V"/><use transform="matrix(0.06172839506172839,0,0,0.06172839506172839,28.333333333333332,0)" xlink:href="#R"/><use transform="matrix(0.06172839506172839,0,0,0.06172839506172839,34.50617283950617,0)" xlink:href="#aq"/><use transform="matrix(0.06172839506172839,0,0,0.06172839506172839,39.382716049382715,0)" xlink:href="#aA"/><use transform="matrix(0.06172839506172839,0,0,0.06172839506172839,50.49382716049382,0)" xlink:href="#S"/></g><g id="F"><use transform="matrix(0.06172839506172839,0,0,0.06172839506172839,0,0)" xlink:href="#ay"/><use transform="matrix(0.06172839506172839,0,0,0.06172839506172839,14.814814814814813,0)" xlink:href="#ai"/><use transform="matrix(0.06172839506172839,0,0,0.06172839506172839,27.160493827160494,0)" xlink:href="#ai"/><use transform="matrix(0.06172839506172839,0,0,0.06172839506172839,39.50617283950617,0)" xlink:href="#Z"/></g><path fill="#3a414a" d="M212-179c-10-28-35-45-73-45-59 0-87 40-87 99 0 60 29 101 89 101 43 0 62-24 78-52l27 14C228-24 195 4 139 4 59 4 22-46 18-125c-6-104 99-153 187-111 19 9 31 26 39 46" id="aB"/><g id="G"><use transform="matrix(0.06172839506172839,0,0,0.06172839506172839,0,0)" xlink:href="#aB"/><use transform="matrix(0.06172839506172839,0,0,0.06172839506172839,15.987654320987653,0)" xlink:href="#as"/><use transform="matrix(0.06172839506172839,0,0,0.06172839506172839,28.333333333333332,0)" xlink:href="#aj"/></g><g id="H"><use transform="matrix(0.06172839506172839,0,0,0.06172839506172839,0,0)" xlink:href="#at"/><use transform="matrix(0.06172839506172839,0,0,0.06172839506172839,18.456790123456788,0)" xlink:href="#aq"/><use transform="matrix(0.06172839506172839,0,0,0.06172839506172839,23.33333333333333,0)" xlink:href="#U"/><use transform="matrix(0.06172839506172839,0,0,0.06172839506172839,35.679012345679006,0)" xlink:href="#S"/><use transform="matrix(0.06172839506172839,0,0,0.06172839506172839,48.02469135802468,0)" xlink:href="#T"/><use transform="matrix(0.06172839506172839,0,0,0.06172839506172839,55.37037037037036,0)" xlink:href="#aA"/><use transform="matrix(0.06172839506172839,0,0,0.06172839506172839,66.48148148148147,0)" xlink:href="#V"/></g><linearGradient gradientUnits="userSpaceOnUse" id="I" x1="156.59" y1="1136.87" x2="158.99" y2="1135.12"><stop offset="0%" stop-color="#909ca9"/><stop offset="100%" stop-color="#ededee"/></linearGradient><linearGradient gradientUnits="userSpaceOnUse" id="J" x1="156.66" y1="1103.86" x2="158.58" y2="1103.86"><stop offset="0%" stop-color="#939fab"/><stop offset="100%" stop-color="#dcdee1"/></linearGradient><radialGradient gradientUnits="userSpaceOnUse" id="K" fx="166.38" fy="1114.79" cx="166.38" cy="1114.79" r="3.73"><stop offset="0%" stop-color="#ee352c"/><stop offset="100%" stop-color="#a91d22"/></radialGradient><g id="L"><use transform="matrix(0.06172839506172839,0,0,0.06172839506172839,0,0)" xlink:href="#aa"/><use transform="matrix(0.06172839506172839,0,0,0.06172839506172839,11.049382716049381,0)" xlink:href="#V"/><use transform="matrix(0.06172839506172839,0,0,0.06172839506172839,23.39506172839506,0)" xlink:href="#al"/><use transform="matrix(0.06172839506172839,0,0,0.06172839506172839,35.74074074074074,0)" xlink:href="#W"/><use transform="matrix(0.06172839506172839,0,0,0.06172839506172839,40.617283950617285,0)" xlink:href="#S"/></g><g id="M"><use transform="matrix(0.06172839506172839,0,0,0.06172839506172839,0,0)" xlink:href="#ac"/><use transform="matrix(0.06172839506172839,0,0,0.06172839506172839,14.814814814814813,0)" xlink:href="#R"/><use transform="matrix(0.06172839506172839,0,0,0.06172839506172839,20.98765432098765,0)" xlink:href="#T"/><use transform="matrix(0.06172839506172839,0,0,0.06172839506172839,28.33333333333333,0)" xlink:href="#S"/><use transform="matrix(0.06172839506172839,0,0,0.06172839506172839,40.679012345679006,0)" xlink:href="#V"/><use transform="matrix(0.06172839506172839,0,0,0.06172839506172839,53.02469135802468,0)" xlink:href="#au"/></g><path fill="#3a414a" d="M197 0v-115H63V0H30v-248h33v105h134v-105h34V0h-34" id="aC"/><g id="N"><use transform="matrix(0.06172839506172839,0,0,0.06172839506172839,0,0)" xlink:href="#aC"/><use transform="matrix(0.06172839506172839,0,0,0.06172839506172839,15.987654320987653,0)" xlink:href="#S"/><use transform="matrix(0.06172839506172839,0,0,0.06172839506172839,28.333333333333332,0)" xlink:href="#V"/><use transform="matrix(0.06172839506172839,0,0,0.06172839506172839,40.67901234567901,0)" xlink:href="#ai"/></g><g id="O"><use transform="matrix(0.06172839506172839,0,0,0.06172839506172839,0,0)" xlink:href="#ah"/><use transform="matrix(0.06172839506172839,0,0,0.06172839506172839,15.987654320987653,0)" xlink:href="#V"/><use transform="matrix(0.06172839506172839,0,0,0.06172839506172839,28.333333333333332,0)" xlink:href="#R"/><use transform="matrix(0.06172839506172839,0,0,0.06172839506172839,34.50617283950617,0)" xlink:href="#V"/><use transform="matrix(0.06172839506172839,0,0,0.06172839506172839,46.85185185185185,0)" xlink:href="#al"/><use transform="matrix(0.06172839506172839,0,0,0.06172839506172839,59.197530864197525,0)" xlink:href="#V"/><use transform="matrix(0.06172839506172839,0,0,0.06172839506172839,71.5432098765432,0)" xlink:href="#Z"/><use transform="matrix(0.06172839506172839,0,0,0.06172839506172839,82.65432098765432,0)" xlink:href="#S"/></g></defs></g></svg>