<svg width="42" height="42" viewBox="0 0 32 32" fill="none" xmlns="http://www.w3.org/2000/svg">
<path d="M23.7774 8C21.0337 8 18.5062 9.5436 16.0636 12.2407C13.6634 9.50119 11.0936 8 8.22264 8C3.46886 8 0 11.3925 0 15.9597C0 20.5269 3.46886 23.877 8.22264 23.877C11.1444 23.877 13.409 22.5073 15.9364 19.7763C18.379 22.5158 20.864 23.8855 23.7774 23.8855C28.5311 23.877 32 20.5396 32 15.9597C32 11.3798 28.5311 8 23.7774 8ZM8.25656 19.0851C6.24225 19.0851 5.04214 17.7578 5.04214 16.0021C5.04214 14.2465 6.24225 12.881 8.25656 12.881C9.95282 12.881 11.3395 14.2465 12.8407 16.0869C11.4243 17.8002 9.92738 19.0851 8.25656 19.0851ZM23.6332 19.0851C21.9624 19.0851 20.5502 17.7578 19.049 16.0021C20.5926 14.1617 21.92 12.881 23.6332 12.881C25.6475 12.881 26.8349 14.2635 26.8349 16.0021C26.8349 17.7408 25.6475 19.0851 23.6332 19.0851Z" fill="#29323D"/>
<path opacity="0.4" d="M19.5156 22.7449L22.7131 18.9283C21.4409 18.5467 20.2662 17.4017 19.0492 15.9811L15.9365 19.7764C16.9556 20.9587 18.1654 21.9621 19.5156 22.7449Z" fill="#A3A7AB"/>
<path opacity="0.4" d="M16.0633 12.2365C15.0511 11.0372 13.8488 10.0114 12.5054 9.20015L9.30371 13.0591C10.5208 13.4832 11.5979 14.5773 12.7429 15.9725L12.8701 16.0615L16.0633 12.2365Z" fill="#A3A7AB"/>
</svg>
