<svg xmlns="http://www.w3.org/2000/svg" width="216.55" height="216.47" viewBox="0 0 216.55 216.47">
  <g id="ModernLogos-07" transform="translate(-287.72 -197.76)">
    <path id="Path_398" data-name="Path 398" d="M402.86,296.54a98.788,98.788,0,0,1,98.77-98.78l.01,98.78Z" fill="#2b323c"/>
    <path id="Path_399" data-name="Path 399" d="M287.72,197.76a98.78,98.78,0,0,1,98.78,98.78H287.72Z" fill="#2b323c"/>
    <circle id="Ellipse_19" data-name="Ellipse 19" cx="52.02" cy="52.02" r="52.02" transform="translate(400.23 310.19)" fill="#2b323c"/>
    <rect id="Rectangle_21" data-name="Rectangle 21" width="98.78" height="98.78" transform="translate(287.72 312.83)" fill="#2b323c"/>
    <path id="Path_400" data-name="Path 400" d="M304.56,403.11l-5.8-14v14h-2.25V384.75h2.67l6.21,15.07,6.19-15.07h2.57v18.36h-2.24v-14l-5.74,14Z" fill="#fff"/>
    <path id="Path_401" data-name="Path 401" d="M321.87,403.38c-3.65,0-6.1-2.84-6.1-6.91s2.45-6.91,6.1-6.91,6.1,2.84,6.1,6.91S325.49,403.38,321.87,403.38Zm0-11.84c-2.39,0-3.83,2-3.83,4.93s1.44,4.93,3.83,4.93,3.82-2,3.82-4.93S324.26,391.54,321.87,391.54Z" fill="#fff"/>
    <path id="Path_402" data-name="Path 402" d="M339,401.55a4.66,4.66,0,0,1-3.73,1.83c-3.89,0-6-3.14-6-6.91s2.09-6.91,6-6.91a4.66,4.66,0,0,1,3.73,1.83v-7.72h2.27v19.44H339Zm0-7.77a3.81,3.81,0,0,0-3.41-2.18c-2.54,0-4,2.06-4,4.87s1.49,4.87,4,4.87a3.81,3.81,0,0,0,3.41-2.18Z" fill="#fff"/>
    <path id="Path_403" data-name="Path 403" d="M354.28,399.13a5.07,5.07,0,0,1-5.35,4.25c-3.62,0-6.1-2.78-6.1-6.88s2.42-6.94,6-6.94,5.59,2.66,5.59,6.52v.81h-9.39c0,2.84,1.62,4.57,3.86,4.57a3,3,0,0,0,3.23-2.33Zm-9.15-3.95h7.06c0-2-1.08-3.7-3.29-3.7C346.9,391.48,345.46,392.85,345.13,395.18Z" fill="#fff"/>
    <path id="Path_404" data-name="Path 404" d="M363.06,392.07a3,3,0,0,0-1.5-.35,3.21,3.21,0,0,0-3.08,2.48v8.91h-2.24V389.83h2.24v1.74a3.7,3.7,0,0,1,3.29-2,3.251,3.251,0,0,1,1.29.21Z" fill="#fff"/>
    <path id="Path_405" data-name="Path 405" d="M364.65,389.83h2.24v1.68a5,5,0,0,1,3.92-1.95c3,0,4.66,1.95,4.66,4.85v8.7H373.2v-8.34c0-1.86-.93-3.14-2.93-3.14a3.6,3.6,0,0,0-3.38,2.48v9h-2.24Z" fill="#fff"/>
    <path id="Path_406" data-name="Path 406" d="M377.48,393a1.73,1.73,0,1,1,1.71-1.72,1.69,1.69,0,0,1-1.71,1.72Zm0-3.17a1.45,1.45,0,1,0,1.42,1.45,1.41,1.41,0,0,0-1.42-1.44Zm-.27,1.69v.64h-.4v-1.81h.8a.57.57,0,0,1,.64.6.51.51,0,0,1-.4.53l.46.68h-.44l-.42-.64Zm.38-.83h-.38v.5h.38a.25.25,0,0,0,.28-.24.26.26,0,0,0-.28-.25Z" fill="#fff"/>
  </g>
</svg>
