<svg xmlns="http://www.w3.org/2000/svg" xmlns:xlink="http://www.w3.org/1999/xlink" xmlns:lucid="lucid" width="1053" height="752"><g transform="translate(1090 31)" lucid:page-tab-id="0_0"><path d="M-1806.87-1258.83h3677.74v2581.66h-3677.74z" fill="#fff"/><path d="M-20 129.33a6 6 0 0 1 6-6h188.9a6 6 0 0 1 6 6v328a6 6 0 0 1-6 6H-14a6 6 0 0 1-6-6z" fill-opacity="0"/><path d="M-5.2 123.4h9.73m4.87 0h9.73m4.87 0h9.74m4.86 0l9.74-.02m4.87 0h9.74m4.87 0h9.74m4.87 0h9.75m4.86-.02h9.75m4.87 0h9.73m4.87 0h9.73m4.87 0l9.73-.02m4.87 0h9.74m4.86 0h4.87l.93.07.92.23.87.36.8.48.7.6.63.73.5.8.35.88.22.9v5m0 4.98v9.97m0 4.98v9.98m0 5v9.95m0 5v9.96m0 4.97l.02 9.97m0 4.98v9.97m0 4.97v9.97m0 4.98V253m0 4.98v9.96m0 5v9.96m0 4.98l.02 9.97m0 4.98v9.97m0 4.98v9.97m0 5v9.95m0 5v9.95m0 5v9.96m0 5l.02 9.96m0 4.98v9.97m0 5v9.96m0 5v9.95m0 5v9.97m0 4.98v4.98l-.06.94-.22.92-.36.86-.5.8-.6.72-.72.6-.8.5-.87.36-.92.22h-4.87m-4.86 0h-9.74m-4.87 0h-9.74m-4.87 0l-9.74.02m-4.87 0h-9.75m-4.86 0h-9.75m-4.87 0l-9.73.02m-4.87 0h-9.73m-4.87 0h-9.74m-4.86 0h-9.74m-4.87 0l-9.73.02m-4.87 0h-9.73m-4.87 0h-9.74m-4.86 0H-14l-.94-.06-.9-.22-.88-.36-.8-.5-.72-.6-.6-.72-.5-.8-.37-.87-.23-.93v-4.98m0-5v-9.96m0-5v-9.96m0-4.98v-9.97m0-4.98v-9.97m0-4.98v-9.97m-.02-4.98v-9.97m0-5v-9.95m0-5v-9.96m0-4.98v-9.98m0-4.98v-9.97m0-4.98v-9.98m-.02-5v-9.95m0-5v-9.95m0-5v-9.96m0-4.98V229m0-4.97v-9.97m0-4.98v-9.97m-.02-4.98v-9.96m0-5v-9.96m0-4.98v-9.97m0-4.98v-9.97m0-4.98v-5l.07-.93.22-.92.35-.87.5-.8.6-.7.72-.62.8-.5.88-.35.9-.22h4.88" stroke="#3a414a" fill="none"/><path d="M-107.5 349.33a6 6 0 0 1 6-6h363a6 6 0 0 1 6 6v131.34a6 6 0 0 1-6 6h-363a6 6 0 0 1-6-6z" stroke="#000" stroke-opacity="0" fill="#fff" fill-opacity="0"/><use xlink:href="#a" transform="matrix(1,0,0,1,-102.5,348.3333333333334) translate(152.34567901234567 59.65277777777777)"/><use xlink:href="#b" transform="matrix(1,0,0,1,-102.5,348.3333333333334) translate(111.63580246913581 86.31944444444443)"/><use xlink:href="#c" transform="matrix(1,0,0,1,-102.5,348.3333333333334) translate(165.83333333333331 86.31944444444443)"/><path d="M-20 530.43a6 6 0 0 1 6-6h728a6 6 0 0 1 6 6v131.33a6 6 0 0 1-6 6H-14a6 6 0 0 1-6-6z" fill-opacity="0"/><path d="M-5.02 524.5H4.9m4.96 0h9.9m4.97 0h9.92m4.96 0h9.93m4.95 0h9.92m4.96 0h9.92m4.96 0h9.9m4.97 0h9.93m4.96 0h9.9m4.97 0h9.9m4.97 0h9.92m4.96 0l9.92-.02m4.95 0h9.9m4.97 0h9.92m4.95 0h9.9m4.97 0h9.92m4.96 0h9.92m4.96 0h9.9m4.97 0h9.92m4.96 0h9.92m4.95 0h9.92m4.96 0h9.92m4.96 0h9.92m4.95 0h9.92m4.96 0h9.93m4.96-.02h9.9m4.96 0h9.92m4.96 0h9.92m4.96 0h9.9m4.97 0h9.9m4.97 0h9.92m4.94 0h9.92m4.96 0h9.92m4.96 0h9.9m4.97 0h9.92m4.95 0h9.92m4.96 0h9.9m4.97 0h9.92m4.96 0l9.92-.02m4.95 0h9.92m4.96 0h9.92m4.96 0h9.92m4.96 0h9.92m4.96 0h9.92m4.96 0h9.9m4.97 0h9.93m4.96 0h9.9m4.96 0h9.92m4.96 0H714l.94.06.9.22.88.36.8.5.72.6.6.72.5.8.37.88.23.9v4.9m0 4.9v9.8m0 4.9l.02 9.8m0 4.9v9.8m0 4.9v9.8m0 4.9l.02 9.8m0 4.9v9.8m0 4.9l.02 9.8m0 4.9v9.8m0 4.88v4.9l-.07.94-.22.92-.35.87-.5.8-.6.7-.72.62-.8.5-.88.35-.9.22h-4.97m-4.96 0h-9.92m-4.96 0h-9.9m-4.97 0h-9.92m-4.96 0h-9.93m-4.95 0h-9.92m-4.96 0h-9.92m-4.96 0h-9.9m-4.97 0h-9.93m-4.96 0h-9.9m-4.97 0h-9.9m-4.97 0h-9.92m-4.96 0h-9.92m-4.95 0h-9.9m-4.97 0h-9.92m-4.95 0h-9.9m-4.97 0h-9.92m-4.96 0l-9.92.02m-4.96 0h-9.9m-4.97 0h-9.92m-4.96 0h-9.92m-4.95 0h-9.92m-4.96 0h-9.92m-4.96 0h-9.92m-4.95 0h-9.92m-4.96 0h-9.93m-4.96 0h-9.9m-4.96 0h-9.92m-4.96 0h-9.92m-4.96 0h-9.9m-4.97 0h-9.9m-4.97.02h-9.92m-4.94 0h-9.92m-4.96 0h-9.92m-4.96 0h-9.9m-4.97 0h-9.92m-4.95 0h-9.92m-4.96 0h-9.9m-4.97 0h-9.92m-4.96 0h-9.92m-4.95 0h-9.92m-4.96 0h-9.92m-4.96 0h-9.92m-4.96 0H70.3m-4.96 0l-9.92.02m-4.96 0h-9.9m-4.97 0h-9.93m-4.96 0h-9.9m-4.96 0h-9.92m-4.96 0H-14l-.94-.07-.9-.23-.88-.36-.8-.48-.72-.6-.6-.73-.5-.8-.37-.88-.23-.92v-4.9m0-4.9v-9.8m0-4.9l-.02-9.8m0-4.9v-9.8m0-4.9v-9.78m0-4.9l-.02-9.8m0-4.9v-9.8m0-4.9l-.02-9.8m0-4.9v-9.8m0-4.9v-4.9l.07-.93.22-.92.35-.87.5-.8.6-.7.72-.62.8-.5.88-.36.9-.22h4.97" stroke="#3a414a" fill="none"/><path d="M-20-20.67a6 6 0 0 1 6-6h320.5a6 6 0 0 1 6 6v131.34a6 6 0 0 1-6 6H-14a6 6 0 0 1-6-6z" stroke="#000" stroke-opacity="0" fill="#fff" fill-opacity="0"/><use xlink:href="#d" transform="matrix(1,0,0,1,-15,-21.666666666666643) translate(121.06790123456791 59.65277777777777)"/><use xlink:href="#e" transform="matrix(1,0,0,1,-15,-21.666666666666643) translate(156.7469135802469 59.65277777777777)"/><use xlink:href="#f" transform="matrix(1,0,0,1,-15,-21.666666666666643) translate(96.80864197530866 86.31944444444443)"/><use xlink:href="#g" transform="matrix(1,0,0,1,-15,-21.666666666666643) translate(151.00617283950618 86.31944444444443)"/><path d="M-840 274.53a6 6 0 0 1 6-6h248a6 6 0 0 1 6 6v108a6 6 0 0 1-6 6h-248a6 6 0 0 1-6-6z" stroke="#000" fill="#979ea8"/><use xlink:href="#h" transform="matrix(1,0,0,1,-828,280.52595395664144) translate(82.69753086419755 36.888888888888886)"/><use xlink:href="#i" transform="matrix(1,0,0,1,-828,280.52595395664144) translate(13.475308641975317 74.22222222222221)"/><use xlink:href="#j" transform="matrix(1,0,0,1,-828,280.52595395664144) translate(179.3148148148148 74.22222222222221)"/><path d="M-830 53.1a6 6 0 0 1 6-6h228a6 6 0 0 1 6 6v118.66a6 6 0 0 1-6 6h-228a6 6 0 0 1-6-6z" stroke="#000" fill="#dfe3e8"/><use xlink:href="#k" transform="matrix(1,0,0,1,-818,59.09625817535664) translate(64.82098765432099 44.52777777777778)"/><use xlink:href="#l" transform="matrix(1,0,0,1,-818,59.09625817535664) translate(67.96913580246914 71.19444444444446)"/><path d="M-709.5 251.68h-1V233.8h1zm0-39.2h-1v-33.75h1z" stroke="#3a414a" stroke-width=".05" fill="#3a414a"/><path d="M-709.5 178.74h-1v-.5h1z" fill="#3a414a"/><path d="M-709.48 178.76h-1.04v-.56h1.04zm-1-.5v.45h.96v-.45z" stroke="#3a414a" stroke-width=".05" fill="#3a414a"/><path d="M-710 266.44l-4.64-14.26h9.28z" fill="#3a414a"/><path d="M-710 268.06l-5.32-16.38h10.64zm-3.95-15.38l3.95 12.15 3.95-12.15z" stroke="#3a414a" stroke-width=".05" fill="#3a414a"/><use xlink:href="#m" transform="matrix(1,0,0,1,-731.679012345679,212.47777899121027) translate(0 14.222222222222223)"/><path d="M-709.5 498.92h-1v-36.1h1zm0-57.44h-1v-52h1z" stroke="#3a414a" stroke-width=".05" fill="#3a414a"/><path d="M-709.5 389.5h-1v-.5h1z" fill="#3a414a"/><path d="M-709.48 389.53h-1.04v-.57h1.04zm-1-.52v.48h.96V389z" stroke="#3a414a" stroke-width=".05" fill="#3a414a"/><path d="M-710 513.68l-4.64-14.26h9.28z" fill="#3a414a"/><path d="M-710 515.3l-5.32-16.38h10.64zm-3.95-15.38l3.95 12.14 3.95-12.14z" stroke="#3a414a" stroke-width=".05" fill="#3a414a"/><use xlink:href="#n" transform="matrix(1,0,0,1,-732,441.47773970880496) translate(0 14.222222222222223)"/><path d="M-540 274.53a6 6 0 0 1 6-6h248a6 6 0 0 1 6 6v108a6 6 0 0 1-6 6h-248a6 6 0 0 1-6-6z" stroke="#000" fill="#979ea8"/><use xlink:href="#h" transform="matrix(1,0,0,1,-528,280.5259539566415) translate(82.69753086419755 36.888888888888886)"/><use xlink:href="#i" transform="matrix(1,0,0,1,-528,280.5259539566415) translate(13.475308641975317 74.22222222222221)"/><use xlink:href="#o" transform="matrix(1,0,0,1,-528,280.5259539566415) translate(179.3148148148148 74.22222222222221)"/><path d="M-409.5 251.68h-1v-20.54h1zm0-41.87h-1v-36.4h1zM-409.5 173.4h-1v-.5h1z" stroke="#3a414a" stroke-width=".05" fill="#3a414a"/><path d="M-410 266.44l-4.64-14.26h9.28z" fill="#3a414a"/><path d="M-410 268.06l-5.32-16.38h10.64zm-3.95-15.38l3.95 12.15 3.95-12.15z" stroke="#3a414a" stroke-width=".05" fill="#3a414a"/><use xlink:href="#m" transform="matrix(1,0,0,1,-431.67901234567904,209.8111392565265) translate(0 14.222222222222223)"/><path d="M-409.5 498.92h-1v-36.1h1zm0-57.44h-1v-52h1z" stroke="#3a414a" stroke-width=".05" fill="#3a414a"/><path d="M-409.5 389.5h-1v-.5h1z" fill="#3a414a"/><path d="M-409.48 389.53h-1.04v-.57h1.04zm-1-.52v.48h.96V389z" stroke="#3a414a" stroke-width=".05" fill="#3a414a"/><path d="M-410 513.68l-4.64-14.26h9.28z" fill="#3a414a"/><path d="M-410 515.3l-5.32-16.38h10.64zm-3.95-15.38l3.95 12.14 3.95-12.14z" stroke="#3a414a" stroke-width=".05" fill="#3a414a"/><use xlink:href="#n" transform="matrix(1,0,0,1,-432,441.4777397088049) translate(0 14.222222222222223)"/><path d="M-530 53.1a6 6 0 0 1 6-6h228a6 6 0 0 1 6 6v118.66a6 6 0 0 1-6 6h-228a6 6 0 0 1-6-6z" stroke="#000" fill="#dfe3e8"/><use xlink:href="#p" transform="matrix(1,0,0,1,-518,59.09625817535664) translate(39.23456790123457 21.12152777777778)"/><use xlink:href="#q" transform="matrix(1,0,0,1,-518,59.09625817535664) translate(128.74074074074073 21.12152777777778)"/><use xlink:href="#r" transform="matrix(1,0,0,1,-518,59.09625817535664) translate(28.524691358024697 47.78819444444444)"/><use xlink:href="#s" transform="matrix(1,0,0,1,-518,59.09625817535664) translate(122.22839506172839 47.78819444444444)"/><use xlink:href="#t" transform="matrix(1,0,0,1,-518,59.09625817535664) translate(3.555555555555557 74.45486111111111)"/><use xlink:href="#u" transform="matrix(1,0,0,1,-518,59.09625817535664) translate(93.61728395061728 74.45486111111111)"/><use xlink:href="#v" transform="matrix(1,0,0,1,-518,59.09625817535664) translate(4.388888888888886 101.12152777777777)"/><use xlink:href="#w" transform="matrix(1,0,0,1,-518,59.09625817535664) translate(82.04320987654319 101.12152777777777)"/><use xlink:href="#x" transform="matrix(1,0,0,1,-518,59.09625817535664) translate(175.80864197530863 101.12152777777777)"/><path d="M-527.5 521.76a6 6 0 0 1 6-6h228a6 6 0 0 1 6 6v118.67a6 6 0 0 1-6 6h-228a6 6 0 0 1-6-6z" stroke="#000" fill="#dfe3e8"/><g><use xlink:href="#p" transform="matrix(1,0,0,1,-515.5,527.7629248420233) translate(39.23456790123457 21.12152777777778)"/><use xlink:href="#q" transform="matrix(1,0,0,1,-515.5,527.7629248420233) translate(128.74074074074073 21.12152777777778)"/><use xlink:href="#y" transform="matrix(1,0,0,1,-515.5,527.7629248420233) translate(25.40740740740742 47.78819444444444)"/><use xlink:href="#z" transform="matrix(1,0,0,1,-515.5,527.7629248420233) translate(119.11111111111111 47.78819444444444)"/><use xlink:href="#A" transform="matrix(1,0,0,1,-515.5,527.7629248420233) translate(15.901234567901241 74.45486111111111)"/><use xlink:href="#u" transform="matrix(1,0,0,1,-515.5,527.7629248420233) translate(81.27160493827161 74.45486111111111)"/><use xlink:href="#v" transform="matrix(1,0,0,1,-515.5,527.7629248420233) translate(4.388888888888886 101.12152777777777)"/><use xlink:href="#w" transform="matrix(1,0,0,1,-515.5,527.7629248420233) translate(82.04320987654319 101.12152777777777)"/><use xlink:href="#x" transform="matrix(1,0,0,1,-515.5,527.7629248420233) translate(175.80864197530863 101.12152777777777)"/></g><path d="M-830 521.76a6 6 0 0 1 6-6h228a6 6 0 0 1 6 6v118.67a6 6 0 0 1-6 6h-228a6 6 0 0 1-6-6z" stroke="#000" fill="#dfe3e8"/><g><use xlink:href="#k" transform="matrix(1,0,0,1,-818,527.7629248420233) translate(64.82098765432099 44.52777777777778)"/><use xlink:href="#l" transform="matrix(1,0,0,1,-818,527.7629248420233) translate(67.96913580246914 71.19444444444446)"/></g><path d="M-1100 79.1a6 6 0 0 1 6-6h228a6 6 0 0 1 6 6v56.66a6 6 0 0 1-6 6h-228a6 6 0 0 1-6-6z" stroke="#000" stroke-opacity="0" fill="#fff" fill-opacity="0"/><g><use xlink:href="#B" transform="matrix(1,0,0,1,-1095,78.09625817535667) translate(85.25925925925927 23.243055555555557)"/><use xlink:href="#C" transform="matrix(1,0,0,1,-1095,78.09625817535667) translate(75.07407407407408 52.57638888888889)"/></g><path d="M-1100 552.76a6 6 0 0 1 6-6h228a6 6 0 0 1 6 6v56.67a6 6 0 0 1-6 6h-228a6 6 0 0 1-6-6z" stroke="#000" stroke-opacity="0" fill="#fff" fill-opacity="0"/><g><use xlink:href="#D" transform="matrix(1,0,0,1,-1095,551.7629248420233) translate(75.10802469135803 23.243055555555557)"/><use xlink:href="#C" transform="matrix(1,0,0,1,-1095,551.7629248420233) translate(75.07407407407408 52.57638888888889)"/></g><path d="M-1100 296.43a6 6 0 0 1 6-6h228a6 6 0 0 1 6 6v56.67a6 6 0 0 1-6 6h-228a6 6 0 0 1-6-6z" stroke="#000" stroke-opacity="0" fill="#fff" fill-opacity="0"/><g><use xlink:href="#E" transform="matrix(1,0,0,1,-1095,295.42959150869007) translate(49.23765432098766 23.243055555555557)"/><use xlink:href="#C" transform="matrix(1,0,0,1,-1095,295.42959150869007) translate(75.07407407407408 52.57638888888889)"/></g><path d="M-280 79.33a6 6 0 0 1 6-6h228a6 6 0 0 1 6 6V136a6 6 0 0 1-6 6h-228a6 6 0 0 1-6-6z" stroke="#000" stroke-opacity="0" fill="#fff" fill-opacity="0"/><g><use xlink:href="#B" transform="matrix(1,0,0,1,-275,78.33333333333334) translate(85.25925925925927 23.243055555555557)"/><use xlink:href="#F" transform="matrix(1,0,0,1,-275,78.33333333333334) translate(37.185185185185176 52.57638888888889)"/></g><path d="M-280 553a6 6 0 0 1 6-6h228a6 6 0 0 1 6 6v56.67a6 6 0 0 1-6 6h-228a6 6 0 0 1-6-6z" stroke="#000" stroke-opacity="0" fill="#fff" fill-opacity="0"/><g><use xlink:href="#D" transform="matrix(1,0,0,1,-275,552) translate(75.10802469135803 23.243055555555557)"/><use xlink:href="#F" transform="matrix(1,0,0,1,-275,552) translate(37.185185185185176 52.57638888888889)"/></g><path d="M-280 296.67a6 6 0 0 1 6-6h228a6 6 0 0 1 6 6v56.66a6 6 0 0 1-6 6h-228a6 6 0 0 1-6-6z" stroke="#000" stroke-opacity="0" fill="#fff" fill-opacity="0"/><g><use xlink:href="#E" transform="matrix(1,0,0,1,-275,295.6666666666668) translate(49.23765432098766 23.243055555555557)"/><use xlink:href="#C" transform="matrix(1,0,0,1,-275,295.6666666666668) translate(75.07407407407408 52.57638888888889)"/></g><g fill="none"><path d="M-560 13.42a.75.75 0 0 1 .75.75V669.5a.75.75 0 0 1-.75.75.75.75 0 0 1-.75-.75V14.17a.75.75 0 0 1 .75-.75z"/><path d="M-559.26 24.48v8.93m0 5.97v8.94m0 5.97v8.94m0 5.97v8.93m0 5.96V93m0 5.96v8.94m0 5.96v8.93m0 5.95v8.94m0 5.95v8.94m0 5.95v8.93m0 5.96v8.94m0 5.96v8.94m0 5.96v8.93m0 5.96v8.94m0 5.96v8.94m0 5.96v8.93m0 5.96v8.94m0 5.96v8.94m0 5.96v8.93m0 5.96v8.95m0 5.96v8.95m0 5.96v8.94m0 5.96v8.94m0 5.96v8.94m0 5.96v8.93m0 5.96v8.93m0 5.96v8.93m0 5.96v8.92m0 5.96v8.94m0 5.96v8.94m0 5.96v8.93m0 5.97v8.94m0 5.97v8.94m0 5.96V525m0 5.96v8.94m0 5.96v8.94m0 5.95v8.94m0 5.95v8.94m0 5.95v8.94m0 5.94v8.94m0 5.96v8.94m0 5.96v8.94m0 5.95v8.94m0 5.96v4.59l-.03.1-.03.12-.06.1-.07.1-.1.07-.1.07-.1.04-.1.04h-.25l-.1-.03-.12-.03-.1-.06-.1-.07-.07-.1-.07-.1-.04-.1-.04-.1v-4.48m0-5.96v-8.95m0-5.96v-8.94m0-5.96v-8.94m0-5.96v-8.94m0-5.96v-8.93m0-5.96v-8.93m0-5.96v-8.93m0-5.96V546m0-5.96v-8.94m0-5.96v-8.94m0-5.96v-8.93m0-5.97v-8.94m0-5.97v-8.94m0-5.97v-8.93m0-5.96v-8.94m0-5.96v-8.94m0-5.96v-8.93m0-5.95V397m0-5.95v-8.94m0-5.95v-8.93m0-5.96v-8.94m0-5.96v-8.94m0-5.96v-8.93m0-5.96v-8.94m0-5.96v-8.94m0-5.96v-8.93m0-5.96v-8.94m0-5.96v-8.94m0-5.96v-8.93m0-5.96v-8.95m0-5.96v-8.95m0-5.96v-8.94m0-5.96v-8.94m0-5.96v-8.94m0-5.95v-8.93m0-5.96v-8.93m0-5.96v-8.93m0-5.95v-8.94m0-5.96v-8.94m0-5.96v-8.94m0-5.95V54.4m0-5.97V39.5m0-5.97V24.6m0-5.96v-4.59l.03-.12.03-.1.06-.1.07-.1.1-.07.1-.06.1-.05.1-.02h.25l.1.02.12.05.1.06.1.08.07.1.07.1.04.1.04.1v4.48" stroke="#3a414a" stroke-width="1.5"/></g><defs><path fill="#3a414a" d="M176-78C186 10 51 31 16-35c-5-9-9-19-11-32l52-8c4 21 12 37 35 38 23 0 32-16 32-40v-130H75v-41h101v170" id="G"/><path fill="#3a414a" d="M24-248c120-7 223 5 221 122C244-46 201 0 124 0H24v-248zM76-40c74 7 117-18 117-86 0-67-45-88-117-82v168" id="H"/><path fill="#3a414a" d="M182-130c37 4 62 22 62 59C244 23 116-4 24 0v-248c84 5 203-23 205 63 0 31-19 50-47 55zM76-148c40-3 101 13 101-30 0-44-60-28-101-31v61zm0 110c48-3 116 14 116-37 0-48-69-32-116-35v72" id="I"/><path fill="#3a414a" d="M67-125c0 53 21 87 73 88 37 1 54-22 65-47l45 17C233-25 199 4 140 4 58 4 20-42 15-125 8-235 124-281 211-232c18 10 29 29 36 50l-46 12c-8-25-30-41-62-41-52 0-71 34-72 86" id="J"/><g id="a"><use transform="matrix(0.061728395061728385,0,0,0.061728395061728385,0,0)" xlink:href="#G"/><use transform="matrix(0.061728395061728385,0,0,0.061728395061728385,12.345679012345677,0)" xlink:href="#H"/><use transform="matrix(0.061728395061728385,0,0,0.061728395061728385,28.33333333333333,0)" xlink:href="#I"/><use transform="matrix(0.061728395061728385,0,0,0.061728395061728385,44.32098765432098,0)" xlink:href="#J"/></g><path fill="#3a414a" d="M133-34C117-15 103 5 69 4 32 3 11-16 11-54c-1-60 55-63 116-61 1-26-3-47-28-47-18 1-26 9-28 27l-52-2c7-38 36-58 82-57s74 22 75 68l1 82c-1 14 12 18 25 15v27c-30 8-71 5-69-32zm-48 3c29 0 43-24 42-57-32 0-66-3-65 30 0 17 8 27 23 27" id="K"/><path fill="#3a414a" d="M115-3C79 11 28 4 28-45v-112H4v-33h27l15-45h31v45h36v33H77v99c-1 23 16 31 38 25v30" id="L"/><g id="b"><use transform="matrix(0.061728395061728385,0,0,0.061728395061728385,0,0)" xlink:href="#H"/><use transform="matrix(0.061728395061728385,0,0,0.061728395061728385,15.987654320987652,0)" xlink:href="#K"/><use transform="matrix(0.061728395061728385,0,0,0.061728395061728385,28.33333333333333,0)" xlink:href="#L"/><use transform="matrix(0.061728395061728385,0,0,0.061728395061728385,35.679012345679006,0)" xlink:href="#K"/></g><path fill="#3a414a" d="M169-182c-1-43-94-46-97-3 18 66 151 10 154 114 3 95-165 93-204 36-6-8-10-19-12-30l50-8c3 46 112 56 116 5-17-69-150-10-154-114-4-87 153-88 188-35 5 8 8 18 10 28" id="M"/><path fill="#3a414a" d="M110-194c64 0 96 36 96 99 0 64-35 99-97 99-61 0-95-36-95-99 0-62 34-99 96-99zm-1 164c35 0 45-28 45-65 0-40-10-65-43-65-34 0-45 26-45 65 0 36 10 65 43 65" id="N"/><path fill="#3a414a" d="M85 4C-2 5 27-109 22-190h50c7 57-23 150 33 157 60-5 35-97 40-157h50l1 190h-47c-2-12 1-28-3-38-12 25-28 42-61 42" id="O"/><path fill="#3a414a" d="M135-150c-39-12-60 13-60 57V0H25l-1-190h47c2 13-1 29 3 40 6-28 27-53 61-41v41" id="P"/><path fill="#3a414a" d="M190-63c-7 42-38 67-86 67-59 0-84-38-90-98-12-110 154-137 174-36l-49 2c-2-19-15-32-35-32-30 0-35 28-38 64-6 74 65 87 74 30" id="Q"/><path fill="#3a414a" d="M185-48c-13 30-37 53-82 52C43 2 14-33 14-96s30-98 90-98c62 0 83 45 84 108H66c0 31 8 55 39 56 18 0 30-7 34-22zm-45-69c5-46-57-63-70-21-2 6-4 13-4 21h74" id="R"/><path fill="#3a414a" d="M137-138c1-29-70-34-71-4 15 46 118 7 119 86 1 83-164 76-172 9l43-7c4 19 20 25 44 25 33 8 57-30 24-41C81-84 22-81 20-136c-2-80 154-74 161-7" id="S"/><g id="c"><use transform="matrix(0.061728395061728385,0,0,0.061728395061728385,0,0)" xlink:href="#M"/><use transform="matrix(0.061728395061728385,0,0,0.061728395061728385,14.814814814814813,0)" xlink:href="#N"/><use transform="matrix(0.061728395061728385,0,0,0.061728395061728385,28.33333333333333,0)" xlink:href="#O"/><use transform="matrix(0.061728395061728385,0,0,0.061728395061728385,41.85185185185185,0)" xlink:href="#P"/><use transform="matrix(0.061728395061728385,0,0,0.061728395061728385,50.49382716049382,0)" xlink:href="#Q"/><use transform="matrix(0.061728395061728385,0,0,0.061728395061728385,62.8395061728395,0)" xlink:href="#R"/><use transform="matrix(0.061728395061728385,0,0,0.061728395061728385,75.18518518518518,0)" xlink:href="#S"/></g><path fill="#3a414a" d="M175 0L67-191c6 58 2 128 3 191H24v-248h59L193-55c-6-58-2-129-3-193h46V0h-61" id="T"/><g id="d"><use transform="matrix(0.061728395061728385,0,0,0.061728395061728385,0,0)" xlink:href="#T"/><use transform="matrix(0.061728395061728385,0,0,0.061728395061728385,15.987654320987652,0)" xlink:href="#N"/></g><path fill="#3a414a" d="M140-251c80 0 125 45 125 126 0 70-33 111-92 124 6 28 34 38 68 31l-1 36C177 83 129 55 120 2 51-6 15-50 15-125c0-81 44-126 125-126zm-1 214c52 0 73-35 73-88 0-50-21-86-72-86-52 0-73 35-73 86s22 88 72 88" id="U"/><path fill="#3a414a" d="M24 0v-248h52v208h133V0H24" id="V"/><g id="e"><use transform="matrix(0.061728395061728385,0,0,0.061728395061728385,0,0)" xlink:href="#M"/><use transform="matrix(0.061728395061728385,0,0,0.061728395061728385,14.814814814814813,0)" xlink:href="#U"/><use transform="matrix(0.061728395061728385,0,0,0.061728395061728385,32.09876543209876,0)" xlink:href="#V"/></g><g id="f"><use transform="matrix(0.061728395061728385,0,0,0.061728395061728385,0,0)" xlink:href="#H"/><use transform="matrix(0.061728395061728385,0,0,0.061728395061728385,15.987654320987652,0)" xlink:href="#K"/><use transform="matrix(0.061728395061728385,0,0,0.061728395061728385,28.33333333333333,0)" xlink:href="#L"/><use transform="matrix(0.061728395061728385,0,0,0.061728395061728385,35.679012345679006,0)" xlink:href="#K"/></g><g id="g"><use transform="matrix(0.061728395061728385,0,0,0.061728395061728385,0,0)" xlink:href="#M"/><use transform="matrix(0.061728395061728385,0,0,0.061728395061728385,14.814814814814813,0)" xlink:href="#N"/><use transform="matrix(0.061728395061728385,0,0,0.061728395061728385,28.33333333333333,0)" xlink:href="#O"/><use transform="matrix(0.061728395061728385,0,0,0.061728395061728385,41.85185185185185,0)" xlink:href="#P"/><use transform="matrix(0.061728395061728385,0,0,0.061728395061728385,50.49382716049382,0)" xlink:href="#Q"/><use transform="matrix(0.061728395061728385,0,0,0.061728395061728385,62.8395061728395,0)" xlink:href="#R"/></g><path fill="#3a414a" d="M63-220v92h138v28H63V0H30v-248h175v28H63" id="W"/><path fill="#3a414a" d="M24 0v-261h32V0H24" id="X"/><path fill="#3a414a" d="M141-36C126-15 110 5 73 4 37 3 15-17 15-53c-1-64 63-63 125-63 3-35-9-54-41-54-24 1-41 7-42 31l-33-3c5-37 33-52 76-52 45 0 72 20 72 64v82c-1 20 7 32 28 27v20c-31 9-61-2-59-35zM48-53c0 20 12 33 32 33 41-3 63-29 60-74-43 2-92-5-92 41" id="Y"/><path fill="#3a414a" d="M114-163C36-179 61-72 57 0H25l-1-190h30c1 12-1 29 2 39 6-27 23-49 58-41v29" id="Z"/><path fill="#3a414a" d="M100-194c63 0 86 42 84 106H49c0 40 14 67 53 68 26 1 43-12 49-29l28 8c-11 28-37 45-77 45C44 4 14-33 15-96c1-61 26-98 85-98zm52 81c6-60-76-77-97-28-3 7-6 17-6 28h103" id="aa"/><g id="h"><use transform="matrix(0.08641975308641973,0,0,0.08641975308641973,0,0)" xlink:href="#W"/><use transform="matrix(0.08641975308641973,0,0,0.08641975308641973,18.92592592592592,0)" xlink:href="#X"/><use transform="matrix(0.08641975308641973,0,0,0.08641975308641973,25.753086419753075,0)" xlink:href="#Y"/><use transform="matrix(0.08641975308641973,0,0,0.08641975308641973,43.037037037037024,0)" xlink:href="#Z"/><use transform="matrix(0.08641975308641973,0,0,0.08641975308641973,53.32098765432097,0)" xlink:href="#aa"/></g><path fill="#3a414a" d="M185-189c-5-48-123-54-124 2 14 75 158 14 163 119 3 78-121 87-175 55-17-10-28-26-33-46l33-7c5 56 141 63 141-1 0-78-155-14-162-118-5-82 145-84 179-34 5 7 8 16 11 25" id="ab"/><path fill="#3a414a" d="M59-47c-2 24 18 29 38 22v24C64 9 27 4 27-40v-127H5v-23h24l9-43h21v43h35v23H59v120" id="ac"/><path fill="#3a414a" d="M117-194c89-4 53 116 60 194h-32v-121c0-31-8-49-39-48C34-167 62-67 57 0H25l-1-190h30c1 10-1 24 2 32 11-22 29-35 61-36" id="ad"/><path fill="#3a414a" d="M85-194c31 0 48 13 60 33l-1-100h32l1 261h-30c-2-10 0-23-3-31C134-8 116 4 85 4 32 4 16-35 15-94c0-66 23-100 70-100zm9 24c-40 0-46 34-46 75 0 40 6 74 45 74 42 0 51-32 51-76 0-42-9-74-50-73" id="ae"/><path fill="#3a414a" d="M100-194c62-1 85 37 85 99 1 63-27 99-86 99S16-35 15-95c0-66 28-99 85-99zM99-20c44 1 53-31 53-75 0-43-8-75-51-75s-53 32-53 75 10 74 51 75" id="af"/><g id="i"><use transform="matrix(0.08641975308641973,0,0,0.08641975308641973,0,0)" xlink:href="#ab"/><use transform="matrix(0.08641975308641973,0,0,0.08641975308641973,20.740740740740737,0)" xlink:href="#ac"/><use transform="matrix(0.08641975308641973,0,0,0.08641975308641973,29.382716049382708,0)" xlink:href="#Y"/><use transform="matrix(0.08641975308641973,0,0,0.08641975308641973,46.66666666666666,0)" xlink:href="#ad"/><use transform="matrix(0.08641975308641973,0,0,0.08641975308641973,63.950617283950606,0)" xlink:href="#ae"/><use transform="matrix(0.08641975308641973,0,0,0.08641975308641973,81.23456790123456,0)" xlink:href="#Y"/><use transform="matrix(0.08641975308641973,0,0,0.08641975308641973,98.51851851851849,0)" xlink:href="#X"/><use transform="matrix(0.08641975308641973,0,0,0.08641975308641973,105.34567901234567,0)" xlink:href="#af"/><use transform="matrix(0.08641975308641973,0,0,0.08641975308641973,122.62962962962962,0)" xlink:href="#ad"/><use transform="matrix(0.08641975308641973,0,0,0.08641975308641973,139.91358024691357,0)" xlink:href="#aa"/></g><path fill="#3a414a" d="M27 0v-27h64v-190l-56 39v-29l58-41h29v221h61V0H27" id="ag"/><path fill="#3a414a" d="M33 0v-38h34V0H33" id="ah"/><path fill="#3a414a" d="M101-251c68 0 85 55 85 127S166 4 100 4C33 4 14-52 14-124c0-73 17-127 87-127zm-1 229c47 0 54-49 54-102s-4-102-53-102c-51 0-55 48-55 102 0 53 5 102 54 102" id="ai"/><g id="j"><use transform="matrix(0.08641975308641973,0,0,0.08641975308641973,0,0)" xlink:href="#ag"/><use transform="matrix(0.08641975308641973,0,0,0.08641975308641973,17.283950617283946,0)" xlink:href="#ah"/><use transform="matrix(0.08641975308641973,0,0,0.08641975308641973,25.925925925925917,0)" xlink:href="#ai"/></g><path fill="#3a414a" d="M240 0l2-218c-23 76-54 145-80 218h-23L58-218 59 0H30v-248h44l77 211c21-75 51-140 76-211h43V0h-30" id="aj"/><path fill="#3a414a" d="M84 4C-5 8 30-112 23-190h32v120c0 31 7 50 39 49 72-2 45-101 50-169h31l1 190h-30c-1-10 1-25-2-33-11 22-28 36-60 37" id="ak"/><g id="k"><use transform="matrix(0.06172839506172839,0,0,0.06172839506172839,0,0)" xlink:href="#aj"/><use transform="matrix(0.06172839506172839,0,0,0.06172839506172839,18.456790123456788,0)" xlink:href="#af"/><use transform="matrix(0.06172839506172839,0,0,0.06172839506172839,30.80246913580247,0)" xlink:href="#ak"/><use transform="matrix(0.06172839506172839,0,0,0.06172839506172839,43.148148148148145,0)" xlink:href="#ad"/><use transform="matrix(0.06172839506172839,0,0,0.06172839506172839,55.49382716049382,0)" xlink:href="#ac"/><use transform="matrix(0.06172839506172839,0,0,0.06172839506172839,61.666666666666664,0)" xlink:href="#aa"/><use transform="matrix(0.06172839506172839,0,0,0.06172839506172839,74.01234567901234,0)" xlink:href="#ae"/></g><g id="l"><use transform="matrix(0.06172839506172839,0,0,0.06172839506172839,0,0)" xlink:href="#H"/><use transform="matrix(0.06172839506172839,0,0,0.06172839506172839,15.987654320987653,0)" xlink:href="#K"/><use transform="matrix(0.06172839506172839,0,0,0.06172839506172839,28.333333333333332,0)" xlink:href="#L"/><use transform="matrix(0.06172839506172839,0,0,0.06172839506172839,35.67901234567901,0)" xlink:href="#K"/><use transform="matrix(0.06172839506172839,0,0,0.06172839506172839,48.02469135802469,0)" xlink:href="#S"/><use transform="matrix(0.06172839506172839,0,0,0.06172839506172839,60.37037037037037,0)" xlink:href="#R"/><use transform="matrix(0.06172839506172839,0,0,0.06172839506172839,72.71604938271605,0)" xlink:href="#L"/></g><path fill="#333" d="M240-174c0 40-23 61-54 70L253 0h-59l-57-94H76V0H24v-248c93 4 217-23 216 74zM76-134c48-2 112 12 112-38 0-48-66-32-112-35v73" id="al"/><path fill="#333" d="M185-48c-13 30-37 53-82 52C43 2 14-33 14-96s30-98 90-98c62 0 83 45 84 108H66c0 31 8 55 39 56 18 0 30-7 34-22zm-45-69c5-46-57-63-70-21-2 6-4 13-4 21h74" id="am"/><path fill="#333" d="M133-34C117-15 103 5 69 4 32 3 11-16 11-54c-1-60 55-63 116-61 1-26-3-47-28-47-18 1-26 9-28 27l-52-2c7-38 36-58 82-57s74 22 75 68l1 82c-1 14 12 18 25 15v27c-30 8-71 5-69-32zm-48 3c29 0 43-24 42-57-32 0-66-3-65 30 0 17 8 27 23 27" id="an"/><path fill="#333" d="M88-194c31-1 46 15 58 34l-1-101h50l1 261h-48c-2-10 0-23-3-31C134-8 116 4 84 4 32 4 16-41 15-95c0-56 19-97 73-99zm17 164c33 0 40-30 41-66 1-37-9-64-41-64s-38 30-39 65c0 43 13 65 39 65" id="ao"/><g id="m"><use transform="matrix(0.04938271604938272,0,0,0.04938271604938272,0,0)" xlink:href="#al"/><use transform="matrix(0.04938271604938272,0,0,0.04938271604938272,12.790123456790125,0)" xlink:href="#am"/><use transform="matrix(0.04938271604938272,0,0,0.04938271604938272,22.66666666666667,0)" xlink:href="#an"/><use transform="matrix(0.04938271604938272,0,0,0.04938271604938272,32.543209876543216,0)" xlink:href="#ao"/></g><path fill="#333" d="M275 0h-61l-44-196L126 0H64L0-248h53L97-49l45-199h58l43 199 44-199h52" id="ap"/><path fill="#333" d="M135-150c-39-12-60 13-60 57V0H25l-1-190h47c2 13-1 29 3 40 6-28 27-53 61-41v41" id="aq"/><path fill="#333" d="M25-224v-37h50v37H25zM25 0v-190h50V0H25" id="ar"/><path fill="#333" d="M115-3C79 11 28 4 28-45v-112H4v-33h27l15-45h31v45h36v33H77v99c-1 23 16 31 38 25v30" id="as"/><g id="n"><use transform="matrix(0.04938271604938272,0,0,0.04938271604938272,0,0)" xlink:href="#ap"/><use transform="matrix(0.04938271604938272,0,0,0.04938271604938272,16.39506172839506,0)" xlink:href="#aq"/><use transform="matrix(0.04938271604938272,0,0,0.04938271604938272,23.30864197530864,0)" xlink:href="#ar"/><use transform="matrix(0.04938271604938272,0,0,0.04938271604938272,28.24691358024691,0)" xlink:href="#as"/><use transform="matrix(0.04938271604938272,0,0,0.04938271604938272,34.123456790123456,0)" xlink:href="#am"/></g><path fill="#3a414a" d="M101-251c82-7 93 87 43 132L82-64C71-53 59-42 53-27h129V0H18c2-99 128-94 128-182 0-28-16-43-45-43s-46 15-49 41l-32-3c6-41 34-60 81-64" id="at"/><g id="o"><use transform="matrix(0.08641975308641973,0,0,0.08641975308641973,0,0)" xlink:href="#at"/><use transform="matrix(0.08641975308641973,0,0,0.08641975308641973,17.283950617283946,0)" xlink:href="#ah"/><use transform="matrix(0.08641975308641973,0,0,0.08641975308641973,25.925925925925917,0)" xlink:href="#ai"/></g><path fill="#3a414a" d="M30-248c118-7 216 8 213 122C240-48 200 0 122 0H30v-248zM63-27c89 8 146-16 146-99s-60-101-146-95v194" id="au"/><path fill="#3a414a" d="M24-231v-30h32v30H24zM24 0v-190h32V0H24" id="av"/><path fill="#3a414a" d="M101-234c-31-9-42 10-38 44h38v23H63V0H32v-167H5v-23h27c-7-52 17-82 69-68v24" id="aw"/><g id="p"><use transform="matrix(0.06172839506172839,0,0,0.06172839506172839,0,0)" xlink:href="#au"/><use transform="matrix(0.06172839506172839,0,0,0.06172839506172839,15.987654320987653,0)" xlink:href="#av"/><use transform="matrix(0.06172839506172839,0,0,0.06172839506172839,20.864197530864196,0)" xlink:href="#aw"/><use transform="matrix(0.06172839506172839,0,0,0.06172839506172839,26.604938271604937,0)" xlink:href="#aw"/><use transform="matrix(0.06172839506172839,0,0,0.06172839506172839,32.77777777777778,0)" xlink:href="#aa"/><use transform="matrix(0.06172839506172839,0,0,0.06172839506172839,45.123456790123456,0)" xlink:href="#Z"/><use transform="matrix(0.06172839506172839,0,0,0.06172839506172839,52.46913580246913,0)" xlink:href="#aa"/><use transform="matrix(0.06172839506172839,0,0,0.06172839506172839,64.81481481481481,0)" xlink:href="#ad"/><use transform="matrix(0.06172839506172839,0,0,0.06172839506172839,77.1604938271605,0)" xlink:href="#ac"/></g><g id="q"><use transform="matrix(0.06172839506172839,0,0,0.06172839506172839,0,0)" xlink:href="#H"/><use transform="matrix(0.06172839506172839,0,0,0.06172839506172839,15.987654320987653,0)" xlink:href="#K"/><use transform="matrix(0.06172839506172839,0,0,0.06172839506172839,28.333333333333332,0)" xlink:href="#L"/><use transform="matrix(0.06172839506172839,0,0,0.06172839506172839,35.67901234567901,0)" xlink:href="#K"/></g><g id="r"><use transform="matrix(0.06172839506172839,0,0,0.06172839506172839,0,0)" xlink:href="#M"/><use transform="matrix(0.06172839506172839,0,0,0.06172839506172839,14.814814814814813,0)" xlink:href="#N"/><use transform="matrix(0.06172839506172839,0,0,0.06172839506172839,28.33333333333333,0)" xlink:href="#O"/><use transform="matrix(0.06172839506172839,0,0,0.06172839506172839,41.85185185185185,0)" xlink:href="#P"/><use transform="matrix(0.06172839506172839,0,0,0.06172839506172839,50.49382716049382,0)" xlink:href="#Q"/><use transform="matrix(0.06172839506172839,0,0,0.06172839506172839,62.8395061728395,0)" xlink:href="#R"/><use transform="matrix(0.06172839506172839,0,0,0.06172839506172839,75.18518518518518,0)" xlink:href="#S"/></g><path fill="#3a414a" d="M87 75C49 33 22-17 22-94c0-76 28-126 65-167h31c-38 41-64 92-64 168S80 34 118 75H87" id="ax"/><path fill="#3a414a" d="M212-179c-10-28-35-45-73-45-59 0-87 40-87 99 0 60 29 101 89 101 43 0 62-24 78-52l27 14C228-24 195 4 139 4 59 4 22-46 18-125c-6-104 99-153 187-111 19 9 31 26 39 46" id="ay"/><g id="s"><use transform="matrix(0.06172839506172839,0,0,0.06172839506172839,0,0)" xlink:href="#ax"/><use transform="matrix(0.06172839506172839,0,0,0.06172839506172839,7.345679012345679,0)" xlink:href="#ay"/><use transform="matrix(0.06172839506172839,0,0,0.06172839506172839,23.333333333333332,0)" xlink:href="#X"/><use transform="matrix(0.06172839506172839,0,0,0.06172839506172839,28.209876543209873,0)" xlink:href="#af"/><use transform="matrix(0.06172839506172839,0,0,0.06172839506172839,40.55555555555555,0)" xlink:href="#ak"/><use transform="matrix(0.06172839506172839,0,0,0.06172839506172839,52.90123456790123,0)" xlink:href="#ae"/></g><path fill="#3a414a" d="M177-190C167-65 218 103 67 71c-23-6-38-20-44-43l32-5c15 47 100 32 89-28v-30C133-14 115 1 83 1 29 1 15-40 15-95c0-56 16-97 71-98 29-1 48 16 59 35 1-10 0-23 2-32h30zM94-22c36 0 50-32 50-73 0-42-14-75-50-75-39 0-46 34-46 75s6 73 46 73" id="az"/><path fill="#3a414a" d="M68-38c1 34 0 65-14 84H32c9-13 17-26 17-46H33v-38h35" id="aA"/><g id="t"><use transform="matrix(0.06172839506172839,0,0,0.06172839506172839,0,0)" xlink:href="#ab"/><use transform="matrix(0.06172839506172839,0,0,0.06172839506172839,14.814814814814813,0)" xlink:href="#ac"/><use transform="matrix(0.06172839506172839,0,0,0.06172839506172839,20.98765432098765,0)" xlink:href="#af"/><use transform="matrix(0.06172839506172839,0,0,0.06172839506172839,33.33333333333333,0)" xlink:href="#Z"/><use transform="matrix(0.06172839506172839,0,0,0.06172839506172839,40.679012345679006,0)" xlink:href="#Y"/><use transform="matrix(0.06172839506172839,0,0,0.06172839506172839,53.02469135802468,0)" xlink:href="#az"/><use transform="matrix(0.06172839506172839,0,0,0.06172839506172839,65.37037037037037,0)" xlink:href="#aa"/><use transform="matrix(0.06172839506172839,0,0,0.06172839506172839,77.71604938271605,0)" xlink:href="#aA"/></g><path fill="#3a414a" d="M266 0h-40l-56-210L115 0H75L2-248h35L96-30l15-64 43-154h32l59 218 59-218h35" id="aB"/><path fill="#3a414a" d="M106-169C34-169 62-67 57 0H25v-261h32l-1 103c12-21 28-36 61-36 89 0 53 116 60 194h-32v-121c2-32-8-49-39-48" id="aC"/><path fill="#3a414a" d="M135-143c-3-34-86-38-87 0 15 53 115 12 119 90S17 21 10-45l28-5c4 36 97 45 98 0-10-56-113-15-118-90-4-57 82-63 122-42 12 7 21 19 24 35" id="aD"/><g id="u"><use transform="matrix(0.06172839506172839,0,0,0.06172839506172839,0,0)" xlink:href="#aB"/><use transform="matrix(0.06172839506172839,0,0,0.06172839506172839,20.123456790123456,0)" xlink:href="#Y"/><use transform="matrix(0.06172839506172839,0,0,0.06172839506172839,32.46913580246913,0)" xlink:href="#Z"/><use transform="matrix(0.06172839506172839,0,0,0.06172839506172839,39.81481481481481,0)" xlink:href="#aa"/><use transform="matrix(0.06172839506172839,0,0,0.06172839506172839,52.16049382716049,0)" xlink:href="#aC"/><use transform="matrix(0.06172839506172839,0,0,0.06172839506172839,64.50617283950616,0)" xlink:href="#af"/><use transform="matrix(0.06172839506172839,0,0,0.06172839506172839,76.85185185185185,0)" xlink:href="#ak"/><use transform="matrix(0.06172839506172839,0,0,0.06172839506172839,89.19753086419753,0)" xlink:href="#aD"/><use transform="matrix(0.06172839506172839,0,0,0.06172839506172839,100.30864197530865,0)" xlink:href="#aa"/><use transform="matrix(0.06172839506172839,0,0,0.06172839506172839,112.65432098765433,0)" xlink:href="#aA"/></g><path fill="#3a414a" d="M210-169c-67 3-38 105-44 169h-31v-121c0-29-5-50-35-48C34-165 62-65 56 0H25l-1-190h30c1 10-1 24 2 32 10-44 99-50 107 0 11-21 27-35 58-36 85-2 47 119 55 194h-31v-121c0-29-5-49-35-48" id="aE"/><g id="v"><use transform="matrix(0.06172839506172839,0,0,0.06172839506172839,0,0)" xlink:href="#ab"/><use transform="matrix(0.06172839506172839,0,0,0.06172839506172839,14.814814814814813,0)" xlink:href="#ac"/><use transform="matrix(0.06172839506172839,0,0,0.06172839506172839,20.98765432098765,0)" xlink:href="#Z"/><use transform="matrix(0.06172839506172839,0,0,0.06172839506172839,28.33333333333333,0)" xlink:href="#aa"/><use transform="matrix(0.06172839506172839,0,0,0.06172839506172839,40.679012345679006,0)" xlink:href="#Y"/><use transform="matrix(0.06172839506172839,0,0,0.06172839506172839,53.02469135802468,0)" xlink:href="#aE"/></g><path fill="#3a414a" d="M96-169c-40 0-48 33-48 73s9 75 48 75c24 0 41-14 43-38l32 2c-6 37-31 61-74 61-59 0-76-41-82-99-10-93 101-131 147-64 4 7 5 14 7 22l-32 3c-4-21-16-35-41-35" id="aF"/><g id="w"><use transform="matrix(0.06172839506172839,0,0,0.06172839506172839,0,0)" xlink:href="#ab"/><use transform="matrix(0.06172839506172839,0,0,0.06172839506172839,14.814814814814813,0)" xlink:href="#af"/><use transform="matrix(0.06172839506172839,0,0,0.06172839506172839,27.160493827160494,0)" xlink:href="#ak"/><use transform="matrix(0.06172839506172839,0,0,0.06172839506172839,39.50617283950617,0)" xlink:href="#Z"/><use transform="matrix(0.06172839506172839,0,0,0.06172839506172839,46.85185185185185,0)" xlink:href="#aF"/><use transform="matrix(0.06172839506172839,0,0,0.06172839506172839,57.96296296296296,0)" xlink:href="#aa"/><use transform="matrix(0.06172839506172839,0,0,0.06172839506172839,70.30864197530865,0)" xlink:href="#aD"/><use transform="matrix(0.06172839506172839,0,0,0.06172839506172839,81.41975308641976,0)" xlink:href="#aA"/></g><g id="x"><use transform="matrix(0.06172839506172839,0,0,0.06172839506172839,0,0)" xlink:href="#aa"/><use transform="matrix(0.06172839506172839,0,0,0.06172839506172839,12.345679012345679,0)" xlink:href="#ac"/><use transform="matrix(0.06172839506172839,0,0,0.06172839506172839,18.51851851851852,0)" xlink:href="#aF"/><use transform="matrix(0.06172839506172839,0,0,0.06172839506172839,29.62962962962963,0)" xlink:href="#ah"/></g><g id="y"><use transform="matrix(0.06172839506172839,0,0,0.06172839506172839,0,0)" xlink:href="#M"/><use transform="matrix(0.06172839506172839,0,0,0.06172839506172839,14.814814814814813,0)" xlink:href="#N"/><use transform="matrix(0.06172839506172839,0,0,0.06172839506172839,28.33333333333333,0)" xlink:href="#O"/><use transform="matrix(0.06172839506172839,0,0,0.06172839506172839,41.85185185185185,0)" xlink:href="#P"/><use transform="matrix(0.06172839506172839,0,0,0.06172839506172839,50.49382716049382,0)" xlink:href="#Q"/><use transform="matrix(0.06172839506172839,0,0,0.06172839506172839,62.8395061728395,0)" xlink:href="#R"/><use transform="matrix(0.06172839506172839,0,0,0.06172839506172839,75.18518518518518,0)" xlink:href="#S"/></g><path fill="#3a414a" d="M140-251c81 0 123 46 123 126C263-46 219 4 140 4 59 4 17-45 17-125s42-126 123-126zm0 227c63 0 89-41 89-101s-29-99-89-99c-61 0-89 39-89 99S79-25 140-24" id="aG"/><path fill="#3a414a" d="M115-194c53 0 69 39 70 98 0 66-23 100-70 100C84 3 66-7 56-30L54 0H23l1-261h32v101c10-23 28-34 59-34zm-8 174c40 0 45-34 45-75 0-40-5-75-45-74-42 0-51 32-51 76 0 43 10 73 51 73" id="aH"/><path fill="#3a414a" d="M24-231v-30h32v30H24zM-9 49c24 4 33-6 33-30v-209h32V24c2 40-23 58-65 49V49" id="aI"/><g id="z"><use transform="matrix(0.06172839506172839,0,0,0.06172839506172839,0,0)" xlink:href="#ax"/><use transform="matrix(0.06172839506172839,0,0,0.06172839506172839,7.345679012345679,0)" xlink:href="#aG"/><use transform="matrix(0.06172839506172839,0,0,0.06172839506172839,24.629629629629626,0)" xlink:href="#aH"/><use transform="matrix(0.06172839506172839,0,0,0.06172839506172839,36.9753086419753,0)" xlink:href="#aI"/><use transform="matrix(0.06172839506172839,0,0,0.06172839506172839,41.85185185185185,0)" xlink:href="#aa"/><use transform="matrix(0.06172839506172839,0,0,0.06172839506172839,54.197530864197525,0)" xlink:href="#aF"/><use transform="matrix(0.06172839506172839,0,0,0.06172839506172839,65.30864197530863,0)" xlink:href="#ac"/></g><g id="A"><use transform="matrix(0.06172839506172839,0,0,0.06172839506172839,0,0)" xlink:href="#ab"/><use transform="matrix(0.06172839506172839,0,0,0.06172839506172839,14.814814814814813,0)" xlink:href="#ac"/><use transform="matrix(0.06172839506172839,0,0,0.06172839506172839,20.98765432098765,0)" xlink:href="#af"/><use transform="matrix(0.06172839506172839,0,0,0.06172839506172839,33.33333333333333,0)" xlink:href="#Z"/><use transform="matrix(0.06172839506172839,0,0,0.06172839506172839,40.679012345679006,0)" xlink:href="#aa"/><use transform="matrix(0.06172839506172839,0,0,0.06172839506172839,53.02469135802468,0)" xlink:href="#aA"/></g><path fill="#3a414a" d="M24 0v-248h52V0H24" id="aJ"/><path fill="#3a414a" d="M135-194c87-1 58 113 63 194h-50c-7-57 23-157-34-157-59 0-34 97-39 157H25l-1-190h47c2 12-1 28 3 38 12-26 28-41 61-42" id="aK"/><path fill="#3a414a" d="M135-194c53 0 70 44 70 98 0 56-19 98-73 100-31 1-45-17-59-34 3 33 2 69 2 105H25l-1-265h48c2 10 0 23 3 31 11-24 29-35 60-35zM114-30c33 0 39-31 40-66 0-38-9-64-40-64-56 0-55 130 0 130" id="aL"/><g id="B"><use transform="matrix(0.06790123456790123,0,0,0.06790123456790123,0,0)" xlink:href="#aJ"/><use transform="matrix(0.06790123456790123,0,0,0.06790123456790123,6.790123456790123,0)" xlink:href="#aK"/><use transform="matrix(0.06790123456790123,0,0,0.06790123456790123,21.660493827160494,0)" xlink:href="#aL"/><use transform="matrix(0.06790123456790123,0,0,0.06790123456790123,36.53086419753086,0)" xlink:href="#O"/><use transform="matrix(0.06790123456790123,0,0,0.06790123456790123,51.40123456790123,0)" xlink:href="#L"/></g><path fill="#3a414a" d="M67-93c0 74 22 123 53 168H70C40 30 18-18 18-93s22-123 52-168h50c-32 44-53 94-53 168" id="aM"/><path fill="#3a414a" d="M25 0v-261h50V0H25" id="aN"/><path fill="#3a414a" d="M102-93c0 74-22 123-52 168H0C30 29 54-18 53-93c0-74-22-123-53-168h50c30 45 52 94 52 168" id="aO"/><g id="C"><use transform="matrix(0.06790123456790123,0,0,0.06790123456790123,0,0)" xlink:href="#aM"/><use transform="matrix(0.06790123456790123,0,0,0.06790123456790123,8.080246913580247,0)" xlink:href="#V"/><use transform="matrix(0.06790123456790123,0,0,0.06790123456790123,22.950617283950617,0)" xlink:href="#N"/><use transform="matrix(0.06790123456790123,0,0,0.06790123456790123,37.82098765432099,0)" xlink:href="#Q"/><use transform="matrix(0.06790123456790123,0,0,0.06790123456790123,51.401234567901234,0)" xlink:href="#K"/><use transform="matrix(0.06790123456790123,0,0,0.06790123456790123,64.98148148148148,0)" xlink:href="#aN"/><use transform="matrix(0.06790123456790123,0,0,0.06790123456790123,71.77160493827161,0)" xlink:href="#aO"/></g><path fill="#3a414a" d="M140-251c80 0 125 45 125 126S219 4 139 4C58 4 15-44 15-125s44-126 125-126zm-1 214c52 0 73-35 73-88 0-50-21-86-72-86-52 0-73 35-73 86s22 88 72 88" id="aP"/><g id="D"><use transform="matrix(0.06790123456790123,0,0,0.06790123456790123,0,0)" xlink:href="#aP"/><use transform="matrix(0.06790123456790123,0,0,0.06790123456790123,19.012345679012345,0)" xlink:href="#O"/><use transform="matrix(0.06790123456790123,0,0,0.06790123456790123,33.882716049382715,0)" xlink:href="#L"/><use transform="matrix(0.06790123456790123,0,0,0.06790123456790123,41.96296296296296,0)" xlink:href="#aL"/><use transform="matrix(0.06790123456790123,0,0,0.06790123456790123,56.83333333333333,0)" xlink:href="#O"/><use transform="matrix(0.06790123456790123,0,0,0.06790123456790123,71.7037037037037,0)" xlink:href="#L"/></g><path fill="#3a414a" d="M24-248c93 1 206-16 204 79-1 75-69 88-152 82V0H24v-248zm52 121c47 0 100 7 100-41 0-47-54-39-100-39v80" id="aQ"/><path fill="#3a414a" d="M25-224v-37h50v37H25zM25 0v-190h50V0H25" id="aR"/><path fill="#3a414a" d="M195-6C206 82 75 100 31 46c-4-6-6-13-8-21l49-6c3 16 16 24 34 25 40 0 42-37 40-79-11 22-30 35-61 35-53 0-70-43-70-97 0-56 18-96 73-97 30 0 46 14 59 34l2-30h47zm-90-29c32 0 41-27 41-63 0-35-9-62-40-62-32 0-39 29-40 63 0 36 9 62 39 62" id="aS"/><g id="E"><use transform="matrix(0.06790123456790123,0,0,0.06790123456790123,0,0)" xlink:href="#aQ"/><use transform="matrix(0.06790123456790123,0,0,0.06790123456790123,16.296296296296294,0)" xlink:href="#P"/><use transform="matrix(0.06790123456790123,0,0,0.06790123456790123,25.80246913580247,0)" xlink:href="#N"/><use transform="matrix(0.06790123456790123,0,0,0.06790123456790123,40.672839506172835,0)" xlink:href="#Q"/><use transform="matrix(0.06790123456790123,0,0,0.06790123456790123,54.25308641975308,0)" xlink:href="#R"/><use transform="matrix(0.06790123456790123,0,0,0.06790123456790123,67.83333333333333,0)" xlink:href="#S"/><use transform="matrix(0.06790123456790123,0,0,0.06790123456790123,81.41358024691358,0)" xlink:href="#S"/><use transform="matrix(0.06790123456790123,0,0,0.06790123456790123,94.99382716049382,0)" xlink:href="#aR"/><use transform="matrix(0.06790123456790123,0,0,0.06790123456790123,101.78395061728395,0)" xlink:href="#aK"/><use transform="matrix(0.06790123456790123,0,0,0.06790123456790123,116.65432098765432,0)" xlink:href="#aS"/></g><path fill="#3a414a" d="M4 7l51-268h42L46 7H4" id="aT"/><path fill="#3a414a" d="M88-194c31-1 46 15 58 34l-1-101h50l1 261h-48c-2-10 0-23-3-31C134-8 116 4 84 4 32 4 16-41 15-95c0-56 19-97 73-99zm17 164c33 0 40-30 41-66 1-37-9-64-41-64s-38 30-39 65c0 43 13 65 39 65" id="aU"/><g id="F"><use transform="matrix(0.06790123456790123,0,0,0.06790123456790123,0,0)" xlink:href="#aM"/><use transform="matrix(0.06790123456790123,0,0,0.06790123456790123,8.080246913580247,0)" xlink:href="#V"/><use transform="matrix(0.06790123456790123,0,0,0.06790123456790123,22.950617283950617,0)" xlink:href="#N"/><use transform="matrix(0.06790123456790123,0,0,0.06790123456790123,37.82098765432099,0)" xlink:href="#Q"/><use transform="matrix(0.06790123456790123,0,0,0.06790123456790123,51.401234567901234,0)" xlink:href="#K"/><use transform="matrix(0.06790123456790123,0,0,0.06790123456790123,64.98148148148148,0)" xlink:href="#aN"/><use transform="matrix(0.06790123456790123,0,0,0.06790123456790123,71.77160493827161,0)" xlink:href="#aT"/><use transform="matrix(0.06790123456790123,0,0,0.06790123456790123,78.56172839506173,0)" xlink:href="#J"/><use transform="matrix(0.06790123456790123,0,0,0.06790123456790123,96.14814814814815,0)" xlink:href="#aN"/><use transform="matrix(0.06790123456790123,0,0,0.06790123456790123,102.93827160493828,0)" xlink:href="#N"/><use transform="matrix(0.06790123456790123,0,0,0.06790123456790123,117.80864197530865,0)" xlink:href="#O"/><use transform="matrix(0.06790123456790123,0,0,0.06790123456790123,132.679012345679,0)" xlink:href="#aU"/><use transform="matrix(0.06790123456790123,0,0,0.06790123456790123,147.5493827160494,0)" xlink:href="#aO"/></g></defs></g></svg>