<svg width="64" height="64" viewBox="0 0 64 64" xmlns="http://www.w3.org/2000/svg">
  <g clip-path="url(#clip0_194_169)">
    <path fill-rule="evenodd" clip-rule="evenodd" d="M32.1026 0.000488281C30.5602 0.000488281 29.045 0.405833 27.7087 1.17585L7.41184 12.7741L7.41182 12.774L7.40026 12.7807C6.06373 13.5524 4.95363 14.6619 4.1813 15.998C3.40897 17.3342 3.00158 18.8499 3 20.3932V20.3962V43.5986V43.6017C3.00158 45.145 3.40897 46.6607 4.1813 47.9968C4.95363 49.333 6.06373 50.4425 7.40026 51.2142L7.41184 51.2208L27.7023 62.8153L27.7086 62.819C28.9233 63.5189 30.2859 63.9176 31.6823 63.9843C31.7851 63.995 31.8893 64.0004 31.9949 64.0004C32.0619 64.0004 32.1285 63.9982 32.1944 63.9939C33.7051 63.9781 35.1868 63.5737 36.4966 62.819L36.5029 62.8153L56.7934 51.2208L56.8049 51.2142C58.1415 50.4425 59.2516 49.333 60.0239 47.9968C60.7962 46.6607 61.2036 45.145 61.2052 43.6017V43.5986V20.3962V20.3932C61.2036 18.8499 60.7962 17.3342 60.0239 15.998C59.2516 14.6619 58.1415 13.5524 56.8049 12.7807L56.805 12.7807L56.7934 12.7741L36.5029 1.17953L36.4965 1.17585C35.1602 0.405833 33.645 0.000488281 32.1026 0.000488281ZM34.9948 56.7668L53.805 46.0182L53.8099 46.0154C54.233 45.7699 54.5846 45.4179 54.8294 44.9943C55.0752 44.5691 55.2049 44.0867 55.2054 43.5956V22.1784L34.9948 33.7936V56.7668ZM28.995 33.6737L8.99982 22.1823V43.5969C9.00056 44.0876 9.13019 44.5694 9.37576 44.9943C9.62062 45.4179 9.97218 45.7699 10.3954 46.0154L10.4002 46.0182L28.995 56.6437V33.6737ZM30.7023 6.37553C31.128 6.12972 31.611 6.00031 32.1026 6.00031C32.5942 6.00031 33.0772 6.12972 33.5029 6.37553L33.5029 6.37556L33.5145 6.38218L52.1353 17.0226L32.0992 28.5377L12.0665 17.0246L30.6907 6.38218L30.6907 6.38221L30.7023 6.37553Z"/>
  </g>
  <defs>
    <clipPath id="clip0_194_169">
      <rect width="64" height="64" fill="white"/>
    </clipPath>
  </defs>
</svg>

