<svg width="64" height="64" viewBox="0 0 64 64" xmlns="http://www.w3.org/2000/svg">
<path fill-rule="evenodd" clip-rule="evenodd" d="M21.8844 11.2785C20.1437 13.8453 19.7733 16.662 20.1182 18.0174C20.3736 19.0206 20.0937 20.0845 19.3778 20.8321C18.662 21.5798 17.6112 21.9056 16.5979 21.6941C10.7818 20.48 8.42991 22.182 7.41172 23.7376C6.15786 25.6533 6.03986 28.6329 6.84638 31.0507C7.37068 32.6224 6.52158 34.3215 4.94987 34.8458C3.37816 35.3701 1.67901 34.521 1.15471 32.9493C-0.040262 29.3671 -0.157871 24.3467 2.39144 20.4517C4.68325 16.9502 8.64709 15.0304 14.0992 15.3203C14.3998 12.8264 15.3772 10.1837 16.9186 7.91086C19.4871 4.1234 23.8578 1 30.0006 1C35.6815 1 40.0003 2.85444 42.8984 5.82573C44.8573 7.8342 46.059 10.2436 46.6205 12.6776C50.9541 12.5216 55.4144 13.7703 58.7426 16.4288C60.8624 18.1219 62.5396 20.4086 63.3392 23.25C64.1392 26.0928 64.0033 29.2837 62.839 32.6965C62.304 34.2646 60.5992 35.1021 59.031 34.5672C57.4629 34.0322 56.6254 32.3273 57.1603 30.7592C57.9965 28.3081 57.9842 26.37 57.5636 24.8754C57.1426 23.3796 56.2549 22.1207 54.9981 21.1168C52.4098 19.0495 48.3477 18.1686 44.605 18.9385C43.7218 19.1201 42.8038 18.895 42.1049 18.3252C41.4061 17.7555 41.0006 16.9017 41.0006 16C41.0006 13.9205 40.2472 11.7007 38.6031 10.0151C37.0013 8.37278 34.3201 7 30.0006 7C26.1428 7 23.5133 8.8766 21.8844 11.2785ZM31.9996 25C33.6565 25 34.9996 26.3431 34.9997 28L34.9997 35L53.9998 35C55.6567 35 56.9998 36.3432 56.9998 38V45.5121C60.4954 46.7476 63.0002 50.0812 63.0002 54C63.0002 58.9706 58.9707 63 54.0002 63C49.0296 63 45.0002 58.9706 45.0002 54C45.0002 50.0815 47.5043 46.7477 50.9998 45.5121V41L34.9998 41L34.9999 45.5121C38.4955 46.7476 41.0002 50.0812 41.0002 54C41.0002 58.9706 36.9707 63 32.0002 63C27.0296 63 23.0002 58.9706 23.0002 54C23.0002 50.0815 25.5043 46.7477 28.9999 45.5121L28.9998 41H12.9999V45.5121C16.4955 46.7476 19.0002 50.0812 19.0002 54C19.0002 58.9706 14.9707 63 10.0002 63C5.02962 63 1.00019 58.9706 1.00019 54C1.00019 50.0814 3.50438 46.7477 6.99994 45.5121V38C6.99994 36.3432 8.34309 35 9.99994 35H28.9997L28.9997 28C28.9996 26.3432 30.3428 25 31.9996 25ZM9.99994 51C8.34324 51 7.00019 52.343 7.00019 54C7.00019 55.6568 8.34333 57 10.0002 57C11.657 57 13.0002 55.6568 13.0002 54C13.0002 52.3433 11.657 51 9.99994 51ZM31.9999 51C30.3432 51 29.0002 52.343 29.0002 54C29.0002 55.6568 30.3433 57 32.0002 57C33.657 57 35.0002 55.6568 35.0002 54C35.0002 52.3433 33.6569 51 31.9999 51ZM53.9998 51C52.3432 51 51.0002 52.3429 51.0002 54C51.0002 55.6568 52.3433 57 54.0002 57C55.657 57 57.0002 55.6568 57.0002 54C57.0002 52.3434 55.6569 51 53.9998 51Z"/>
</svg>
