<svg width="64" height="64" viewBox="0 0 64 64" xmlns="http://www.w3.org/2000/svg">
<g clip-path="url(#clip0_194_220)">
<path d="M50.2995 54.4131H17.0595C17.0595 54.4131 16.8595 54.4131 16.7795 54.4131C8.05953 54.2531 1.01953 47.3331 1.01953 38.8531C1.01953 31.0131 7.01953 24.5331 14.7795 23.4531C16.6595 18.4931 20.9795 14.5331 26.4595 12.8531C32.6595 10.9731 39.5395 12.2531 44.4595 16.1731C48.4995 19.4131 50.7795 24.0531 50.8595 28.8931C57.6195 29.1731 63.0195 34.7731 63.0195 41.6531C63.0195 48.5331 57.3395 54.4131 50.2995 54.4131ZM17.2995 48.4131H50.2995C53.9795 48.4131 57.0195 45.3731 57.0195 41.6531C57.0195 37.9331 54.0195 34.8931 50.3395 34.8931H47.5795C46.6595 34.8931 45.8195 34.4931 45.2595 33.7731C44.6995 33.0531 44.4595 32.1331 44.6595 31.2531C45.4995 27.4531 44.0195 23.4931 40.7395 20.8931C37.3395 18.1731 32.5795 17.2931 28.2595 18.6131C24.0595 19.8931 20.8995 23.0931 20.0195 26.9731C19.6995 28.3331 18.4995 29.3331 17.0995 29.3331C11.5795 29.3331 7.05953 33.6131 7.05953 38.8931C7.05953 44.1731 11.5795 48.4531 17.0995 48.4531C17.1795 48.4531 17.2595 48.4531 17.3795 48.4531L17.2995 48.4131Z"/>
</g>
<defs>
<clipPath id="clip0_194_220">
<rect width="64" height="64" fill="white"/>
</clipPath>
</defs>
</svg>
