<svg width="64" height="64" viewBox="0 0 64 64" xmlns="http://www.w3.org/2000/svg">
<path fill-rule="evenodd" clip-rule="evenodd" d="M10.6074 12.4002C10.6446 12.5023 10.8043 12.8152 11.4369 13.3137C12.3363 14.0225 13.8238 14.7921 15.9292 15.4939C20.1087 16.8871 26.0735 17.8002 32.7996 17.8002C39.5257 17.8002 45.4905 16.8871 49.67 15.4939C51.7755 14.7921 53.2629 14.0225 54.1623 13.3137C54.7949 12.8152 54.9546 12.5023 54.9919 12.4002C54.9546 12.2982 54.7949 11.9853 54.1623 11.4868C53.2629 10.778 51.7755 10.0084 49.67 9.3066C45.4905 7.91342 39.5257 7.00024 32.7996 7.00024C26.0735 7.00024 20.1087 7.91342 15.9292 9.3066C13.8238 10.0084 12.3363 10.778 11.4369 11.4868C10.8043 11.9853 10.6446 12.2982 10.6074 12.4002ZM54.9996 19.7988C53.942 20.319 52.7857 20.7799 51.5674 21.186C46.6263 22.833 39.9911 23.8002 32.7996 23.8002C25.6081 23.8002 18.9729 22.833 14.0318 21.186C12.8135 20.7799 11.6572 20.319 10.5996 19.7988V31.9712C10.6201 32.0408 10.7474 32.3535 11.3987 32.8776C12.2723 33.5806 13.7515 34.368 15.9292 35.0939C20.2649 36.5391 26.3357 37.4002 32.7996 37.4002C39.2635 37.4002 45.3344 36.5391 49.67 35.0939C51.8477 34.368 53.3269 33.5806 54.2005 32.8776C54.8518 32.3535 54.9791 32.0408 54.9996 31.9712V19.7988ZM54.9996 39.3973C53.9523 39.9136 52.7992 40.3754 51.5674 40.786C46.4512 42.4914 39.7026 43.4002 32.7996 43.4002C25.8966 43.4002 19.148 42.4914 14.0318 40.786C12.8 40.3754 11.647 39.9136 10.5996 39.3973V51.5712C10.6201 51.6408 10.7474 51.9535 11.3987 52.4776C12.2723 53.1806 13.7515 53.968 15.9292 54.6939C20.2649 56.1391 26.3357 57.0002 32.7996 57.0002C39.2635 57.0002 45.3344 56.1391 49.67 54.6939C51.8477 53.968 53.3269 53.1806 54.2005 52.4776C54.8518 51.9535 54.9791 51.6408 54.9996 51.5712V39.3973ZM55.0031 51.5563L55.0016 51.5637ZM10.5961 51.5563L10.5976 51.5637ZM4.59961 51.6002C4.59961 53.9964 6.02937 55.8583 7.63702 57.152C9.27237 58.468 11.4836 59.5366 14.0318 60.386C19.148 62.0914 25.8966 63.0002 32.7996 63.0002C39.7026 63.0002 46.4512 62.0914 51.5674 60.386C54.1156 59.5366 56.3269 58.468 57.9622 57.152C59.5698 55.8583 60.9996 53.9964 60.9996 51.6002V12.4002C60.9996 9.92725 59.4933 8.04877 57.8762 6.77435C56.2253 5.47327 54.0222 4.43278 51.5674 3.6145C46.6263 1.96747 39.9911 1.00024 32.7996 1.00024C25.6081 1.00024 18.9729 1.96747 14.0318 3.6145C11.577 4.43278 9.37396 5.47327 7.72303 6.77435C6.10592 8.04877 4.59961 9.92725 4.59961 12.4002V51.6002ZM55.0011 12.3704L55.0024 12.3635ZM10.5968 12.3635L10.5981 12.3704Z" />
</svg>
