<svg width="64" height="64" viewBox="0 0 64 64" xmlns="http://www.w3.org/2000/svg">
<path fill-rule="evenodd" clip-rule="evenodd" d="M5.90119 3C7.55823 3 8.90152 4.34329 8.90152 6.00033V8.80075H14.4965V6.00033C14.4965 4.34329 15.8398 3 17.4968 3C19.1539 3 20.4972 4.34329 20.4972 6.00033V8.8022C22.1107 8.85183 23.4035 10.1755 23.4035 11.8011V17.602C23.4035 19.9363 22.4763 22.1749 20.8257 23.8255C19.199 25.4522 17.001 26.3764 14.7032 26.4027V48.0573C14.7032 49.9539 15.4567 51.7729 16.7978 53.114C18.139 54.4552 19.9579 55.2086 21.8546 55.2086C23.7513 55.2086 25.5702 54.4552 26.9114 53.114C28.2525 51.7729 29.0059 49.9539 29.0059 48.0573V16.152C29.0059 12.6639 30.3916 9.31861 32.8581 6.85213C35.3246 4.38565 38.6698 3 42.158 3C45.6461 3 48.9913 4.38565 51.4578 6.85213C53.9243 9.31861 55.31 12.6639 55.31 16.152V37.8062C57.604 37.8352 59.7978 38.759 61.4222 40.3833C63.0727 42.0339 64 44.2725 64 46.6068V52.4077C64 54.0281 62.7155 55.3484 61.1093 55.4061V58.2102C61.1093 59.8673 59.766 61.2106 58.1089 61.2106C56.4519 61.2106 55.1086 59.8673 55.1086 58.2102V55.4081H49.5058V58.2102C49.5058 59.8673 48.1625 61.2106 46.5055 61.2106C44.8484 61.2106 43.5052 59.8673 43.5052 58.2102V55.4067C41.8905 55.3583 40.5965 54.0341 40.5965 52.4077V46.6068C40.5965 44.2725 41.5237 42.0339 43.1743 40.3833C44.804 38.7536 47.007 37.8291 49.3093 37.8059V16.152C49.3093 14.2553 48.5559 12.4364 47.2147 11.0952C45.8736 9.7541 44.0546 9.00065 42.158 9.00065C40.2613 9.00065 38.4423 9.7541 37.1012 11.0952C35.76 12.4364 35.0066 14.2553 35.0066 16.152V48.0573C35.0066 51.5454 33.6209 54.8907 31.1545 57.3572C28.688 59.8236 25.3427 61.2093 21.8546 61.2093C18.3665 61.2093 15.0212 59.8236 12.5547 57.3572C10.0882 54.8907 8.70259 51.5454 8.70259 48.0573V26.4028C6.40402 26.377 4.20512 25.4528 2.57784 23.8255C0.927275 22.1749 0 19.9363 0 17.602V11.8011C0 10.1773 1.28987 8.85484 2.90087 8.80237V6.00033C2.90087 4.34329 4.24416 3 5.90119 3ZM52.2704 43.8062H49.3978C48.655 43.8062 47.9426 44.1012 47.4174 44.6264C46.8922 45.1517 46.5971 45.864 46.5971 46.6068V49.4074H57.9993V46.6068C57.9993 45.864 57.7043 45.1517 57.1791 44.6264C56.6538 44.1012 55.9415 43.8062 55.1987 43.8062H52.3489C52.3358 43.8063 52.3227 43.8064 52.3096 43.8064C52.2965 43.8064 52.2834 43.8063 52.2704 43.8062ZM6.00065 14.8014V17.602C6.00065 18.3448 6.29572 19.0572 6.82094 19.5824C7.34616 20.1076 8.05851 20.4027 8.80129 20.4027H14.6022C15.345 20.4027 16.0574 20.1076 16.5826 19.5824C17.1078 19.0572 17.4029 18.3448 17.4029 17.602V14.8014H6.00065Z" />
</svg>
