<svg width="64" height="64" viewBox="0 0 64 64" xmlns="http://www.w3.org/2000/svg">
<g clip-path="url(#clip0_195_272)">
<path fill-rule="evenodd" clip-rule="evenodd" d="M55.5341 55.6636C56.2134 55.7312 56.8284 56.0948 57.2152 56.6573C57.4921 57.0601 58.1276 57.7847 58.9926 58.3896C59.8554 58.9929 60.7785 59.3623 61.6812 59.3623C62.9618 59.3623 64 60.4005 64 61.6812C64 62.9618 62.9618 64 61.6812 64C59.5229 64 57.6828 63.1327 56.3349 62.1902C55.8787 61.8712 55.4597 61.5304 55.0828 61.1868C52.1128 63.342 49.102 63.8826 46.392 63.4089C44.3176 63.0463 42.5494 62.1134 41.2068 61.0743C38.1874 63.3231 35.1196 63.8907 32.3631 63.4089C30.415 63.0684 28.7371 62.225 27.428 61.263C25.0881 63.3732 22.3601 64 20.8696 64C19.5889 64 18.5507 62.9618 18.5507 61.6812C18.5507 60.4005 19.5889 59.3623 20.8696 59.3623C21.5394 59.3623 23.81 58.8763 25.3356 56.6573C25.7432 56.0644 26.4031 55.6942 27.1217 55.6555C27.8402 55.6168 28.536 55.9139 29.005 56.4597C29.8018 57.3868 31.3285 58.52 33.1616 58.8404C34.8434 59.1344 37.0859 58.8035 39.6611 56.3063C40.12 55.8614 40.7422 55.6255 41.3807 55.6546C42.0192 55.6836 42.6174 55.9749 43.034 56.4597C43.8308 57.3868 45.3575 58.52 47.1906 58.8404C48.8723 59.1344 51.1149 58.8035 53.6901 56.3063C54.1802 55.8311 54.8548 55.596 55.5341 55.6636Z" />
<path fill-rule="evenodd" clip-rule="evenodd" d="M55.5341 44.5332C56.2134 44.6008 56.8284 44.9643 57.2152 45.5269C57.4921 45.9296 58.1276 46.6542 58.9926 47.2591C59.8554 47.8625 60.7785 48.2319 61.6812 48.2319C62.9618 48.2319 64 49.2701 64 50.5507C64 51.8314 62.9618 52.8696 61.6812 52.8696C59.5229 52.8696 57.6828 52.0023 56.3349 51.0597C55.8787 50.7407 55.4597 50.4 55.0828 50.0564C52.1128 52.2116 49.102 52.7521 46.392 52.2784C44.3176 51.9158 42.5494 50.9829 41.2068 49.9439C38.1874 52.1927 35.1196 52.7603 32.3631 52.2784C30.415 51.9379 28.7371 51.0945 27.428 50.1326C25.0881 52.2428 22.3601 52.8696 20.8696 52.8696C19.5889 52.8696 18.5507 51.8314 18.5507 50.5507C18.5507 49.2701 19.5889 48.2319 20.8696 48.2319C21.5394 48.2319 23.81 47.7459 25.3356 45.5269C25.7432 44.9339 26.4031 44.5638 27.1217 44.5251C27.8402 44.4864 28.536 44.7835 29.005 45.3292C29.8018 46.2564 31.3285 47.3896 33.1616 47.71C34.8434 48.004 37.0859 47.6731 39.6611 45.1759C40.12 44.7309 40.7422 44.4951 41.3807 44.5241C42.0192 44.5532 42.6174 44.8445 43.034 45.3292C43.8308 46.2564 45.3575 47.3896 47.1906 47.71C48.8723 48.004 51.1149 47.6731 53.6901 45.1759C54.1802 44.7007 54.8548 44.4655 55.5341 44.5332Z" />
<path fill-rule="evenodd" clip-rule="evenodd" d="M30.4365 0.60641C31.322 -0.202137 32.678 -0.202137 33.5635 0.60641L63.2447 27.7066C63.7259 28.1459 64 28.7675 64 29.419V39.4203C64 40.7009 62.9618 41.7391 61.6812 41.7391C60.4005 41.7391 59.3623 40.7009 59.3623 39.4203V30.4418L32 5.45883L4.63768 30.4418V59.3623H13.4493C14.7299 59.3623 15.7681 60.4005 15.7681 61.6812C15.7681 62.9618 14.7299 64 13.4493 64H2.31884C1.03818 64 0 62.9618 0 61.6812V29.419C0 28.7675 0.274137 28.1459 0.755317 27.7066L30.4365 0.60641Z" />
</g>
<defs>
<clipPath id="clip0_195_272">
<rect width="64" height="64" fill="white"/>
</clipPath>
</defs>
</svg>
