<svg width="16" height="16" viewBox="0 0 16 16" xmlns="http://www.w3.org/2000/svg">
<g clip-path="url(#clip0_436_9300)">
<path fill-rule="evenodd" clip-rule="evenodd" d="M8 1.15942C4.22205 1.15942 1.15942 4.22205 1.15942 8C1.15942 11.7779 4.22205 14.8406 8 14.8406C11.7779 14.8406 14.8406 11.7779 14.8406 8C14.8406 4.22205 11.7779 1.15942 8 1.15942ZM0 8C0 3.58172 3.58172 0 8 0C12.4183 0 16 3.58172 16 8C16 12.4183 12.4183 16 8 16C3.58172 16 0 12.4183 0 8Z" />
<path fill-rule="evenodd" clip-rule="evenodd" d="M8 3.94203C5.75884 3.94203 3.94203 5.75884 3.94203 8C3.94203 8.32016 3.68248 8.57971 3.36232 8.57971C3.04215 8.57971 2.78261 8.32016 2.78261 8C2.78261 5.11851 5.11851 2.78261 8 2.78261C8.32016 2.78261 8.57971 3.04215 8.57971 3.36232C8.57971 3.68248 8.32016 3.94203 8 3.94203Z" />
<path fill-rule="evenodd" clip-rule="evenodd" d="M8 6.72464C7.29564 6.72464 6.72464 7.29564 6.72464 8C6.72464 8.70436 7.29564 9.27536 8 9.27536C8.70436 9.27536 9.27536 8.70436 9.27536 8C9.27536 7.29564 8.70436 6.72464 8 6.72464ZM5.56522 8C5.56522 6.65531 6.65531 5.56522 8 5.56522C9.34469 5.56522 10.4348 6.65531 10.4348 8C10.4348 9.34469 9.34469 10.4348 8 10.4348C6.65531 10.4348 5.56522 9.34469 5.56522 8Z" />
</g>
<defs>
<clipPath id="clip0_436_9300">
<rect width="16" height="16" />
</clipPath>
</defs>
</svg>
