<svg width="64" height="64" viewBox="0 0 64 64" xmlns="http://www.w3.org/2000/svg">
<g clip-path="url(#clip0_195_260)">
<path fill-rule="evenodd" clip-rule="evenodd" d="M9.45912 6.03774C7.56954 6.03774 6.03774 7.56954 6.03774 9.45912V54.5409C6.03774 56.4305 7.56954 57.9623 9.45912 57.9623H54.5409C56.4305 57.9623 57.9623 56.4305 57.9623 54.5409V9.45912C57.9623 7.56954 56.4305 6.03774 54.5409 6.03774H9.45912ZM0 9.45912C0 4.23499 4.23499 0 9.45912 0H54.5409C59.765 0 64 4.23499 64 9.45912V54.5409C64 59.765 59.765 64 54.5409 64H9.45912C4.23499 64 0 59.765 0 54.5409V9.45912Z" />
<path fill-rule="evenodd" clip-rule="evenodd" d="M29.0842 14C30.1189 14.095 30.968 14.8587 31.1718 15.8775L35.8838 39.4372L39.2114 31.1181C39.568 30.2268 40.4313 29.6423 41.3913 29.6423H47.6522C48.9488 29.6423 50 30.6934 50 31.9901C50 33.2868 48.9488 34.3379 47.6522 34.3379H42.9809L37.3103 48.5142C36.9245 49.4789 35.9504 50.0752 34.9158 49.9802C33.8811 49.8852 33.032 49.1215 32.8282 48.1027L28.1162 24.543L24.7886 32.8621C24.432 33.7534 23.5687 34.3379 22.6087 34.3379H16.3478C15.0512 34.3379 14 33.2868 14 31.9901C14 30.6934 15.0512 29.6423 16.3478 29.6423H21.0191L26.6897 15.466C27.0755 14.5013 28.0496 13.905 29.0842 14Z" />
</g>
<defs>
<clipPath id="clip0_195_260">
<rect width="64" height="64" fill="white"/>
</clipPath>
</defs>
</svg>
