<svg width="64" height="64" viewBox="0 0 64 64" xmlns="http://www.w3.org/2000/svg">
<path d="M54.0374 19.9253C48.538 19.9253 44.0747 15.462 44.0747 9.96264C44.0747 4.46326 48.538 0 54.0374 0C59.5367 0 64 4.46326 64 9.96264C64 15.462 59.5367 19.9253 54.0374 19.9253ZM54.0374 6.09714C51.9253 6.09714 50.1719 7.81071 50.1719 9.96264C50.1719 12.1146 51.8854 13.8281 54.0374 13.8281C56.1893 13.8281 57.9029 12.1146 57.9029 9.96264C57.9029 7.81071 56.1893 6.09714 54.0374 6.09714Z" />
<path d="M23.1533 24.2689L20.0051 20.4432L32.279 10.3212C33.7934 9.08583 35.7062 8.36852 37.6589 8.36852H48.8569V13.3498H37.6589C36.8619 13.3498 36.0648 13.6288 35.4272 14.1469L23.1533 24.2689Z" />
<path d="M64 51.2478C64 56.7471 59.5367 61.2104 54.0374 61.2104C48.538 61.2104 44.0747 56.7471 44.0747 51.2478C44.0747 45.7484 48.538 41.2851 54.0374 41.2851C59.5367 41.2851 64 45.7484 64 51.2478ZM57.9029 51.2478C57.9029 49.1357 56.1893 47.3823 54.0374 47.3823C51.8854 47.3823 50.1719 49.0958 50.1719 51.2478C50.1719 53.3997 51.8854 55.1133 54.0374 55.1133C56.1893 55.1133 57.9029 53.3997 57.9029 51.2478Z" />
<path d="M48.8569 52.8419H37.6589C35.7062 52.8419 33.7934 52.1645 32.279 50.8893L20.0051 40.7672L23.1533 36.9416L35.4272 47.0636C36.0648 47.5817 36.822 47.8606 37.6589 47.8606H48.8569V52.8419Z" />
<path d="M0.876712 44.6727C8.60772 44.6727 14.9041 38.3763 14.9041 30.6453C14.9041 22.9143 8.60772 16.6578 0.757161 16.6578H0V21.4797H0.876712C5.93773 21.4797 10.0423 25.6241 10.0423 30.6453C10.0423 35.6665 5.93773 39.8109 0.876712 39.8109H0V44.6329H0.597759C0.597759 44.6329 0.757161 44.6329 0.836862 44.6329L0.876712 44.6727Z" />
<path d="M29.1308 28.1346L28.8917 25.5842L24.3886 23.5916C23.9104 21.9976 23.2728 20.4434 22.4758 18.969C22.7547 18.4111 23.1931 17.2155 24.1893 14.6651L24.3089 14.3862L22.675 12.4335C21.599 11.1583 20.4035 9.96274 19.1283 8.88678L17.1756 7.2529L12.553 9.04618C11.0785 8.24917 9.56418 7.61156 7.97015 7.13335L5.97762 2.63024L3.42719 2.39114C2.70988 2.35128 1.99257 2.39114 1.31511 2.39114C1.03615 2.39114 0.79705 2.39114 0.518096 2.39114H0.0398895V7.21305H1.23541C1.75346 7.21305 2.23167 7.1732 2.70988 7.21305L4.50315 11.3177H4.74226C7.29269 11.8756 9.68373 12.8718 11.8357 14.3065L12.0349 14.4659L16.1794 12.8718C17.0959 13.6688 17.9328 14.5057 18.7298 15.4223L17.1358 19.5667L17.2952 19.766C18.7298 21.9179 19.7261 24.3089 20.2441 26.8594V27.0985L24.3886 28.8918C24.4683 30.0873 24.4683 31.2828 24.3886 32.4783L20.284 34.2716V34.5107C19.7261 37.0611 18.7298 39.4522 17.2952 41.6041L17.1358 41.8033L18.7298 45.9478C17.9328 46.8644 17.0959 47.7012 16.1794 48.4982L12.0349 46.9042L11.8357 47.0636C9.68373 48.4982 7.29269 49.4945 4.74226 50.0126H4.50315L2.70988 54.157C2.15197 54.157 1.39481 54.2367 0.557947 54.2367H0.07974V58.9789H0.557947C0.836901 58.9789 1.076 58.9789 1.35496 58.9789C1.71361 58.9789 2.03242 58.9789 2.39107 58.9789C2.74973 58.9789 3.10838 58.9789 3.46704 58.9391L6.01747 58.7L8.01 54.1969C9.60403 53.7187 11.1582 53.0811 12.6327 52.284C13.2703 52.563 14.4658 53.0412 16.8967 53.9976L17.1756 54.1172L19.1283 52.4833C20.4434 51.4073 21.6389 50.2118 22.675 48.9366L24.3089 46.9839L22.5156 42.3613C23.3126 40.9266 23.9502 39.3725 24.4284 37.7784L28.9316 35.7859L29.1707 33.2355C29.3301 31.5617 29.3301 29.888 29.1707 28.2143L29.1308 28.1346Z" />
</svg>
