<svg width="64" height="64" viewBox="0 0 64 64" xmlns="http://www.w3.org/2000/svg">
<path fill-rule="evenodd" clip-rule="evenodd" d="M8.91465 8.05797C7.06112 8.05797 4.63768 9.96765 4.63768 13.4493V50.5507C4.63768 54.0324 7.06112 55.942 8.91465 55.942H55.0853C56.9389 55.942 59.3623 54.0324 59.3623 50.5507V13.4493C59.3623 9.96765 56.9389 8.05797 55.0853 8.05797H8.91465ZM0 13.4493C0 8.73467 3.48266 4 8.91465 4H55.0853C60.5173 4 64 8.73467 64 13.4493V50.5507C64 55.2653 60.5173 60 55.0853 60H8.91465C3.48266 60 0 55.2653 0 50.5507V13.4493Z" />
<path fill-rule="evenodd" clip-rule="evenodd" d="M9.5 20C9.5 16.4101 12.4101 13.5 16 13.5H48C51.5898 13.5 54.5 16.4101 54.5 20V32C54.5 35.5899 51.5899 38.5 48 38.5H16C12.4102 38.5 9.5 35.5899 9.5 32V20ZM16 18.5C15.1716 18.5 14.5 19.1716 14.5 20V32C14.5 32.8284 15.1716 33.5 16 33.5H48C48.8284 33.5 49.5 32.8284 49.5 32V20C49.5 19.1716 48.8284 18.5 48 18.5H16Z" />
<path fill-rule="evenodd" clip-rule="evenodd" d="M27.5 48C27.5 46.6193 28.6193 45.5 30 45.5H50C51.3807 45.5 52.5 46.6193 52.5 48C52.5 49.3807 51.3807 50.5 50 50.5H30C28.6193 50.5 27.5 49.3807 27.5 48Z" />
<path fill-rule="evenodd" clip-rule="evenodd" d="M11.5 48C11.5 46.6193 12.6193 45.5 14 45.5H22C23.3807 45.5 24.5 46.6193 24.5 48C24.5 49.3807 23.3807 50.5 22 50.5H14C12.6193 50.5 11.5 49.3807 11.5 48Z" />
</svg>
