<svg width="64" height="64" viewBox="0 0 64 64" xmlns="http://www.w3.org/2000/svg">
<path fill-rule="evenodd" clip-rule="evenodd" d="M18.4841 6.8188C19.0083 6.29453 19.7194 6 20.4608 6H36.6147V20.3866C36.6147 22.0435 37.9579 23.3866 39.6147 23.3866H53.9999V55.1599C53.9999 55.9013 53.7054 56.6124 53.1811 57.1367C52.6569 57.6609 51.9458 57.9555 51.2044 57.9555H18.695C17.0381 57.9555 15.695 59.2986 15.695 60.9555C15.695 62.6123 17.0381 63.9555 18.695 63.9555H51.2044C53.5371 63.9555 55.7743 63.0288 57.4238 61.3793C59.0733 59.7298 59.9999 57.4926 59.9999 55.1599V20.4803C60.0009 20.4492 60.0014 20.418 60.0014 20.3866C60.0014 20.3553 60.0009 20.3241 59.9999 20.293V18.9377C59.9999 18.1421 59.6839 17.379 59.1213 16.8164L43.1835 0.87868C42.6209 0.316071 41.8578 0 41.0622 0H20.4608C18.1281 0 15.8909 0.926671 14.2414 2.57616C12.5919 4.22564 11.6653 6.46282 11.6653 8.79555V14.5911C11.6653 16.2479 13.0084 17.5911 14.6653 17.5911C16.3221 17.5911 17.6653 16.2479 17.6653 14.5911V8.79555C17.6653 8.05412 17.9598 7.34306 18.4841 6.8188ZM42.6147 8.79519V17.3866H51.2062L42.6147 8.79519Z" />
<path fill-rule="evenodd" clip-rule="evenodd" d="M14.5108 20.4761C15.19 20.2214 15.9384 20.2214 16.6176 20.4761L28.7882 25.0401C29.9591 25.4792 30.7348 26.5985 30.7348 27.8491V38.4984C30.7348 44.4017 26.8469 48.9666 23.625 51.7858C21.9511 53.2505 20.2912 54.3901 19.0559 55.1622C18.435 55.5502 17.9134 55.8504 17.5401 56.0571C17.3533 56.1605 17.203 56.2408 17.0954 56.2973L16.9665 56.3642L16.9274 56.3841L16.9144 56.3907L16.9095 56.3931C16.9095 56.3931 16.9058 56.395 15.5642 53.7117C14.2226 56.395 14.2208 56.3941 14.2208 56.3941L14.214 56.3907L14.201 56.3841L14.1619 56.3642L14.033 56.2973C13.9254 56.2408 13.7751 56.1605 13.5883 56.0571C13.215 55.8504 12.6934 55.5502 12.0725 55.1622C10.8372 54.3901 9.17734 53.2505 7.50336 51.7858C4.28145 48.9666 0.393555 44.4017 0.393555 38.4984V27.8491C0.393555 26.5985 1.16927 25.4792 2.34018 25.0401L14.5108 20.4761ZM15.5642 50.2664C15.6639 50.2058 15.7679 50.1417 15.8759 50.0742C16.9225 49.4201 18.3053 48.4679 19.674 47.2703C22.5374 44.7648 24.7348 41.7231 24.7348 38.4984V29.9281L15.5642 26.4891L6.39355 29.9281V38.4984C6.39355 41.7231 8.59098 44.7648 11.4544 47.2703C12.8231 48.4679 14.2059 49.4201 15.2525 50.0742C15.3605 50.1417 15.4645 50.2058 15.5642 50.2664Z" />
<path d="M15.5642 53.7117L16.9058 56.395C16.0613 56.8173 15.0654 56.8164 14.2208 56.3941L15.5642 53.7117Z" />
</svg>
