<svg width="64" height="64" viewBox="0 0 64 64" xmlns="http://www.w3.org/2000/svg">
<path fill-rule="evenodd" clip-rule="evenodd" d="M43.2117 3.21193C44.3833 2.04036 46.2828 2.04036 47.4543 3.21193L58.121 13.8786C59.2926 15.0502 59.2926 16.9497 58.121 18.1212L47.4543 28.7879C46.2828 29.9595 44.3833 29.9595 43.2117 28.7879C42.0401 27.6163 42.0401 25.7168 43.2117 24.5453L51.757 15.9999L43.2117 7.45457C42.0401 6.283 42.0401 4.3835 43.2117 3.21193Z" />
<path fill-rule="evenodd" clip-rule="evenodd" d="M18.6667 19C16.6333 19 14.6833 19.8077 13.2455 21.2455C11.8077 22.6833 11 24.6333 11 26.6667V29.3333C11 30.9902 9.65685 32.3333 8 32.3333C6.34315 32.3333 5 30.9902 5 29.3333V26.6667C5 23.042 6.43988 19.5659 9.00287 17.0029C11.5659 14.4399 15.042 13 18.6667 13H56C57.6569 13 59 14.3431 59 16C59 17.6569 57.6569 19 56 19H18.6667Z" />
<path fill-rule="evenodd" clip-rule="evenodd" d="M20.788 35.2119C21.9596 36.3835 21.9596 38.283 20.788 39.4546L12.2426 47.9999L20.788 56.5453C21.9596 57.7168 21.9596 59.6163 20.788 60.7879C19.6164 61.9595 17.7169 61.9595 16.5453 60.7879L5.87868 50.1212C4.70711 48.9497 4.70711 47.0502 5.87868 45.8786L16.5453 35.2119C17.7169 34.0404 19.6164 34.0404 20.788 35.2119Z" />
<path fill-rule="evenodd" clip-rule="evenodd" d="M56 31.6667C57.6569 31.6667 59 33.0099 59 34.6667V37.3334C59 40.958 57.5601 44.4342 54.9971 46.9972C52.4341 49.5602 48.958 51.0001 45.3333 51.0001H8C6.34315 51.0001 5 49.6569 5 48.0001C5 46.3432 6.34315 45.0001 8 45.0001H45.3333C47.3667 45.0001 49.3167 44.1923 50.7545 42.7546C52.1923 41.3168 53 39.3667 53 37.3334V34.6667C53 33.0099 54.3431 31.6667 56 31.6667Z" />
</svg>
