<svg width="64" height="64" viewBox="0 0 64 64" xmlns="http://www.w3.org/2000/svg">
<g clip-path="url(#clip0_194_193)">
<path fill-rule="evenodd" clip-rule="evenodd" d="M30.6563 0.316718C31.5009 -0.105573 32.495 -0.105573 33.3396 0.316718L62.3368 14.8153C63.3532 15.3235 63.9952 16.3623 63.9952 17.4986C63.9952 18.6349 63.3532 19.6737 62.3368 20.1819L33.3396 34.6805C32.495 35.1028 31.5009 35.1028 30.6563 34.6805L1.65902 20.1819C0.642664 19.6737 0.000657227 18.6349 0.000657227 17.4986C0.000657227 16.3623 0.642664 15.3235 1.65902 14.8153L30.6563 0.316718ZM9.70886 17.4986L31.9979 28.6432L54.287 17.4986L31.9979 6.3541L9.70886 17.4986Z" />
<path d="M0.317376 45.1545C1.05834 43.6725 2.86036 43.0719 4.3423 43.8128L31.9979 57.6406L59.6535 43.8128C61.1355 43.0719 62.9375 43.6725 63.6784 45.1545C64.4194 46.6364 63.8187 48.4384 62.3368 49.1794L33.3396 63.678C32.495 64.1003 31.5009 64.1003 30.6563 63.678L1.65902 49.1794C0.177081 48.4384 -0.423592 46.6364 0.317376 45.1545Z" />
<path d="M4.3423 29.3145C2.86036 28.5735 1.05834 29.1742 0.317376 30.6561C-0.423592 32.138 0.177081 33.94 1.65902 34.681L30.6563 49.1796C31.5009 49.6019 32.495 49.6019 33.3396 49.1796L62.3368 34.681C63.8187 33.94 64.4194 32.138 63.6784 30.6561C62.9375 29.1742 61.1355 28.5735 59.6535 29.3145L31.9979 43.1423L4.3423 29.3145Z" />
</g>
<defs>
<clipPath id="clip0_194_193">
<rect width="64" height="64" fill="white"/>
</clipPath>
</defs>
</svg>
