<svg xmlns="http://www.w3.org/2000/svg" version="1.1" viewBox="-5.0 -10.0 110.0 135.0">
 <path d="m66.004 7.0312h-41.004c-4.7422 0-8.5938 3.8516-8.5938 8.5938v68.75c0 4.7422 3.8516 8.5938 8.5938 8.5938h50c4.7422 0 8.5938-3.8516 8.5938-8.5938v-48.164c0-1.793-0.55078-3.5156-1.5859-4.9766l-7.4102-10.418v-5.1914c0-4.7422-3.8555-8.5938-8.5938-8.5938zm8.9961 81.25h-50c-1.9062 0-3.4219-1.3984-3.7656-3.2031h57.531c-0.33984 1.8047-1.8594 3.2031-3.7656 3.2031zm-40.438-7.8906v-9.1836c0-2.1523 1.7539-3.9062 3.9062-3.9062h23.062c2.1523 0 3.9062 1.7539 3.9062 3.9062v9.1836zm43.621-46.441c0.47266 0.66406 0.72266 1.4492 0.72266 2.2656v44.176h-8.7812v-9.1836c0-4.7422-3.8516-8.5938-8.5938-8.5938h-23.062c-4.7422 0-8.5938 3.8516-8.5938 8.5938v9.1836h-8.7812v-64.766c0-2.1523 1.7539-3.9062 3.9062-3.9062h3.9141v3.375c0 1.293 1.0508 2.3438 2.3438 2.3438 1.293 0 2.3438-1.0508 2.3438-2.3438v-3.375h4.8086v3.375c0 1.293 1.0508 2.3438 2.3438 2.3438 1.293 0 2.3438-1.0508 2.3438-2.3438v-3.375h4.8086v3.375c0 1.293 1.0508 2.3438 2.3438 2.3438s2.3438-1.0508 2.3438-2.3438v-3.375h4.8086v3.375c0 1.293 1.0508 2.3438 2.3438 2.3438 1.293 0 2.3438-1.0508 2.3438-2.3438v-3.375h3.9141c2.1523 0 3.9062 1.7539 3.9062 3.9062v5.9375c0 0.48828 0.14844 0.96094 0.43359 1.3594z"/>
<text x="0.0" y="117.5" font-size="5.0" font-weight="bold" font-family="Arbeit Regular, Helvetica, Arial-Unicode, Arial, Sans-serif" fill="#000000">Created by Kiki Rizky</text><text x="0.0" y="122.5" font-size="5.0" font-weight="bold" font-family="Arbeit Regular, Helvetica, Arial-Unicode, Arial, Sans-serif" >from Noun Project</text></svg>