<svg width="64" height="64" viewBox="0 0 64 64" xmlns="http://www.w3.org/2000/svg">
<path fill-rule="evenodd" clip-rule="evenodd" d="M30.8498 7.09451L7.44793 16.4553C6.87199 16.6846 6.37394 17.0825 6.02497 17.5949C5.67687 18.106 5.48913 18.7093 5.48571 19.3276V53.4057C5.48571 54.2302 5.81322 55.0208 6.39619 55.6038C6.97916 56.1868 7.76984 56.5143 8.59428 56.5143H55.4057C56.2301 56.5143 57.0208 56.1868 57.6038 55.6038C58.1868 55.0208 58.5143 54.2302 58.5143 53.4057V19.3278C58.5109 18.7094 58.3232 18.1061 57.975 17.5949C57.626 17.0825 57.1318 16.6862 56.5559 16.4568L33.1502 7.09451C32.4125 6.80121 31.5874 6.80121 30.8498 7.09451ZM28.8201 1.9981C30.862 1.18488 33.1379 1.18488 35.1799 1.9981L58.5856 11.3604C60.1773 11.9946 61.5445 13.0907 62.509 14.5069C63.4738 15.9235 63.993 17.5962 64 19.3101L64 19.3212L64 53.4057C64 55.6851 63.0945 57.8711 61.4828 59.4828C59.871 61.0945 57.685 62 55.4057 62H8.59428C6.31494 62 4.12895 61.0945 2.51721 59.4828C0.905466 57.8711 0 55.6851 0 53.4057V19.3101C0.00691589 17.5962 0.526156 15.9235 1.49097 14.5069C2.45534 13.0909 3.82087 11.9955 5.41225 11.3612L28.8201 1.9981Z" />
<path fill-rule="evenodd" clip-rule="evenodd" d="M11.7029 24.1486C11.7029 22.6337 12.9309 21.4057 14.4457 21.4057H49.5543C51.0691 21.4057 52.2971 22.6337 52.2971 24.1486V59.2571C52.2971 60.772 51.0691 62 49.5543 62H14.4457C12.9309 62 11.7029 60.772 11.7029 59.2571V24.1486ZM17.1886 26.8914V56.5143H46.8114V26.8914H17.1886Z" />
<path fill-rule="evenodd" clip-rule="evenodd" d="M11.7026 42C11.7026 40.4852 12.9307 39.2572 14.4455 39.2572H49.5541C51.0689 39.2572 52.2969 40.4852 52.2969 42C52.2969 43.5148 51.0689 44.7429 49.5541 44.7429H14.4455C12.9307 44.7429 11.7026 43.5148 11.7026 42Z" />
<path fill-rule="evenodd" clip-rule="evenodd" d="M43 33C43 34.6569 41.6569 36 40 36C38.3431 36 37 34.6569 37 33C37 31.3432 38.3431 30 40 30C41.6569 30 43 31.3432 43 33Z" />
<path fill-rule="evenodd" clip-rule="evenodd" d="M42.9808 50.6585C42.9808 52.3154 41.6377 53.6585 39.9808 53.6585C38.3239 53.6585 36.9808 52.3154 36.9808 50.6585C36.9808 49.0017 38.3239 47.6585 39.9808 47.6585C41.6377 47.6585 42.9808 49.0017 42.9808 50.6585Z" />
</svg>
