<svg width="64" height="64" viewBox="0 0 64 64" xmlns="http://www.w3.org/2000/svg">
<g clip-path="url(#clip0_195_252)">
<path fill-rule="evenodd" clip-rule="evenodd" d="M2.98925 -0.00756836C1.33402 -0.00756836 -0.0078125 1.33426 -0.0078125 2.98949V15.0733C-0.0078125 16.7286 1.33402 18.0704 2.98925 18.0704H21.115C22.7702 18.0704 24.1121 16.7286 24.1121 15.0733V2.98949C24.1121 1.33426 22.7702 -0.00756836 21.115 -0.00756836H2.98925ZM5.98631 12.0763V5.98655H18.1179V12.0763H5.98631ZM42.8694 45.3066C41.2142 45.3066 39.8723 46.6485 39.8723 48.3037V60.3875C39.8723 62.0428 41.2142 63.3846 42.8694 63.3846H60.9951C62.6504 63.3846 63.9922 62.0428 63.9922 60.3875V48.3037C63.9922 46.6485 62.6504 45.3066 60.9951 45.3066H42.8694ZM45.8664 57.3905V51.3008H57.9981V57.3905H45.8664ZM53.7472 7.24301C55.4024 7.24301 56.7443 8.58484 56.7443 10.2401V39.2413C56.7443 40.8965 55.4024 42.2383 53.7472 42.2383C52.092 42.2383 50.7501 40.8965 50.7501 39.2413V13.2371H31.9963C30.3411 13.2371 28.9992 11.8953 28.9992 10.2401C28.9992 8.58484 30.3411 7.24301 31.9963 7.24301H53.7472ZM7.23891 53.7416C7.23891 54.5365 7.55467 55.2988 8.11673 55.8609C8.67878 56.4229 9.4411 56.7387 10.236 56.7387H35.612C37.2672 56.7387 38.6091 55.3969 38.6091 53.7416C38.6091 52.0864 37.2672 50.7446 35.612 50.7446H13.233V24.7404C13.233 23.0852 11.8912 21.7434 10.236 21.7434C8.58074 21.7434 7.23891 23.0852 7.23891 24.7404V53.7416Z" />
</g>
<defs>
<clipPath id="clip0_195_252">
<rect width="64" height="64" fill="white"/>
</clipPath>
</defs>
</svg>
