<svg width="64" height="64" viewBox="0 0 64 64" xmlns="http://www.w3.org/2000/svg">
<g clip-path="url(#clip0_194_162)">
<path d="M15.35 11.2125L9.625 16.9375L5.20711 12.5196C4.81658 12.1291 4.18342 12.1291 3.79289 12.5196L2.25 14.0625C1.61844 14.6941 1.04548 15.2996 0.635804 15.7411C0.275505 16.1295 0.292608 16.7301 0.66719 17.1047L8.86736 25.3049C9.25318 25.6907 9.87497 25.6977 10.2662 25.3173C11.5479 24.0712 14.4331 21.2544 17.6875 18L24.9804 10.7071C25.3709 10.3166 25.3709 9.68342 24.9804 9.2929L23.4375 7.75C22.8194 7.1319 22.2418 6.56992 21.8185 6.16221C21.4325 5.7904 20.8233 5.79478 20.4408 6.17017C19.458 7.1345 17.524 9.03846 15.35 11.2125Z" />
<path d="M28.75 18.625C28.75 19.1773 29.1977 19.625 29.75 19.625H63C63.5523 19.625 64 19.1773 64 18.625V14.125C64 13.5727 63.5523 13.125 63 13.125H29.75C29.1977 13.125 28.75 13.5727 28.75 14.125V18.625Z" />
<path d="M15.3125 30.375L9.5625 36.125L5.14461 31.7071C4.75408 31.3166 4.12092 31.3166 3.73039 31.7071L2.2125 33.225C1.58875 33.8487 1.02124 34.4493 0.617175 34.8855C0.2647 35.266 0.272596 35.8503 0.631267 36.225C1.46155 37.0923 3.02628 38.7138 4.8125 40.5L8.91789 44.6054C9.30842 44.9959 9.94158 44.9959 10.3321 44.6054L17.625 37.3125C20.8834 34.0541 23.7032 31.1658 24.9469 29.8864C25.3254 29.4971 25.3207 28.879 24.9394 28.4924L21.8237 25.3334C21.4372 24.9416 20.807 24.9358 20.4143 25.3213C19.4192 26.2978 17.487 28.2005 15.3125 30.375Z" />
<path d="M28.75 37.875C28.75 38.4273 29.1977 38.875 29.75 38.875H63C63.5523 38.875 64 38.4273 64 37.875V33.375C64 32.8227 63.5523 32.375 63 32.375H29.75C29.1977 32.375 28.75 32.8227 28.75 33.375V37.875Z" />
<path d="M0 57C0 57.5523 0.447715 58 1 58H63C63.5523 58 64 57.5523 64 57V52.5C64 51.9477 63.5523 51.5 63 51.5H1C0.447715 51.5 0 51.9477 0 52.5V57Z" />
</g>
<defs>
<clipPath id="clip0_194_162">
<rect width="64" height="64" fill="white"/>
</clipPath>
</defs>
</svg>
