<svg xmlns="http://www.w3.org/2000/svg" width="589.702" height="109.24" viewBox="0 0 589.702 109.24">
  <g id="ModernLogos-05" transform="translate(-101.15 -251.38)">
    <path id="Path_366" data-name="Path 366" d="M156,304.28a47.07,47.07,0,0,1,47.08-47.07v47.07Z" fill="#2b323c"/>
    <path id="Path_367" data-name="Path 367" d="M101.15,257.21a47.072,47.072,0,0,1,47.08,47.08l-47.08-.01Z" fill="#2b323c"/>
    <circle id="Ellipse_17" data-name="Ellipse 17" cx="24.79" cy="24.79" r="24.79" transform="translate(154.78 310.8)" fill="#2b323c"/>
    <rect id="Rectangle_19" data-name="Rectangle 19" width="47.08" height="47.08" transform="translate(101.15 312.05)" fill="#2b323c"/>
    <path id="Path_368" data-name="Path 368" d="M277.07,359.13l-32.16-77.58v77.58H232.48V257.35h14.75l34.48,83.54L316,257.35h14.26V359.13H317.85V281.55L286,359.13Z" fill="#2b323c"/>
    <path id="Path_369" data-name="Path 369" d="M373.05,360.62c-20.22,0-33.82-15.75-33.82-38.29S352.83,284,373.05,284c20.06,0,33.81,15.74,33.81,38.29S393.11,360.62,373.05,360.62Zm0-65.64c-13.26,0-21.22,11.27-21.22,27.35s8,27.35,21.22,27.35,21.22-11.27,21.22-27.35S386.31,295,373.05,295Z" fill="#2b323c"/>
    <path id="Path_370" data-name="Path 370" d="M467.77,350.51c-3.65,5.3-11.6,10.11-20.72,10.11-21.55,0-33.15-17.41-33.15-38.29,0-20.72,11.6-38.29,33.15-38.29,9.12,0,17.07,4.8,20.72,10.11V251.38h12.6V359.13h-12.6Zm0-43.1a21.18,21.18,0,0,0-18.9-12.1c-14.09,0-22.38,11.44-22.38,27s8.29,27,22.38,27a21.2,21.2,0,0,0,18.9-12.1Z" fill="#2b323c"/>
    <path id="Path_371" data-name="Path 371" d="M552.77,337.08c-2.65,13.92-13.1,23.54-29.67,23.54-20.06,0-33.82-15.42-33.82-38.13,0-22,13.43-38.45,33.49-38.45,20.22,0,31,14.75,31,36.13v4.48H501.71c.17,15.75,9,25.36,21.39,25.36,9.11,0,15.91-4.64,17.9-12.93ZM502.05,315.2h39.12c-.17-10.94-6-20.55-18.24-20.55C511.83,294.65,503.87,302.27,502.05,315.2Z" fill="#2b323c"/>
    <path id="Path_372" data-name="Path 372" d="M601.41,298a15.731,15.731,0,0,0-8.29-2c-7.79,0-14.59,5.14-17.07,13.76v49.4H563.61v-73.6h12.44v9.61A20.54,20.54,0,0,1,594.28,284a17.87,17.87,0,0,1,7.13,1.16Z" fill="#2b323c"/>
    <path id="Path_373" data-name="Path 373" d="M610.25,285.53h12.43v9.28A27.48,27.48,0,0,1,644.39,284c16.74,0,25.86,10.77,25.86,26.85v48.24h-12.6V312.88c0-10.28-5.14-17.41-16.24-17.41a20,20,0,0,0-18.73,13.76v49.9H610.25Z" fill="#2b323c"/>
    <path id="Path_374" data-name="Path 374" d="M681.4,303.14a9.55,9.55,0,1,1,9.45-9.55,9.37,9.37,0,0,1-9.45,9.55Zm0-17.59a8,8,0,1,0,7.83,8,7.81,7.81,0,0,0-7.83-8Zm-1.52,9.4v3.55h-2.19v-10h4.39c2.19,0,3.55,1.2,3.55,3.29a2.87,2.87,0,0,1-2.2,3L686,298.5h-2.45l-2.36-3.5Zm2.09-4.6h-2.09v2.77H682a1.4,1.4,0,1,0,0-2.77Z" fill="#2b323c"/>
  </g>
</svg>
