<svg xmlns="http://www.w3.org/2000/svg" xmlns:xlink="http://www.w3.org/1999/xlink" xmlns:lucid="lucid" width="966" height="965"><g transform="translate(-250 -65)" lucid:page-tab-id="0_0"><path d="M0 0h1870.87v1322.83H0z" fill="#fff"/><path d="M210 66a6 6 0 0 1 6-6h1038a6 6 0 0 1 6 6v1048a6 6 0 0 1-6 6H216a6 6 0 0 1-6-6z" stroke="#3a414a" fill="#fff"/><path d="M600 196a6 6 0 0 1 6-6h188a6 6 0 0 1 6 6v108a6 6 0 0 1-6 6H606a6 6 0 0 1-6-6z" stroke="#3a414a" fill="#dfe3e8"/><use xlink:href="#a" transform="matrix(1,0,0,1,612,202) translate(55.40740740740741 42.33333333333333)"/><use xlink:href="#b" transform="matrix(1,0,0,1,612,202) translate(105.77777777777777 42.33333333333333)"/><use xlink:href="#c" transform="matrix(1,0,0,1,612,202) translate(25.30864197530866 67.22222222222221)"/><use xlink:href="#d" transform="matrix(1,0,0,1,612,202) translate(64.76543209876544 67.22222222222221)"/><use xlink:href="#e" transform="matrix(1,0,0,1,612,202) translate(89.45679012345678 67.22222222222221)"/><use xlink:href="#f" transform="matrix(1,0,0,1,612,202) translate(138.8395061728395 67.22222222222221)"/><path d="M300 396a6 6 0 0 1 6-6h188a6 6 0 0 1 6 6v108a6 6 0 0 1-6 6H306a6 6 0 0 1-6-6z" stroke="#3a414a" fill="#dfe3e8"/><use xlink:href="#a" transform="matrix(1,0,0,1,312,402) translate(55.40740740740741 42.33333333333333)"/><use xlink:href="#g" transform="matrix(1,0,0,1,312,402) translate(105.77777777777777 42.33333333333333)"/><use xlink:href="#c" transform="matrix(1,0,0,1,312,402) translate(25.30864197530866 67.22222222222221)"/><use xlink:href="#d" transform="matrix(1,0,0,1,312,402) translate(64.76543209876544 67.22222222222221)"/><use xlink:href="#e" transform="matrix(1,0,0,1,312,402) translate(89.45679012345678 67.22222222222221)"/><use xlink:href="#h" transform="matrix(1,0,0,1,312,402) translate(138.8395061728395 67.22222222222221)"/><path d="M900 396a6 6 0 0 1 6-6h188a6 6 0 0 1 6 6v108a6 6 0 0 1-6 6H906a6 6 0 0 1-6-6z" stroke="#3a414a" fill="#dfe3e8"/><use xlink:href="#a" transform="matrix(1,0,0,1,912,402) translate(55.40740740740741 42.33333333333333)"/><use xlink:href="#i" transform="matrix(1,0,0,1,912,402) translate(105.77777777777777 42.33333333333333)"/><use xlink:href="#c" transform="matrix(1,0,0,1,912,402) translate(24.83950617283952 67.22222222222221)"/><use xlink:href="#d" transform="matrix(1,0,0,1,912,402) translate(64.2962962962963 67.22222222222221)"/><use xlink:href="#e" transform="matrix(1,0,0,1,912,402) translate(88.98765432098764 67.22222222222221)"/><use xlink:href="#j" transform="matrix(1,0,0,1,912,402) translate(138.37037037037035 67.22222222222221)"/><path d="M600 856a6 6 0 0 1 6-6h188a6 6 0 0 1 6 6v108a6 6 0 0 1-6 6H606a6 6 0 0 1-6-6z" stroke="#3a414a" fill="#dfe3e8"/><use xlink:href="#a" transform="matrix(1,0,0,1,612,862) translate(55.40740740740741 42.33333333333333)"/><use xlink:href="#k" transform="matrix(1,0,0,1,612,862) translate(105.77777777777777 42.33333333333333)"/><use xlink:href="#c" transform="matrix(1,0,0,1,612,862) translate(25.30864197530866 67.22222222222221)"/><use xlink:href="#d" transform="matrix(1,0,0,1,612,862) translate(64.76543209876544 67.22222222222221)"/><use xlink:href="#e" transform="matrix(1,0,0,1,612,862) translate(89.45679012345678 67.22222222222221)"/><use xlink:href="#l" transform="matrix(1,0,0,1,612,862) translate(138.8395061728395 67.22222222222221)"/><path d="M600 596a6 6 0 0 1 6-6h188a6 6 0 0 1 6 6v108a6 6 0 0 1-6 6H606a6 6 0 0 1-6-6z" stroke="#3a414a" fill="#dfe3e8"/><use xlink:href="#a" transform="matrix(1,0,0,1,612,602) translate(55.40740740740741 42.33333333333333)"/><use xlink:href="#m" transform="matrix(1,0,0,1,612,602) translate(105.77777777777777 42.33333333333333)"/><use xlink:href="#c" transform="matrix(1,0,0,1,612,602) translate(24.83950617283952 67.22222222222221)"/><use xlink:href="#d" transform="matrix(1,0,0,1,612,602) translate(64.2962962962963 67.22222222222221)"/><use xlink:href="#e" transform="matrix(1,0,0,1,612,602) translate(88.98765432098764 67.22222222222221)"/><use xlink:href="#n" transform="matrix(1,0,0,1,612,602) translate(138.37037037037035 67.22222222222221)"/><path d="M400.5 373.15h-1l.02-28.2h1zM599.04 250.5H406.02l-.88.07-.84.2-.8.33-.73.45-.66.56-.55.67-.45.73-.33.8-.2.82-.04 68.5h-1l.04-68.62.25-1 .4-.95.52-.87.66-.78.78-.66.87-.53.94-.38.98-.24 1-.08h193.06z" stroke="#3a414a" stroke-width=".05" fill="#3a414a"/><path d="M599.54 250.5h-.52v-1h.52z" fill="#3a414a"/><path d="M599.56 250.53H599v-1.06h.56zm-.5-1v.94h.45v-.94z" stroke="#3a414a" stroke-width=".05" fill="#3a414a"/><path d="M400 387.92l-4.64-14.27h9.28z" fill="#3a414a"/><path d="M400 389.54l-5.32-16.4h10.64zm-3.95-15.4L400 386.3l3.95-12.15z" stroke="#3a414a" stroke-width=".05" fill="#3a414a"/><use xlink:href="#o" transform="matrix(1,0,0,1,316.2962962962963,323.6291623037738) translate(0 14.222222222222223)"/><use xlink:href="#p" transform="matrix(1,0,0,1,316.2962962962963,323.6291623037738) translate(94.51851851851853 14.222222222222223)"/><use xlink:href="#q" transform="matrix(1,0,0,1,316.2962962962963,323.6291623037738) translate(121.08641975308643 14.222222222222223)"/><use xlink:href="#r" transform="matrix(1,0,0,1,316.2962962962963,323.6291623037738) translate(157.5308641975309 14.222222222222223)"/><path d="M1000.5 373.15h-1l-.02-28.2h1zm-5.48-123.57l1 .24.93.4.87.52.78.66.66.78.53.87.38.94.25 1 .04 68.63h-1l-.04-68.5-.2-.83-.33-.8-.45-.73-.56-.66-.67-.55-.73-.45-.8-.33-.84-.2-.88-.07H800.96v-1h193.06z" stroke="#3a414a" stroke-width=".05" fill="#3a414a"/><path d="M800.98 250.5h-.52v-1h.52z" fill="#3a414a"/><path d="M801 250.53h-.56v-1.06h.56zm-.5-1v.94h.45v-.94z" stroke="#3a414a" stroke-width=".05" fill="#3a414a"/><path d="M1000 387.92l-4.64-14.27h9.28z" fill="#3a414a"/><path d="M1000 389.54l-5.32-16.4h10.64zm-3.95-15.4l3.95 12.16 3.95-12.15z" stroke="#3a414a" stroke-width=".05" fill="#3a414a"/><use xlink:href="#o" transform="matrix(1,0,0,1,916.2962962962963,323.6291623037738) translate(0 14.222222222222223)"/><use xlink:href="#p" transform="matrix(1,0,0,1,916.2962962962963,323.6291623037738) translate(94.51851851851853 14.222222222222223)"/><use xlink:href="#q" transform="matrix(1,0,0,1,916.2962962962963,323.6291623037738) translate(121.08641975308643 14.222222222222223)"/><use xlink:href="#r" transform="matrix(1,0,0,1,916.2962962962963,323.6291623037738) translate(157.5308641975309 14.222222222222223)"/><path d="M400 510.96V644a6 6 0 0 0 6 6h177.15" stroke="#3a414a" fill="none"/><path d="M400.5 510.98h-1v-.52h1z" stroke="#3a414a" stroke-width=".05" fill="#3a414a"/><path d="M597.92 650l-14.27 4.64v-9.28z" stroke="#3a414a" fill="#3a414a"/><path d="M1000 510.96V644a6 6 0 0 1-6 6H816.85" stroke="#3a414a" fill="none"/><path d="M1000.5 510.98h-1v-.52h1z" stroke="#3a414a" stroke-width=".05" fill="#3a414a"/><path d="M802.08 650l14.27-4.64v9.28z" stroke="#3a414a" fill="#3a414a"/><path d="M700.5 833.15h-1v-42.48h1zm0-63.82h-1v-58.37h1z" stroke="#3a414a" stroke-width=".05" fill="#3a414a"/><path d="M700.5 710.98h-1v-.52h1z" fill="#3a414a"/><path d="M700.52 711h-1.04v-.56h1.04zm-1-.5v.45h.96v-.46z" stroke="#3a414a" stroke-width=".05" fill="#3a414a"/><path d="M700 847.92l-4.64-14.27h9.28z" fill="#3a414a"/><path d="M700 849.54l-5.32-16.4h10.64zm-3.95-15.4L700 846.3l3.95-12.15z" stroke="#3a414a" stroke-width=".05" fill="#3a414a"/><g><use xlink:href="#o" transform="matrix(1,0,0,1,616.2962962962963,769.3333333333334) translate(0 14.222222222222223)"/><use xlink:href="#p" transform="matrix(1,0,0,1,616.2962962962963,769.3333333333334) translate(94.51851851851853 14.222222222222223)"/><use xlink:href="#q" transform="matrix(1,0,0,1,616.2962962962963,769.3333333333334) translate(121.08641975308643 14.222222222222223)"/><use xlink:href="#s" transform="matrix(1,0,0,1,616.2962962962963,769.3333333333334) translate(157.5308641975309 14.222222222222223)"/></g><path d="M639.73 443.67h-94.4v-1h94.4zm217.6 0h-94.4v-1h94.4z" stroke="#3a414a" stroke-width=".05" fill="#3a414a"/><path d="M546.33 458.17h-1v-30h1zM857.33 458.17h-1v-30h1z" stroke="#3a414a" stroke-width=".05" fill="#3a414a"/><g><use xlink:href="#t" transform="matrix(1,0,0,1,639.7283950617283,421.8370370370371) translate(0.005000000000002558 14.222222222222223)"/><use xlink:href="#u" transform="matrix(1,0,0,1,639.7283950617283,421.8370370370371) translate(46.325987654321 14.222222222222223)"/><use xlink:href="#v" transform="matrix(1,0,0,1,639.7283950617283,421.8370370370371) translate(19.65932098765432 35.55555555555556)"/><use xlink:href="#w" transform="matrix(1,0,0,1,639.7283950617283,421.8370370370371) translate(40.35067901234568 35.55555555555556)"/></g><path d="M483.17 914.28h-1v-93.14h1zm-1.34-135.8h-1v-91.8h1z" stroke="#3a414a" stroke-width=".05" fill="#3a414a"/><path d="M496.33 687.67h-30v-1h30zM497.67 914.28h-30v-1h30z" stroke="#3a414a" stroke-width=".05" fill="#3a414a"/><g><use xlink:href="#x" transform="matrix(1,0,0,1,421.0617283950618,778.4740740740741) translate(0.005000000000002558 14.222222222222223)"/><use xlink:href="#y" transform="matrix(1,0,0,1,421.0617283950618,778.4740740740741) translate(46.325987654321 14.222222222222223)"/><use xlink:href="#z" transform="matrix(1,0,0,1,421.0617283950618,778.4740740740741) translate(24.597592592592584 35.55555555555556)"/><use xlink:href="#A" transform="matrix(1,0,0,1,421.0617283950618,778.4740740740741) translate(45.288950617283945 35.55555555555556)"/></g><path d="M580 544.33a6 6 0 0 1 6-6h228a6 6 0 0 1 6 6v51.34a6 6 0 0 1-6 6H586a6 6 0 0 1-6-6z" stroke="#000" stroke-opacity="0" fill="#fff" fill-opacity="0"/><g><use xlink:href="#B" transform="matrix(1,0,0,1,585,543.3333333333334) translate(35.29629629629632 20.97222222222222)"/><use xlink:href="#C" transform="matrix(1,0,0,1,585,543.3333333333334) translate(129.8148148148148 20.97222222222222)"/><use xlink:href="#D" transform="matrix(1,0,0,1,585,543.3333333333334) translate(156.3827160493827 20.97222222222222)"/><use xlink:href="#E" transform="matrix(1,0,0,1,585,543.3333333333334) translate(47.98765432098767 42.30555555555556)"/><use xlink:href="#F" transform="matrix(1,0,0,1,585,543.3333333333334) translate(84.4320987654321 42.30555555555556)"/><use xlink:href="#G" transform="matrix(1,0,0,1,585,543.3333333333334) translate(99.24691358024691 42.30555555555556)"/><use xlink:href="#H" transform="matrix(1,0,0,1,585,543.3333333333334) translate(135.69135802469134 42.30555555555556)"/><use xlink:href="#I" transform="matrix(1,0,0,1,585,543.3333333333334) translate(172.1358024691358 42.30555555555556)"/></g><path d="M420 86a6 6 0 0 1 6-6h653a6 6 0 0 1 6 6v62a6 6 0 0 1-6 6H426a6 6 0 0 1-6-6z" stroke="#000" stroke-opacity="0" fill="#fff" fill-opacity="0"/><g><use xlink:href="#J" transform="matrix(1,0,0,1,425,85) translate(7.500000000000057 37.33333333333333)"/><use xlink:href="#K" transform="matrix(1,0,0,1,425,85) translate(142.90740740740745 37.33333333333333)"/><use xlink:href="#L" transform="matrix(1,0,0,1,425,85) translate(168.53703703703707 37.33333333333333)"/><use xlink:href="#M" transform="matrix(1,0,0,1,425,85) translate(282.3888888888889 37.33333333333333)"/><use xlink:href="#N" transform="matrix(1,0,0,1,425,85) translate(383.05555555555554 37.33333333333333)"/><use xlink:href="#O" transform="matrix(1,0,0,1,425,85) translate(468.8333333333333 37.33333333333333)"/><use xlink:href="#P" transform="matrix(1,0,0,1,425,85) translate(552.9814814814815 37.33333333333333)"/><use xlink:href="#Q" transform="matrix(1,0,0,1,425,85) translate(585.4259259259259 37.33333333333333)"/></g><path d="M1145.83 929.33h-1V594.67h1zm0-366.66h-1V228h1z" stroke="#3a414a" stroke-width=".05" fill="#3a414a"/><path d="M1160.33 229h-30v-1h30zM1160.33 929.33h-30v-1h30z" stroke="#3a414a" stroke-width=".05" fill="#3a414a"/><g><use xlink:href="#R" transform="matrix(1,0,0,1,1116.4814814814813,562.6666666666667) translate(0 21.333333333333332)"/></g><defs><path fill="#3a414a" d="M153-248C145-148 188 4 80 4 36 3 13-21 6-62l32-5c4 25 16 42 43 43 27 0 39-20 39-49v-147H72v-28h81" id="S"/><path fill="#3a414a" d="M100-194c62-1 85 37 85 99 1 63-27 99-86 99S16-35 15-95c0-66 28-99 85-99zM99-20c44 1 53-31 53-75 0-43-8-75-51-75s-53 32-53 75 10 74 51 75" id="T"/><path fill="#3a414a" d="M115-194c53 0 69 39 70 98 0 66-23 100-70 100C84 3 66-7 56-30L54 0H23l1-261h32v101c10-23 28-34 59-34zm-8 174c40 0 45-34 45-75 0-40-5-75-45-74-42 0-51 32-51 76 0 43 10 73 51 73" id="U"/><g id="a"><use transform="matrix(0.07407407407407407,0,0,0.07407407407407407,0,0)" xlink:href="#S"/><use transform="matrix(0.07407407407407407,0,0,0.07407407407407407,13.333333333333332,0)" xlink:href="#T"/><use transform="matrix(0.07407407407407407,0,0,0.07407407407407407,28.148148148148145,0)" xlink:href="#U"/></g><path fill="#3a414a" d="M27 0v-27h64v-190l-56 39v-29l58-41h29v221h61V0H27" id="V"/><use transform="matrix(0.07407407407407407,0,0,0.07407407407407407,0,0)" xlink:href="#V" id="b"/><path fill="#3a414a" d="M114-163C36-179 61-72 57 0H25l-1-190h30c1 12-1 29 2 39 6-27 23-49 58-41v29" id="W"/><path fill="#3a414a" d="M84 4C-5 8 30-112 23-190h32v120c0 31 7 50 39 49 72-2 45-101 50-169h31l1 190h-30c-1-10 1-25-2-33-11 22-28 36-60 37" id="X"/><path fill="#3a414a" d="M117-194c89-4 53 116 60 194h-32v-121c0-31-8-49-39-48C34-167 62-67 57 0H25l-1-190h30c1 10-1 24 2 32 11-22 29-35 61-36" id="Y"/><path fill="#3a414a" d="M135-143c-3-34-86-38-87 0 15 53 115 12 119 90S17 21 10-45l28-5c4 36 97 45 98 0-10-56-113-15-118-90-4-57 82-63 122-42 12 7 21 19 24 35" id="Z"/><g id="c"><use transform="matrix(0.0493827160493827,0,0,0.0493827160493827,0,0)" xlink:href="#W"/><use transform="matrix(0.0493827160493827,0,0,0.0493827160493827,5.876543209876541,0)" xlink:href="#X"/><use transform="matrix(0.0493827160493827,0,0,0.0493827160493827,15.753086419753082,0)" xlink:href="#Y"/><use transform="matrix(0.0493827160493827,0,0,0.0493827160493827,25.629629629629623,0)" xlink:href="#Z"/></g><g id="d"><use transform="matrix(0.0493827160493827,0,0,0.0493827160493827,0,0)" xlink:href="#T"/><use transform="matrix(0.0493827160493827,0,0,0.0493827160493827,9.876543209876539,0)" xlink:href="#Y"/></g><path fill="#3a414a" d="M185-189c-5-48-123-54-124 2 14 75 158 14 163 119 3 78-121 87-175 55-17-10-28-26-33-46l33-7c5 56 141 63 141-1 0-78-155-14-162-118-5-82 145-84 179-34 5 7 8 16 11 25" id="aa"/><path fill="#3a414a" d="M59-47c-2 24 18 29 38 22v24C64 9 27 4 27-40v-127H5v-23h24l9-43h21v43h35v23H59v120" id="ab"/><path fill="#3a414a" d="M141-36C126-15 110 5 73 4 37 3 15-17 15-53c-1-64 63-63 125-63 3-35-9-54-41-54-24 1-41 7-42 31l-33-3c5-37 33-52 76-52 45 0 72 20 72 64v82c-1 20 7 32 28 27v20c-31 9-61-2-59-35zM48-53c0 20 12 33 32 33 41-3 63-29 60-74-43 2-92-5-92 41" id="ac"/><path fill="#3a414a" d="M96-169c-40 0-48 33-48 73s9 75 48 75c24 0 41-14 43-38l32 2c-6 37-31 61-74 61-59 0-76-41-82-99-10-93 101-131 147-64 4 7 5 14 7 22l-32 3c-4-21-16-35-41-35" id="ad"/><path fill="#3a414a" d="M143 0L79-87 56-68V0H24v-261h32v163l83-92h37l-77 82L181 0h-38" id="ae"/><g id="e"><use transform="matrix(0.0493827160493827,0,0,0.0493827160493827,0,0)" xlink:href="#aa"/><use transform="matrix(0.0493827160493827,0,0,0.0493827160493827,11.851851851851848,0)" xlink:href="#ab"/><use transform="matrix(0.0493827160493827,0,0,0.0493827160493827,16.790123456790116,0)" xlink:href="#ac"/><use transform="matrix(0.0493827160493827,0,0,0.0493827160493827,26.666666666666657,0)" xlink:href="#ad"/><use transform="matrix(0.0493827160493827,0,0,0.0493827160493827,35.55555555555554,0)" xlink:href="#ae"/></g><path fill="#3a414a" d="M205 0l-28-72H64L36 0H1l101-248h38L239 0h-34zm-38-99l-47-123c-12 45-31 82-46 123h93" id="af"/><use transform="matrix(0.0493827160493827,0,0,0.0493827160493827,0,0)" xlink:href="#af" id="f"/><path fill="#3a414a" d="M101-251c82-7 93 87 43 132L82-64C71-53 59-42 53-27h129V0H18c2-99 128-94 128-182 0-28-16-43-45-43s-46 15-49 41l-32-3c6-41 34-60 81-64" id="ag"/><use transform="matrix(0.07407407407407407,0,0,0.07407407407407407,0,0)" xlink:href="#ag" id="g"/><path fill="#3a414a" d="M160-131c35 5 61 23 61 61C221 17 115-2 30 0v-248c76 3 177-17 177 60 0 33-19 50-47 57zm-97-11c50-1 110 9 110-42 0-47-63-36-110-37v79zm0 115c55-2 124 14 124-45 0-56-70-42-124-44v89" id="ah"/><use transform="matrix(0.0493827160493827,0,0,0.0493827160493827,0,0)" xlink:href="#ah" id="h"/><path fill="#3a414a" d="M126-127c33 6 58 20 58 59 0 88-139 92-164 29-3-8-5-16-6-25l32-3c6 27 21 44 54 44 32 0 52-15 52-46 0-38-36-46-79-43v-28c39 1 72-4 72-42 0-27-17-43-46-43-28 0-47 15-49 41l-32-3c6-42 35-63 81-64 48-1 79 21 79 65 0 36-21 52-52 59" id="ai"/><use transform="matrix(0.07407407407407407,0,0,0.07407407407407407,0,0)" xlink:href="#ai" id="i"/><path fill="#3a414a" d="M212-179c-10-28-35-45-73-45-59 0-87 40-87 99 0 60 29 101 89 101 43 0 62-24 78-52l27 14C228-24 195 4 139 4 59 4 22-46 18-125c-6-104 99-153 187-111 19 9 31 26 39 46" id="aj"/><use transform="matrix(0.0493827160493827,0,0,0.0493827160493827,0,0)" xlink:href="#aj" id="j"/><path fill="#3a414a" d="M54-142c48-35 137-8 131 61C196 18 31 33 14-55l32-4c7 23 22 37 52 37 35-1 51-22 54-58 4-55-73-65-99-34H22l8-134h141v27H59" id="ak"/><use transform="matrix(0.07407407407407407,0,0,0.07407407407407407,0,0)" xlink:href="#ak" id="k"/><path fill="#3a414a" d="M30 0v-248h187v28H63v79h144v27H63v87h162V0H30" id="al"/><use transform="matrix(0.0493827160493827,0,0,0.0493827160493827,0,0)" xlink:href="#al" id="l"/><path fill="#3a414a" d="M155-56V0h-30v-56H8v-25l114-167h33v167h35v25h-35zm-30-156c-27 46-58 90-88 131h88v-131" id="am"/><use transform="matrix(0.07407407407407407,0,0,0.07407407407407407,0,0)" xlink:href="#am" id="m"/><path fill="#3a414a" d="M30-248c118-7 216 8 213 122C240-48 200 0 122 0H30v-248zM63-27c89 8 146-16 146-99s-60-101-146-95v194" id="an"/><use transform="matrix(0.0493827160493827,0,0,0.0493827160493827,0,0)" xlink:href="#an" id="n"/><path fill="#333" d="M88-194c31-1 46 15 58 34l-1-101h50l1 261h-48c-2-10 0-23-3-31C134-8 116 4 84 4 32 4 16-41 15-95c0-56 19-97 73-99zm17 164c33 0 40-30 41-66 1-37-9-64-41-64s-38 30-39 65c0 43 13 65 39 65" id="ao"/><path fill="#333" d="M185-48c-13 30-37 53-82 52C43 2 14-33 14-96s30-98 90-98c62 0 83 45 84 108H66c0 31 8 55 39 56 18 0 30-7 34-22zm-45-69c5-46-57-63-70-21-2 6-4 13-4 21h74" id="ap"/><path fill="#333" d="M135-194c53 0 70 44 70 98 0 56-19 98-73 100-31 1-45-17-59-34 3 33 2 69 2 105H25l-1-265h48c2 10 0 23 3 31 11-24 29-35 60-35zM114-30c33 0 39-31 40-66 0-38-9-64-40-64-56 0-55 130 0 130" id="aq"/><path fill="#333" d="M135-194c87-1 58 113 63 194h-50c-7-57 23-157-34-157-59 0-34 97-39 157H25l-1-190h47c2 12-1 28 3 38 12-26 28-41 61-42" id="ar"/><path fill="#333" d="M115-3C79 11 28 4 28-45v-112H4v-33h27l15-45h31v45h36v33H77v99c-1 23 16 31 38 25v30" id="as"/><g id="o"><use transform="matrix(0.04938271604938272,0,0,0.04938271604938272,0,0)" xlink:href="#ao"/><use transform="matrix(0.04938271604938272,0,0,0.04938271604938272,10.814814814814815,0)" xlink:href="#ap"/><use transform="matrix(0.04938271604938272,0,0,0.04938271604938272,20.69135802469136,0)" xlink:href="#aq"/><use transform="matrix(0.04938271604938272,0,0,0.04938271604938272,31.506172839506174,0)" xlink:href="#ap"/><use transform="matrix(0.04938271604938272,0,0,0.04938271604938272,41.38271604938272,0)" xlink:href="#ar"/><use transform="matrix(0.04938271604938272,0,0,0.04938271604938272,52.19753086419754,0)" xlink:href="#ao"/><use transform="matrix(0.04938271604938272,0,0,0.04938271604938272,63.01234567901235,0)" xlink:href="#ap"/><use transform="matrix(0.04938271604938272,0,0,0.04938271604938272,72.8888888888889,0)" xlink:href="#ar"/><use transform="matrix(0.04938271604938272,0,0,0.04938271604938272,83.70370370370371,0)" xlink:href="#as"/></g><path fill="#333" d="M110-194c64 0 96 36 96 99 0 64-35 99-97 99-61 0-95-36-95-99 0-62 34-99 96-99zm-1 164c35 0 45-28 45-65 0-40-10-65-43-65-34 0-45 26-45 65 0 36 10 65 43 65" id="at"/><g id="p"><use transform="matrix(0.04938271604938272,0,0,0.04938271604938272,0,0)" xlink:href="#at"/><use transform="matrix(0.04938271604938272,0,0,0.04938271604938272,10.814814814814815,0)" xlink:href="#ar"/></g><path fill="#333" d="M176-78C186 10 51 31 16-35c-5-9-9-19-11-32l52-8c4 21 12 37 35 38 23 0 32-16 32-40v-130H75v-41h101v170" id="au"/><path fill="#333" d="M135-194c52 0 70 43 70 98 0 56-19 99-73 100-30 1-46-15-58-35L72 0H24l1-261h50v104c11-23 29-37 60-37zM114-30c31 0 40-27 40-66 0-37-7-63-39-63s-41 28-41 65c0 36 8 64 40 64" id="av"/><g id="q"><use transform="matrix(0.04938271604938272,0,0,0.04938271604938272,0,0)" xlink:href="#au"/><use transform="matrix(0.04938271604938272,0,0,0.04938271604938272,9.876543209876544,0)" xlink:href="#at"/><use transform="matrix(0.04938271604938272,0,0,0.04938271604938272,20.69135802469136,0)" xlink:href="#av"/></g><path fill="#333" d="M23 0v-37h61v-169l-59 37v-38l62-41h46v211h57V0H23" id="aw"/><use transform="matrix(0.04938271604938272,0,0,0.04938271604938272,0,0)" xlink:href="#aw" id="r"/><path fill="#333" d="M165-50V0h-47v-50H5v-38l105-160h55v161h33v37h-33zm-47-37l2-116L46-87h72" id="ax"/><use transform="matrix(0.04938271604938272,0,0,0.04938271604938272,0,0)" xlink:href="#ax" id="s"/><path fill="#333" d="M137-138c1-29-70-34-71-4 15 46 118 7 119 86 1 83-164 76-172 9l43-7c4 19 20 25 44 25 33 8 57-30 24-41C81-84 22-81 20-136c-2-80 154-74 161-7" id="ay"/><g id="t"><use transform="matrix(0.04938271604938272,0,0,0.04938271604938272,0,0)" xlink:href="#au"/><use transform="matrix(0.04938271604938272,0,0,0.04938271604938272,9.876543209876544,0)" xlink:href="#at"/><use transform="matrix(0.04938271604938272,0,0,0.04938271604938272,20.69135802469136,0)" xlink:href="#av"/><use transform="matrix(0.04938271604938272,0,0,0.04938271604938272,31.506172839506174,0)" xlink:href="#ay"/></g><path fill="#333" d="M144 0l-44-69L55 0H2l70-98-66-92h53l41 62 40-62h54l-67 91 71 99h-54" id="az"/><path fill="#333" d="M190-63c-7 42-38 67-86 67-59 0-84-38-90-98-12-110 154-137 174-36l-49 2c-2-19-15-32-35-32-30 0-35 28-38 64-6 74 65 87 74 30" id="aA"/><path fill="#333" d="M85 4C-2 5 27-109 22-190h50c7 57-23 150 33 157 60-5 35-97 40-157h50l1 190h-47c-2-12 1-28-3-38-12 25-28 42-61 42" id="aB"/><g id="u"><use transform="matrix(0.04938271604938272,0,0,0.04938271604938272,0,0)" xlink:href="#ap"/><use transform="matrix(0.04938271604938272,0,0,0.04938271604938272,9.876543209876544,0)" xlink:href="#az"/><use transform="matrix(0.04938271604938272,0,0,0.04938271604938272,19.75308641975309,0)" xlink:href="#ap"/><use transform="matrix(0.04938271604938272,0,0,0.04938271604938272,29.629629629629633,0)" xlink:href="#aA"/><use transform="matrix(0.04938271604938272,0,0,0.04938271604938272,39.50617283950618,0)" xlink:href="#aB"/><use transform="matrix(0.04938271604938272,0,0,0.04938271604938272,50.320987654320994,0)" xlink:href="#as"/><use transform="matrix(0.04938271604938272,0,0,0.04938271604938272,56.19753086419754,0)" xlink:href="#ap"/><use transform="matrix(0.04938271604938272,0,0,0.04938271604938272,66.07407407407408,0)" xlink:href="#ao"/></g><path fill="#333" d="M25-224v-37h50v37H25zM25 0v-190h50V0H25" id="aC"/><g id="v"><use transform="matrix(0.04938271604938272,0,0,0.04938271604938272,0,0)" xlink:href="#aC"/><use transform="matrix(0.04938271604938272,0,0,0.04938271604938272,4.938271604938272,0)" xlink:href="#ar"/></g><path fill="#333" d="M24-248c93 1 206-16 204 79-1 75-69 88-152 82V0H24v-248zm52 121c47 0 100 7 100-41 0-47-54-39-100-39v80" id="aD"/><path fill="#333" d="M133-34C117-15 103 5 69 4 32 3 11-16 11-54c-1-60 55-63 116-61 1-26-3-47-28-47-18 1-26 9-28 27l-52-2c7-38 36-58 82-57s74 22 75 68l1 82c-1 14 12 18 25 15v27c-30 8-71 5-69-32zm-48 3c29 0 43-24 42-57-32 0-66-3-65 30 0 17 8 27 23 27" id="aE"/><path fill="#333" d="M135-150c-39-12-60 13-60 57V0H25l-1-190h47c2 13-1 29 3 40 6-28 27-53 61-41v41" id="aF"/><path fill="#333" d="M25 0v-261h50V0H25" id="aG"/><g id="w"><use transform="matrix(0.04938271604938272,0,0,0.04938271604938272,0,0)" xlink:href="#aD"/><use transform="matrix(0.04938271604938272,0,0,0.04938271604938272,11.851851851851853,0)" xlink:href="#aE"/><use transform="matrix(0.04938271604938272,0,0,0.04938271604938272,21.7283950617284,0)" xlink:href="#aF"/><use transform="matrix(0.04938271604938272,0,0,0.04938271604938272,28.64197530864198,0)" xlink:href="#aE"/><use transform="matrix(0.04938271604938272,0,0,0.04938271604938272,38.518518518518526,0)" xlink:href="#aG"/><use transform="matrix(0.04938271604938272,0,0,0.04938271604938272,43.4567901234568,0)" xlink:href="#aG"/><use transform="matrix(0.04938271604938272,0,0,0.04938271604938272,48.39506172839507,0)" xlink:href="#ap"/><use transform="matrix(0.04938271604938272,0,0,0.04938271604938272,58.27160493827161,0)" xlink:href="#aG"/></g><g id="x"><use transform="matrix(0.04938271604938272,0,0,0.04938271604938272,0,0)" xlink:href="#au"/><use transform="matrix(0.04938271604938272,0,0,0.04938271604938272,9.876543209876544,0)" xlink:href="#at"/><use transform="matrix(0.04938271604938272,0,0,0.04938271604938272,20.69135802469136,0)" xlink:href="#av"/><use transform="matrix(0.04938271604938272,0,0,0.04938271604938272,31.506172839506174,0)" xlink:href="#ay"/></g><g id="y"><use transform="matrix(0.04938271604938272,0,0,0.04938271604938272,0,0)" xlink:href="#ap"/><use transform="matrix(0.04938271604938272,0,0,0.04938271604938272,9.876543209876544,0)" xlink:href="#az"/><use transform="matrix(0.04938271604938272,0,0,0.04938271604938272,19.75308641975309,0)" xlink:href="#ap"/><use transform="matrix(0.04938271604938272,0,0,0.04938271604938272,29.629629629629633,0)" xlink:href="#aA"/><use transform="matrix(0.04938271604938272,0,0,0.04938271604938272,39.50617283950618,0)" xlink:href="#aB"/><use transform="matrix(0.04938271604938272,0,0,0.04938271604938272,50.320987654320994,0)" xlink:href="#as"/><use transform="matrix(0.04938271604938272,0,0,0.04938271604938272,56.19753086419754,0)" xlink:href="#ap"/><use transform="matrix(0.04938271604938272,0,0,0.04938271604938272,66.07407407407408,0)" xlink:href="#ao"/></g><g id="z"><use transform="matrix(0.04938271604938272,0,0,0.04938271604938272,0,0)" xlink:href="#aC"/><use transform="matrix(0.04938271604938272,0,0,0.04938271604938272,4.938271604938272,0)" xlink:href="#ar"/></g><path fill="#333" d="M169-182c-1-43-94-46-97-3 18 66 151 10 154 114 3 95-165 93-204 36-6-8-10-19-12-30l50-8c3 46 112 56 116 5-17-69-150-10-154-114-4-87 153-88 188-35 5 8 8 18 10 28" id="aH"/><g id="A"><use transform="matrix(0.04938271604938272,0,0,0.04938271604938272,0,0)" xlink:href="#aH"/><use transform="matrix(0.04938271604938272,0,0,0.04938271604938272,11.851851851851853,0)" xlink:href="#ap"/><use transform="matrix(0.04938271604938272,0,0,0.04938271604938272,21.7283950617284,0)" xlink:href="#aF"/><use transform="matrix(0.04938271604938272,0,0,0.04938271604938272,28.64197530864198,0)" xlink:href="#aC"/><use transform="matrix(0.04938271604938272,0,0,0.04938271604938272,33.580246913580254,0)" xlink:href="#ap"/><use transform="matrix(0.04938271604938272,0,0,0.04938271604938272,43.4567901234568,0)" xlink:href="#ay"/></g><path fill="#3a414a" d="M88-194c31-1 46 15 58 34l-1-101h50l1 261h-48c-2-10 0-23-3-31C134-8 116 4 84 4 32 4 16-41 15-95c0-56 19-97 73-99zm17 164c33 0 40-30 41-66 1-37-9-64-41-64s-38 30-39 65c0 43 13 65 39 65" id="aI"/><path fill="#3a414a" d="M185-48c-13 30-37 53-82 52C43 2 14-33 14-96s30-98 90-98c62 0 83 45 84 108H66c0 31 8 55 39 56 18 0 30-7 34-22zm-45-69c5-46-57-63-70-21-2 6-4 13-4 21h74" id="aJ"/><path fill="#3a414a" d="M135-194c53 0 70 44 70 98 0 56-19 98-73 100-31 1-45-17-59-34 3 33 2 69 2 105H25l-1-265h48c2 10 0 23 3 31 11-24 29-35 60-35zM114-30c33 0 39-31 40-66 0-38-9-64-40-64-56 0-55 130 0 130" id="aK"/><path fill="#3a414a" d="M135-194c87-1 58 113 63 194h-50c-7-57 23-157-34-157-59 0-34 97-39 157H25l-1-190h47c2 12-1 28 3 38 12-26 28-41 61-42" id="aL"/><path fill="#3a414a" d="M115-3C79 11 28 4 28-45v-112H4v-33h27l15-45h31v45h36v33H77v99c-1 23 16 31 38 25v30" id="aM"/><g id="B"><use transform="matrix(0.049382716049382706,0,0,0.049382716049382706,0,0)" xlink:href="#aI"/><use transform="matrix(0.049382716049382706,0,0,0.049382716049382706,10.814814814814813,0)" xlink:href="#aJ"/><use transform="matrix(0.049382716049382706,0,0,0.049382716049382706,20.691358024691354,0)" xlink:href="#aK"/><use transform="matrix(0.049382716049382706,0,0,0.049382716049382706,31.506172839506167,0)" xlink:href="#aJ"/><use transform="matrix(0.049382716049382706,0,0,0.049382716049382706,41.38271604938271,0)" xlink:href="#aL"/><use transform="matrix(0.049382716049382706,0,0,0.049382716049382706,52.19753086419752,0)" xlink:href="#aI"/><use transform="matrix(0.049382716049382706,0,0,0.049382716049382706,63.01234567901232,0)" xlink:href="#aJ"/><use transform="matrix(0.049382716049382706,0,0,0.049382716049382706,72.88888888888887,0)" xlink:href="#aL"/><use transform="matrix(0.049382716049382706,0,0,0.049382716049382706,83.70370370370368,0)" xlink:href="#aM"/></g><path fill="#3a414a" d="M110-194c64 0 96 36 96 99 0 64-35 99-97 99-61 0-95-36-95-99 0-62 34-99 96-99zm-1 164c35 0 45-28 45-65 0-40-10-65-43-65-34 0-45 26-45 65 0 36 10 65 43 65" id="aN"/><g id="C"><use transform="matrix(0.049382716049382706,0,0,0.049382716049382706,0,0)" xlink:href="#aN"/><use transform="matrix(0.049382716049382706,0,0,0.049382716049382706,10.814814814814813,0)" xlink:href="#aL"/></g><path fill="#3a414a" d="M135-194c52 0 70 43 70 98 0 56-19 99-73 100-30 1-46-15-58-35L72 0H24l1-261h50v104c11-23 29-37 60-37zM114-30c31 0 40-27 40-66 0-37-7-63-39-63s-41 28-41 65c0 36 8 64 40 64" id="aO"/><path fill="#3a414a" d="M114-157C55-157 80-60 75 0H25v-261h50l-1 109c12-26 28-41 61-42 86-1 58 113 63 194h-50c-7-57 23-157-34-157" id="aP"/><g id="D"><use transform="matrix(0.049382716049382706,0,0,0.049382716049382706,0,0)" xlink:href="#aO"/><use transform="matrix(0.049382716049382706,0,0,0.049382716049382706,10.814814814814813,0)" xlink:href="#aN"/><use transform="matrix(0.049382716049382706,0,0,0.049382716049382706,21.629629629629626,0)" xlink:href="#aM"/><use transform="matrix(0.049382716049382706,0,0,0.049382716049382706,27.506172839506167,0)" xlink:href="#aP"/></g><path fill="#3a414a" d="M176-78C186 10 51 31 16-35c-5-9-9-19-11-32l52-8c4 21 12 37 35 38 23 0 32-16 32-40v-130H75v-41h101v170" id="aQ"/><g id="E"><use transform="matrix(0.049382716049382706,0,0,0.049382716049382706,0,0)" xlink:href="#aQ"/><use transform="matrix(0.049382716049382706,0,0,0.049382716049382706,9.87654320987654,0)" xlink:href="#aN"/><use transform="matrix(0.049382716049382706,0,0,0.049382716049382706,20.691358024691354,0)" xlink:href="#aO"/></g><path fill="#3a414a" d="M182-182c0 78-84 86-111 141h115V0H12c-6-101 99-100 120-180 1-22-12-31-33-32-23 0-32 14-35 34l-49-3c5-45 32-70 84-70 51 0 83 22 83 69" id="aR"/><use transform="matrix(0.049382716049382706,0,0,0.049382716049382706,0,0)" xlink:href="#aR" id="F"/><path fill="#3a414a" d="M133-34C117-15 103 5 69 4 32 3 11-16 11-54c-1-60 55-63 116-61 1-26-3-47-28-47-18 1-26 9-28 27l-52-2c7-38 36-58 82-57s74 22 75 68l1 82c-1 14 12 18 25 15v27c-30 8-71 5-69-32zm-48 3c29 0 43-24 42-57-32 0-66-3-65 30 0 17 8 27 23 27" id="aS"/><g id="G"><use transform="matrix(0.049382716049382706,0,0,0.049382716049382706,0,0)" xlink:href="#aS"/><use transform="matrix(0.049382716049382706,0,0,0.049382716049382706,9.87654320987654,0)" xlink:href="#aL"/><use transform="matrix(0.049382716049382706,0,0,0.049382716049382706,20.691358024691354,0)" xlink:href="#aI"/></g><g id="H"><use transform="matrix(0.049382716049382706,0,0,0.049382716049382706,0,0)" xlink:href="#aQ"/><use transform="matrix(0.049382716049382706,0,0,0.049382716049382706,9.87654320987654,0)" xlink:href="#aN"/><use transform="matrix(0.049382716049382706,0,0,0.049382716049382706,20.691358024691354,0)" xlink:href="#aO"/></g><path fill="#3a414a" d="M128-127c34 4 56 21 59 58 7 91-148 94-172 28-4-9-6-17-7-26l51-5c1 24 16 35 40 36 23 0 39-12 38-36-1-31-31-36-65-34v-40c32 2 59-3 59-33 0-20-13-33-34-33s-33 13-35 32l-50-3c6-44 37-68 86-68 50 0 83 20 83 66 0 35-22 52-53 58" id="aT"/><use transform="matrix(0.049382716049382706,0,0,0.049382716049382706,0,0)" xlink:href="#aT" id="I"/><path fill="#3a414a" d="M275 0h-61l-44-196L126 0H64L0-248h53L97-49l45-199h58l43 199 44-199h52" id="aU"/><path fill="#3a414a" d="M135-150c-39-12-60 13-60 57V0H25l-1-190h47c2 13-1 29 3 40 6-28 27-53 61-41v41" id="aV"/><path fill="#3a414a" d="M147 0L96-86 75-71V0H25v-261h50v150l67-79h53l-66 74L201 0h-54" id="aW"/><path fill="#3a414a" d="M121-226c-27-7-43 5-38 36h38v33H83V0H34v-157H6v-33h28c-9-59 32-81 87-68v32" id="aX"/><path fill="#3a414a" d="M25 0v-261h50V0H25" id="aY"/><path fill="#3a414a" d="M231 0h-52l-39-155L100 0H48L-1-190h46L77-45c9-52 24-97 36-145h53l37 145 32-145h46" id="aZ"/><path fill="#3a414a" d="M35-132v-50h50v50H35zM35 0v-49h50V0H35" id="ba"/><g id="J"><use transform="matrix(0.07407407407407407,0,0,0.07407407407407407,0,0)" xlink:href="#aU"/><use transform="matrix(0.07407407407407407,0,0,0.07407407407407407,24.59259259259259,0)" xlink:href="#aN"/><use transform="matrix(0.07407407407407407,0,0,0.07407407407407407,40.81481481481481,0)" xlink:href="#aV"/><use transform="matrix(0.07407407407407407,0,0,0.07407407407407407,51.185185185185176,0)" xlink:href="#aW"/><use transform="matrix(0.07407407407407407,0,0,0.07407407407407407,65.99999999999999,0)" xlink:href="#aX"/><use transform="matrix(0.07407407407407407,0,0,0.07407407407407407,74.8148148148148,0)" xlink:href="#aY"/><use transform="matrix(0.07407407407407407,0,0,0.07407407407407407,82.2222222222222,0)" xlink:href="#aN"/><use transform="matrix(0.07407407407407407,0,0,0.07407407407407407,98.44444444444443,0)" xlink:href="#aZ"/><use transform="matrix(0.07407407407407407,0,0,0.07407407407407407,119.18518518518516,0)" xlink:href="#ba"/></g><path fill="#3a414a" d="M199 0l-22-63H83L61 0H9l90-248h61L250 0h-51zm-33-102l-36-108c-10 38-24 72-36 108h72" id="bb"/><use transform="matrix(0.07407407407407407,0,0,0.07407407407407407,0,0)" xlink:href="#bb" id="K"/><path fill="#3a414a" d="M24-248c120-7 223 5 221 122C244-46 201 0 124 0H24v-248zM76-40c74 7 117-18 117-86 0-67-45-88-117-82v168" id="bc"/><path fill="#3a414a" d="M25-224v-37h50v37H25zM25 0v-190h50V0H25" id="bd"/><path fill="#3a414a" d="M190-63c-7 42-38 67-86 67-59 0-84-38-90-98-12-110 154-137 174-36l-49 2c-2-19-15-32-35-32-30 0-35 28-38 64-6 74 65 87 74 30" id="be"/><g id="L"><use transform="matrix(0.07407407407407407,0,0,0.07407407407407407,0,0)" xlink:href="#bc"/><use transform="matrix(0.07407407407407407,0,0,0.07407407407407407,19.185185185185183,0)" xlink:href="#bd"/><use transform="matrix(0.07407407407407407,0,0,0.07407407407407407,26.592592592592588,0)" xlink:href="#aV"/><use transform="matrix(0.07407407407407407,0,0,0.07407407407407407,36.96296296296296,0)" xlink:href="#aJ"/><use transform="matrix(0.07407407407407407,0,0,0.07407407407407407,51.77777777777777,0)" xlink:href="#be"/><use transform="matrix(0.07407407407407407,0,0,0.07407407407407407,66.59259259259258,0)" xlink:href="#aM"/><use transform="matrix(0.07407407407407407,0,0,0.07407407407407407,75.40740740740739,0)" xlink:href="#aJ"/><use transform="matrix(0.07407407407407407,0,0,0.07407407407407407,90.2222222222222,0)" xlink:href="#aI"/></g><path fill="#3a414a" d="M123 10C108 53 80 86 19 72V37c35 8 53-11 59-39L3-190h52l48 148c12-52 28-100 44-148h51" id="bf"/><g id="M"><use transform="matrix(0.07407407407407407,0,0,0.07407407407407407,0,0)" xlink:href="#bb"/><use transform="matrix(0.07407407407407407,0,0,0.07407407407407407,19.185185185185183,0)" xlink:href="#be"/><use transform="matrix(0.07407407407407407,0,0,0.07407407407407407,34,0)" xlink:href="#bf"/><use transform="matrix(0.07407407407407407,0,0,0.07407407407407407,48.81481481481481,0)" xlink:href="#be"/><use transform="matrix(0.07407407407407407,0,0,0.07407407407407407,63.62962962962962,0)" xlink:href="#aY"/><use transform="matrix(0.07407407407407407,0,0,0.07407407407407407,71.03703703703702,0)" xlink:href="#bd"/><use transform="matrix(0.07407407407407407,0,0,0.07407407407407407,78.44444444444443,0)" xlink:href="#be"/></g><path fill="#3a414a" d="M67-125c0 54 23 88 75 88 28 0 53-7 68-21v-34h-60v-39h108v91C232-14 192 4 140 4 58 4 20-42 15-125 8-236 126-280 215-234c19 10 29 26 37 47l-47 15c-11-23-29-39-63-39-53 1-75 33-75 86" id="bg"/><g id="N"><use transform="matrix(0.07407407407407407,0,0,0.07407407407407407,0,0)" xlink:href="#bg"/><use transform="matrix(0.07407407407407407,0,0,0.07407407407407407,20.74074074074074,0)" xlink:href="#aV"/><use transform="matrix(0.07407407407407407,0,0,0.07407407407407407,31.11111111111111,0)" xlink:href="#aS"/><use transform="matrix(0.07407407407407407,0,0,0.07407407407407407,45.925925925925924,0)" xlink:href="#aK"/><use transform="matrix(0.07407407407407407,0,0,0.07407407407407407,62.148148148148145,0)" xlink:href="#aP"/></g><path fill="#3a414a" d="M67-93c0 74 22 123 53 168H70C40 30 18-18 18-93s22-123 52-168h50c-32 44-53 94-53 168" id="bh"/><path fill="#3a414a" d="M102-93c0 74-22 123-52 168H0C30 29 54-18 53-93c0-74-22-123-53-168h50c30 45 52 94 52 168" id="bi"/><g id="O"><use transform="matrix(0.07407407407407407,0,0,0.07407407407407407,0,0)" xlink:href="#bh"/><use transform="matrix(0.07407407407407407,0,0,0.07407407407407407,8.814814814814815,0)" xlink:href="#bc"/><use transform="matrix(0.07407407407407407,0,0,0.07407407407407407,28,0)" xlink:href="#bb"/><use transform="matrix(0.07407407407407407,0,0,0.07407407407407407,47.18518518518518,0)" xlink:href="#bg"/><use transform="matrix(0.07407407407407407,0,0,0.07407407407407407,67.92592592592592,0)" xlink:href="#bi"/></g><g id="P"><use transform="matrix(0.07407407407407407,0,0,0.07407407407407407,0,0)" xlink:href="#aN"/><use transform="matrix(0.07407407407407407,0,0,0.07407407407407407,16.22222222222222,0)" xlink:href="#aX"/></g><path fill="#3a414a" d="M137-138c1-29-70-34-71-4 15 46 118 7 119 86 1 83-164 76-172 9l43-7c4 19 20 25 44 25 33 8 57-30 24-41C81-84 22-81 20-136c-2-80 154-74 161-7" id="bj"/><g id="Q"><use transform="matrix(0.07407407407407407,0,0,0.07407407407407407,0,0)" xlink:href="#aQ"/><use transform="matrix(0.07407407407407407,0,0,0.07407407407407407,14.814814814814813,0)" xlink:href="#aN"/><use transform="matrix(0.07407407407407407,0,0,0.07407407407407407,31.037037037037035,0)" xlink:href="#aO"/><use transform="matrix(0.07407407407407407,0,0,0.07407407407407407,47.259259259259245,0)" xlink:href="#bj"/></g><path fill="#333" d="M30-248c118-7 216 8 213 122C240-48 200 0 122 0H30v-248zM63-27c89 8 146-16 146-99s-60-101-146-95v194" id="bk"/><path fill="#333" d="M205 0l-28-72H64L36 0H1l101-248h38L239 0h-34zm-38-99l-47-123c-12 45-31 82-46 123h93" id="bl"/><path fill="#333" d="M143 4C61 4 22-44 18-125c-5-107 100-154 193-111 17 8 29 25 37 43l-32 9c-13-25-37-40-76-40-61 0-88 39-88 99 0 61 29 100 91 101 35 0 62-11 79-27v-45h-74v-28h105v86C228-13 192 4 143 4" id="bm"/><g id="R"><use transform="matrix(0.07407407407407407,0,0,0.07407407407407407,0,0)" xlink:href="#bk"/><use transform="matrix(0.07407407407407407,0,0,0.07407407407407407,19.185185185185183,0)" xlink:href="#bl"/><use transform="matrix(0.07407407407407407,0,0,0.07407407407407407,36.96296296296296,0)" xlink:href="#bm"/></g></defs></g></svg>