<svg xmlns="http://www.w3.org/2000/svg" xmlns:xlink="http://www.w3.org/1999/xlink" xmlns:lucid="lucid" width="1180" height="1035.83"><g transform="translate(160 120)" lucid:page-tab-id="0_0"><path d="M-1806.87-1258.83h3677.74v2581.66h-3677.74z" fill="#fff"/><path d="M300-94a6 6 0 0 1 6-6h368a6 6 0 0 1 6 6v288a6 6 0 0 1-6 6H306a6 6 0 0 1-6-6z" fill-opacity="0"/><path d="M314.9-99.93h9.84m4.92 0h9.84m4.9 0h9.85m4.92 0H369m4.93 0h9.84m4.92 0h9.83m4.92-.02h9.83m4.92 0h9.84m4.92 0h9.84m4.92 0h9.84m4.92 0h9.83m4.93 0h9.84m4.92 0l9.83-.02m4.92 0h9.84m4.9 0h9.84m4.92 0h9.84m4.92 0h9.84m4.92 0h9.84m4.92 0h9.83m4.92 0l9.83-.02m4.92 0h9.84m4.9 0h9.85m4.92 0h9.83m4.92 0h9.84m4.92 0H674l.94.07.9.22.88.35.8.5.72.6.6.72.5.8.37.88.23.9v5.08m0 5.07v10.14m0 5.07v10.15m0 5.06v10.15m0 5.07v10.14m0 5.07l.02 10.14m0 5.07V1.37m0 5.07v10.14m0 5.07V31.8m0 5.06V47m0 5.07l.02 10.13m0 5.07V77.4m0 5.08v10.14m0 5.07v10.13m0 5.06v10.13m0 5.07l.02 10.14m0 5.07v10.15m0 5.07v10.13m0 5.07v10.14m0 5.07V194l-.07.94-.22.9-.35.88-.5.8-.6.72-.72.6-.8.5-.88.37-.9.23H670m-4.92 0h-9.84m-4.92 0h-9.84m-4.9 0h-9.85m-4.92 0H611m-4.93 0h-9.84m-4.92 0h-9.83m-4.92.02h-9.83m-4.92 0h-9.84m-4.92 0h-9.84m-4.92 0h-9.84m-4.92 0h-9.83m-4.93 0h-9.84m-4.92 0l-9.83.02m-4.92 0h-9.84m-4.9 0h-9.84m-4.92 0h-9.84m-4.92 0h-9.84m-4.92 0h-9.84m-4.92 0h-9.83m-4.92 0l-9.83.02m-4.92 0h-9.84m-4.9 0h-9.85m-4.92 0h-9.83m-4.92 0h-9.84m-4.92 0H306l-.94-.07-.9-.22-.88-.35-.8-.5-.72-.6-.6-.72-.5-.8-.37-.88-.23-.9v-5.08m0-5.07v-10.14m0-5.07v-10.15m0-5.06v-10.15m0-5.07v-10.14m0-5.07l-.02-10.14m0-5.07V98.63m0-5.07V83.42m0-5.07V68.2m0-5.06V53m0-5.07l-.02-10.13m0-5.07V22.6m0-5.08V7.38m0-5.07V-7.82m0-5.06v-10.13m0-5.07L300-38.24m0-5.07v-10.15m0-5.07v-10.13m0-5.07v-10.14m0-5.07V-94l.07-.94.22-.9.35-.88.5-.8.6-.72.72-.6.8-.5.88-.37.9-.23H310" stroke="#3a414a" fill="none"/><path d="M760 326a6 6 0 0 1 6-6h188a6 6 0 0 1 6 6v184.67a6 6 0 0 1-6 6H766a6 6 0 0 1-6-6z" fill-opacity="0"/><path d="M774.75 320.07h9.7m4.83 0h9.7m4.84 0l9.7-.02m4.83 0h9.7m4.84 0h9.67m4.85 0h9.7m4.83 0l9.7-.02m4.84 0h9.68m4.84 0h9.7m4.83 0h9.7m4.84-.02h9.68m4.84 0h9.7m4.84 0H954l.94.07.9.22.88.35.8.5.72.6.6.72.5.8.37.88.23.9v5.17m0 5.15v10.3m0 5.17v10.3m0 5.17l.02 10.32m0 5.15v10.32m0 5.14v10.3m0 5.17l.02 10.32m0 5.16v10.3m0 5.16v10.3m0 5.17v10.32m.02 5.16v10.3m0 5.16v10.32m0 5.15v5.17l-.07.94-.22.92-.35.87-.5.8-.6.7-.72.62-.8.5-.88.35-.9.22h-4.86m-4.85 0h-9.7m-4.83 0h-9.7m-4.84 0h-9.7m-4.83 0l-9.7.02m-4.84 0h-9.67m-4.85 0h-9.7m-4.83 0h-9.7m-4.84.02h-9.68m-4.84 0h-9.7m-4.83 0h-9.7m-4.84 0l-9.68.02m-4.84 0h-9.7m-4.84 0H766l-.94-.07-.9-.23-.88-.36-.8-.48-.72-.6-.6-.73-.5-.8-.37-.88-.23-.9v-5.17m0-5.16v-10.32m0-5.15v-10.3m0-5.17l-.02-10.3m0-5.17v-10.32m0-5.15V429.1m0-5.14l-.02-10.3m0-5.17v-10.32m0-5.16v-10.3m0-5.16v-10.3m-.02-5.17v-10.32m0-5.16v-10.3m0-5.16V326l.07-.94.22-.9.35-.88.5-.8.6-.72.72-.6.8-.5.88-.37.9-.23h4.86" stroke="#3a414a" fill="none"/><path d="M-100 246a6 6 0 0 1 6-6h198a6 6 0 0 1 6 6v288a6 6 0 0 1-6 6H-94a6 6 0 0 1-6-6z" fill-opacity="0"/><path d="M-84.74 240.07h10.2m5.1 0h10.2m5.1 0l10.2-.02m5.1 0h10.2m5.12 0h10.2m5.1 0h10.2m5.1 0l10.2-.02m5.1 0h10.2m5.1 0h10.2m5.1 0h10.2m5.1-.02H78.5m5.1 0h10.2m5.1 0h5.1l.94.07.9.22.88.35.8.5.72.6.6.72.5.8.37.88.23.9v5.08m0 5.07v10.14m0 5.07v10.15m0 5.06v10.15m0 5.07v10.14m0 5.07l.02 10.14m0 5.07v10.13m0 5.07v10.14m0 5.07v10.14m0 5.06V387m0 5.07l.02 10.13m0 5.07v10.14m0 5.08v10.14m0 5.07v10.13m0 5.06v10.13m0 5.07l.02 10.14m0 5.07v10.15m0 5.07v10.13m0 5.07v10.14m0 5.07V534l-.07.94-.22.9-.35.88-.5.8-.6.72-.72.6-.8.5-.88.37-.9.23h-5.1m-5.1 0H84.52m-5.1 0h-10.2m-5.1 0l-10.2.02m-5.1 0h-10.2m-5.1 0h-10.2m-5.1 0H8.02m-5.1 0l-10.2.02m-5.1 0H-22.6m-5.1 0h-10.2m-5.1 0h-10.2m-5.1.02h-10.2m-5.1 0h-10.2m-5.1 0H-94l-.94-.07-.9-.22-.88-.35-.8-.5-.72-.6-.6-.72-.5-.8-.37-.88-.23-.9v-5.08m0-5.07v-10.14m0-5.07v-10.15m0-5.06v-10.15m0-5.07v-10.14m0-5.07l-.02-10.14m0-5.07v-10.13m0-5.07v-10.14m0-5.07V408.2m0-5.06V393m0-5.07l-.02-10.13m0-5.07V362.6m0-5.08v-10.14m0-5.07v-10.13m0-5.06v-10.13m0-5.07l-.02-10.14m0-5.07v-10.15m0-5.07v-10.13m0-5.07v-10.14m0-5.07V246l.07-.94.22-.9.35-.88.5-.8.6-.72.72-.6.8-.5.88-.37.9-.23h5.1" stroke="#3a414a" fill="none"/><path d="M-100-94a6 6 0 0 1 6-6h368a6 6 0 0 1 6 6v288a6 6 0 0 1-6 6H-94a6 6 0 0 1-6-6z" fill-opacity="0"/><path d="M-85.1-99.93h9.84m4.92 0h9.84m4.9 0h9.85m4.92 0H-31m4.93 0h9.84m4.92 0h9.83m4.92-.02h9.83m4.92 0h9.84m4.92 0h9.84m4.92 0h9.84m4.92 0h9.83m4.93 0h9.84m4.92 0l9.83-.02m4.92 0h9.84m4.9 0h9.84m4.92 0h9.84m4.92 0h9.84m4.92 0h9.84m4.92 0h9.83m4.92 0l9.83-.02m4.92 0h9.84m4.9 0h9.85m4.92 0h9.83m4.92 0h9.84m4.92 0H274l.94.07.9.22.88.35.8.5.72.6.6.72.5.8.37.88.23.9v5.08m0 5.07v10.14m0 5.07v10.15m0 5.06v10.15m0 5.07v10.14m0 5.07l.02 10.14m0 5.07V1.37m0 5.07v10.14m0 5.07V31.8m0 5.06V47m0 5.07l.02 10.13m0 5.07V77.4m0 5.08v10.14m0 5.07v10.13m0 5.06v10.13m0 5.07l.02 10.14m0 5.07v10.15m0 5.07v10.13m0 5.07v10.14m0 5.07V194l-.07.94-.22.9-.35.88-.5.8-.6.72-.72.6-.8.5-.88.37-.9.23H270m-4.92 0h-9.84m-4.92 0h-9.84m-4.9 0h-9.85m-4.92 0H211m-4.93 0h-9.84m-4.92 0h-9.83m-4.92.02h-9.83m-4.92 0h-9.84m-4.92 0h-9.84m-4.92 0h-9.84m-4.92 0h-9.83m-4.93 0h-9.84m-4.92 0l-9.83.02m-4.92 0H63.4m-4.9 0h-9.84m-4.92 0H33.9m-4.92 0h-9.84m-4.92 0H4.38m-4.92 0h-9.83m-4.92 0l-9.83.02m-4.92 0h-9.84m-4.9 0h-9.85m-4.92 0h-9.83m-4.92 0h-9.84m-4.92 0H-94l-.94-.07-.9-.22-.88-.35-.8-.5-.72-.6-.6-.72-.5-.8-.37-.88-.23-.9v-5.08m0-5.07v-10.14m0-5.07v-10.15m0-5.06v-10.15m0-5.07v-10.14m0-5.07l-.02-10.14m0-5.07V98.63m0-5.07V83.42m0-5.07V68.2m0-5.06V53m0-5.07l-.02-10.13m0-5.07V22.6m0-5.08V7.38m0-5.07V-7.82m0-5.06v-10.13m0-5.07l-.02-10.14m0-5.07v-10.15m0-5.07v-10.13m0-5.07v-10.14m0-5.07V-94l.07-.94.22-.9.35-.88.5-.8.6-.72.72-.6.8-.5.88-.37.9-.23H-90" stroke="#3a414a" fill="none"/><path d="M-100 570.17a6 6 0 0 1 6-6H954a6 6 0 0 1 6 6v319.66a6 6 0 0 1-6 6H-94a6 6 0 0 1-6-6z" fill-opacity="0"/><path d="M-84.95 564.24h10m5 0h9.98m5 0H-45m5 0h10m5 0h9.98m5 0h10m4.98 0h10m5 0h9.98m5 0h9.98m5 0h9.98m5 0h10m4.98 0h10m5 0h9.98m5 0h9.98m5 0l10-.02m4.98 0h10m5 0h9.98m5 0h9.98m5 0h10m4.98 0h10m5 0h9.98m5 0h9.98m5 0h10m4.98 0h10m5 0h9.98m5 0h9.98m5 0h10m4.98 0h10m5 0h9.98m5 0h9.98m5 0h10m4.98 0h10m5 0h9.98m5 0l9.98-.02m5 0h10m4.98 0h10m5 0h9.98m5 0h9.98m5 0h9.98m5 0h10m4.98 0h10m5 0h9.98m5 0h9.98m5 0h10m4.98 0h10m5 0h9.98m5 0h9.98m5 0h10m4.98 0h10m5 0h9.98m5 0h9.98m5 0h10m4.98-.02h10m5 0h9.98m5 0h9.98m5 0h10m4.98 0h10m5 0h9.98m5 0h9.98m5 0h10m4.98 0h10m5 0h9.98m5 0h9.98m5 0h10m4.98 0h10m5 0h9.98m5 0h9.98m5 0h10m4.98 0h10m5 0H954l.94.06.9.22.88.36.8.5.72.6.6.72.5.8.37.87.23.93v5.1m0 5.08v10.18m0 5.1v10.17m0 5.1v10.17m0 5.1v10.16m0 5.1v10.17m.02 5.1v10.17m0 5.1v10.17m0 5.07v10.18m0 5.1v10.17m0 5.1v10.17m0 5.08l.02 10.17m0 5.1v10.17m0 5.1v10.17m0 5.08v10.17m0 5.1v10.17m0 5.1v10.17m0 5.08l.02 10.17m0 5.1v10.17m0 5.1v10.17m0 5.08v10.18m0 5.08v5.1l-.07.93-.22.92-.35.86-.5.8-.6.72-.72.6-.8.5-.88.36-.9.22h-5m-5 0h-10m-5 0h-9.98m-5 0H905m-5 0h-10m-5 0h-9.98m-5 0h-10m-4.98 0h-10m-5 0h-9.98m-5 0h-9.98m-5 0h-9.98m-5 0h-10m-4.98 0h-10m-5 0h-9.98m-5 0h-9.98m-5 0l-10 .02m-4.98 0h-10m-5 0h-9.98m-5 0h-9.98m-5 0h-10m-4.98 0h-10m-5 0h-9.98m-5 0h-9.98m-5 0h-10m-4.98 0h-10m-5 0h-9.98m-5 0h-9.98m-5 0h-10m-4.98 0h-10m-5 0h-9.98m-5 0h-9.98m-5 0h-10m-4.98 0h-10m-5 0h-9.98m-5 0l-9.98.02m-5 0h-10m-4.98 0h-10m-5 0h-9.98m-5 0h-9.98m-5 0h-9.98m-5 0h-10m-4.98 0h-10m-5 0h-9.98m-5 0h-9.98m-5 0h-10m-4.98 0h-10m-5 0h-9.98m-5 0h-9.98m-5 0h-10m-4.98 0h-10m-5 0h-9.98m-5 0h-9.98m-5 0h-10m-4.98.02h-10m-5 0h-9.98m-5 0h-9.98m-5 0h-10m-4.98 0h-10m-5 0h-9.98m-5 0h-9.98m-5 0h-10m-4.98 0h-10m-5 0H20.9m-5 0H5.9m-5 0h-10m-4.98 0h-10m-5 0h-9.98m-5 0h-9.98m-5 0h-10m-4.98 0h-10m-5 0H-94l-.94-.06-.9-.22-.88-.36-.8-.5-.72-.6-.6-.72-.5-.8-.37-.87-.23-.93v-5.1m0-5.08V870.4m0-5.1v-10.17m0-5.1V839.9m0-5.1v-10.16m0-5.1v-10.17m-.02-5.1V794.1m0-5.1v-10.17m0-5.07v-10.18m0-5.1V748.3m0-5.1v-10.17m0-5.08l-.02-10.17m0-5.1V702.5m0-5.1v-10.17m0-5.08v-10.17m0-5.1V656.7m0-5.1v-10.17m0-5.08l-.02-10.17m0-5.1V610.9m0-5.1v-10.17m0-5.08v-10.18m0-5.08v-5.1l.07-.93.22-.92.35-.86.5-.8.6-.72.72-.6.8-.5.88-.36.9-.22h5" stroke="#3a414a" fill="none"/><path d="M760-94a6 6 0 0 1 6-6h188a6 6 0 0 1 6 6v304.67a6 6 0 0 1-6 6H766a6 6 0 0 1-6-6z" fill-opacity="0"/><path d="M774.75-99.93h9.7m4.83 0h9.7m4.84 0l9.7-.02m4.83 0h9.7m4.84 0h9.67m4.85 0h9.7m4.83 0l9.7-.02m4.84 0h9.68m4.84 0h9.7m4.83 0h9.7m4.84-.02h9.68m4.84 0h9.7m4.84 0H954l.94.07.9.22.88.35.8.5.72.6.6.72.5.8.37.88.23.9v5.1m0 5.1v10.2m0 5.08v10.2m0 5.08V-44m0 5.1v10.18m0 5.1l.02 10.18m0 5.1V1.83m0 5.1V17.1m0 5.1V32.4m0 5.1v10.18m0 5.1v10.18m.02 5.1v10.18m0 5.1V93.5m0 5.1v10.18m0 5.1v10.18m0 5.1v10.18m0 5.1l.02 10.18m0 5.1v10.18m0 5.1v10.18m0 5.1v10.18m0 5.1v5.1l-.07.93-.22.92-.35.87-.5.8-.6.7-.72.62-.8.5-.88.35-.9.22h-4.86m-4.85 0h-9.7m-4.83 0h-9.7m-4.84 0h-9.7m-4.83 0l-9.7.02m-4.84 0h-9.67m-4.85 0h-9.7m-4.83 0h-9.7m-4.84.02h-9.68m-4.84 0h-9.7m-4.83 0h-9.7m-4.84 0l-9.68.02m-4.84 0h-9.7m-4.84 0H766l-.94-.07-.9-.23-.88-.36-.8-.48-.72-.6-.6-.73-.5-.8-.37-.88-.23-.9v-5.1m0-5.1v-10.2m0-5.08v-10.2m0-5.08v-10.2m0-5.08v-10.2m0-5.08l-.02-10.2m0-5.08v-10.2m0-5.08v-10.2m0-5.08v-10.2m0-5.08v-10.2m0-5.08V53.7m-.02-5.08v-10.2m0-5.08v-10.2m0-5.08V7.86m0-5.08v-10.2m0-5.1v-10.17m0-5.1L760-37.96m0-5.1v-10.18m0-5.1v-10.18m0-5.1V-83.8m0-5.1V-94l.07-.94.22-.9.35-.88.5-.8.6-.72.72-.6.8-.5.88-.37.9-.23h4.86" stroke="#3a414a" fill="none"/><path d="M280 342.67a6 6 0 0 1 6-6h148a6 6 0 0 1 6 6v88a6 6 0 0 1-6 6H286a6 6 0 0 1-6-6z" stroke="#000" fill="#979ea8"/><use xlink:href="#a" transform="matrix(1,0,0,1,292,348.66666666666663) translate(32.69753086419754 43.888888888888886)"/><path d="M360 453.5v89.66" stroke="#3a414a" fill="none"/><path d="M360 438.75l4.64 14.26h-9.28zM360 557.92l-4.64-14.26h9.28z" stroke="#3a414a" fill="#3a414a"/><path d="M-80-74a6 6 0 0 1 6-6H74a6 6 0 0 1 6 6v88a6 6 0 0 1-6 6H-74a6 6 0 0 1-6-6z" stroke="#3a414a" fill="#dfe3e8"/><use xlink:href="#b" transform="matrix(1,0,0,1,-68,-68) translate(35.34567901234568 41.52777777777778)"/><path d="M100-74a6 6 0 0 1 6-6h148a6 6 0 0 1 6 6v88a6 6 0 0 1-6 6H106a6 6 0 0 1-6-6z" stroke="#3a414a" fill="#dfe3e8"/><use xlink:href="#c" transform="matrix(1,0,0,1,112,-68) translate(25.46913580246914 41.52777777777778)"/><path d="M320-74a6 6 0 0 1 6-6h148a6 6 0 0 1 6 6v88a6 6 0 0 1-6 6H326a6 6 0 0 1-6-6z" stroke="#3a414a" fill="#dfe3e8"/><use xlink:href="#d" transform="matrix(1,0,0,1,332,-68) translate(16.827160493827158 41.52777777777778)"/><path d="M500-74a6 6 0 0 1 6-6h148a6 6 0 0 1 6 6v88a6 6 0 0 1-6 6H506a6 6 0 0 1-6-6z" stroke="#3a414a" fill="#dfe3e8"/><use xlink:href="#e" transform="matrix(1,0,0,1,512,-68) translate(27.320987654320987 41.52777777777778)"/><path d="M-80 46a6 6 0 0 1 6-6H74a6 6 0 0 1 6 6v88a6 6 0 0 1-6 6H-74a6 6 0 0 1-6-6z" stroke="#3a414a" fill="#dfe3e8"/><use xlink:href="#f" transform="matrix(1,0,0,1,-68,52) translate(30.99382716049383 41.52777777777778)"/><path d="M100 46a6 6 0 0 1 6-6h148a6 6 0 0 1 6 6v88a6 6 0 0 1-6 6H106a6 6 0 0 1-6-6z" stroke="#000" fill="#dfe3e8"/><use xlink:href="#g" transform="matrix(1,0,0,1,112,52) translate(7.537037037037031 41.52777777777778)"/><path d="M400 46a6 6 0 0 1 6-6h148a6 6 0 0 1 6 6v88a6 6 0 0 1-6 6H406a6 6 0 0 1-6-6z" stroke="#3a414a" fill="#dfe3e8"/><use xlink:href="#h" transform="matrix(1,0,0,1,412,52) translate(24.23456790123457 41.52777777777778)"/><path d="M-100 106a6 6 0 0 1 6-6h363a6 6 0 0 1 6 6v131.33a6 6 0 0 1-6 6H-94a6 6 0 0 1-6-6z" stroke="#000" stroke-opacity="0" fill="#fff" fill-opacity="0"/><use xlink:href="#i" transform="matrix(1,0,0,1,-95,105) translate(36.543209876543244 72.21527777777777)"/><use xlink:href="#j" transform="matrix(1,0,0,1,-95,105) translate(148.64197530864197 72.21527777777777)"/><use xlink:href="#k" transform="matrix(1,0,0,1,-95,105) translate(253.39506172839504 72.21527777777777)"/><path d="M720 419.33a6 6 0 0 1 6-6h268a6 6 0 0 1 6 6v131.34a6 6 0 0 1-6 6H726a6 6 0 0 1-6-6z" stroke="#000" stroke-opacity="0" fill="#fff" fill-opacity="0"/><use xlink:href="#l" transform="matrix(1,0,0,1,725,418.3333333333332) translate(94.56790123456791 59.65277777777777)"/><use xlink:href="#m" transform="matrix(1,0,0,1,725,418.3333333333332) translate(130.2469135802469 59.65277777777777)"/><use xlink:href="#n" transform="matrix(1,0,0,1,725,418.3333333333332) translate(97.46913580246914 86.31944444444443)"/><path d="M263.15 386.67h-136.3" stroke="#3a414a" fill="none"/><path d="M277.92 386.67l-14.27 4.63v-9.27zM112.08 386.67l14.27-4.64v9.27z" stroke="#3a414a" fill="#3a414a"/><path d="M456.85 386.67H714a6 6 0 0 1 6 6v40.08a6 6 0 0 0 6 6h17.16" stroke="#3a414a" fill="none"/><path d="M442.08 386.67l14.27-4.64v9.27zM757.93 438.75l-14.27 4.64v-9.28z" stroke="#3a414a" fill="#3a414a"/><path d="M780 352.67a6 6 0 0 1 6-6h148a6 6 0 0 1 6 6v88a6 6 0 0 1-6 6H786a6 6 0 0 1-6-6z" stroke="#3a414a" fill="#dfe3e8"/><use xlink:href="#o" transform="matrix(1,0,0,1,792,358.6666666666665) translate(2.0432098765432016 41.52777777777778)"/><path d="M-80 266a6 6 0 0 1 6-6H74a6 6 0 0 1 6 6v88a6 6 0 0 1-6 6H-74a6 6 0 0 1-6-6z" stroke="#3a414a" fill="#dfe3e8"/><use xlink:href="#p" transform="matrix(1,0,0,1,-68,272) translate(29.111111111111114 41.52777777777778)"/><path d="M-80 426a6 6 0 0 1 6-6H74a6 6 0 0 1 6 6v88a6 6 0 0 1-6 6H-74a6 6 0 0 1-6-6z" stroke="#3a414a" fill="#dfe3e8"/><use xlink:href="#q" transform="matrix(1,0,0,1,-68,432) translate(22.351851851851848 41.52777777777778)"/><path d="M-80 586a6 6 0 0 1 6-6h728a6 6 0 0 1 6 6v288a6 6 0 0 1-6 6H-74a6 6 0 0 1-6-6z" stroke="#3a414a" fill="#dfe3e8"/><path d="M667.5 586a6 6 0 0 1 6-6h268a6 6 0 0 1 6 6v131.33a6 6 0 0 1-6 6h-268a6 6 0 0 1-6-6z" stroke="#000" stroke-opacity="0" fill="#fff" fill-opacity="0"/><use xlink:href="#r" transform="matrix(1,0,0,1,672.5,585) translate(15.524691358024711 72.21527777777777)"/><use xlink:href="#s" transform="matrix(1,0,0,1,672.5,585) translate(90.70987654320989 72.21527777777777)"/><use xlink:href="#t" transform="matrix(1,0,0,1,672.5,585) translate(179.41358024691357 72.21527777777777)"/><path d="M-140 324.33a6 6 0 0 1 6-6h268a6 6 0 0 1 6 6v131.34a6 6 0 0 1-6 6h-268a6 6 0 0 1-6-6z" stroke="#000" stroke-opacity="0" fill="#fff" fill-opacity="0"/><use xlink:href="#u" transform="matrix(1,0,0,1,-135,323.33333333333337) translate(46.358024691358025 72.21527777777777)"/><use xlink:href="#v" transform="matrix(1,0,0,1,-135,323.33333333333337) translate(148.58024691358025 72.21527777777777)"/><path d="M780 46a6 6 0 0 1 6-6h148a6 6 0 0 1 6 6v88a6 6 0 0 1-6 6H786a6 6 0 0 1-6-6z" stroke="#3a414a" fill="#dfe3e8"/><use xlink:href="#w" transform="matrix(1,0,0,1,792,51.99999999999997) translate(21.086419753086417 41.52777777777778)"/><path d="M780-74a6 6 0 0 1 6-6h148a6 6 0 0 1 6 6v88a6 6 0 0 1-6 6H786a6 6 0 0 1-6-6z" stroke="#3a414a" fill="#dfe3e8"/><use xlink:href="#x" transform="matrix(1,0,0,1,792,-68) translate(39.60493827160494 41.52777777777778)"/><path d="M720 112.67a6 6 0 0 1 6-6h268a6 6 0 0 1 6 6V244a6 6 0 0 1-6 6H726a6 6 0 0 1-6-6z" stroke="#000" stroke-opacity="0" fill="#fff" fill-opacity="0"/><use xlink:href="#y" transform="matrix(1,0,0,1,725,111.66666666666664) translate(80.77160493827162 59.65277777777777)"/><use xlink:href="#z" transform="matrix(1,0,0,1,725,111.66666666666664) translate(97.46913580246914 86.31944444444443)"/><path d="M456.83 365.86H714a6 6 0 0 0 6-6V133.73a6 6 0 0 1 6-6h17.17" stroke="#3a414a" fill="none"/><path d="M442.06 365.86l14.27-4.64v9.27zM757.94 127.73l-14.27 4.63v-9.27z" stroke="#3a414a" fill="#3a414a"/><path d="M300 607.67a6 6 0 0 1 6-6h148a6 6 0 0 1 6 6v88a6 6 0 0 1-6 6H306a6 6 0 0 1-6-6z" stroke="#3a414a" fill="#f2f3f5"/><use xlink:href="#A" transform="matrix(1,0,0,1,312,613.6666666666666) translate(29.14197530864198 41.52777777777778)"/><path d="M300 726a6 6 0 0 1 6-6h148a6 6 0 0 1 6 6v88a6 6 0 0 1-6 6H306a6 6 0 0 1-6-6z" stroke="#3a414a" fill="#f2f3f5"/><use xlink:href="#B" transform="matrix(1,0,0,1,312,732) translate(37.38271604938272 41.52777777777778)"/><path d="M480 607.67a6 6 0 0 1 6-6h148a6 6 0 0 1 6 6v88a6 6 0 0 1-6 6H486a6 6 0 0 1-6-6z" stroke="#3a414a" fill="#f2f3f5"/><use xlink:href="#C" transform="matrix(1,0,0,1,492,613.6666666666666) translate(45.19135802469136 41.52777777777778)"/><path d="M120 607.67a6 6 0 0 1 6-6h148a6 6 0 0 1 6 6v88a6 6 0 0 1-6 6H126a6 6 0 0 1-6-6z" stroke="#3a414a" fill="#f2f3f5"/><use xlink:href="#D" transform="matrix(1,0,0,1,132,613.6666666666666) translate(38.40123456790124 41.52777777777778)"/><path d="M120 726a6 6 0 0 1 6-6h148a6 6 0 0 1 6 6v88a6 6 0 0 1-6 6H126a6 6 0 0 1-6-6z" stroke="#3a414a" fill="#f2f3f5"/><use xlink:href="#E" transform="matrix(1,0,0,1,132,732) translate(39.604938271604944 41.52777777777778)"/><path d="M-60 607.67a6 6 0 0 1 6-6H94a6 6 0 0 1 6 6v88a6 6 0 0 1-6 6H-54a6 6 0 0 1-6-6z" stroke="#3a414a" fill="#f2f3f5"/><use xlink:href="#F" transform="matrix(1,0,0,1,-48,613.6666666666666) translate(43.370370370370374 41.52777777777778)"/><path d="M-60 726.83a6 6 0 0 1 6-6H94a6 6 0 0 1 6 6v88a6 6 0 0 1-6 6H-54a6 6 0 0 1-6-6z" stroke="#3a414a" fill="#f2f3f5"/><use xlink:href="#G" transform="matrix(1,0,0,1,-48,732.8333333333333) translate(47.660493827160494 41.52777777777778)"/><path d="M480 726a6 6 0 0 1 6-6h148a6 6 0 0 1 6 6v88a6 6 0 0 1-6 6H486a6 6 0 0 1-6-6z" stroke="#3a414a" fill="#f2f3f5"/><use xlink:href="#H" transform="matrix(1,0,0,1,492,732) translate(45.19135802469136 41.52777777777778)"/><path d="M180 826a6 6 0 0 1 6-6h268a6 6 0 0 1 6 6v51.33a6 6 0 0 1-6 6H186a6 6 0 0 1-6-6z" stroke="#000" stroke-opacity="0" fill="#fff" fill-opacity="0"/><use xlink:href="#I" transform="matrix(1,0,0,1,185,825) translate(10.617283950617264 31.27777777777778)"/><use xlink:href="#J" transform="matrix(1,0,0,1,185,825) translate(127.53086419753085 31.27777777777778)"/><use xlink:href="#K" transform="matrix(1,0,0,1,185,825) translate(171.91358024691357 31.27777777777778)"/><path d="M667.5 666a6 6 0 0 1 6-6h268a6 6 0 0 1 6 6v131.33a6 6 0 0 1-6 6h-268a6 6 0 0 1-6-6z" stroke="#000" stroke-opacity="0" fill="#fff" fill-opacity="0"/><g><use xlink:href="#L" transform="matrix(1,0,0,1,672.5,665) translate(77.62345679012347 42.90277777777777)"/><use xlink:href="#M" transform="matrix(1,0,0,1,672.5,665) translate(165.21604938271605 42.90277777777777)"/><use xlink:href="#N" transform="matrix(1,0,0,1,672.5,665) translate(19.75308641975309 69.56944444444444)"/><use xlink:href="#O" transform="matrix(1,0,0,1,672.5,665) translate(83.88888888888889 69.56944444444444)"/><use xlink:href="#P" transform="matrix(1,0,0,1,672.5,665) translate(134.44444444444443 69.56944444444444)"/><use xlink:href="#Q" transform="matrix(1,0,0,1,672.5,665) translate(176.23456790123456 69.56944444444444)"/><use xlink:href="#R" transform="matrix(1,0,0,1,672.5,665) translate(4.259259259259295 96.2361111111111)"/><use xlink:href="#S" transform="matrix(1,0,0,1,672.5,665) translate(81.97530864197533 96.2361111111111)"/><use xlink:href="#T" transform="matrix(1,0,0,1,672.5,665) translate(146.0493827160494 96.2361111111111)"/><use xlink:href="#U" transform="matrix(1,0,0,1,672.5,665) translate(229.93827160493825 96.2361111111111)"/></g><path d="M292.5 102.67a6 6 0 0 1 6-6h363a6 6 0 0 1 6 6V234a6 6 0 0 1-6 6h-363a6 6 0 0 1-6-6z" stroke="#000" stroke-opacity="0" fill="#fff" fill-opacity="0"/><g><use xlink:href="#V" transform="matrix(1,0,0,1,297.5,101.66666666666674) translate(82.53086419753087 72.21527777777777)"/><use xlink:href="#W" transform="matrix(1,0,0,1,297.5,101.66666666666674) translate(207.4074074074074 72.21527777777777)"/></g><path d="M490 216.85V244a6 6 0 0 1-6 6h-81.08a6 6 0 0 0-6 6v63.8" stroke="#3a414a" fill="none"/><path d="M490 202.08l4.64 14.27h-9.28zM396.92 334.57l-4.63-14.27h9.26z" stroke="#3a414a" fill="#3a414a"/><path d="M171.68 216.83V244a6 6 0 0 0 6 6h148.4a6 6 0 0 1 6 6v63.83" stroke="#3a414a" fill="none"/><path d="M171.68 202.06l4.63 14.27h-9.26zM332.08 334.6l-4.63-14.27h9.27z" stroke="#3a414a" fill="#3a414a"/><defs><path fill="#3a414a" d="M63-220v92h138v28H63V0H30v-248h175v28H63" id="X"/><path fill="#3a414a" d="M24 0v-261h32V0H24" id="Y"/><path fill="#3a414a" d="M141-36C126-15 110 5 73 4 37 3 15-17 15-53c-1-64 63-63 125-63 3-35-9-54-41-54-24 1-41 7-42 31l-33-3c5-37 33-52 76-52 45 0 72 20 72 64v82c-1 20 7 32 28 27v20c-31 9-61-2-59-35zM48-53c0 20 12 33 32 33 41-3 63-29 60-74-43 2-92-5-92 41" id="Z"/><path fill="#3a414a" d="M114-163C36-179 61-72 57 0H25l-1-190h30c1 12-1 29 2 39 6-27 23-49 58-41v29" id="aa"/><path fill="#3a414a" d="M100-194c63 0 86 42 84 106H49c0 40 14 67 53 68 26 1 43-12 49-29l28 8c-11 28-37 45-77 45C44 4 14-33 15-96c1-61 26-98 85-98zm52 81c6-60-76-77-97-28-3 7-6 17-6 28h103" id="ab"/><g id="a"><use transform="matrix(0.08641975308641973,0,0,0.08641975308641973,0,0)" xlink:href="#X"/><use transform="matrix(0.08641975308641973,0,0,0.08641975308641973,18.92592592592592,0)" xlink:href="#Y"/><use transform="matrix(0.08641975308641973,0,0,0.08641975308641973,25.753086419753075,0)" xlink:href="#Z"/><use transform="matrix(0.08641975308641973,0,0,0.08641975308641973,43.037037037037024,0)" xlink:href="#aa"/><use transform="matrix(0.08641975308641973,0,0,0.08641975308641973,53.32098765432097,0)" xlink:href="#ab"/></g><path fill="#3a414a" d="M140-251c81 0 123 46 123 126C263-46 219 4 140 4 59 4 17-45 17-125s42-126 123-126zm0 227c63 0 89-41 89-101s-29-99-89-99c-61 0-89 39-89 99S79-25 140-24" id="ac"/><path fill="#3a414a" d="M96-169c-40 0-48 33-48 73s9 75 48 75c24 0 41-14 43-38l32 2c-6 37-31 61-74 61-59 0-76-41-82-99-10-93 101-131 147-64 4 7 5 14 7 22l-32 3c-4-21-16-35-41-35" id="ad"/><g id="b"><use transform="matrix(0.06172839506172839,0,0,0.06172839506172839,0,0)" xlink:href="#ac"/><use transform="matrix(0.06172839506172839,0,0,0.06172839506172839,17.28395061728395,0)" xlink:href="#aa"/><use transform="matrix(0.06172839506172839,0,0,0.06172839506172839,24.629629629629626,0)" xlink:href="#Z"/><use transform="matrix(0.06172839506172839,0,0,0.06172839506172839,36.9753086419753,0)" xlink:href="#ad"/><use transform="matrix(0.06172839506172839,0,0,0.06172839506172839,48.08641975308642,0)" xlink:href="#Y"/><use transform="matrix(0.06172839506172839,0,0,0.06172839506172839,52.96296296296296,0)" xlink:href="#ab"/></g><path fill="#3a414a" d="M240 0l2-218c-23 76-54 145-80 218h-23L58-218 59 0H30v-248h44l77 211c21-75 51-140 76-211h43V0h-30" id="ae"/><path fill="#3a414a" d="M185-189c-5-48-123-54-124 2 14 75 158 14 163 119 3 78-121 87-175 55-17-10-28-26-33-46l33-7c5 56 141 63 141-1 0-78-155-14-162-118-5-82 145-84 179-34 5 7 8 16 11 25" id="af"/><path fill="#3a414a" d="M16-82v-28h88v28H16" id="ag"/><path fill="#3a414a" d="M140-251c81 0 123 46 123 126C263-53 228-8 163 1c7 30 30 48 69 40v23c-55 16-95-15-103-61C56-3 17-48 17-125c0-80 42-126 123-126zm0 227c63 0 89-41 89-101s-29-99-89-99c-61 0-89 39-89 99S79-25 140-24" id="ah"/><path fill="#3a414a" d="M30 0v-248h33v221h125V0H30" id="ai"/><g id="c"><use transform="matrix(0.06172839506172839,0,0,0.06172839506172839,0,0)" xlink:href="#ae"/><use transform="matrix(0.06172839506172839,0,0,0.06172839506172839,18.456790123456788,0)" xlink:href="#af"/><use transform="matrix(0.06172839506172839,0,0,0.06172839506172839,33.2716049382716,0)" xlink:href="#ag"/><use transform="matrix(0.06172839506172839,0,0,0.06172839506172839,40.61728395061728,0)" xlink:href="#af"/><use transform="matrix(0.06172839506172839,0,0,0.06172839506172839,55.43209876543209,0)" xlink:href="#ah"/><use transform="matrix(0.06172839506172839,0,0,0.06172839506172839,72.71604938271604,0)" xlink:href="#ai"/></g><path fill="#3a414a" d="M117-194c89-4 53 116 60 194h-32v-121c0-31-8-49-39-48C34-167 62-67 57 0H25l-1-190h30c1 10-1 24 2 32 11-22 29-35 61-36" id="aj"/><path fill="#3a414a" d="M100-194c62-1 85 37 85 99 1 63-27 99-86 99S16-35 15-95c0-66 28-99 85-99zM99-20c44 1 53-31 53-75 0-43-8-75-51-75s-53 32-53 75 10 74 51 75" id="ak"/><path fill="#3a414a" d="M206 0h-36l-40-164L89 0H53L-1-190h32L70-26l43-164h34l41 164 42-164h31" id="al"/><path fill="#3a414a" d="M101-234c-31-9-42 10-38 44h38v23H63V0H32v-167H5v-23h27c-7-52 17-82 69-68v24" id="am"/><path fill="#3a414a" d="M143 0L79-87 56-68V0H24v-261h32v163l83-92h37l-77 82L181 0h-38" id="an"/><g id="d"><use transform="matrix(0.06172839506172839,0,0,0.06172839506172839,0,0)" xlink:href="#af"/><use transform="matrix(0.06172839506172839,0,0,0.06172839506172839,14.814814814814813,0)" xlink:href="#aj"/><use transform="matrix(0.06172839506172839,0,0,0.06172839506172839,27.160493827160494,0)" xlink:href="#ak"/><use transform="matrix(0.06172839506172839,0,0,0.06172839506172839,39.50617283950617,0)" xlink:href="#al"/><use transform="matrix(0.06172839506172839,0,0,0.06172839506172839,55.49382716049382,0)" xlink:href="#am"/><use transform="matrix(0.06172839506172839,0,0,0.06172839506172839,61.666666666666664,0)" xlink:href="#Y"/><use transform="matrix(0.06172839506172839,0,0,0.06172839506172839,66.5432098765432,0)" xlink:href="#Z"/><use transform="matrix(0.06172839506172839,0,0,0.06172839506172839,78.88888888888889,0)" xlink:href="#an"/><use transform="matrix(0.06172839506172839,0,0,0.06172839506172839,90,0)" xlink:href="#ab"/></g><path fill="#3a414a" d="M233-177c-1 41-23 64-60 70L243 0h-38l-65-103H63V0H30v-248c88 3 205-21 203 71zM63-129c60-2 137 13 137-47 0-61-80-42-137-45v92" id="ao"/><path fill="#3a414a" d="M85-194c31 0 48 13 60 33l-1-100h32l1 261h-30c-2-10 0-23-3-31C134-8 116 4 85 4 32 4 16-35 15-94c0-66 23-100 70-100zm9 24c-40 0-46 34-46 75 0 40 6 74 45 74 42 0 51-32 51-76 0-42-9-74-50-73" id="ap"/><path fill="#3a414a" d="M135-143c-3-34-86-38-87 0 15 53 115 12 119 90S17 21 10-45l28-5c4 36 97 45 98 0-10-56-113-15-118-90-4-57 82-63 122-42 12 7 21 19 24 35" id="aq"/><path fill="#3a414a" d="M106-169C34-169 62-67 57 0H25v-261h32l-1 103c12-21 28-36 61-36 89 0 53 116 60 194h-32v-121c2-32-8-49-39-48" id="ar"/><path fill="#3a414a" d="M24-231v-30h32v30H24zM24 0v-190h32V0H24" id="as"/><path fill="#3a414a" d="M59-47c-2 24 18 29 38 22v24C64 9 27 4 27-40v-127H5v-23h24l9-43h21v43h35v23H59v120" id="at"/><g id="e"><use transform="matrix(0.06172839506172839,0,0,0.06172839506172839,0,0)" xlink:href="#ao"/><use transform="matrix(0.06172839506172839,0,0,0.06172839506172839,15.987654320987653,0)" xlink:href="#ab"/><use transform="matrix(0.06172839506172839,0,0,0.06172839506172839,28.333333333333332,0)" xlink:href="#ap"/><use transform="matrix(0.06172839506172839,0,0,0.06172839506172839,40.67901234567901,0)" xlink:href="#aq"/><use transform="matrix(0.06172839506172839,0,0,0.06172839506172839,51.79012345679013,0)" xlink:href="#ar"/><use transform="matrix(0.06172839506172839,0,0,0.06172839506172839,64.13580246913581,0)" xlink:href="#as"/><use transform="matrix(0.06172839506172839,0,0,0.06172839506172839,69.01234567901236,0)" xlink:href="#am"/><use transform="matrix(0.06172839506172839,0,0,0.06172839506172839,75.18518518518519,0)" xlink:href="#at"/></g><path fill="#3a414a" d="M179-190L93 31C79 59 56 82 12 73V49c39 6 53-20 64-50L1-190h34L92-34l54-156h33" id="au"/><g id="f"><use transform="matrix(0.06172839506172839,0,0,0.06172839506172839,0,0)" xlink:href="#ae"/><use transform="matrix(0.06172839506172839,0,0,0.06172839506172839,18.456790123456788,0)" xlink:href="#au"/><use transform="matrix(0.06172839506172839,0,0,0.06172839506172839,29.5679012345679,0)" xlink:href="#af"/><use transform="matrix(0.06172839506172839,0,0,0.06172839506172839,44.38271604938271,0)" xlink:href="#ah"/><use transform="matrix(0.06172839506172839,0,0,0.06172839506172839,61.66666666666666,0)" xlink:href="#ai"/></g><path fill="#3a414a" d="M30-248c87 1 191-15 191 75 0 78-77 80-158 76V0H30v-248zm33 125c57 0 124 11 124-50 0-59-68-47-124-48v98" id="av"/><path fill="#3a414a" d="M177-190C167-65 218 103 67 71c-23-6-38-20-44-43l32-5c15 47 100 32 89-28v-30C133-14 115 1 83 1 29 1 15-40 15-95c0-56 16-97 71-98 29-1 48 16 59 35 1-10 0-23 2-32h30zM94-22c36 0 50-32 50-73 0-42-14-75-50-75-39 0-46 34-46 75s6 73 46 73" id="aw"/><g id="g"><use transform="matrix(0.06172839506172839,0,0,0.06172839506172839,0,0)" xlink:href="#av"/><use transform="matrix(0.06172839506172839,0,0,0.06172839506172839,14.814814814814813,0)" xlink:href="#ak"/><use transform="matrix(0.06172839506172839,0,0,0.06172839506172839,27.160493827160494,0)" xlink:href="#aq"/><use transform="matrix(0.06172839506172839,0,0,0.06172839506172839,38.27160493827161,0)" xlink:href="#at"/><use transform="matrix(0.06172839506172839,0,0,0.06172839506172839,44.44444444444445,0)" xlink:href="#aw"/><use transform="matrix(0.06172839506172839,0,0,0.06172839506172839,56.79012345679013,0)" xlink:href="#aa"/><use transform="matrix(0.06172839506172839,0,0,0.06172839506172839,64.13580246913581,0)" xlink:href="#ab"/><use transform="matrix(0.06172839506172839,0,0,0.06172839506172839,76.4814814814815,0)" xlink:href="#af"/><use transform="matrix(0.06172839506172839,0,0,0.06172839506172839,91.2962962962963,0)" xlink:href="#ah"/><use transform="matrix(0.06172839506172839,0,0,0.06172839506172839,108.58024691358025,0)" xlink:href="#ai"/></g><path fill="#3a414a" d="M160-131c35 5 61 23 61 61C221 17 115-2 30 0v-248c76 3 177-17 177 60 0 33-19 50-47 57zm-97-11c50-1 110 9 110-42 0-47-63-36-110-37v79zm0 115c55-2 124 14 124-45 0-56-70-42-124-44v89" id="ax"/><path fill="#3a414a" d="M145-31C134-9 116 4 85 4 32 4 16-35 15-94c0-59 17-99 70-100 32-1 48 14 60 33 0-11-1-24 2-32h30l-1 268h-32zM93-21c41 0 51-33 51-76s-8-73-50-73c-40 0-46 35-46 75s5 74 45 74" id="ay"/><path fill="#3a414a" d="M84 4C-5 8 30-112 23-190h32v120c0 31 7 50 39 49 72-2 45-101 50-169h31l1 190h-30c-1-10 1-25-2-33-11 22-28 36-60 37" id="az"/><g id="h"><use transform="matrix(0.06172839506172839,0,0,0.06172839506172839,0,0)" xlink:href="#ax"/><use transform="matrix(0.06172839506172839,0,0,0.06172839506172839,14.814814814814813,0)" xlink:href="#as"/><use transform="matrix(0.06172839506172839,0,0,0.06172839506172839,19.691358024691354,0)" xlink:href="#aw"/><use transform="matrix(0.06172839506172839,0,0,0.06172839506172839,32.03703703703703,0)" xlink:href="#ay"/><use transform="matrix(0.06172839506172839,0,0,0.06172839506172839,44.38271604938271,0)" xlink:href="#az"/><use transform="matrix(0.06172839506172839,0,0,0.06172839506172839,56.728395061728385,0)" xlink:href="#ab"/><use transform="matrix(0.06172839506172839,0,0,0.06172839506172839,69.07407407407406,0)" xlink:href="#aa"/><use transform="matrix(0.06172839506172839,0,0,0.06172839506172839,76.41975308641975,0)" xlink:href="#au"/></g><path fill="#3a414a" d="M240-174c0 40-23 61-54 70L253 0h-59l-57-94H76V0H24v-248c93 4 217-23 216 74zM76-134c48-2 112 12 112-38 0-48-66-32-112-35v73" id="aA"/><path fill="#3a414a" d="M185-48c-13 30-37 53-82 52C43 2 14-33 14-96s30-98 90-98c62 0 83 45 84 108H66c0 31 8 55 39 56 18 0 30-7 34-22zm-45-69c5-46-57-63-70-21-2 6-4 13-4 21h74" id="aB"/><path fill="#3a414a" d="M25 0v-261h50V0H25" id="aC"/><path fill="#3a414a" d="M133-34C117-15 103 5 69 4 32 3 11-16 11-54c-1-60 55-63 116-61 1-26-3-47-28-47-18 1-26 9-28 27l-52-2c7-38 36-58 82-57s74 22 75 68l1 82c-1 14 12 18 25 15v27c-30 8-71 5-69-32zm-48 3c29 0 43-24 42-57-32 0-66-3-65 30 0 17 8 27 23 27" id="aD"/><path fill="#3a414a" d="M115-3C79 11 28 4 28-45v-112H4v-33h27l15-45h31v45h36v33H77v99c-1 23 16 31 38 25v30" id="aE"/><path fill="#3a414a" d="M25-224v-37h50v37H25zM25 0v-190h50V0H25" id="aF"/><path fill="#3a414a" d="M110-194c64 0 96 36 96 99 0 64-35 99-97 99-61 0-95-36-95-99 0-62 34-99 96-99zm-1 164c35 0 45-28 45-65 0-40-10-65-43-65-34 0-45 26-45 65 0 36 10 65 43 65" id="aG"/><path fill="#3a414a" d="M135-194c87-1 58 113 63 194h-50c-7-57 23-157-34-157-59 0-34 97-39 157H25l-1-190h47c2 12-1 28 3 38 12-26 28-41 61-42" id="aH"/><g id="i"><use transform="matrix(0.061728395061728385,0,0,0.061728395061728385,0,0)" xlink:href="#aA"/><use transform="matrix(0.061728395061728385,0,0,0.061728395061728385,15.987654320987652,0)" xlink:href="#aB"/><use transform="matrix(0.061728395061728385,0,0,0.061728395061728385,28.33333333333333,0)" xlink:href="#aC"/><use transform="matrix(0.061728395061728385,0,0,0.061728395061728385,34.50617283950616,0)" xlink:href="#aD"/><use transform="matrix(0.061728395061728385,0,0,0.061728395061728385,46.85185185185184,0)" xlink:href="#aE"/><use transform="matrix(0.061728395061728385,0,0,0.061728395061728385,54.19753086419752,0)" xlink:href="#aF"/><use transform="matrix(0.061728395061728385,0,0,0.061728395061728385,60.37037037037035,0)" xlink:href="#aG"/><use transform="matrix(0.061728395061728385,0,0,0.061728395061728385,73.88888888888887,0)" xlink:href="#aH"/><use transform="matrix(0.061728395061728385,0,0,0.061728395061728385,87.40740740740739,0)" xlink:href="#aD"/><use transform="matrix(0.061728395061728385,0,0,0.061728395061728385,99.75308641975306,0)" xlink:href="#aC"/></g><path fill="#3a414a" d="M24-248c120-7 223 5 221 122C244-46 201 0 124 0H24v-248zM76-40c74 7 117-18 117-86 0-67-45-88-117-82v168" id="aI"/><path fill="#3a414a" d="M135-194c52 0 70 43 70 98 0 56-19 99-73 100-30 1-46-15-58-35L72 0H24l1-261h50v104c11-23 29-37 60-37zM114-30c31 0 40-27 40-66 0-37-7-63-39-63s-41 28-41 65c0 36 8 64 40 64" id="aJ"/><path fill="#3a414a" d="M137-138c1-29-70-34-71-4 15 46 118 7 119 86 1 83-164 76-172 9l43-7c4 19 20 25 44 25 33 8 57-30 24-41C81-84 22-81 20-136c-2-80 154-74 161-7" id="aK"/><g id="j"><use transform="matrix(0.061728395061728385,0,0,0.061728395061728385,0,0)" xlink:href="#aI"/><use transform="matrix(0.061728395061728385,0,0,0.061728395061728385,15.987654320987652,0)" xlink:href="#aD"/><use transform="matrix(0.061728395061728385,0,0,0.061728395061728385,28.33333333333333,0)" xlink:href="#aE"/><use transform="matrix(0.061728395061728385,0,0,0.061728395061728385,35.679012345679006,0)" xlink:href="#aD"/><use transform="matrix(0.061728395061728385,0,0,0.061728395061728385,48.02469135802468,0)" xlink:href="#aJ"/><use transform="matrix(0.061728395061728385,0,0,0.061728395061728385,61.5432098765432,0)" xlink:href="#aD"/><use transform="matrix(0.061728395061728385,0,0,0.061728395061728385,73.88888888888889,0)" xlink:href="#aK"/><use transform="matrix(0.061728395061728385,0,0,0.061728395061728385,86.23456790123456,0)" xlink:href="#aB"/></g><path fill="#3a414a" d="M135-194c53 0 70 44 70 98 0 56-19 98-73 100-31 1-45-17-59-34 3 33 2 69 2 105H25l-1-265h48c2 10 0 23 3 31 11-24 29-35 60-35zM114-30c33 0 39-31 40-66 0-38-9-64-40-64-56 0-55 130 0 130" id="aL"/><g id="k"><use transform="matrix(0.061728395061728385,0,0,0.061728395061728385,0,0)" xlink:href="#aI"/><use transform="matrix(0.061728395061728385,0,0,0.061728395061728385,15.987654320987652,0)" xlink:href="#aB"/><use transform="matrix(0.061728395061728385,0,0,0.061728395061728385,28.33333333333333,0)" xlink:href="#aL"/><use transform="matrix(0.061728395061728385,0,0,0.061728395061728385,41.85185185185185,0)" xlink:href="#aG"/><use transform="matrix(0.061728395061728385,0,0,0.061728395061728385,55.37037037037037,0)" xlink:href="#aE"/><use transform="matrix(0.061728395061728385,0,0,0.061728395061728385,62.716049382716044,0)" xlink:href="#aK"/></g><path fill="#3a414a" d="M175 0L67-191c6 58 2 128 3 191H24v-248h59L193-55c-6-58-2-129-3-193h46V0h-61" id="aM"/><g id="l"><use transform="matrix(0.061728395061728385,0,0,0.061728395061728385,0,0)" xlink:href="#aM"/><use transform="matrix(0.061728395061728385,0,0,0.061728395061728385,15.987654320987652,0)" xlink:href="#aG"/></g><path fill="#3a414a" d="M169-182c-1-43-94-46-97-3 18 66 151 10 154 114 3 95-165 93-204 36-6-8-10-19-12-30l50-8c3 46 112 56 116 5-17-69-150-10-154-114-4-87 153-88 188-35 5 8 8 18 10 28" id="aN"/><path fill="#3a414a" d="M140-251c80 0 125 45 125 126 0 70-33 111-92 124 6 28 34 38 68 31l-1 36C177 83 129 55 120 2 51-6 15-50 15-125c0-81 44-126 125-126zm-1 214c52 0 73-35 73-88 0-50-21-86-72-86-52 0-73 35-73 86s22 88 72 88" id="aO"/><path fill="#3a414a" d="M24 0v-248h52v208h133V0H24" id="aP"/><g id="m"><use transform="matrix(0.061728395061728385,0,0,0.061728395061728385,0,0)" xlink:href="#aN"/><use transform="matrix(0.061728395061728385,0,0,0.061728395061728385,14.814814814814813,0)" xlink:href="#aO"/><use transform="matrix(0.061728395061728385,0,0,0.061728395061728385,32.09876543209876,0)" xlink:href="#aP"/></g><g id="n"><use transform="matrix(0.061728395061728385,0,0,0.061728395061728385,0,0)" xlink:href="#aI"/><use transform="matrix(0.061728395061728385,0,0,0.061728395061728385,15.987654320987652,0)" xlink:href="#aB"/><use transform="matrix(0.061728395061728385,0,0,0.061728395061728385,28.33333333333333,0)" xlink:href="#aL"/><use transform="matrix(0.061728395061728385,0,0,0.061728395061728385,41.85185185185185,0)" xlink:href="#aG"/><use transform="matrix(0.061728395061728385,0,0,0.061728395061728385,55.37037037037037,0)" xlink:href="#aE"/><use transform="matrix(0.061728395061728385,0,0,0.061728395061728385,62.716049382716044,0)" xlink:href="#aK"/></g><path fill="#3a414a" d="M30 0v-248h187v28H63v79h144v27H63v87h162V0H30" id="aQ"/><g id="o"><use transform="matrix(0.06172839506172839,0,0,0.06172839506172839,0,0)" xlink:href="#aQ"/><use transform="matrix(0.06172839506172839,0,0,0.06172839506172839,14.814814814814813,0)" xlink:href="#Y"/><use transform="matrix(0.06172839506172839,0,0,0.06172839506172839,19.691358024691354,0)" xlink:href="#Z"/><use transform="matrix(0.06172839506172839,0,0,0.06172839506172839,32.03703703703703,0)" xlink:href="#aq"/><use transform="matrix(0.06172839506172839,0,0,0.06172839506172839,43.14814814814814,0)" xlink:href="#at"/><use transform="matrix(0.06172839506172839,0,0,0.06172839506172839,49.32098765432098,0)" xlink:href="#as"/><use transform="matrix(0.06172839506172839,0,0,0.06172839506172839,54.197530864197525,0)" xlink:href="#ad"/><use transform="matrix(0.06172839506172839,0,0,0.06172839506172839,65.30864197530863,0)" xlink:href="#aq"/><use transform="matrix(0.06172839506172839,0,0,0.06172839506172839,76.41975308641975,0)" xlink:href="#ab"/><use transform="matrix(0.06172839506172839,0,0,0.06172839506172839,88.76543209876543,0)" xlink:href="#Z"/><use transform="matrix(0.06172839506172839,0,0,0.06172839506172839,101.11111111111111,0)" xlink:href="#aa"/><use transform="matrix(0.06172839506172839,0,0,0.06172839506172839,108.4567901234568,0)" xlink:href="#ad"/><use transform="matrix(0.06172839506172839,0,0,0.06172839506172839,119.56790123456791,0)" xlink:href="#ar"/></g><path fill="#3a414a" d="M33 0v-248h34V0H33" id="aR"/><path fill="#3a414a" d="M115-194c53 0 69 39 70 98 0 66-23 100-70 100C84 3 66-7 56-30L54 0H23l1-261h32v101c10-23 28-34 59-34zm-8 174c40 0 45-34 45-75 0-40-5-75-45-74-42 0-51 32-51 76 0 43 10 73 51 73" id="aS"/><g id="p"><use transform="matrix(0.06172839506172839,0,0,0.06172839506172839,0,0)" xlink:href="#aR"/><use transform="matrix(0.06172839506172839,0,0,0.06172839506172839,6.172839506172839,0)" xlink:href="#ad"/><use transform="matrix(0.06172839506172839,0,0,0.06172839506172839,17.28395061728395,0)" xlink:href="#ab"/><use transform="matrix(0.06172839506172839,0,0,0.06172839506172839,29.629629629629626,0)" xlink:href="#aS"/><use transform="matrix(0.06172839506172839,0,0,0.06172839506172839,41.9753086419753,0)" xlink:href="#Z"/><use transform="matrix(0.06172839506172839,0,0,0.06172839506172839,54.32098765432098,0)" xlink:href="#aq"/><use transform="matrix(0.06172839506172839,0,0,0.06172839506172839,65.43209876543209,0)" xlink:href="#ab"/></g><g id="q"><use transform="matrix(0.06172839506172839,0,0,0.06172839506172839,0,0)" xlink:href="#X"/><use transform="matrix(0.06172839506172839,0,0,0.06172839506172839,13.518518518518517,0)" xlink:href="#Z"/><use transform="matrix(0.06172839506172839,0,0,0.06172839506172839,25.864197530864196,0)" xlink:href="#aq"/><use transform="matrix(0.06172839506172839,0,0,0.06172839506172839,36.9753086419753,0)" xlink:href="#at"/><use transform="matrix(0.06172839506172839,0,0,0.06172839506172839,43.148148148148145,0)" xlink:href="#aS"/><use transform="matrix(0.06172839506172839,0,0,0.06172839506172839,55.49382716049382,0)" xlink:href="#Z"/><use transform="matrix(0.06172839506172839,0,0,0.06172839506172839,67.8395061728395,0)" xlink:href="#aq"/><use transform="matrix(0.06172839506172839,0,0,0.06172839506172839,78.95061728395062,0)" xlink:href="#ab"/></g><path fill="#3a414a" d="M140-251c80 0 125 45 125 126S219 4 139 4C58 4 15-44 15-125s44-126 125-126zm-1 214c52 0 73-35 73-88 0-50-21-86-72-86-52 0-73 35-73 86s22 88 72 88" id="aT"/><path fill="#3a414a" d="M25-224v-37h50v37H25zM75 22c2 45-34 59-81 51V38c22 5 31-5 31-27v-201h50V22" id="aU"/><path fill="#3a414a" d="M190-63c-7 42-38 67-86 67-59 0-84-38-90-98-12-110 154-137 174-36l-49 2c-2-19-15-32-35-32-30 0-35 28-38 64-6 74 65 87 74 30" id="aV"/><g id="r"><use transform="matrix(0.061728395061728385,0,0,0.061728395061728385,0,0)" xlink:href="#aT"/><use transform="matrix(0.061728395061728385,0,0,0.061728395061728385,17.28395061728395,0)" xlink:href="#aJ"/><use transform="matrix(0.061728395061728385,0,0,0.061728395061728385,30.802469135802465,0)" xlink:href="#aU"/><use transform="matrix(0.061728395061728385,0,0,0.061728395061728385,36.9753086419753,0)" xlink:href="#aB"/><use transform="matrix(0.061728395061728385,0,0,0.061728395061728385,49.32098765432098,0)" xlink:href="#aV"/><use transform="matrix(0.061728395061728385,0,0,0.061728395061728385,61.66666666666666,0)" xlink:href="#aE"/></g><path fill="#3a414a" d="M135-150c-39-12-60 13-60 57V0H25l-1-190h47c2 13-1 29 3 40 6-28 27-53 61-41v41" id="aW"/><path fill="#3a414a" d="M195-6C206 82 75 100 31 46c-4-6-6-13-8-21l49-6c3 16 16 24 34 25 40 0 42-37 40-79-11 22-30 35-61 35-53 0-70-43-70-97 0-56 18-96 73-97 30 0 46 14 59 34l2-30h47zm-90-29c32 0 41-27 41-63 0-35-9-62-40-62-32 0-39 29-40 63 0 36 9 62 39 62" id="aX"/><g id="s"><use transform="matrix(0.061728395061728385,0,0,0.061728395061728385,0,0)" xlink:href="#aN"/><use transform="matrix(0.061728395061728385,0,0,0.061728395061728385,14.814814814814813,0)" xlink:href="#aE"/><use transform="matrix(0.061728395061728385,0,0,0.061728395061728385,22.16049382716049,0)" xlink:href="#aG"/><use transform="matrix(0.061728395061728385,0,0,0.061728395061728385,35.679012345679006,0)" xlink:href="#aW"/><use transform="matrix(0.061728395061728385,0,0,0.061728395061728385,44.32098765432098,0)" xlink:href="#aD"/><use transform="matrix(0.061728395061728385,0,0,0.061728395061728385,56.66666666666666,0)" xlink:href="#aX"/><use transform="matrix(0.061728395061728385,0,0,0.061728395061728385,70.18518518518518,0)" xlink:href="#aB"/></g><g id="t"><use transform="matrix(0.061728395061728385,0,0,0.061728395061728385,0,0)" xlink:href="#aI"/><use transform="matrix(0.061728395061728385,0,0,0.061728395061728385,15.987654320987652,0)" xlink:href="#aB"/><use transform="matrix(0.061728395061728385,0,0,0.061728395061728385,28.33333333333333,0)" xlink:href="#aL"/><use transform="matrix(0.061728395061728385,0,0,0.061728395061728385,41.85185185185185,0)" xlink:href="#aG"/><use transform="matrix(0.061728395061728385,0,0,0.061728395061728385,55.37037037037037,0)" xlink:href="#aE"/><use transform="matrix(0.061728395061728385,0,0,0.061728395061728385,62.716049382716044,0)" xlink:href="#aK"/></g><path fill="#3a414a" d="M230 0l2-204L168 0h-37L68-204 70 0H24v-248h70l56 185 57-185h69V0h-46" id="aY"/><path fill="#3a414a" d="M88-194c31-1 46 15 58 34l-1-101h50l1 261h-48c-2-10 0-23-3-31C134-8 116 4 84 4 32 4 16-41 15-95c0-56 19-97 73-99zm17 164c33 0 40-30 41-66 1-37-9-64-41-64s-38 30-39 65c0 43 13 65 39 65" id="aZ"/><g id="u"><use transform="matrix(0.061728395061728385,0,0,0.061728395061728385,0,0)" xlink:href="#aY"/><use transform="matrix(0.061728395061728385,0,0,0.061728395061728385,18.456790123456788,0)" xlink:href="#aD"/><use transform="matrix(0.061728395061728385,0,0,0.061728395061728385,30.802469135802465,0)" xlink:href="#aH"/><use transform="matrix(0.061728395061728385,0,0,0.061728395061728385,44.32098765432098,0)" xlink:href="#aD"/><use transform="matrix(0.061728395061728385,0,0,0.061728395061728385,56.66666666666666,0)" xlink:href="#aX"/><use transform="matrix(0.061728395061728385,0,0,0.061728395061728385,70.18518518518518,0)" xlink:href="#aB"/><use transform="matrix(0.061728395061728385,0,0,0.061728395061728385,82.53086419753086,0)" xlink:href="#aZ"/></g><g id="v"><use transform="matrix(0.061728395061728385,0,0,0.061728395061728385,0,0)" xlink:href="#aI"/><use transform="matrix(0.061728395061728385,0,0,0.061728395061728385,15.987654320987652,0)" xlink:href="#aB"/><use transform="matrix(0.061728395061728385,0,0,0.061728395061728385,28.33333333333333,0)" xlink:href="#aL"/><use transform="matrix(0.061728395061728385,0,0,0.061728395061728385,41.85185185185185,0)" xlink:href="#aG"/><use transform="matrix(0.061728395061728385,0,0,0.061728395061728385,55.37037037037037,0)" xlink:href="#aE"/><use transform="matrix(0.061728395061728385,0,0,0.061728395061728385,62.716049382716044,0)" xlink:href="#aK"/></g><path fill="#3a414a" d="M108 0H70L1-190h34L89-25l56-165h34" id="ba"/><g id="w"><use transform="matrix(0.06172839506172839,0,0,0.06172839506172839,0,0)" xlink:href="#aQ"/><use transform="matrix(0.06172839506172839,0,0,0.06172839506172839,14.814814814814813,0)" xlink:href="#ba"/><use transform="matrix(0.06172839506172839,0,0,0.06172839506172839,25.925925925925924,0)" xlink:href="#ab"/><use transform="matrix(0.06172839506172839,0,0,0.06172839506172839,38.2716049382716,0)" xlink:href="#aj"/><use transform="matrix(0.06172839506172839,0,0,0.06172839506172839,50.61728395061728,0)" xlink:href="#at"/><use transform="matrix(0.06172839506172839,0,0,0.06172839506172839,56.79012345679012,0)" xlink:href="#ar"/><use transform="matrix(0.06172839506172839,0,0,0.06172839506172839,69.1358024691358,0)" xlink:href="#az"/><use transform="matrix(0.06172839506172839,0,0,0.06172839506172839,81.48148148148148,0)" xlink:href="#aS"/></g><path fill="#3a414a" d="M194 0L95-120 63-95V0H30v-248h33v124l119-124h40L117-140 236 0h-42" id="bb"/><g id="x"><use transform="matrix(0.06172839506172839,0,0,0.06172839506172839,0,0)" xlink:href="#bb"/><use transform="matrix(0.06172839506172839,0,0,0.06172839506172839,14.814814814814813,0)" xlink:href="#Z"/><use transform="matrix(0.06172839506172839,0,0,0.06172839506172839,27.160493827160494,0)" xlink:href="#am"/><use transform="matrix(0.06172839506172839,0,0,0.06172839506172839,33.333333333333336,0)" xlink:href="#an"/><use transform="matrix(0.06172839506172839,0,0,0.06172839506172839,44.44444444444444,0)" xlink:href="#Z"/></g><path fill="#3a414a" d="M220-157c-53 9-28 100-34 157h-49v-107c1-27-5-49-29-50C55-147 81-57 75 0H25l-1-190h47c2 12-1 28 3 38 10-53 101-56 108 0 13-22 24-43 59-42 82 1 51 116 57 194h-49v-107c-1-25-5-48-29-50" id="bc"/><g id="y"><use transform="matrix(0.061728395061728385,0,0,0.061728395061728385,0,0)" xlink:href="#aN"/><use transform="matrix(0.061728395061728385,0,0,0.061728395061728385,14.814814814814813,0)" xlink:href="#aE"/><use transform="matrix(0.061728395061728385,0,0,0.061728395061728385,22.16049382716049,0)" xlink:href="#aW"/><use transform="matrix(0.061728395061728385,0,0,0.061728395061728385,30.802469135802465,0)" xlink:href="#aB"/><use transform="matrix(0.061728395061728385,0,0,0.061728395061728385,43.14814814814814,0)" xlink:href="#aD"/><use transform="matrix(0.061728395061728385,0,0,0.061728395061728385,55.493827160493815,0)" xlink:href="#bc"/><use transform="matrix(0.061728395061728385,0,0,0.061728395061728385,75.2469135802469,0)" xlink:href="#aF"/><use transform="matrix(0.061728395061728385,0,0,0.061728395061728385,81.41975308641973,0)" xlink:href="#aH"/><use transform="matrix(0.061728395061728385,0,0,0.061728395061728385,94.93827160493825,0)" xlink:href="#aX"/></g><g id="z"><use transform="matrix(0.061728395061728385,0,0,0.061728395061728385,0,0)" xlink:href="#aI"/><use transform="matrix(0.061728395061728385,0,0,0.061728395061728385,15.987654320987652,0)" xlink:href="#aB"/><use transform="matrix(0.061728395061728385,0,0,0.061728395061728385,28.33333333333333,0)" xlink:href="#aL"/><use transform="matrix(0.061728395061728385,0,0,0.061728395061728385,41.85185185185185,0)" xlink:href="#aG"/><use transform="matrix(0.061728395061728385,0,0,0.061728395061728385,55.37037037037037,0)" xlink:href="#aE"/><use transform="matrix(0.061728395061728385,0,0,0.061728395061728385,62.716049382716044,0)" xlink:href="#aK"/></g><g id="A"><use transform="matrix(0.06172839506172839,0,0,0.06172839506172839,0,0)" xlink:href="#av"/><use transform="matrix(0.06172839506172839,0,0,0.06172839506172839,14.814814814814813,0)" xlink:href="#Z"/><use transform="matrix(0.06172839506172839,0,0,0.06172839506172839,27.160493827160494,0)" xlink:href="#aa"/><use transform="matrix(0.06172839506172839,0,0,0.06172839506172839,34.50617283950617,0)" xlink:href="#ay"/><use transform="matrix(0.06172839506172839,0,0,0.06172839506172839,46.85185185185185,0)" xlink:href="#az"/><use transform="matrix(0.06172839506172839,0,0,0.06172839506172839,59.197530864197525,0)" xlink:href="#ab"/><use transform="matrix(0.06172839506172839,0,0,0.06172839506172839,71.5432098765432,0)" xlink:href="#at"/></g><path fill="#3a414a" d="M205 0l-28-72H64L36 0H1l101-248h38L239 0h-34zm-38-99l-47-123c-12 45-31 82-46 123h93" id="bd"/><path fill="#3a414a" d="M137 0h-34L2-248h35l83 218 83-218h36" id="be"/><g id="B"><use transform="matrix(0.06172839506172839,0,0,0.06172839506172839,0,0)" xlink:href="#bd"/><use transform="matrix(0.06172839506172839,0,0,0.06172839506172839,13.148148148148147,0)" xlink:href="#be"/><use transform="matrix(0.06172839506172839,0,0,0.06172839506172839,27.962962962962962,0)" xlink:href="#ao"/><use transform="matrix(0.06172839506172839,0,0,0.06172839506172839,43.95061728395061,0)" xlink:href="#ac"/></g><path fill="#3a414a" d="M212-179c-10-28-35-45-73-45-59 0-87 40-87 99 0 60 29 101 89 101 43 0 62-24 78-52l27 14C228-24 195 4 139 4 59 4 22-46 18-125c-6-104 99-153 187-111 19 9 31 26 39 46" id="bf"/><g id="C"><use transform="matrix(0.06172839506172839,0,0,0.06172839506172839,0,0)" xlink:href="#bf"/><use transform="matrix(0.06172839506172839,0,0,0.06172839506172839,15.987654320987653,0)" xlink:href="#af"/><use transform="matrix(0.06172839506172839,0,0,0.06172839506172839,30.80246913580247,0)" xlink:href="#be"/></g><path fill="#3a414a" d="M153-248C145-148 188 4 80 4 36 3 13-21 6-62l32-5c4 25 16 42 43 43 27 0 39-20 39-49v-147H72v-28h81" id="bg"/><path fill="#3a414a" d="M190 0L58-211 59 0H30v-248h39L202-35l-2-213h31V0h-41" id="bh"/><g id="D"><use transform="matrix(0.06172839506172839,0,0,0.06172839506172839,0,0)" xlink:href="#bg"/><use transform="matrix(0.06172839506172839,0,0,0.06172839506172839,11.11111111111111,0)" xlink:href="#af"/><use transform="matrix(0.06172839506172839,0,0,0.06172839506172839,25.925925925925924,0)" xlink:href="#ac"/><use transform="matrix(0.06172839506172839,0,0,0.06172839506172839,43.20987654320987,0)" xlink:href="#bh"/></g><path fill="#3a414a" d="M195 0l-74-108L45 0H8l94-129-87-119h37l69 98 67-98h37l-84 118L233 0h-38" id="bi"/><g id="E"><use transform="matrix(0.06172839506172839,0,0,0.06172839506172839,0,0)" xlink:href="#bi"/><use transform="matrix(0.06172839506172839,0,0,0.06172839506172839,14.814814814814813,0)" xlink:href="#ai"/><use transform="matrix(0.06172839506172839,0,0,0.06172839506172839,27.160493827160494,0)" xlink:href="#af"/><use transform="matrix(0.06172839506172839,0,0,0.06172839506172839,41.9753086419753,0)" xlink:href="#bi"/></g><g id="F"><use transform="matrix(0.06172839506172839,0,0,0.06172839506172839,0,0)" xlink:href="#ac"/><use transform="matrix(0.06172839506172839,0,0,0.06172839506172839,17.28395061728395,0)" xlink:href="#ao"/><use transform="matrix(0.06172839506172839,0,0,0.06172839506172839,33.2716049382716,0)" xlink:href="#bf"/></g><path fill="#3a414a" d="M127-220V0H93v-220H8v-28h204v28h-85" id="bj"/><path fill="#3a414a" d="M141 0L90-78 38 0H4l68-98-65-92h35l48 74 47-74h35l-64 92 68 98h-35" id="bk"/><g id="G"><use transform="matrix(0.06172839506172839,0,0,0.06172839506172839,0,0)" xlink:href="#bj"/><use transform="matrix(0.06172839506172839,0,0,0.06172839506172839,11.049382716049381,0)" xlink:href="#ab"/><use transform="matrix(0.06172839506172839,0,0,0.06172839506172839,23.39506172839506,0)" xlink:href="#bk"/><use transform="matrix(0.06172839506172839,0,0,0.06172839506172839,34.50617283950617,0)" xlink:href="#at"/></g><g id="H"><use transform="matrix(0.06172839506172839,0,0,0.06172839506172839,0,0)" xlink:href="#bi"/><use transform="matrix(0.06172839506172839,0,0,0.06172839506172839,14.814814814814813,0)" xlink:href="#ae"/><use transform="matrix(0.06172839506172839,0,0,0.06172839506172839,33.2716049382716,0)" xlink:href="#ai"/></g><path fill="#3a414a" d="M85 4C-2 5 27-109 22-190h50c7 57-23 150 33 157 60-5 35-97 40-157h50l1 190h-47c-2-12 1-28-3-38-12 25-28 42-61 42" id="bl"/><g id="I"><use transform="matrix(0.06172839506172839,0,0,0.06172839506172839,0,0)" xlink:href="#aN"/><use transform="matrix(0.06172839506172839,0,0,0.06172839506172839,14.814814814814813,0)" xlink:href="#bl"/><use transform="matrix(0.06172839506172839,0,0,0.06172839506172839,28.33333333333333,0)" xlink:href="#aL"/><use transform="matrix(0.06172839506172839,0,0,0.06172839506172839,41.85185185185185,0)" xlink:href="#aL"/><use transform="matrix(0.06172839506172839,0,0,0.06172839506172839,55.37037037037037,0)" xlink:href="#aG"/><use transform="matrix(0.06172839506172839,0,0,0.06172839506172839,68.88888888888889,0)" xlink:href="#aW"/><use transform="matrix(0.06172839506172839,0,0,0.06172839506172839,77.53086419753086,0)" xlink:href="#aE"/><use transform="matrix(0.06172839506172839,0,0,0.06172839506172839,84.87654320987654,0)" xlink:href="#aB"/><use transform="matrix(0.06172839506172839,0,0,0.06172839506172839,97.22222222222223,0)" xlink:href="#aZ"/></g><path fill="#3a414a" d="M76-208v77h127v40H76V0H24v-248h183v40H76" id="bm"/><g id="J"><use transform="matrix(0.06172839506172839,0,0,0.06172839506172839,0,0)" xlink:href="#bm"/><use transform="matrix(0.06172839506172839,0,0,0.06172839506172839,13.518518518518517,0)" xlink:href="#aF"/><use transform="matrix(0.06172839506172839,0,0,0.06172839506172839,19.691358024691358,0)" xlink:href="#aC"/><use transform="matrix(0.06172839506172839,0,0,0.06172839506172839,25.864197530864196,0)" xlink:href="#aB"/></g><g id="K"><use transform="matrix(0.06172839506172839,0,0,0.06172839506172839,0,0)" xlink:href="#bm"/><use transform="matrix(0.06172839506172839,0,0,0.06172839506172839,13.518518518518517,0)" xlink:href="#aG"/><use transform="matrix(0.06172839506172839,0,0,0.06172839506172839,27.037037037037035,0)" xlink:href="#aW"/><use transform="matrix(0.06172839506172839,0,0,0.06172839506172839,35.67901234567901,0)" xlink:href="#bc"/><use transform="matrix(0.06172839506172839,0,0,0.06172839506172839,55.4320987654321,0)" xlink:href="#aD"/><use transform="matrix(0.06172839506172839,0,0,0.06172839506172839,67.77777777777779,0)" xlink:href="#aE"/><use transform="matrix(0.06172839506172839,0,0,0.06172839506172839,75.12345679012347,0)" xlink:href="#aK"/></g><path fill="#3a414a" d="M210-169c-67 3-38 105-44 169h-31v-121c0-29-5-50-35-48C34-165 62-65 56 0H25l-1-190h30c1 10-1 24 2 32 10-44 99-50 107 0 11-21 27-35 58-36 85-2 47 119 55 194h-31v-121c0-29-5-49-35-48" id="bn"/><path fill="#3a414a" d="M9 0v-24l116-142H16v-24h144v24L44-24h123V0H9" id="bo"/><g id="L"><use transform="matrix(0.061728395061728385,0,0,0.061728395061728385,0,0)" xlink:href="#bd"/><use transform="matrix(0.061728395061728385,0,0,0.061728395061728385,14.814814814814813,0)" xlink:href="#bn"/><use transform="matrix(0.061728395061728385,0,0,0.061728395061728385,33.2716049382716,0)" xlink:href="#Z"/><use transform="matrix(0.061728395061728385,0,0,0.061728395061728385,45.61728395061728,0)" xlink:href="#bo"/><use transform="matrix(0.061728395061728385,0,0,0.061728395061728385,56.728395061728385,0)" xlink:href="#ak"/><use transform="matrix(0.061728395061728385,0,0,0.061728395061728385,69.07407407407406,0)" xlink:href="#aj"/></g><path fill="#3a414a" d="M126-127c33 6 58 20 58 59 0 88-139 92-164 29-3-8-5-16-6-25l32-3c6 27 21 44 54 44 32 0 52-15 52-46 0-38-36-46-79-43v-28c39 1 72-4 72-42 0-27-17-43-46-43-28 0-47 15-49 41l-32-3c6-42 35-63 81-64 48-1 79 21 79 65 0 36-21 52-52 59" id="bp"/><g id="M"><use transform="matrix(0.061728395061728385,0,0,0.061728395061728385,0,0)" xlink:href="#af"/><use transform="matrix(0.061728395061728385,0,0,0.061728395061728385,14.814814814814813,0)" xlink:href="#bp"/></g><g id="N"><use transform="matrix(0.061728395061728385,0,0,0.061728395061728385,0,0)" xlink:href="#bd"/><use transform="matrix(0.061728395061728385,0,0,0.061728395061728385,14.814814814814813,0)" xlink:href="#bo"/><use transform="matrix(0.061728395061728385,0,0,0.061728395061728385,25.925925925925924,0)" xlink:href="#az"/><use transform="matrix(0.061728395061728385,0,0,0.061728395061728385,38.2716049382716,0)" xlink:href="#aa"/><use transform="matrix(0.061728395061728385,0,0,0.061728395061728385,45.61728395061728,0)" xlink:href="#ab"/></g><g id="O"><use transform="matrix(0.061728395061728385,0,0,0.061728395061728385,0,0)" xlink:href="#ax"/><use transform="matrix(0.061728395061728385,0,0,0.061728395061728385,14.814814814814813,0)" xlink:href="#Y"/><use transform="matrix(0.061728395061728385,0,0,0.061728395061728385,19.691358024691354,0)" xlink:href="#ak"/><use transform="matrix(0.061728395061728385,0,0,0.061728395061728385,32.03703703703703,0)" xlink:href="#aS"/></g><g id="P"><use transform="matrix(0.061728395061728385,0,0,0.061728395061728385,0,0)" xlink:href="#X"/><use transform="matrix(0.061728395061728385,0,0,0.061728395061728385,13.518518518518515,0)" xlink:href="#as"/><use transform="matrix(0.061728395061728385,0,0,0.061728395061728385,18.395061728395056,0)" xlink:href="#Y"/><use transform="matrix(0.061728395061728385,0,0,0.061728395061728385,23.2716049382716,0)" xlink:href="#ab"/></g><g id="Q"><use transform="matrix(0.061728395061728385,0,0,0.061728395061728385,0,0)" xlink:href="#af"/><use transform="matrix(0.061728395061728385,0,0,0.061728395061728385,14.814814814814813,0)" xlink:href="#au"/><use transform="matrix(0.061728395061728385,0,0,0.061728395061728385,25.925925925925924,0)" xlink:href="#aq"/><use transform="matrix(0.061728395061728385,0,0,0.061728395061728385,37.03703703703703,0)" xlink:href="#at"/><use transform="matrix(0.061728395061728385,0,0,0.061728395061728385,43.20987654320987,0)" xlink:href="#ab"/><use transform="matrix(0.061728395061728385,0,0,0.061728395061728385,55.55555555555555,0)" xlink:href="#bn"/></g><path fill="#3a414a" d="M143 4C61 4 22-44 18-125c-5-107 100-154 193-111 17 8 29 25 37 43l-32 9c-13-25-37-40-76-40-61 0-88 39-88 99 0 61 29 100 91 101 35 0 62-11 79-27v-45h-74v-28h105v86C228-13 192 4 143 4" id="bq"/><g id="R"><use transform="matrix(0.061728395061728385,0,0,0.061728395061728385,0,0)" xlink:href="#bq"/><use transform="matrix(0.061728395061728385,0,0,0.061728395061728385,17.28395061728395,0)" xlink:href="#ak"/><use transform="matrix(0.061728395061728385,0,0,0.061728395061728385,29.629629629629626,0)" xlink:href="#ak"/><use transform="matrix(0.061728395061728385,0,0,0.061728395061728385,41.9753086419753,0)" xlink:href="#aw"/><use transform="matrix(0.061728395061728385,0,0,0.061728395061728385,54.32098765432098,0)" xlink:href="#Y"/><use transform="matrix(0.061728395061728385,0,0,0.061728395061728385,59.197530864197525,0)" xlink:href="#ab"/></g><g id="S"><use transform="matrix(0.061728395061728385,0,0,0.061728395061728385,0,0)" xlink:href="#bf"/><use transform="matrix(0.061728395061728385,0,0,0.061728395061728385,15.987654320987652,0)" xlink:href="#Y"/><use transform="matrix(0.061728395061728385,0,0,0.061728395061728385,20.864197530864196,0)" xlink:href="#ak"/><use transform="matrix(0.061728395061728385,0,0,0.061728395061728385,33.20987654320987,0)" xlink:href="#az"/><use transform="matrix(0.061728395061728385,0,0,0.061728395061728385,45.55555555555555,0)" xlink:href="#ap"/></g><g id="T"><use transform="matrix(0.061728395061728385,0,0,0.061728395061728385,0,0)" xlink:href="#af"/><use transform="matrix(0.061728395061728385,0,0,0.061728395061728385,14.814814814814813,0)" xlink:href="#at"/><use transform="matrix(0.061728395061728385,0,0,0.061728395061728385,20.98765432098765,0)" xlink:href="#ak"/><use transform="matrix(0.061728395061728385,0,0,0.061728395061728385,33.33333333333333,0)" xlink:href="#aa"/><use transform="matrix(0.061728395061728385,0,0,0.061728395061728385,40.679012345679006,0)" xlink:href="#Z"/><use transform="matrix(0.061728395061728385,0,0,0.061728395061728385,53.02469135802468,0)" xlink:href="#aw"/><use transform="matrix(0.061728395061728385,0,0,0.061728395061728385,65.37037037037035,0)" xlink:href="#ab"/></g><path fill="#3a414a" d="M33 0v-38h34V0H33" id="br"/><g id="U"><use transform="matrix(0.061728395061728385,0,0,0.061728395061728385,0,0)" xlink:href="#ab"/><use transform="matrix(0.061728395061728385,0,0,0.061728395061728385,12.345679012345677,0)" xlink:href="#at"/><use transform="matrix(0.061728395061728385,0,0,0.061728395061728385,18.518518518518515,0)" xlink:href="#ad"/><use transform="matrix(0.061728395061728385,0,0,0.061728395061728385,29.629629629629626,0)" xlink:href="#br"/></g><path fill="#3a414a" d="M275 0h-61l-44-196L126 0H64L0-248h53L97-49l45-199h58l43 199 44-199h52" id="bs"/><path fill="#3a414a" d="M114-157C55-157 80-60 75 0H25v-261h50l-1 109c12-26 28-41 61-42 86-1 58 113 63 194h-50c-7-57 23-157-34-157" id="bt"/><g id="V"><use transform="matrix(0.061728395061728385,0,0,0.061728395061728385,0,0)" xlink:href="#bs"/><use transform="matrix(0.061728395061728385,0,0,0.061728395061728385,20.123456790123456,0)" xlink:href="#aD"/><use transform="matrix(0.061728395061728385,0,0,0.061728395061728385,32.46913580246913,0)" xlink:href="#aW"/><use transform="matrix(0.061728395061728385,0,0,0.061728395061728385,41.11111111111111,0)" xlink:href="#aB"/><use transform="matrix(0.061728395061728385,0,0,0.061728395061728385,53.456790123456784,0)" xlink:href="#bt"/><use transform="matrix(0.061728395061728385,0,0,0.061728395061728385,66.9753086419753,0)" xlink:href="#aG"/><use transform="matrix(0.061728395061728385,0,0,0.061728395061728385,80.49382716049382,0)" xlink:href="#bl"/><use transform="matrix(0.061728395061728385,0,0,0.061728395061728385,94.01234567901234,0)" xlink:href="#aK"/><use transform="matrix(0.061728395061728385,0,0,0.061728395061728385,106.35802469135803,0)" xlink:href="#aB"/></g><g id="W"><use transform="matrix(0.061728395061728385,0,0,0.061728395061728385,0,0)" xlink:href="#aI"/><use transform="matrix(0.061728395061728385,0,0,0.061728395061728385,15.987654320987652,0)" xlink:href="#aB"/><use transform="matrix(0.061728395061728385,0,0,0.061728395061728385,28.33333333333333,0)" xlink:href="#aL"/><use transform="matrix(0.061728395061728385,0,0,0.061728395061728385,41.85185185185185,0)" xlink:href="#aG"/><use transform="matrix(0.061728395061728385,0,0,0.061728395061728385,55.37037037037037,0)" xlink:href="#aE"/><use transform="matrix(0.061728395061728385,0,0,0.061728395061728385,62.716049382716044,0)" xlink:href="#aK"/></g></defs></g></svg>