<svg width="64" height="64" viewBox="0 0 64 64" fill="none" xmlns="http://www.w3.org/2000/svg">
<g clip-path="url(#clip0_186_127)">
<path d="M63.9201 31.96C63.9201 14.3421 49.578 0 31.96 0C14.3421 0 0 14.3421 0 31.96C0 42.8664 5.47316 52.4944 13.8227 58.2472V52.9338C13.8227 52.4544 14.0225 52.015 14.3421 51.6554C9.54806 47.3808 6.31211 41.4282 5.63296 34.7166H17.6579C17.8976 38.5918 18.6567 42.387 19.8951 46.1024L24.2896 41.7478C23.6904 39.4307 23.2909 37.0737 23.1311 34.7166H29.8027C29.4831 32.9188 29.4831 31.0412 29.8027 29.2434H23.171C23.7303 21.2934 26.6467 13.4232 32 6.91136C34.6767 10.1873 36.7541 13.7428 38.2322 17.5381C38.4719 17.4182 38.6717 17.2584 38.9114 17.1386C40.2697 16.4994 41.7478 15.9401 43.186 15.5805C41.9076 12.3845 40.3895 9.26841 38.3521 6.35206C45.0637 8.02996 50.7765 12.2247 54.372 17.9376C54.6916 18.377 54.9313 18.8964 55.171 19.3758C56.01 20.8939 56.6891 22.4919 57.2484 24.1698C61.2834 26.4469 64 32.04 64 32.04L63.9201 31.96ZM17.6579 29.2035H5.63296C6.79151 18.0175 14.9413 8.90886 25.608 6.27216C20.774 13.1835 18.1373 21.1336 17.6579 29.2035Z" fill="black"/>
<path d="M47.9527 35.9548C45.7516 35.9548 43.958 34.1341 43.9852 31.933C44.0124 29.7318 45.7787 27.9383 47.9799 27.9654C50.1811 27.9926 51.9746 29.7862 51.9474 31.9873C51.9203 34.1885 50.1539 35.982 47.9527 35.9548ZM47.9527 30.7373C47.2734 30.7373 46.7299 31.2808 46.7299 31.933C46.7299 32.5852 47.2734 33.1558 47.9527 33.1558C48.6321 33.1558 49.1756 32.6123 49.1756 31.933C49.1756 31.2536 48.6321 30.7101 47.9527 30.7101V30.7373Z" fill="black"/>
<path d="M20.3346 63.9201C17.8976 63.8801 16.1398 62.0824 16.1398 59.6454V53.0936C16.1398 52.5343 16.3795 52.015 16.779 51.6554L32.0799 36.4744C31.2809 33.3983 31.4407 30.0824 32.4794 27.0861C33.9176 23.0112 36.8739 19.7353 40.7491 17.8577C44.6642 15.98 49.0587 15.7403 53.1336 17.2185C61.563 20.2147 65.9975 29.4831 63.0412 37.8727C61.603 41.9476 58.6866 45.2235 54.7715 47.1011C51.2559 48.779 47.3808 49.1386 43.6255 48.1398L41.4282 50.2971C41.0287 50.6966 40.5094 50.8964 39.99 50.8964H37.6729V55.3708C37.6729 56.4894 36.7541 57.4082 35.6355 57.4082H31.161V61.8826C31.161 63.0012 30.2422 63.9201 29.1236 63.9201H20.3346ZM20.2147 53.9725V59.6454L27.0062 59.7653V55.2909C27.0062 54.1723 27.9251 53.2534 29.0836 53.2534H33.558V48.779C33.558 47.6604 34.4769 46.7416 35.5955 46.7416H39.1111L41.588 44.3046C42.1473 43.7453 42.9463 43.5855 43.7054 43.8252C46.7416 44.9039 50.0574 44.7441 52.9738 43.3458C55.8901 41.9476 58.0874 39.5106 59.166 36.4345C61.3633 30.1223 58.0474 23.211 51.7753 20.9738C48.7391 19.8951 45.4232 20.0549 42.5069 21.4532C39.5905 22.8514 37.3933 25.2884 36.3146 28.3645C35.3958 30.9213 35.3958 33.7578 36.3146 36.3546C36.5543 37.1136 36.3945 37.9126 35.8352 38.4719L20.2547 53.9326L20.2147 53.9725Z" fill="black"/>
</g>
<defs>
<clipPath id="clip0_186_127">
<rect width="64" height="64" fill="white"/>
</clipPath>
</defs>
</svg>
