<svg xmlns="http://www.w3.org/2000/svg" xmlns:xlink="http://www.w3.org/1999/xlink" xmlns:lucid="lucid" width="2018" height="587"><g transform="translate(0 -225)" lucid:page-tab-id="0_0"><path d="M0 0h3677.73v1322.83H0z" fill="#fff"/><path d="M1420 287a6 6 0 0 1 6-6h528a6 6 0 0 1 6 6v467a6 6 0 0 1-6 6h-528a6 6 0 0 1-6-6z" fill-opacity="0"/><path d="M1437.08 281.07h8.02m8 0h8.03m8 0h8.02m8.02 0h8m8.03 0h8m8.02 0h8.02m8 0h8.03m8 0h8.03m8-.02h8.02m8.02 0h8m8.03 0h8m8.03 0h8m8.02 0h8.02m8 0h8.03m8 0h8.03m8 0h8.02m8.02 0h8m8.03-.02h8m8.02 0h8m8.02 0h8.02m8 0h8.03m8 0h8.02m8 0h8.02m8.02 0h8m8.03 0h8m8.02 0h8m8.02-.02h8.02m8 0h8.02m8.02 0h8m8.03 0h8.02m8.02 0h8m8.02 0h8.02m8 0h4.02l.94.07.9.22.88.35.8.5.72.6.6.72.5.8.37.88.23.9v4.05m0 8.06v8.07m0 8.07v8.07m0 8.06v8.07m0 8.07v8.07m0 8.07v8.07m0 8.07v8.07m0 8.08v8.07m.02 8.06v8.08m0 8.07v8.07m0 8.07v8.05m0 8.07v8.07m0 8.06v8.07m0 8.06v8.06m0 8.07V516m0 8.06v8.07m.02 8.07v8.07m0 8.07v8.06m0 8.07v8.07m0 8.07v8.08m0 8.06v8.07m0 8.08v8.07m0 8.07v8.06m0 8.07l.02 8.07m0 8.07v8.05m0 8.07v8.07m0 8.06v8.07m0 8.06v8.06m0 8.07v8.07m0 8.07V754l-.07.94-.22.9-.35.88-.5.8-.6.72-.72.6-.8.5-.88.37-.9.23h-4.02m-8 0h-8.03m-8 0h-8.03m-8 0h-8.02m-8.02 0h-8m-8.03 0h-8m-8.02 0h-8.02m-8 0h-8.03m-8 0h-8.03m-8 .02h-8.02m-8.02 0h-8m-8.03 0h-8m-8.03 0h-8m-8.02 0h-8.02m-8 0h-8.03m-8 0h-8.03m-8 0h-8.02m-8.02 0h-8m-8.03.02h-8m-8.02 0h-8m-8.02 0h-8.02m-8 0h-8.03m-8 0h-8.02m-8 0h-8.02m-8.02 0h-8m-8.03 0h-8m-8.02 0h-8m-8.02.02h-8.02m-8 0h-8.02m-8.02 0h-8m-8.03 0h-8.02m-8.02 0h-8m-8.02 0h-8.02m-8 0H1426l-.94-.07-.9-.22-.88-.35-.8-.5-.72-.6-.6-.72-.5-.8-.37-.88-.23-.9v-4.05m0-8.06v-8.07m0-8.07v-8.07m0-8.06v-8.07m0-8.07v-8.07m0-8.07v-8.07m0-8.07v-8.07m0-8.08v-8.07m-.02-8.06v-8.08m0-8.07v-8.07m0-8.07v-8.05m0-8.07v-8.07m0-8.06v-8.07m0-8.06v-8.06m0-8.07V525m0-8.06v-8.07m-.02-8.07v-8.07m0-8.07v-8.06m0-8.07v-8.07m0-8.07v-8.08m0-8.06v-8.07m0-8.08v-8.07m0-8.07v-8.06m0-8.07l-.02-8.07m0-8.07v-8.05m0-8.07v-8.07m0-8.06v-8.07m0-8.06v-8.06m0-8.07v-8.07m0-8.07V287l.07-.94.22-.9.35-.88.5-.8.6-.72.72-.6.8-.5.88-.37.9-.23h4.02" stroke="#3a414a" stroke-width="2" fill="none"/><path d="M686.23 287a6 6 0 0 1 6-6H1294a6 6 0 0 1 6 6v467a6 6 0 0 1-6 6H692.23a6 6 0 0 1-6-6z" fill-opacity="0"/><path d="M703.2 281.07h7.92m7.93 0h7.93m7.93 0h7.94m7.93 0h7.93m7.93 0h7.93m7.93 0h7.92m7.93 0h7.93m7.93 0h7.94m7.93 0H838m7.93-.02h7.93m7.94 0h7.93m7.93 0h7.93m7.92 0h7.93m7.93 0h7.93m7.94 0h7.93m7.93 0h7.93m7.93 0h7.93m7.92 0h7.93m7.93 0h7.93m7.94 0l7.93-.02m7.93 0h7.93m7.93 0h7.93m7.92 0h7.93m7.93 0h7.94m7.93 0h7.93m7.93 0h7.94m7.93 0h7.93m7.93 0h7.93m7.93 0h7.92m7.93 0h7.93m7.93-.02h7.94m7.93 0h7.93m7.93 0h7.93m7.93 0h7.92m7.93 0h7.93m7.93 0h7.94m7.93 0h7.93m7.93 0h3.97l.94.07.9.22.88.35.8.5.72.6.6.72.5.8.37.88.23.9v4.05m0 8.06v8.07m0 8.07v8.07m0 8.06v8.07m0 8.07v8.07m0 8.07v8.07m0 8.07v8.07m0 8.08v8.07m.02 8.06v8.08m0 8.07v8.07m0 8.07v8.05m0 8.07v8.07m0 8.06v8.07m0 8.06v8.06m0 8.07V516m0 8.06v8.07m.02 8.07v8.07m0 8.07v8.06m0 8.07v8.07m0 8.07v8.08m0 8.06v8.07m0 8.08v8.07m0 8.07v8.06m0 8.07l.02 8.07m0 8.07v8.05m0 8.07v8.07m0 8.06v8.07m0 8.06v8.06m0 8.07v8.07m0 8.07V754l-.07.94-.22.9-.35.88-.5.8-.6.72-.72.6-.8.5-.88.37-.9.23h-3.98m-7.93 0h-7.93m-7.92 0h-7.93m-7.93 0h-7.93m-7.94 0h-7.93m-7.93 0h-7.93m-7.93 0h-7.93m-7.92 0h-7.93m-7.93 0h-7.93m-7.94 0h-7.93m-7.93.02h-7.93m-7.93 0h-7.93m-7.92 0h-7.94m-7.93 0h-7.92m-7.93 0h-7.93m-7.93 0h-7.94m-7.93 0h-7.93m-7.93 0h-7.93m-7.93 0h-7.92m-7.93 0h-7.93m-7.93 0l-7.94.02m-7.93 0h-7.93m-7.93 0h-7.93m-7.93 0h-7.92m-7.93 0h-7.93m-7.93 0h-7.94m-7.94 0h-7.93m-7.94 0h-7.93m-7.93 0h-7.93m-7.93 0H831m-7.92 0h-7.93m-7.93.02h-7.93m-7.94 0h-7.93m-7.93 0h-7.93m-7.93 0h-7.93m-7.92 0h-7.93m-7.93 0H720m-7.94 0h-7.93m-7.93 0h-3.97l-.94-.07-.92-.22-.87-.35-.8-.5-.7-.6-.62-.72-.5-.8-.36-.88-.2-.9-.02-4.05m0-8.06v-8.07m0-8.07v-8.07m0-8.06v-8.07m0-8.07v-8.07m0-8.07v-8.07m0-8.07v-8.07m0-8.08v-8.07m0-8.06l-.02-8.08m0-8.07v-8.07m0-8.07v-8.05m0-8.07v-8.07m0-8.06v-8.07m0-8.06v-8.06m0-8.07V525m0-8.06v-8.07m-.02-8.07v-8.07m0-8.07v-8.06m0-8.07v-8.07m0-8.07v-8.08m0-8.06v-8.07m0-8.08v-8.07m0-8.07v-8.06m0-8.07v-8.07m-.02-8.07v-8.05m0-8.07v-8.07m0-8.06v-8.07m0-8.06v-8.06m0-8.07v-8.07m0-8.07V287l.06-.94.22-.9.37-.88.48-.8.6-.72.72-.6.8-.5.88-.37.9-.23h3.98" stroke="#3a414a" stroke-width="2" fill="none"/><path d="M40.46 287a6 6 0 0 1 6-6h548a6 6 0 0 1 6 6v467a6 6 0 0 1-6 6h-548a6 6 0 0 1-6-6z" fill-opacity="0"/><path d="M57.63 281.07h8.08m8.08 0h8.07m8.07 0H98m8.07 0h8.07m8.07 0h8.1m8.06 0h8.07m8.07 0h8.08m8.07 0h8.07m8.07-.02h8.07m8.07 0H211m8.08 0h8.08m8.07 0h8.07m8.08 0h8.07m8.07 0h8.07m8.07 0h8.07m8.07 0h8.08m8.08 0h8.07m8.07 0l8.07-.02m8.08 0h8.07m8.07 0h8.06m8.08 0h8.07m8.08 0h8.08m8.07 0h8.07m8.07 0h8.08m8.07 0h8.07m8.06 0h8.08m8.07 0l8.08-.02m8.07 0h8.08m8.07 0h8.07m8.07 0h8.08m8.07 0h8.06m8.08 0h8.07m8.08 0h8.07m8.08 0h4.03l.94.07.92.22.87.35.8.5.7.6.62.72.5.8.35.88.22.9v4.05m0 8.06v8.07m0 8.07v8.07m0 8.06v8.07m0 8.07v8.07m0 8.07v8.07m0 8.07v8.07m0 8.08v8.07m0 8.06v8.08m0 8.07v8.07m0 8.07v8.05m.02 8.07v8.07m0 8.06v8.07m0 8.06v8.06m0 8.07V516m0 8.06v8.07m0 8.07v8.07m0 8.07v8.06m0 8.07v8.07m.02 8.07v8.08m0 8.06v8.07m0 8.08v8.07m0 8.07v8.06m0 8.07v8.07m0 8.07v8.05m0 8.07v8.07m0 8.06l.02 8.07m0 8.06v8.06m0 8.07v8.07m0 8.07V754l-.07.94-.23.9-.36.88-.48.8-.62.72-.7.6-.8.5-.88.37-.92.23h-4.04m-8.07 0h-8.08m-8.07 0h-8.08m-8.07 0h-8.07m-8.07 0h-8.08m-8.07 0h-8.06m-8.07 0h-8.08m-8.08 0h-8.07m-8.08 0h-8.07m-8.07.02h-8.07m-8.08 0h-8.07m-8.06 0h-8.07m-8.08 0h-8.08m-8.07 0h-8.07m-8.08 0h-8.07m-8.07 0h-8.07m-8.1 0h-8.06m-8.07 0h-8.07m-8.08 0l-8.07.02m-8.07 0h-8.08m-8.07 0h-8.07m-8.07 0h-8.1m-8.06 0h-8.07m-8.07 0h-8.08m-8.07 0h-8.07m-8.07 0h-8.07m-8.07 0h-8.07m-8.08 0l-8.08.02m-8.07 0h-8.07m-8.08 0h-8.07m-8.07 0H107m-8.07 0h-8.07m-8.07 0H74.7m-8.08 0h-8.07m-8.07 0h-4.04l-.94-.07-.9-.22-.88-.35-.8-.5-.72-.6-.6-.72-.5-.8-.36-.88-.22-.9v-4.05m0-8.06v-8.07m0-8.07v-8.07m0-8.06v-8.07m0-8.07v-8.07m-.02-8.07v-8.07m0-8.07v-8.07m0-8.08v-8.07m0-8.06v-8.08m0-8.07v-8.07m0-8.07v-8.05m0-8.07v-8.07m0-8.06l-.02-8.07m0-8.06v-8.06m0-8.07V525m0-8.06v-8.07m0-8.07v-8.07m0-8.07v-8.06m0-8.07v-8.07m0-8.07v-8.08m0-8.06l-.02-8.07m0-8.08v-8.07m0-8.07v-8.06m0-8.07v-8.07m0-8.07v-8.05m0-8.07v-8.07m0-8.06v-8.07m0-8.06v-8.06m0-8.07l-.02-8.07m0-8.07V287l.08-.94.22-.9.36-.88.5-.8.6-.72.72-.6.8-.5.87-.37.92-.23h4.04" stroke="#3a414a" stroke-width="2" fill="none"/><use xlink:href="#a" transform="matrix(1,0,0,1,45.46204295878192,286) translate(275 21.333333333333332)"/><use xlink:href="#b" transform="matrix(1,0,0,1,45.46204295878192,286) translate(275 53.33333333333333)"/><use xlink:href="#c" transform="matrix(1,0,0,1,45.46204295878192,286) translate(275 85.33333333333333)"/><path d="M720 421.23a6 6 0 0 1 6-6h188a6 6 0 0 1 6 6v172a6 6 0 0 1-6 6H726a6 6 0 0 1-6-6z" stroke="#3a414a" fill="#f2f3f5"/><use xlink:href="#d" transform="matrix(1,0,0,1,732,427.22876994222327) translate(49.72839506172839 21.668977777777783)"/><use xlink:href="#e" transform="matrix(1,0,0,1,732,427.22876994222327) translate(95.4074074074074 21.668977777777783)"/><use xlink:href="#f" transform="matrix(1,0,0,1,732,427.22876994222327) translate(25.74691358024691 48.335644444444455)"/><use xlink:href="#g" transform="matrix(1,0,0,1,732,427.22876994222327) translate(9.944444444444443 75.00231111111111)"/><use xlink:href="#h" transform="matrix(1,0,0,1,732,427.22876994222327) translate(106.85802469135803 75.00231111111111)"/><use xlink:href="#i" transform="matrix(1,0,0,1,732,427.22876994222327) translate(119.20370370370371 75.00231111111111)"/><use xlink:href="#j" transform="matrix(1,0,0,1,732,427.22876994222327) translate(15.222222222222214 101.6689777777778)"/><use xlink:href="#k" transform="matrix(1,0,0,1,732,427.22876994222327) translate(91.7037037037037 101.6689777777778)"/><use xlink:href="#l" transform="matrix(1,0,0,1,732,427.22876994222327) translate(143.55555555555554 101.6689777777778)"/><use xlink:href="#m" transform="matrix(1,0,0,1,732,427.22876994222327) translate(3.555555555555543 128.33564444444445)"/><use xlink:href="#n" transform="matrix(1,0,0,1,732,427.22876994222327) translate(40.59259259259258 128.33564444444445)"/><use xlink:href="#o" transform="matrix(1,0,0,1,732,427.22876994222327) translate(58.61728395061729 155.0023111111111)"/><path d="M1154.2 422.32a8.44 8.44 0 0 1 9.76 0l111.15 79.05a4.27 4.27 0 0 1 0 6.95l-111.14 79.05a8.44 8.44 0 0 1-9.77 0l-111.16-79.05a4.27 4.27 0 0 1 0-6.95z" stroke="#3a414a" fill="#ced4db"/><use xlink:href="#p" transform="matrix(1,0,0,1,1043.149579063313,423.8431549133349) translate(84.19018518518519 71.95833333333333)"/><use xlink:href="#q" transform="matrix(1,0,0,1,1043.149579063313,423.8431549133349) translate(44.33833333333336 103.95833333333333)"/><path d="M957.18 507.73h-36.22v-1h36.22zm67.18-2.4l-20.33.02v-1h20.33z" stroke="#3a414a" stroke-width=".05" fill="#3a414a"/><path d="M920.98 507.73h-.52v-1h.52z" fill="#3a414a"/><path d="M921 507.75h-.56v-1.05h.56zm-.5-1v.95h.45v-.95z" stroke="#3a414a" stroke-width=".05" fill="#3a414a"/><path d="M1039.12 504.84l-14.26 4.64v-9.27z" fill="#3a414a"/><path d="M1040.74 504.84l-16.38 5.33v-10.65zm-15.38 3.95l12.15-3.96-12.14-3.94z" stroke="#3a414a" stroke-width=".05" fill="#3a414a"/><use xlink:href="#r" transform="matrix(1,0,0,1,957.1771179298487,492.70262909444574) translate(0.004999999999999005 17.777777777777775)"/><use xlink:href="#s" transform="matrix(1,0,0,1,957.1771179298487,492.70262909444574) translate(6.1778395061728375 17.777777777777775)"/><path d="M821.07 694.82l.18.72.3.73.4.67.52.6.6.5.66.4.73.3.76.2.82.06 135.94-.03v2l-136.02.03-1.06-.08-1.06-.26-1.02-.42-.94-.57-.83-.72-.72-.83-.57-.94-.42-1.02-.27-1.1-.03-36.53h2zm339-.78l-.08 1.06-.26 1.06-.43 1.02-.56.94-.7.83-.85.72-.95.57-1 .42-1.12.27-126.78.02v-2l126.54-.02.72-.18.72-.3.67-.4.6-.52.52-.6.4-.66.3-.73.2-.76.05-.82V659.6h2zm0-61.1h-2v-42.5h2zM821 631.87h-2V618.2h2z" stroke="#e81313" stroke-width=".05" fill="#e81313"/><path d="M1159.07 589.43l1-.06v1.08h-2v-1.08z" fill="#e81313"/><path d="M1159.07 589.4l1.03-.06v1.14h-2.05v-1.14zm-.97 1.03h1.95v-1.04l-.98.05-.97-.06z" stroke="#e81313" stroke-width=".05" fill="#e81313"/><path d="M824.64 617.2h-9.28l4.64-14.27z" fill="#e81313"/><path d="M826 618.2h-12l6-18.5zm-9.26-2h6.52L820 606.15z" stroke="#e81313" stroke-width=".05" fill="#e81313"/><use xlink:href="#t" transform="matrix(1,0,0,1,1141.266147556348,632.9358882295825) translate(0.004999999999999005 17.77777777777778)"/><use xlink:href="#u" transform="matrix(1,0,0,1,789.8148148148148,631.8656333615494) translate(0.004999999999999005 17.77777777777778)"/><use xlink:href="#v" transform="matrix(1,0,0,1,961.9841444683511,686.6666666666666) translate(0.005000000000002558 17.77777777777778)"/><path d="M1440 420.4a6 6 0 0 1 6-6h188a6 6 0 0 1 6 6v172a6 6 0 0 1-6 6h-188a6 6 0 0 1-6-6z" stroke="#000" fill="#f2f3f5"/><use xlink:href="#w" transform="matrix(1,0,0,1,1452,426.4137389399371) translate(28.80246913580247 17.77777777777778)"/><use xlink:href="#e" transform="matrix(1,0,0,1,1452,426.4137389399371) translate(116.33333333333333 17.77777777777778)"/><use xlink:href="#f" transform="matrix(1,0,0,1,1452,426.4137389399371) translate(25.74691358024691 44.44444444444444)"/><use xlink:href="#g" transform="matrix(1,0,0,1,1452,426.4137389399371) translate(21.024691358024683 71.11111111111111)"/><use xlink:href="#x" transform="matrix(1,0,0,1,1452,426.4137389399371) translate(117.93827160493827 71.11111111111111)"/><use xlink:href="#y" transform="matrix(1,0,0,1,1452,426.4137389399371) translate(0.4074074074074048 97.77777777777777)"/><use xlink:href="#j" transform="matrix(1,0,0,1,1452,426.4137389399371) translate(53.432098765432094 97.77777777777777)"/><use xlink:href="#z" transform="matrix(1,0,0,1,1452,426.4137389399371) translate(129.91358024691357 97.77777777777777)"/><use xlink:href="#A" transform="matrix(1,0,0,1,1452,426.4137389399371) translate(2.135802469135797 124.44444444444446)"/><use xlink:href="#B" transform="matrix(1,0,0,1,1452,426.4137389399371) translate(47.691358024691354 124.44444444444446)"/><use xlink:href="#C" transform="matrix(1,0,0,1,1452,426.4137389399371) translate(130.34567901234567 124.44444444444446)"/><use xlink:href="#D" transform="matrix(1,0,0,1,1452,426.4137389399371) translate(59.60493827160494 151.11111111111111)"/><path d="M1421.04 505.4v2h-20.6v-2zm-142.63.44v-2h38.1v2z" stroke="#008a0e" stroke-width=".05" fill="#008a0e"/><path d="M1278.43 505.84h-1.14l.1-1-.08-.9 1.1-.1z" fill="#008a0e"/><path d="M1278.46 505.87h-1.2l.12-1.03-.1-.92 1.18-.1zm-1.1-1.9l.07.87-.1.98h1.08v-1.95z" stroke="#008a0e" stroke-width=".05" fill="#008a0e"/><path d="M1436.3 506.4l-14.27 4.65v-9.27z" fill="#008a0e"/><path d="M1439.54 506.4l-18.5 6.03V500.4zm-16.5 3.27l10.02-3.26-10.03-3.25z" stroke="#008a0e" stroke-width=".05" fill="#008a0e"/><g><use xlink:href="#E" transform="matrix(1,0,0,1,1316.496437065563,492.2951135933027) translate(0.005000000000002558 17.777777777777775)"/></g><path d="M268.46 448.58c28.72 0 52 23.98 52 53.57 0 29.6-23.28 53.58-52 53.58h-156c-28.72 0-52-24-52-53.58 0-29.6 23.28-53.57 52-53.57z" stroke="#3a414a" fill="#f2f3f5"/><g><use xlink:href="#F" transform="matrix(1,0,0,1,65.46204295878192,453.5773650134635) translate(22.721049382716025 39.21527777777778)"/><use xlink:href="#G" transform="matrix(1,0,0,1,65.46204295878192,453.5773650134635) translate(95.43709876543208 39.21527777777778)"/><use xlink:href="#H" transform="matrix(1,0,0,1,65.46204295878192,453.5773650134635) translate(95.6222839506173 65.88194444444446)"/></g><path d="M1888 453.65c28.72 0 52 24 52 53.58 0 29.6-23.28 53.58-52 53.58h-156c-28.72 0-52-23.98-52-53.57 0-29.6 23.28-53.58 52-53.58z" stroke="#3a414a" fill="#f2f3f5"/><g><use xlink:href="#I" transform="matrix(1,0,0,1,1685,458.6514049287598) translate(13.770432098765435 39.21527777777778)"/><use xlink:href="#J" transform="matrix(1,0,0,1,1685,458.6514049287598) translate(88.95561728395062 39.21527777777778)"/><use xlink:href="#K" transform="matrix(1,0,0,1,1685,458.6514049287598) translate(145.56055555555554 39.21527777777778)"/><use xlink:href="#L" transform="matrix(1,0,0,1,1685,458.6514049287598) translate(83.67783950617284 65.88194444444446)"/><use xlink:href="#M" transform="matrix(1,0,0,1,1685,458.6514049287598) translate(108.3691975308642 65.88194444444446)"/></g><path d="M1640.96 506.4h22.2" stroke="#3a414a" fill="none"/><path d="M1640.98 506.9h-.52v-1h.52z" stroke="#3a414a" stroke-width=".05" fill="#3a414a"/><path d="M1677.92 506.4l-14.27 4.65v-9.27z" stroke="#3a414a" fill="#3a414a"/><path d="M380.46 421.23a6 6 0 0 1 6-6h188a6 6 0 0 1 6 6v167.23a6 6 0 0 1-6 6h-188a6 6 0 0 1-6-6z" stroke="#3a414a" fill="#f2f3f5"/><g><use xlink:href="#N" transform="matrix(1,0,0,1,392.4620429587819,427.22876994222327) translate(48.77160493827161 42.15277777777778)"/><use xlink:href="#G" transform="matrix(1,0,0,1,392.4620429587819,427.22876994222327) translate(22.074074074074062 68.81944444444446)"/><use xlink:href="#O" transform="matrix(1,0,0,1,392.4620429587819,427.22876994222327) translate(5.438271604938279 95.48611111111111)"/><use xlink:href="#P" transform="matrix(1,0,0,1,392.4620429587819,427.22876994222327) translate(69.57407407407408 95.48611111111111)"/><use xlink:href="#Q" transform="matrix(1,0,0,1,392.4620429587819,427.22876994222327) translate(115.12962962962963 95.48611111111111)"/><use xlink:href="#R" transform="matrix(1,0,0,1,392.4620429587819,427.22876994222327) translate(22.75308641975309 122.1527777777778)"/><use xlink:href="#S" transform="matrix(1,0,0,1,392.4620429587819,427.22876994222327) translate(55.839506172839506 122.1527777777778)"/></g><path d="M321.46 502.15h42.15" stroke="#3a414a" fill="none"/><path d="M321.48 502.65h-.54l.02-.5-.02-.5h.54z" stroke="#3a414a" stroke-width=".05" fill="#3a414a"/><path d="M378.38 502.15l-14.27 4.64v-9.28z" stroke="#3a414a" fill="#3a414a"/><path d="M581.43 504.84h121.72" stroke="#3a414a" fill="none"/><path d="M581.44 505.34h-.5v-1h.5z" stroke="#3a414a" stroke-width=".05" fill="#3a414a"/><path d="M717.92 504.84l-14.27 4.64v-9.27z" stroke="#3a414a" fill="#3a414a"/><path d="M200 306a6 6 0 0 1 6-6h228a6 6 0 0 1 6 6v48a6 6 0 0 1-6 6H206a6 6 0 0 1-6-6z" fill="#fff" fill-opacity="0"/><g><use xlink:href="#T" transform="matrix(1,0,0,1,205,305) translate(76.24074074074076 49.88888888888888)"/></g><path d="M873.12 313.56a6 6 0 0 1 6-6h228a6 6 0 0 1 6 6v48a6 6 0 0 1-6 6h-228a6 6 0 0 1-6-6z" fill="#fff" fill-opacity="0"/><g><use xlink:href="#U" transform="matrix(1,0,0,1,878.1155414042653,312.55696816599897) translate(84.2777777777778 49.88888888888888)"/></g><path d="M1570 306a6 6 0 0 1 6-6h228a6 6 0 0 1 6 6v48a6 6 0 0 1-6 6h-228a6 6 0 0 1-6-6z" fill="#fff" fill-opacity="0"/><g><use xlink:href="#V" transform="matrix(1,0,0,1,1575,305) translate(63.2777777777778 49.88888888888888)"/></g><defs><path fill="#3a414a" d="M205 0l-28-72H64L36 0H1l101-248h38L239 0h-34zm-38-99l-47-123c-12 45-31 82-46 123h93" id="W"/><path fill="#3a414a" d="M85-194c31 0 48 13 60 33l-1-100h32l1 261h-30c-2-10 0-23-3-31C134-8 116 4 85 4 32 4 16-35 15-94c0-66 23-100 70-100zm9 24c-40 0-46 34-46 75 0 40 6 74 45 74 42 0 51-32 51-76 0-42-9-74-50-73" id="X"/><g id="d"><use transform="matrix(0.06172839506172839,0,0,0.06172839506172839,0,0)" xlink:href="#W"/><use transform="matrix(0.06172839506172839,0,0,0.06172839506172839,14.814814814814813,0)" xlink:href="#X"/><use transform="matrix(0.06172839506172839,0,0,0.06172839506172839,27.160493827160494,0)" xlink:href="#X"/></g><path fill="#3a414a" d="M59-47c-2 24 18 29 38 22v24C64 9 27 4 27-40v-127H5v-23h24l9-43h21v43h35v23H59v120" id="Y"/><path fill="#3a414a" d="M106-169C34-169 62-67 57 0H25v-261h32l-1 103c12-21 28-36 61-36 89 0 53 116 60 194h-32v-121c2-32-8-49-39-48" id="Z"/><path fill="#3a414a" d="M100-194c63 0 86 42 84 106H49c0 40 14 67 53 68 26 1 43-12 49-29l28 8c-11 28-37 45-77 45C44 4 14-33 15-96c1-61 26-98 85-98zm52 81c6-60-76-77-97-28-3 7-6 17-6 28h103" id="aa"/><g id="e"><use transform="matrix(0.06172839506172839,0,0,0.06172839506172839,0,0)" xlink:href="#Y"/><use transform="matrix(0.06172839506172839,0,0,0.06172839506172839,6.172839506172839,0)" xlink:href="#Z"/><use transform="matrix(0.06172839506172839,0,0,0.06172839506172839,18.51851851851852,0)" xlink:href="#aa"/></g><path fill="#3a414a" d="M30 0v-248h187v28H63v79h144v27H63v87h162V0H30" id="ab"/><path fill="#3a414a" d="M117-194c89-4 53 116 60 194h-32v-121c0-31-8-49-39-48C34-167 62-67 57 0H25l-1-190h30c1 10-1 24 2 32 11-22 29-35 61-36" id="ac"/><path fill="#3a414a" d="M108 0H70L1-190h34L89-25l56-165h34" id="ad"/><path fill="#3a414a" d="M24-231v-30h32v30H24zM24 0v-190h32V0H24" id="ae"/><path fill="#3a414a" d="M114-163C36-179 61-72 57 0H25l-1-190h30c1 12-1 29 2 39 6-27 23-49 58-41v29" id="af"/><path fill="#3a414a" d="M100-194c62-1 85 37 85 99 1 63-27 99-86 99S16-35 15-95c0-66 28-99 85-99zM99-20c44 1 53-31 53-75 0-43-8-75-51-75s-53 32-53 75 10 74 51 75" id="ag"/><path fill="#3a414a" d="M210-169c-67 3-38 105-44 169h-31v-121c0-29-5-50-35-48C34-165 62-65 56 0H25l-1-190h30c1 10-1 24 2 32 10-44 99-50 107 0 11-21 27-35 58-36 85-2 47 119 55 194h-31v-121c0-29-5-49-35-48" id="ah"/><g id="f"><use transform="matrix(0.06172839506172839,0,0,0.06172839506172839,0,0)" xlink:href="#ab"/><use transform="matrix(0.06172839506172839,0,0,0.06172839506172839,14.814814814814813,0)" xlink:href="#ac"/><use transform="matrix(0.06172839506172839,0,0,0.06172839506172839,27.160493827160494,0)" xlink:href="#ad"/><use transform="matrix(0.06172839506172839,0,0,0.06172839506172839,38.27160493827161,0)" xlink:href="#ae"/><use transform="matrix(0.06172839506172839,0,0,0.06172839506172839,43.14814814814815,0)" xlink:href="#af"/><use transform="matrix(0.06172839506172839,0,0,0.06172839506172839,50.49382716049383,0)" xlink:href="#ag"/><use transform="matrix(0.06172839506172839,0,0,0.06172839506172839,62.839506172839506,0)" xlink:href="#ac"/><use transform="matrix(0.06172839506172839,0,0,0.06172839506172839,75.18518518518519,0)" xlink:href="#ah"/><use transform="matrix(0.06172839506172839,0,0,0.06172839506172839,93.64197530864197,0)" xlink:href="#aa"/><use transform="matrix(0.06172839506172839,0,0,0.06172839506172839,105.98765432098766,0)" xlink:href="#ac"/><use transform="matrix(0.06172839506172839,0,0,0.06172839506172839,118.33333333333334,0)" xlink:href="#Y"/></g><path fill="#3a414a" d="M137 0h-34L2-248h35l83 218 83-218h36" id="ai"/><path fill="#3a414a" d="M141-36C126-15 110 5 73 4 37 3 15-17 15-53c-1-64 63-63 125-63 3-35-9-54-41-54-24 1-41 7-42 31l-33-3c5-37 33-52 76-52 45 0 72 20 72 64v82c-1 20 7 32 28 27v20c-31 9-61-2-59-35zM48-53c0 20 12 33 32 33 41-3 63-29 60-74-43 2-92-5-92 41" id="aj"/><path fill="#3a414a" d="M115-194c53 0 69 39 70 98 0 66-23 100-70 100C84 3 66-7 56-30L54 0H23l1-261h32v101c10-23 28-34 59-34zm-8 174c40 0 45-34 45-75 0-40-5-75-45-74-42 0-51 32-51 76 0 43 10 73 51 73" id="ak"/><path fill="#3a414a" d="M24 0v-261h32V0H24" id="al"/><path fill="#3a414a" d="M135-143c-3-34-86-38-87 0 15 53 115 12 119 90S17 21 10-45l28-5c4 36 97 45 98 0-10-56-113-15-118-90-4-57 82-63 122-42 12 7 21 19 24 35" id="am"/><g id="g"><use transform="matrix(0.06172839506172839,0,0,0.06172839506172839,0,0)" xlink:href="#ai"/><use transform="matrix(0.06172839506172839,0,0,0.06172839506172839,13.148148148148147,0)" xlink:href="#aj"/><use transform="matrix(0.06172839506172839,0,0,0.06172839506172839,25.493827160493826,0)" xlink:href="#af"/><use transform="matrix(0.06172839506172839,0,0,0.06172839506172839,32.839506172839506,0)" xlink:href="#ae"/><use transform="matrix(0.06172839506172839,0,0,0.06172839506172839,37.71604938271605,0)" xlink:href="#aj"/><use transform="matrix(0.06172839506172839,0,0,0.06172839506172839,50.06172839506173,0)" xlink:href="#ak"/><use transform="matrix(0.06172839506172839,0,0,0.06172839506172839,62.407407407407405,0)" xlink:href="#al"/><use transform="matrix(0.06172839506172839,0,0,0.06172839506172839,67.28395061728395,0)" xlink:href="#aa"/><use transform="matrix(0.06172839506172839,0,0,0.06172839506172839,79.62962962962963,0)" xlink:href="#am"/></g><path fill="#3a414a" d="M0 4l72-265h28L28 4H0" id="an"/><use transform="matrix(0.06172839506172839,0,0,0.06172839506172839,0,0)" xlink:href="#an" id="h"/><path fill="#3a414a" d="M30-248c118-7 216 8 213 122C240-48 200 0 122 0H30v-248zM63-27c89 8 146-16 146-99s-60-101-146-95v194" id="ao"/><g id="i"><use transform="matrix(0.06172839506172839,0,0,0.06172839506172839,0,0)" xlink:href="#ao"/><use transform="matrix(0.06172839506172839,0,0,0.06172839506172839,15.987654320987653,0)" xlink:href="#aj"/><use transform="matrix(0.06172839506172839,0,0,0.06172839506172839,28.333333333333332,0)" xlink:href="#Y"/><use transform="matrix(0.06172839506172839,0,0,0.06172839506172839,34.50617283950617,0)" xlink:href="#aj"/></g><path fill="#3a414a" d="M185-189c-5-48-123-54-124 2 14 75 158 14 163 119 3 78-121 87-175 55-17-10-28-26-33-46l33-7c5 56 141 63 141-1 0-78-155-14-162-118-5-82 145-84 179-34 5 7 8 16 11 25" id="ap"/><path fill="#3a414a" d="M84 4C-5 8 30-112 23-190h32v120c0 31 7 50 39 49 72-2 45-101 50-169h31l1 190h-30c-1-10 1-25-2-33-11 22-28 36-60 37" id="aq"/><path fill="#3a414a" d="M96-169c-40 0-48 33-48 73s9 75 48 75c24 0 41-14 43-38l32 2c-6 37-31 61-74 61-59 0-76-41-82-99-10-93 101-131 147-64 4 7 5 14 7 22l-32 3c-4-21-16-35-41-35" id="ar"/><g id="j"><use transform="matrix(0.06172839506172839,0,0,0.06172839506172839,0,0)" xlink:href="#ap"/><use transform="matrix(0.06172839506172839,0,0,0.06172839506172839,14.814814814814813,0)" xlink:href="#ag"/><use transform="matrix(0.06172839506172839,0,0,0.06172839506172839,27.160493827160494,0)" xlink:href="#aq"/><use transform="matrix(0.06172839506172839,0,0,0.06172839506172839,39.50617283950617,0)" xlink:href="#af"/><use transform="matrix(0.06172839506172839,0,0,0.06172839506172839,46.85185185185185,0)" xlink:href="#ar"/><use transform="matrix(0.06172839506172839,0,0,0.06172839506172839,57.96296296296296,0)" xlink:href="#aa"/></g><path fill="#3a414a" d="M30-248c87 1 191-15 191 75 0 78-77 80-158 76V0H30v-248zm33 125c57 0 124 11 124-50 0-59-68-47-124-48v98" id="as"/><g id="k"><use transform="matrix(0.06172839506172839,0,0,0.06172839506172839,0,0)" xlink:href="#as"/><use transform="matrix(0.06172839506172839,0,0,0.06172839506172839,14.814814814814813,0)" xlink:href="#aj"/><use transform="matrix(0.06172839506172839,0,0,0.06172839506172839,27.160493827160494,0)" xlink:href="#Y"/><use transform="matrix(0.06172839506172839,0,0,0.06172839506172839,33.333333333333336,0)" xlink:href="#Z"/></g><g id="l"><use transform="matrix(0.06172839506172839,0,0,0.06172839506172839,0,0)" xlink:href="#ae"/><use transform="matrix(0.06172839506172839,0,0,0.06172839506172839,4.876543209876543,0)" xlink:href="#ac"/></g><g id="m"><use transform="matrix(0.06172839506172839,0,0,0.06172839506172839,0,0)" xlink:href="#Y"/><use transform="matrix(0.06172839506172839,0,0,0.06172839506172839,6.172839506172839,0)" xlink:href="#Z"/><use transform="matrix(0.06172839506172839,0,0,0.06172839506172839,18.51851851851852,0)" xlink:href="#aa"/></g><path fill="#3a414a" d="M212-179c-10-28-35-45-73-45-59 0-87 40-87 99 0 60 29 101 89 101 43 0 62-24 78-52l27 14C228-24 195 4 139 4 59 4 22-46 18-125c-6-104 99-153 187-111 19 9 31 26 39 46" id="at"/><path fill="#3a414a" d="M101-234c-31-9-42 10-38 44h38v23H63V0H32v-167H5v-23h27c-7-52 17-82 69-68v24" id="au"/><path fill="#3a414a" d="M177-190C167-65 218 103 67 71c-23-6-38-20-44-43l32-5c15 47 100 32 89-28v-30C133-14 115 1 83 1 29 1 15-40 15-95c0-56 16-97 71-98 29-1 48 16 59 35 1-10 0-23 2-32h30zM94-22c36 0 50-32 50-73 0-42-14-75-50-75-39 0-46 34-46 75s6 73 46 73" id="av"/><g id="n"><use transform="matrix(0.06172839506172839,0,0,0.06172839506172839,0,0)" xlink:href="#at"/><use transform="matrix(0.06172839506172839,0,0,0.06172839506172839,15.987654320987653,0)" xlink:href="#ag"/><use transform="matrix(0.06172839506172839,0,0,0.06172839506172839,28.333333333333332,0)" xlink:href="#ac"/><use transform="matrix(0.06172839506172839,0,0,0.06172839506172839,40.67901234567901,0)" xlink:href="#au"/><use transform="matrix(0.06172839506172839,0,0,0.06172839506172839,46.851851851851855,0)" xlink:href="#ae"/><use transform="matrix(0.06172839506172839,0,0,0.06172839506172839,51.7283950617284,0)" xlink:href="#av"/><use transform="matrix(0.06172839506172839,0,0,0.06172839506172839,64.07407407407408,0)" xlink:href="#aq"/><use transform="matrix(0.06172839506172839,0,0,0.06172839506172839,76.41975308641976,0)" xlink:href="#af"/><use transform="matrix(0.06172839506172839,0,0,0.06172839506172839,83.76543209876544,0)" xlink:href="#aj"/><use transform="matrix(0.06172839506172839,0,0,0.06172839506172839,96.11111111111113,0)" xlink:href="#Y"/><use transform="matrix(0.06172839506172839,0,0,0.06172839506172839,102.28395061728396,0)" xlink:href="#ae"/><use transform="matrix(0.06172839506172839,0,0,0.06172839506172839,107.16049382716051,0)" xlink:href="#ag"/><use transform="matrix(0.06172839506172839,0,0,0.06172839506172839,119.50617283950619,0)" xlink:href="#ac"/></g><path fill="#3a414a" d="M137-103V0h-34v-103L8-248h37l75 118 75-118h37" id="aw"/><path fill="#3a414a" d="M240 0l2-218c-23 76-54 145-80 218h-23L58-218 59 0H30v-248h44l77 211c21-75 51-140 76-211h43V0h-30" id="ax"/><path fill="#3a414a" d="M30 0v-248h33v221h125V0H30" id="ay"/><g id="o"><use transform="matrix(0.06172839506172839,0,0,0.06172839506172839,0,0)" xlink:href="#aw"/><use transform="matrix(0.06172839506172839,0,0,0.06172839506172839,13.148148148148147,0)" xlink:href="#W"/><use transform="matrix(0.06172839506172839,0,0,0.06172839506172839,27.962962962962962,0)" xlink:href="#ax"/><use transform="matrix(0.06172839506172839,0,0,0.06172839506172839,46.419753086419746,0)" xlink:href="#ay"/></g><path fill="#3a414a" d="M76-208v77h127v40H76V0H24v-248h183v40H76" id="az"/><path fill="#3a414a" d="M25 0v-261h50V0H25" id="aA"/><path fill="#3a414a" d="M133-34C117-15 103 5 69 4 32 3 11-16 11-54c-1-60 55-63 116-61 1-26-3-47-28-47-18 1-26 9-28 27l-52-2c7-38 36-58 82-57s74 22 75 68l1 82c-1 14 12 18 25 15v27c-30 8-71 5-69-32zm-48 3c29 0 43-24 42-57-32 0-66-3-65 30 0 17 8 27 23 27" id="aB"/><path fill="#3a414a" d="M135-150c-39-12-60 13-60 57V0H25l-1-190h47c2 13-1 29 3 40 6-28 27-53 61-41v41" id="aC"/><path fill="#3a414a" d="M185-48c-13 30-37 53-82 52C43 2 14-33 14-96s30-98 90-98c62 0 83 45 84 108H66c0 31 8 55 39 56 18 0 30-7 34-22zm-45-69c5-46-57-63-70-21-2 6-4 13-4 21h74" id="aD"/><g id="p"><use transform="matrix(0.07407407407407406,0,0,0.07407407407407406,0,0)" xlink:href="#az"/><use transform="matrix(0.07407407407407406,0,0,0.07407407407407406,16.222222222222218,0)" xlink:href="#aA"/><use transform="matrix(0.07407407407407406,0,0,0.07407407407407406,23.629629629629623,0)" xlink:href="#aB"/><use transform="matrix(0.07407407407407406,0,0,0.07407407407407406,38.444444444444436,0)" xlink:href="#aC"/><use transform="matrix(0.07407407407407406,0,0,0.07407407407407406,48.8148148148148,0)" xlink:href="#aD"/></g><path fill="#3a414a" d="M169-182c-1-43-94-46-97-3 18 66 151 10 154 114 3 95-165 93-204 36-6-8-10-19-12-30l50-8c3 46 112 56 116 5-17-69-150-10-154-114-4-87 153-88 188-35 5 8 8 18 10 28" id="aE"/><path fill="#3a414a" d="M115-3C79 11 28 4 28-45v-112H4v-33h27l15-45h31v45h36v33H77v99c-1 23 16 31 38 25v30" id="aF"/><path fill="#3a414a" d="M135-194c87-1 58 113 63 194h-50c-7-57 23-157-34-157-59 0-34 97-39 157H25l-1-190h47c2 12-1 28 3 38 12-26 28-41 61-42" id="aG"/><path fill="#3a414a" d="M88-194c31-1 46 15 58 34l-1-101h50l1 261h-48c-2-10 0-23-3-31C134-8 116 4 84 4 32 4 16-41 15-95c0-56 19-97 73-99zm17 164c33 0 40-30 41-66 1-37-9-64-41-64s-38 30-39 65c0 43 13 65 39 65" id="aH"/><path fill="#3a414a" d="M110-194c64 0 96 36 96 99 0 64-35 99-97 99-61 0-95-36-95-99 0-62 34-99 96-99zm-1 164c35 0 45-28 45-65 0-40-10-65-43-65-34 0-45 26-45 65 0 36 10 65 43 65" id="aI"/><g id="q"><use transform="matrix(0.07407407407407406,0,0,0.07407407407407406,0,0)" xlink:href="#aE"/><use transform="matrix(0.07407407407407406,0,0,0.07407407407407406,17.777777777777775,0)" xlink:href="#aF"/><use transform="matrix(0.07407407407407406,0,0,0.07407407407407406,26.592592592592585,0)" xlink:href="#aB"/><use transform="matrix(0.07407407407407406,0,0,0.07407407407407406,41.4074074074074,0)" xlink:href="#aG"/><use transform="matrix(0.07407407407407406,0,0,0.07407407407407406,57.62962962962962,0)" xlink:href="#aH"/><use transform="matrix(0.07407407407407406,0,0,0.07407407407407406,73.85185185185183,0)" xlink:href="#aB"/><use transform="matrix(0.07407407407407406,0,0,0.07407407407407406,88.66666666666664,0)" xlink:href="#aA"/><use transform="matrix(0.07407407407407406,0,0,0.07407407407407406,96.07407407407405,0)" xlink:href="#aI"/><use transform="matrix(0.07407407407407406,0,0,0.07407407407407406,112.29629629629626,0)" xlink:href="#aG"/><use transform="matrix(0.07407407407407406,0,0,0.07407407407407406,128.51851851851848,0)" xlink:href="#aD"/></g><path fill="#333" d="M127-220V0H93v-220H8v-28h204v28h-85" id="aJ"/><path fill="#333" d="M100-194c63 0 86 42 84 106H49c0 40 14 67 53 68 26 1 43-12 49-29l28 8c-11 28-37 45-77 45C44 4 14-33 15-96c1-61 26-98 85-98zm52 81c6-60-76-77-97-28-3 7-6 17-6 28h103" id="aK"/><path fill="#333" d="M135-143c-3-34-86-38-87 0 15 53 115 12 119 90S17 21 10-45l28-5c4 36 97 45 98 0-10-56-113-15-118-90-4-57 82-63 122-42 12 7 21 19 24 35" id="aL"/><path fill="#333" d="M59-47c-2 24 18 29 38 22v24C64 9 27 4 27-40v-127H5v-23h24l9-43h21v43h35v23H59v120" id="aM"/><g id="s"><use transform="matrix(0.061728395061728385,0,0,0.061728395061728385,0,0)" xlink:href="#aJ"/><use transform="matrix(0.061728395061728385,0,0,0.061728395061728385,11.04938271604938,0)" xlink:href="#aK"/><use transform="matrix(0.061728395061728385,0,0,0.061728395061728385,23.395061728395056,0)" xlink:href="#aL"/><use transform="matrix(0.061728395061728385,0,0,0.061728395061728385,34.50617283950616,0)" xlink:href="#aM"/></g><path d="M63-220v92h138v28H63V0H30v-248h175v28H63" id="aN"/><path d="M141-36C126-15 110 5 73 4 37 3 15-17 15-53c-1-64 63-63 125-63 3-35-9-54-41-54-24 1-41 7-42 31l-33-3c5-37 33-52 76-52 45 0 72 20 72 64v82c-1 20 7 32 28 27v20c-31 9-61-2-59-35zM48-53c0 20 12 33 32 33 41-3 63-29 60-74-43 2-92-5-92 41" id="aO"/><path d="M24-231v-30h32v30H24zM24 0v-190h32V0H24" id="aP"/><path d="M24 0v-261h32V0H24" id="aQ"/><g id="t"><use transform="matrix(0.06172839506172839,0,0,0.06172839506172839,0,0)" xlink:href="#aN"/><use transform="matrix(0.06172839506172839,0,0,0.06172839506172839,13.518518518518517,0)" xlink:href="#aO"/><use transform="matrix(0.06172839506172839,0,0,0.06172839506172839,25.864197530864196,0)" xlink:href="#aP"/><use transform="matrix(0.06172839506172839,0,0,0.06172839506172839,30.74074074074074,0)" xlink:href="#aQ"/></g><path d="M233-177c-1 41-23 64-60 70L243 0h-38l-65-103H63V0H30v-248c88 3 205-21 203 71zM63-129c60-2 137 13 137-47 0-61-80-42-137-45v92" id="aR"/><path d="M100-194c63 0 86 42 84 106H49c0 40 14 67 53 68 26 1 43-12 49-29l28 8c-11 28-37 45-77 45C44 4 14-33 15-96c1-61 26-98 85-98zm52 81c6-60-76-77-97-28-3 7-6 17-6 28h103" id="aS"/><path d="M114-163C36-179 61-72 57 0H25l-1-190h30c1 12-1 29 2 39 6-27 23-49 58-41v29" id="aT"/><path d="M84 4C-5 8 30-112 23-190h32v120c0 31 7 50 39 49 72-2 45-101 50-169h31l1 190h-30c-1-10 1-25-2-33-11 22-28 36-60 37" id="aU"/><path d="M117-194c89-4 53 116 60 194h-32v-121c0-31-8-49-39-48C34-167 62-67 57 0H25l-1-190h30c1 10-1 24 2 32 11-22 29-35 61-36" id="aV"/><g id="u"><use transform="matrix(0.06172839506172839,0,0,0.06172839506172839,0,0)" xlink:href="#aR"/><use transform="matrix(0.06172839506172839,0,0,0.06172839506172839,15.987654320987653,0)" xlink:href="#aS"/><use transform="matrix(0.06172839506172839,0,0,0.06172839506172839,28.333333333333332,0)" xlink:href="#aT"/><use transform="matrix(0.06172839506172839,0,0,0.06172839506172839,35.67901234567901,0)" xlink:href="#aU"/><use transform="matrix(0.06172839506172839,0,0,0.06172839506172839,48.02469135802469,0)" xlink:href="#aV"/></g><path d="M30-248c118-7 216 8 213 122C240-48 200 0 122 0H30v-248zM63-27c89 8 146-16 146-99s-60-101-146-95v194" id="aW"/><path d="M115-194c53 0 69 39 70 98 0 66-23 100-70 100C84 3 66-7 56-30L54 0H23l1-261h32v101c10-23 28-34 59-34zm-8 174c40 0 45-34 45-75 0-40-5-75-45-74-42 0-51 32-51 76 0 43 10 73 51 73" id="aX"/><path d="M177-190C167-65 218 103 67 71c-23-6-38-20-44-43l32-5c15 47 100 32 89-28v-30C133-14 115 1 83 1 29 1 15-40 15-95c0-56 16-97 71-98 29-1 48 16 59 35 1-10 0-23 2-32h30zM94-22c36 0 50-32 50-73 0-42-14-75-50-75-39 0-46 34-46 75s6 73 46 73" id="aY"/><g id="v"><use transform="matrix(0.06172839506172839,0,0,0.06172839506172839,0,0)" xlink:href="#aW"/><use transform="matrix(0.06172839506172839,0,0,0.06172839506172839,15.987654320987653,0)" xlink:href="#aS"/><use transform="matrix(0.06172839506172839,0,0,0.06172839506172839,28.333333333333332,0)" xlink:href="#aX"/><use transform="matrix(0.06172839506172839,0,0,0.06172839506172839,40.67901234567901,0)" xlink:href="#aU"/><use transform="matrix(0.06172839506172839,0,0,0.06172839506172839,53.02469135802469,0)" xlink:href="#aY"/></g><path fill="#3a414a" d="M233-177c-1 41-23 64-60 70L243 0h-38l-65-103H63V0H30v-248c88 3 205-21 203 71zM63-129c60-2 137 13 137-47 0-61-80-42-137-45v92" id="aZ"/><path fill="#3a414a" d="M115-194c55 1 70 41 70 98S169 2 115 4C84 4 66-9 55-30l1 105H24l-1-265h31l2 30c10-21 28-34 59-34zm-8 174c40 0 45-34 45-75s-6-73-45-74c-42 0-51 32-51 76 0 43 10 73 51 73" id="ba"/><g id="w"><use transform="matrix(0.06172839506172839,0,0,0.06172839506172839,0,0)" xlink:href="#aZ"/><use transform="matrix(0.06172839506172839,0,0,0.06172839506172839,15.987654320987653,0)" xlink:href="#aa"/><use transform="matrix(0.06172839506172839,0,0,0.06172839506172839,28.333333333333332,0)" xlink:href="#ba"/><use transform="matrix(0.06172839506172839,0,0,0.06172839506172839,40.67901234567901,0)" xlink:href="#al"/><use transform="matrix(0.06172839506172839,0,0,0.06172839506172839,45.55555555555556,0)" xlink:href="#aj"/><use transform="matrix(0.06172839506172839,0,0,0.06172839506172839,57.901234567901234,0)" xlink:href="#ar"/><use transform="matrix(0.06172839506172839,0,0,0.06172839506172839,69.01234567901234,0)" xlink:href="#aa"/></g><g id="x"><use transform="matrix(0.06172839506172839,0,0,0.06172839506172839,0,0)" xlink:href="#aj"/><use transform="matrix(0.06172839506172839,0,0,0.06172839506172839,12.345679012345679,0)" xlink:href="#ac"/><use transform="matrix(0.06172839506172839,0,0,0.06172839506172839,24.691358024691358,0)" xlink:href="#X"/></g><g id="y"><use transform="matrix(0.06172839506172839,0,0,0.06172839506172839,0,0)" xlink:href="#ao"/><use transform="matrix(0.06172839506172839,0,0,0.06172839506172839,15.987654320987653,0)" xlink:href="#aj"/><use transform="matrix(0.06172839506172839,0,0,0.06172839506172839,28.333333333333332,0)" xlink:href="#Y"/><use transform="matrix(0.06172839506172839,0,0,0.06172839506172839,34.50617283950617,0)" xlink:href="#aj"/></g><g id="z"><use transform="matrix(0.06172839506172839,0,0,0.06172839506172839,0,0)" xlink:href="#as"/><use transform="matrix(0.06172839506172839,0,0,0.06172839506172839,14.814814814814813,0)" xlink:href="#aj"/><use transform="matrix(0.06172839506172839,0,0,0.06172839506172839,27.160493827160494,0)" xlink:href="#Y"/><use transform="matrix(0.06172839506172839,0,0,0.06172839506172839,33.333333333333336,0)" xlink:href="#Z"/></g><path fill="#3a414a" d="M206 0h-36l-40-164L89 0H53L-1-190h32L70-26l43-164h34l41 164 42-164h31" id="bb"/><g id="A"><use transform="matrix(0.06172839506172839,0,0,0.06172839506172839,0,0)" xlink:href="#bb"/><use transform="matrix(0.06172839506172839,0,0,0.06172839506172839,15.987654320987653,0)" xlink:href="#ae"/><use transform="matrix(0.06172839506172839,0,0,0.06172839506172839,20.864197530864196,0)" xlink:href="#Y"/><use transform="matrix(0.06172839506172839,0,0,0.06172839506172839,27.037037037037035,0)" xlink:href="#Z"/></g><g id="B"><use transform="matrix(0.06172839506172839,0,0,0.06172839506172839,0,0)" xlink:href="#ao"/><use transform="matrix(0.06172839506172839,0,0,0.06172839506172839,15.987654320987653,0)" xlink:href="#aj"/><use transform="matrix(0.06172839506172839,0,0,0.06172839506172839,28.333333333333332,0)" xlink:href="#Y"/><use transform="matrix(0.06172839506172839,0,0,0.06172839506172839,34.50617283950617,0)" xlink:href="#aj"/><use transform="matrix(0.06172839506172839,0,0,0.06172839506172839,46.85185185185185,0)" xlink:href="#am"/><use transform="matrix(0.06172839506172839,0,0,0.06172839506172839,57.96296296296296,0)" xlink:href="#aa"/><use transform="matrix(0.06172839506172839,0,0,0.06172839506172839,70.30864197530865,0)" xlink:href="#Y"/></g><path fill="#3a414a" d="M232-93c-1 65-40 97-104 97C67 4 28-28 28-90v-158h33c8 89-33 224 67 224 102 0 64-133 71-224h33v155" id="bc"/><g id="C"><use transform="matrix(0.06172839506172839,0,0,0.06172839506172839,0,0)" xlink:href="#bc"/><use transform="matrix(0.06172839506172839,0,0,0.06172839506172839,15.987654320987653,0)" xlink:href="#ao"/><use transform="matrix(0.06172839506172839,0,0,0.06172839506172839,31.975308641975307,0)" xlink:href="#ay"/></g><g id="D"><use transform="matrix(0.06172839506172839,0,0,0.06172839506172839,0,0)" xlink:href="#as"/><use transform="matrix(0.06172839506172839,0,0,0.06172839506172839,14.814814814814813,0)" xlink:href="#aj"/><use transform="matrix(0.06172839506172839,0,0,0.06172839506172839,27.160493827160494,0)" xlink:href="#Y"/><use transform="matrix(0.06172839506172839,0,0,0.06172839506172839,33.333333333333336,0)" xlink:href="#Z"/><use transform="matrix(0.06172839506172839,0,0,0.06172839506172839,45.67901234567901,0)" xlink:href="#am"/></g><path d="M185-189c-5-48-123-54-124 2 14 75 158 14 163 119 3 78-121 87-175 55-17-10-28-26-33-46l33-7c5 56 141 63 141-1 0-78-155-14-162-118-5-82 145-84 179-34 5 7 8 16 11 25" id="bd"/><path d="M96-169c-40 0-48 33-48 73s9 75 48 75c24 0 41-14 43-38l32 2c-6 37-31 61-74 61-59 0-76-41-82-99-10-93 101-131 147-64 4 7 5 14 7 22l-32 3c-4-21-16-35-41-35" id="be"/><path d="M135-143c-3-34-86-38-87 0 15 53 115 12 119 90S17 21 10-45l28-5c4 36 97 45 98 0-10-56-113-15-118-90-4-57 82-63 122-42 12 7 21 19 24 35" id="bf"/><g id="E"><use transform="matrix(0.061728395061728385,0,0,0.061728395061728385,0,0)" xlink:href="#bd"/><use transform="matrix(0.061728395061728385,0,0,0.061728395061728385,14.814814814814813,0)" xlink:href="#aU"/><use transform="matrix(0.061728395061728385,0,0,0.061728395061728385,27.16049382716049,0)" xlink:href="#be"/><use transform="matrix(0.061728395061728385,0,0,0.061728395061728385,38.2716049382716,0)" xlink:href="#be"/><use transform="matrix(0.061728395061728385,0,0,0.061728395061728385,49.38271604938271,0)" xlink:href="#aS"/><use transform="matrix(0.061728395061728385,0,0,0.061728395061728385,61.728395061728385,0)" xlink:href="#bf"/><use transform="matrix(0.061728395061728385,0,0,0.061728395061728385,72.83950617283949,0)" xlink:href="#bf"/></g><g id="F"><use transform="matrix(0.06172839506172839,0,0,0.06172839506172839,0,0)" xlink:href="#at"/><use transform="matrix(0.06172839506172839,0,0,0.06172839506172839,15.987654320987653,0)" xlink:href="#af"/><use transform="matrix(0.06172839506172839,0,0,0.06172839506172839,23.333333333333332,0)" xlink:href="#aa"/><use transform="matrix(0.06172839506172839,0,0,0.06172839506172839,35.67901234567901,0)" xlink:href="#aj"/><use transform="matrix(0.06172839506172839,0,0,0.06172839506172839,48.02469135802469,0)" xlink:href="#Y"/><use transform="matrix(0.06172839506172839,0,0,0.06172839506172839,54.19753086419753,0)" xlink:href="#aa"/></g><g id="G"><use transform="matrix(0.06172839506172839,0,0,0.06172839506172839,0,0)" xlink:href="#at"/><use transform="matrix(0.06172839506172839,0,0,0.06172839506172839,15.987654320987653,0)" xlink:href="#ag"/><use transform="matrix(0.06172839506172839,0,0,0.06172839506172839,28.333333333333332,0)" xlink:href="#ac"/><use transform="matrix(0.06172839506172839,0,0,0.06172839506172839,40.67901234567901,0)" xlink:href="#au"/><use transform="matrix(0.06172839506172839,0,0,0.06172839506172839,46.851851851851855,0)" xlink:href="#ae"/><use transform="matrix(0.06172839506172839,0,0,0.06172839506172839,51.7283950617284,0)" xlink:href="#av"/><use transform="matrix(0.06172839506172839,0,0,0.06172839506172839,64.07407407407408,0)" xlink:href="#aq"/><use transform="matrix(0.06172839506172839,0,0,0.06172839506172839,76.41975308641976,0)" xlink:href="#af"/><use transform="matrix(0.06172839506172839,0,0,0.06172839506172839,83.76543209876544,0)" xlink:href="#aj"/><use transform="matrix(0.06172839506172839,0,0,0.06172839506172839,96.11111111111113,0)" xlink:href="#Y"/><use transform="matrix(0.06172839506172839,0,0,0.06172839506172839,102.28395061728396,0)" xlink:href="#ae"/><use transform="matrix(0.06172839506172839,0,0,0.06172839506172839,107.16049382716051,0)" xlink:href="#ag"/><use transform="matrix(0.06172839506172839,0,0,0.06172839506172839,119.50617283950619,0)" xlink:href="#ac"/></g><g id="H"><use transform="matrix(0.06172839506172839,0,0,0.06172839506172839,0,0)" xlink:href="#aw"/><use transform="matrix(0.06172839506172839,0,0,0.06172839506172839,13.148148148148147,0)" xlink:href="#W"/><use transform="matrix(0.06172839506172839,0,0,0.06172839506172839,27.962962962962962,0)" xlink:href="#ax"/><use transform="matrix(0.06172839506172839,0,0,0.06172839506172839,46.419753086419746,0)" xlink:href="#ay"/></g><g id="I"><use transform="matrix(0.06172839506172839,0,0,0.06172839506172839,0,0)" xlink:href="#ap"/><use transform="matrix(0.06172839506172839,0,0,0.06172839506172839,14.814814814814813,0)" xlink:href="#aq"/><use transform="matrix(0.06172839506172839,0,0,0.06172839506172839,27.160493827160494,0)" xlink:href="#ak"/><use transform="matrix(0.06172839506172839,0,0,0.06172839506172839,39.50617283950617,0)" xlink:href="#ah"/><use transform="matrix(0.06172839506172839,0,0,0.06172839506172839,57.96296296296296,0)" xlink:href="#ae"/><use transform="matrix(0.06172839506172839,0,0,0.06172839506172839,62.839506172839506,0)" xlink:href="#Y"/></g><path fill="#3a414a" d="M63-220v92h138v28H63V0H30v-248h175v28H63" id="bg"/><g id="J"><use transform="matrix(0.06172839506172839,0,0,0.06172839506172839,0,0)" xlink:href="#bg"/><use transform="matrix(0.06172839506172839,0,0,0.06172839506172839,13.518518518518517,0)" xlink:href="#al"/><use transform="matrix(0.06172839506172839,0,0,0.06172839506172839,18.39506172839506,0)" xlink:href="#aj"/><use transform="matrix(0.06172839506172839,0,0,0.06172839506172839,30.74074074074074,0)" xlink:href="#af"/><use transform="matrix(0.06172839506172839,0,0,0.06172839506172839,38.08641975308642,0)" xlink:href="#aa"/></g><path fill="#3a414a" d="M266 0h-40l-56-210L115 0H75L2-248h35L96-30l15-64 43-154h32l59 218 59-218h35" id="bh"/><path fill="#3a414a" d="M143 0L79-87 56-68V0H24v-261h32v163l83-92h37l-77 82L181 0h-38" id="bi"/><g id="K"><use transform="matrix(0.06172839506172839,0,0,0.06172839506172839,0,0)" xlink:href="#bh"/><use transform="matrix(0.06172839506172839,0,0,0.06172839506172839,20.493827160493826,0)" xlink:href="#ag"/><use transform="matrix(0.06172839506172839,0,0,0.06172839506172839,32.839506172839506,0)" xlink:href="#af"/><use transform="matrix(0.06172839506172839,0,0,0.06172839506172839,40.18518518518518,0)" xlink:href="#bi"/><use transform="matrix(0.06172839506172839,0,0,0.06172839506172839,51.29629629629629,0)" xlink:href="#au"/><use transform="matrix(0.06172839506172839,0,0,0.06172839506172839,57.46913580246913,0)" xlink:href="#al"/><use transform="matrix(0.06172839506172839,0,0,0.06172839506172839,62.34567901234568,0)" xlink:href="#ag"/><use transform="matrix(0.06172839506172839,0,0,0.06172839506172839,74.69135802469135,0)" xlink:href="#bb"/></g><g id="L"><use transform="matrix(0.06172839506172839,0,0,0.06172839506172839,0,0)" xlink:href="#Y"/><use transform="matrix(0.06172839506172839,0,0,0.06172839506172839,6.172839506172839,0)" xlink:href="#ag"/></g><g id="M"><use transform="matrix(0.06172839506172839,0,0,0.06172839506172839,0,0)" xlink:href="#as"/><use transform="matrix(0.06172839506172839,0,0,0.06172839506172839,14.814814814814813,0)" xlink:href="#ag"/><use transform="matrix(0.06172839506172839,0,0,0.06172839506172839,27.160493827160494,0)" xlink:href="#af"/><use transform="matrix(0.06172839506172839,0,0,0.06172839506172839,34.50617283950617,0)" xlink:href="#ag"/><use transform="matrix(0.06172839506172839,0,0,0.06172839506172839,46.85185185185185,0)" xlink:href="#am"/></g><g id="N"><use transform="matrix(0.06172839506172839,0,0,0.06172839506172839,0,0)" xlink:href="#ai"/><use transform="matrix(0.06172839506172839,0,0,0.06172839506172839,13.148148148148147,0)" xlink:href="#aj"/><use transform="matrix(0.06172839506172839,0,0,0.06172839506172839,25.493827160493826,0)" xlink:href="#al"/><use transform="matrix(0.06172839506172839,0,0,0.06172839506172839,30.370370370370367,0)" xlink:href="#ae"/><use transform="matrix(0.06172839506172839,0,0,0.06172839506172839,35.24691358024691,0)" xlink:href="#X"/><use transform="matrix(0.06172839506172839,0,0,0.06172839506172839,47.59259259259259,0)" xlink:href="#aj"/><use transform="matrix(0.06172839506172839,0,0,0.06172839506172839,59.938271604938265,0)" xlink:href="#Y"/><use transform="matrix(0.06172839506172839,0,0,0.06172839506172839,66.1111111111111,0)" xlink:href="#aa"/></g><g id="O"><use transform="matrix(0.06172839506172839,0,0,0.06172839506172839,0,0)" xlink:href="#aw"/><use transform="matrix(0.06172839506172839,0,0,0.06172839506172839,13.148148148148147,0)" xlink:href="#W"/><use transform="matrix(0.06172839506172839,0,0,0.06172839506172839,27.962962962962962,0)" xlink:href="#ax"/><use transform="matrix(0.06172839506172839,0,0,0.06172839506172839,46.419753086419746,0)" xlink:href="#ay"/></g><g id="P"><use transform="matrix(0.06172839506172839,0,0,0.06172839506172839,0,0)" xlink:href="#bb"/><use transform="matrix(0.06172839506172839,0,0,0.06172839506172839,15.987654320987653,0)" xlink:href="#ae"/><use transform="matrix(0.06172839506172839,0,0,0.06172839506172839,20.864197530864196,0)" xlink:href="#Y"/><use transform="matrix(0.06172839506172839,0,0,0.06172839506172839,27.037037037037035,0)" xlink:href="#Z"/></g><g id="Q"><use transform="matrix(0.06172839506172839,0,0,0.06172839506172839,0,0)" xlink:href="#ay"/><use transform="matrix(0.06172839506172839,0,0,0.06172839506172839,12.345679012345679,0)" xlink:href="#ae"/><use transform="matrix(0.06172839506172839,0,0,0.06172839506172839,17.22222222222222,0)" xlink:href="#ac"/><use transform="matrix(0.06172839506172839,0,0,0.06172839506172839,29.5679012345679,0)" xlink:href="#Y"/><use transform="matrix(0.06172839506172839,0,0,0.06172839506172839,35.74074074074074,0)" xlink:href="#aa"/><use transform="matrix(0.06172839506172839,0,0,0.06172839506172839,48.08641975308642,0)" xlink:href="#af"/></g><path fill="#3a414a" d="M87 75C49 33 22-17 22-94c0-76 28-126 65-167h31c-38 41-64 92-64 168S80 34 118 75H87" id="bj"/><path fill="#3a414a" d="M16-82v-28h88v28H16" id="bk"/><path fill="#3a414a" d="M33-261c38 41 65 92 65 168S71 34 33 75H2C39 34 66-17 66-93S39-220 2-261h31" id="bl"/><g id="R"><use transform="matrix(0.06172839506172839,0,0,0.06172839506172839,0,0)" xlink:href="#bj"/><use transform="matrix(0.06172839506172839,0,0,0.06172839506172839,7.345679012345679,0)" xlink:href="#bk"/><use transform="matrix(0.06172839506172839,0,0,0.06172839506172839,14.691358024691358,0)" xlink:href="#al"/><use transform="matrix(0.06172839506172839,0,0,0.06172839506172839,19.5679012345679,0)" xlink:href="#bl"/></g><g id="S"><use transform="matrix(0.06172839506172839,0,0,0.06172839506172839,0,0)" xlink:href="#ar"/><use transform="matrix(0.06172839506172839,0,0,0.06172839506172839,11.11111111111111,0)" xlink:href="#ag"/><use transform="matrix(0.06172839506172839,0,0,0.06172839506172839,23.45679012345679,0)" xlink:href="#ah"/><use transform="matrix(0.06172839506172839,0,0,0.06172839506172839,41.91358024691358,0)" xlink:href="#ah"/><use transform="matrix(0.06172839506172839,0,0,0.06172839506172839,60.37037037037037,0)" xlink:href="#aj"/><use transform="matrix(0.06172839506172839,0,0,0.06172839506172839,72.71604938271605,0)" xlink:href="#ac"/><use transform="matrix(0.06172839506172839,0,0,0.06172839506172839,85.06172839506173,0)" xlink:href="#X"/></g><path fill="#3a414a" d="M182-130c37 4 62 22 62 59C244 23 116-4 24 0v-248c84 5 203-23 205 63 0 31-19 50-47 55zM76-148c40-3 101 13 101-30 0-44-60-28-101-31v61zm0 110c48-3 116 14 116-37 0-48-69-32-116-35v72" id="bm"/><path fill="#3a414a" d="M85 4C-2 5 27-109 22-190h50c7 57-23 150 33 157 60-5 35-97 40-157h50l1 190h-47c-2-12 1-28-3-38-12 25-28 42-61 42" id="bn"/><path fill="#3a414a" d="M25-224v-37h50v37H25zM25 0v-190h50V0H25" id="bo"/><g id="T"><use transform="matrix(0.0864197530864197,0,0,0.0864197530864197,0,0)" xlink:href="#bm"/><use transform="matrix(0.0864197530864197,0,0,0.0864197530864197,22.382716049382704,0)" xlink:href="#bn"/><use transform="matrix(0.0864197530864197,0,0,0.0864197530864197,41.30864197530862,0)" xlink:href="#bo"/><use transform="matrix(0.0864197530864197,0,0,0.0864197530864197,49.95061728395059,0)" xlink:href="#aA"/><use transform="matrix(0.0864197530864197,0,0,0.0864197530864197,58.592592592592574,0)" xlink:href="#aH"/></g><path fill="#3a414a" d="M136-208V0H84v-208H4v-40h212v40h-80" id="bp"/><path fill="#3a414a" d="M137-138c1-29-70-34-71-4 15 46 118 7 119 86 1 83-164 76-172 9l43-7c4 19 20 25 44 25 33 8 57-30 24-41C81-84 22-81 20-136c-2-80 154-74 161-7" id="bq"/><g id="U"><use transform="matrix(0.0864197530864197,0,0,0.0864197530864197,0,0)" xlink:href="#bp"/><use transform="matrix(0.0864197530864197,0,0,0.0864197530864197,16.592592592592585,0)" xlink:href="#aD"/><use transform="matrix(0.0864197530864197,0,0,0.0864197530864197,33.87654320987653,0)" xlink:href="#bq"/><use transform="matrix(0.0864197530864197,0,0,0.0864197530864197,51.16049382716048,0)" xlink:href="#aF"/></g><path fill="#3a414a" d="M24-248c120-7 223 5 221 122C244-46 201 0 124 0H24v-248zM76-40c74 7 117-18 117-86 0-67-45-88-117-82v168" id="br"/><path fill="#3a414a" d="M135-194c53 0 70 44 70 98 0 56-19 98-73 100-31 1-45-17-59-34 3 33 2 69 2 105H25l-1-265h48c2 10 0 23 3 31 11-24 29-35 60-35zM114-30c33 0 39-31 40-66 0-38-9-64-40-64-56 0-55 130 0 130" id="bs"/><path fill="#3a414a" d="M123 10C108 53 80 86 19 72V37c35 8 53-11 59-39L3-190h52l48 148c12-52 28-100 44-148h51" id="bt"/><g id="V"><use transform="matrix(0.0864197530864197,0,0,0.0864197530864197,0,0)" xlink:href="#br"/><use transform="matrix(0.0864197530864197,0,0,0.0864197530864197,22.382716049382704,0)" xlink:href="#aD"/><use transform="matrix(0.0864197530864197,0,0,0.0864197530864197,39.66666666666664,0)" xlink:href="#bs"/><use transform="matrix(0.0864197530864197,0,0,0.0864197530864197,58.59259259259256,0)" xlink:href="#aA"/><use transform="matrix(0.0864197530864197,0,0,0.0864197530864197,67.23456790123453,0)" xlink:href="#aI"/><use transform="matrix(0.0864197530864197,0,0,0.0864197530864197,86.16049382716045,0)" xlink:href="#bt"/></g></defs></g></svg>