<svg width="48" height="48" viewBox="0 0 48 48" fill="none" xmlns="http://www.w3.org/2000/svg">
<g clip-path="url(#clip0_165_35)">
<path fill-rule="evenodd" clip-rule="evenodd" d="M41.6506 41.7477C42.1601 41.7984 42.6213 42.0711 42.9114 42.493C43.119 42.7951 43.5957 43.3385 44.2445 43.7922C44.8916 44.2447 45.5839 44.5218 46.2609 44.5218C47.2214 44.5218 48 45.3004 48 46.2609C48 47.2214 47.2214 48 46.2609 48C44.6422 48 43.2621 47.3495 42.2512 46.6426C41.9091 46.4034 41.5948 46.1478 41.3121 45.8901C39.0846 47.5065 36.8265 47.9119 34.794 47.5566C33.2382 47.2847 31.9121 46.585 30.9051 45.8057C28.6405 47.4924 26.3397 47.918 24.2723 47.5566C22.8113 47.3013 21.5528 46.6687 20.571 45.9473C18.816 47.5299 16.7701 48 15.6522 48C14.6917 48 13.913 47.2214 13.913 46.2609C13.913 45.3004 14.6917 44.5218 15.6522 44.5218C16.1546 44.5218 17.8575 44.1572 19.0017 42.493C19.3074 42.0483 19.8023 41.7707 20.3412 41.7417C20.8802 41.7126 21.402 41.9354 21.7538 42.3448C22.3513 43.0401 23.4964 43.89 24.8712 44.1303C26.1325 44.3508 27.8144 44.1026 29.7458 42.2297C30.09 41.896 30.5566 41.7192 31.0355 41.7409C31.5144 41.7627 31.9631 41.9812 32.2755 42.3448C32.8731 43.0401 34.0181 43.89 35.3929 44.1303C36.6543 44.3508 38.3362 44.1026 40.2676 42.2297C40.6351 41.8733 41.1411 41.697 41.6506 41.7477Z" fill="#1F1F1F"/>
<path fill-rule="evenodd" clip-rule="evenodd" d="M41.6506 33.3999C42.1601 33.4506 42.6213 33.7233 42.9114 34.1452C43.119 34.4472 43.5957 34.9907 44.2445 35.4444C44.8916 35.8969 45.5839 36.1739 46.2609 36.1739C47.2214 36.1739 48 36.9526 48 37.9131C48 38.8735 47.2214 39.6522 46.2609 39.6522C44.6422 39.6522 43.2621 39.0017 42.2512 38.2948C41.9091 38.0556 41.5948 37.8 41.3121 37.5423C39.0846 39.1587 36.8265 39.5641 34.794 39.2088C33.2382 38.9369 31.9121 38.2372 30.9051 37.4579C28.6405 39.1445 26.3397 39.5702 24.2723 39.2088C22.8113 38.9534 21.5528 38.3209 20.571 37.5994C18.816 39.1821 16.7701 39.6522 15.6522 39.6522C14.6917 39.6522 13.913 38.8735 13.913 37.9131C13.913 36.9526 14.6917 36.1739 15.6522 36.1739C16.1546 36.1739 17.8575 35.8094 19.0017 34.1452C19.3074 33.7004 19.8023 33.4229 20.3412 33.3938C20.8802 33.3648 21.402 33.5876 21.7538 33.9969C22.3513 34.6923 23.4964 35.5422 24.8712 35.7825C26.1325 36.003 27.8144 35.7548 29.7458 33.8819C30.09 33.5482 30.5566 33.3713 31.0355 33.3931C31.5144 33.4149 31.9631 33.6334 32.2755 33.9969C32.8731 34.6923 34.0181 35.5422 35.3929 35.7825C36.6543 36.003 38.3362 35.7548 40.2676 33.8819C40.6351 33.5255 41.1411 33.3491 41.6506 33.3999Z" fill="#1F1F1F"/>
<path fill-rule="evenodd" clip-rule="evenodd" d="M22.8274 0.454808C23.4915 -0.151603 24.5085 -0.151603 25.1726 0.454808L47.4335 20.78C47.7944 21.1095 48 21.5756 48 22.0643V29.5652C48 30.5257 47.2214 31.3043 46.2609 31.3043C45.3004 31.3043 44.5217 30.5257 44.5217 29.5652V22.8314L24 4.09413L3.47826 22.8314V44.5217H10.087C11.0475 44.5217 11.8261 45.3004 11.8261 46.2609C11.8261 47.2214 11.0475 48 10.087 48H1.73913C0.778635 48 0 47.2214 0 46.2609V22.0643C0 21.5756 0.205602 21.1095 0.566488 20.78L22.8274 0.454808Z" fill="#1F1F1F"/>
</g>
<defs>
<clipPath id="clip0_165_35">
<rect width="48" height="48" fill="white"/>
</clipPath>
</defs>
</svg>
