<svg viewBox="0 0 24 24" fill="none" xmlns="http://www.w3.org/2000/svg">
<g clip-path="url(#clip0_1581_3797)">
<path fill-rule="evenodd" clip-rule="evenodd" d="M21.8076 9.82943C22.0025 9.6606 22.1277 9.4272 22.1084 9.15206C22.1133 8.89777 22.005 8.65813 21.8125 8.49138C19.7911 6.74052 14.3763 2.05055 12.5955 0.508122C12.2586 0.216312 11.746 0.20172 11.4139 0.489361C9.62591 2.03804 4.21374 6.72577 2.18748 8.4808C1.99256 8.64963 1.89172 8.90413 1.88691 9.15842C1.8821 9.41271 2.01441 9.67321 2.20692 9.83996C4.22837 11.5908 9.64284 16.2805 11.4236 17.823C11.7605 18.1148 12.249 18.1085 12.5835 17.8188C14.3691 16.2722 19.7837 11.5824 21.8076 9.82943ZM12.0011 2.10685L3.86001 9.15824L11.9939 16.2034L20.135 9.15199L12.0011 2.10685Z" fill="#595959"/>
<path fill-rule="evenodd" clip-rule="evenodd" d="M10.2547 17.89L9.05475 16.85C9.05475 16.85 7.95875 17.8 7.17575 18.48C6.98075 18.65 6.86875 18.89 6.86875 19.15C6.86875 19.41 6.98075 19.6501 7.17575 19.8201C8.04068 20.5738 9.45924 21.8029 10.535 22.735C10.8721 23.0271 11.1756 23.29 11.4178 23.5C11.7518 23.79 12.2477 23.79 12.5817 23.5C13.1868 22.9694 14.175 22.112 15.1152 21.2961C15.7521 20.7434 16.367 20.2099 16.8258 19.8101C17.0198 19.6401 17.1318 19.4 17.1318 19.14C17.1308 18.88 17.0187 18.6401 16.8237 18.4701C16.0397 17.7901 14.9438 16.8401 14.9438 16.8401L13.7397 17.89L15.1997 19.15L11.9998 21.92L8.79975 19.15L10.2547 17.89ZM21.3408 11.3L20.1398 12.3401L21.5998 13.61L18.3997 16.38L16.9398 15.11L15.7397 16.15C15.7397 16.15 17.0267 17.2701 17.8107 17.9501C18.1487 18.2401 18.6518 18.2401 18.9897 17.9501C20.0037 17.0701 22.0787 15.27 23.2137 14.29C23.4117 14.12 23.5248 13.87 23.5248 13.61C23.5248 13.35 23.4117 13.1001 23.2137 12.9301C22.4297 12.2501 21.3408 11.3 21.3408 11.3ZM2.65375 11.3101C2.65375 11.3101 1.55875 12.2601 0.775749 12.9401C0.580749 13.1001 0.46875 13.35 0.46875 13.61C0.46875 13.86 0.580749 14.11 0.775749 14.28C1.23966 14.6802 1.86299 15.2205 2.5073 15.779C3.44076 16.5881 4.41824 17.4354 5.01875 17.9501C5.35175 18.2401 5.84775 18.2401 6.18175 17.9501C6.96375 17.2801 8.25475 16.16 8.25475 16.16L7.05475 15.12L5.59975 16.38L2.39975 13.61L3.85475 12.35L2.65375 11.3101Z" fill="#595959"/>
<path fill-rule="evenodd" clip-rule="evenodd" d="M22.1084 9.15206C22.1277 9.4272 22.0025 9.6606 21.8076 9.82943L12.5835 17.8188C12.249 18.1085 11.7605 18.1148 11.4236 17.823L2.20692 9.83996C2.01441 9.67321 1.8821 9.41271 1.88691 9.15842C1.89172 8.90413 1.99256 8.64963 2.18748 8.4808L11.4139 0.489361C11.746 0.20172 12.2586 0.216312 12.5955 0.508122L21.8125 8.49138C22.005 8.65813 22.1133 8.89777 22.1084 9.15206ZM9.05475 16.85L10.2547 17.89L8.79975 19.15L11.9998 21.92L15.1997 19.15L13.7397 17.89L14.9438 16.8401C14.9438 16.8401 16.0397 17.7901 16.8237 18.4701C17.0187 18.6401 17.1308 18.88 17.1318 19.14C17.1318 19.4 17.0198 19.6401 16.8258 19.8101C16.367 20.2099 15.7521 20.7434 15.1152 21.2961C14.175 22.112 13.1868 22.9694 12.5817 23.5C12.2477 23.79 11.7518 23.79 11.4178 23.5L10.535 22.735C9.45924 21.8029 8.04068 20.5738 7.17575 19.8201C6.98075 19.6501 6.86875 19.41 6.86875 19.15C6.86875 18.89 6.98075 18.65 7.17575 18.48C7.95875 17.8 9.05475 16.85 9.05475 16.85ZM20.1398 12.3401L21.3408 11.3C21.3408 11.3 22.4297 12.2501 23.2137 12.9301C23.4117 13.1001 23.5248 13.35 23.5248 13.61C23.5248 13.87 23.4117 14.12 23.2137 14.29C22.0787 15.27 20.0037 17.0701 18.9897 17.9501C18.6518 18.2401 18.1487 18.2401 17.8107 17.9501C17.0267 17.2701 15.7397 16.15 15.7397 16.15L16.9398 15.11L18.3997 16.38L21.5998 13.61L20.1398 12.3401ZM0.775749 12.9401C1.55875 12.2601 2.65375 11.3101 2.65375 11.3101L3.85475 12.35L2.39975 13.61L5.59975 16.38L7.05475 15.12L8.25475 16.16C8.25475 16.16 6.96375 17.2801 6.18175 17.9501C5.84775 18.2401 5.35175 18.2401 5.01875 17.9501C4.41824 17.4354 3.44076 16.5881 2.5073 15.779C1.86299 15.2205 1.23966 14.6802 0.775749 14.28C0.580749 14.11 0.46875 13.86 0.46875 13.61C0.46875 13.35 0.580749 13.1001 0.775749 12.9401ZM3.86001 9.15824L12.0011 2.10685L20.135 9.15199L11.9939 16.2034L3.86001 9.15824Z" fill="#595959"/>
</g>
<defs>
<clipPath id="clip0_1581_3797">
<rect width="24" height="24" fill="white"/>
</clipPath>
</defs>
</svg>
