<svg width="32" height="32" viewBox="0 0 32 32" xmlns="http://www.w3.org/2000/svg">
<g id="Audience">
<g id="Group">
<path id="Vector" d="M19.4179 19.569H13.3578C7.63585 19.569 3 24.2076 3 29.9268C3 31.0734 3.92662 32 5.07046 32H27.7025C28.8491 32 29.7757 31.0734 29.7757 29.9268C29.7757 24.2076 25.1371 19.569 19.4179 19.569Z" />
<path id="Vector_2" opacity="0.4" d="M17.7793 0.527926C17.7793 0.239216 17.9745 0 18.2907 0C22.2392 0 25.4425 3.20055 25.4425 7.15175C25.4425 7.43771 25.2005 7.66317 24.9118 7.66317H17.7793V0.527926Z" />
<path id="Vector_3" d="M15.8873 9.54939H23.4982C23.7924 9.54939 24.0289 9.7996 23.9876 10.0911C23.4762 13.8223 20.2757 16.6984 16.3987 16.6984C12.1698 16.6984 8.73828 13.2696 8.73828 9.03796C8.73828 5.1665 11.6144 1.9632 15.3181 1.44902C15.6398 1.40778 15.89 1.64425 15.89 1.93846V9.54939H15.8873Z" />
</g>
</g>
</svg>
