<svg width="32" height="32" viewBox="0 0 32 32"  xmlns="http://www.w3.org/2000/svg">
<g opacity="0.4">
<path d="M21.7067 10.5776C21.5067 10.5776 21.3068 10.4976 21.1568 10.3376C20.9869 10.1577 19.3275 8.88815 17.0583 8.71821C16.2186 8.70822 15.7787 8.13842 15.7887 7.0388V4.55968H17.2982V7.0488C17.2982 7.11878 17.2982 7.17875 17.2982 7.21874C19.7973 7.46865 21.7366 8.7482 22.2565 9.308C22.5364 9.6179 22.5264 10.0877 22.2165 10.3776C22.0665 10.5176 21.8866 10.5776 21.6967 10.5776H21.7067Z" />
<path d="M16.5286 4.84957C15.8388 4.84957 15.1591 4.55968 14.6792 3.99987C13.8095 2.98023 13.9295 1.45077 14.9491 0.581078C15.9688 -0.288616 17.4982 -0.168658 18.3679 0.850982C19.2376 1.87062 19.1177 3.40008 18.098 4.26978C17.6382 4.65964 17.0784 4.84957 16.5286 4.84957ZM16.5286 1.52075C16.3186 1.52075 16.1087 1.59072 15.9388 1.74067C15.5589 2.07055 15.5089 2.64035 15.8388 3.03021C16.1687 3.41008 16.7385 3.46006 17.1284 3.13018C17.5082 2.8003 17.5582 2.2305 17.2283 1.84063C17.0484 1.63071 16.7885 1.52075 16.5286 1.52075Z" />
<path d="M6.66192 21.8236L5.97217 20.4741L8.19139 19.3445C8.25136 19.3145 8.30135 19.2845 8.34133 19.2645C7.43165 16.9153 7.69156 14.6161 7.96147 13.8964C8.10142 13.5065 8.54126 13.3066 8.93113 13.4465C9.32099 13.5865 9.52092 14.0263 9.38097 14.4162C9.291 14.6561 8.91113 16.6954 9.78083 18.8047C10.1507 19.5544 9.8408 20.2042 8.86115 20.694L6.65193 21.8136L6.66192 21.8236Z" />
<path d="M4.42292 24.5526C4.10303 24.5526 3.79314 24.4926 3.49324 24.3627C2.89345 24.1128 2.43362 23.6429 2.1837 23.0431C1.93379 22.4434 1.94379 21.7836 2.1837 21.1838C2.70352 19.9542 4.12302 19.3644 5.35259 19.8843C6.58215 20.4041 7.17195 21.8236 6.65213 23.0531C6.40222 23.6529 5.93238 24.1128 5.33259 24.3627C5.0327 24.4826 4.72281 24.5426 4.41292 24.5426L4.42292 24.5526ZM4.42292 21.2138C4.06304 21.2138 3.72316 21.4237 3.58321 21.7736C3.49324 22.0035 3.48325 22.2434 3.58321 22.4733C3.67318 22.7033 3.85312 22.8732 4.07304 22.9732C4.30296 23.0631 4.54287 23.0631 4.77279 22.9732C5.00271 22.8832 5.17265 22.7033 5.26262 22.4833C5.35259 22.2534 5.36258 22.0135 5.26262 21.7836C5.17265 21.5537 4.99271 21.3837 4.77279 21.2838C4.66283 21.2338 4.54287 21.2138 4.42292 21.2138Z" />
<path d="M19.1877 24.3527C18.8378 24.3527 18.5279 24.1128 18.448 23.7529C18.358 23.343 18.6179 22.9432 19.0278 22.8532C19.2777 22.8032 21.197 22.0235 22.5165 20.1542C22.9564 19.4444 23.6661 19.3544 24.6058 19.9242L26.7451 21.1938L25.9753 22.4933L23.8261 21.2238C23.7661 21.1938 23.7161 21.1638 23.6761 21.1338C22.1867 23.1631 20.0974 24.1727 19.3477 24.3327C19.2977 24.3427 19.2377 24.3527 19.1877 24.3527Z" />
<path d="M28.1945 25.3523C27.0349 25.3523 26.0052 24.5226 25.8053 23.3431C25.6953 22.7033 25.8453 22.0635 26.2152 21.5337C26.585 21.0039 27.1448 20.654 27.7846 20.544C28.4244 20.4341 29.0642 20.584 29.594 20.9539C30.1238 21.3238 30.4737 21.8836 30.5836 22.5233C30.8135 23.8429 29.9238 25.1024 28.6043 25.3224C28.4644 25.3423 28.3244 25.3623 28.1945 25.3623V25.3523ZM28.1945 22.0135C28.1445 22.0135 28.0945 22.0135 28.0345 22.0235C27.7946 22.0635 27.5847 22.1935 27.4447 22.3934C27.3048 22.5933 27.2448 22.8332 27.2948 23.0731C27.3747 23.573 27.8546 23.9029 28.3444 23.8129C28.8442 23.7229 29.1741 23.2531 29.0841 22.7633C29.0442 22.5233 28.9142 22.3134 28.7143 22.1735C28.5543 22.0635 28.3744 22.0035 28.1945 22.0035V22.0135Z" />
</g>
<path d="M16.548 20.1942C18.8391 20.1942 20.6965 18.3368 20.6965 16.0456C20.6965 13.7544 18.8391 11.8971 16.548 11.8971C14.2568 11.8971 12.3994 13.7544 12.3994 16.0456C12.3994 18.3368 14.2568 20.1942 16.548 20.1942Z" />
<path d="M9.73058 12.177C9.4007 12.177 9.02083 12.037 8.60098 11.7671L6.51172 10.4276L7.33143 9.15804L9.43069 10.5076C9.49067 10.5476 9.54065 10.5775 9.58064 10.5975C11.1501 8.62823 13.2693 7.69856 14.0291 7.56861C14.4389 7.49863 14.8288 7.76853 14.9088 8.17839C14.9787 8.58825 14.7088 8.97811 14.299 9.05808C14.0491 9.09807 12.0898 9.80782 10.7102 11.6172C10.4603 11.997 10.1304 12.187 9.74058 12.187L9.73058 12.177Z" />
<path d="M5.12189 11.0574C4.59208 11.0574 4.08225 10.8875 3.65241 10.5576C3.14259 10.1677 2.80271 9.59792 2.72273 8.94815C2.63277 8.30837 2.80271 7.6686 3.20256 7.15878C3.59243 6.63896 4.16223 6.30908 4.812 6.2291C6.14153 6.04917 7.3611 6.98884 7.54104 8.30837C7.72097 9.6379 6.7813 10.8575 5.46177 11.0374C5.35181 11.0474 5.24185 11.0574 5.13189 11.0574H5.12189ZM5.12189 7.71858C5.12189 7.71858 5.04192 7.71858 5.00193 7.71858C4.50211 7.78856 4.15223 8.24839 4.22221 8.74822C4.25219 8.98813 4.38215 9.20806 4.57208 9.34801C4.77201 9.49795 5.01193 9.55793 5.24185 9.52794C5.74167 9.45797 6.09155 8.99813 6.02157 8.49831C5.96159 8.03847 5.56173 7.70858 5.11189 7.70858L5.12189 7.71858Z" />
<path d="M15.7383 27.4316C15.7383 27.4316 15.7383 25.9522 15.7383 24.9425C15.7383 24.8725 15.7383 24.8126 15.7383 24.7726C13.2292 24.5227 11.2999 23.2331 10.78 22.6733C10.5001 22.3634 10.5201 21.8836 10.82 21.6037C11.1299 21.3238 11.6097 21.3438 11.8897 21.6437C12.0596 21.8336 13.709 23.0932 15.9882 23.2731C16.8179 23.2931 17.2578 23.8529 17.2478 24.9525C17.2478 25.9521 17.2478 27.4316 17.2478 27.4316H15.7383Z" />
<path d="M16.498 31.99C16.428 31.99 16.368 31.99 16.2981 31.99C15.6483 31.94 15.0685 31.6401 14.6486 31.1403C13.779 30.1207 13.9089 28.5912 14.9285 27.7215C15.4184 27.3017 16.0482 27.1017 16.6979 27.1517C17.3477 27.2017 17.9275 27.5016 18.3473 28.0014C18.7672 28.4912 18.9671 29.121 18.9171 29.7708C18.8672 30.4206 18.5673 31.0004 18.0674 31.4202C17.6276 31.8001 17.0778 32 16.498 32V31.99ZM16.498 28.6512C16.2781 28.6512 16.0781 28.7312 15.9082 28.8711C15.5283 29.201 15.4784 29.7708 15.8082 30.1606C16.1281 30.5405 16.7079 30.5905 17.0978 30.2606C17.4776 29.9307 17.5276 29.3609 17.1977 28.9711C17.0378 28.7811 16.8179 28.6712 16.578 28.6512C16.548 28.6512 16.528 28.6512 16.498 28.6512Z" />
<path d="M24.4655 18.1549C24.3955 18.1549 24.3155 18.1449 24.2456 18.1249C23.8457 18.0049 23.6258 17.5751 23.7457 17.1752C23.8157 16.9353 24.0856 14.866 23.106 12.8168C22.6961 12.087 22.966 11.4272 23.9257 10.8874L26.0749 9.64787L26.8347 10.9574L24.6754 12.207C24.6154 12.237 24.5655 12.267 24.5255 12.2969C25.5651 14.5861 25.4251 16.9053 25.1952 17.6351C25.0953 17.9649 24.7954 18.1649 24.4755 18.1649L24.4655 18.1549Z" />
<path d="M28.284 11.6372C28.0141 11.6372 27.7442 11.5872 27.4743 11.4972C26.8645 11.2773 26.3747 10.8375 26.0948 10.2577C25.8149 9.66789 25.7849 9.01812 25.9948 8.40833C26.4447 7.14878 27.8342 6.48901 29.0938 6.93885C30.3533 7.38869 31.0131 8.7782 30.5632 10.0378C30.2134 11.0274 29.2737 11.6472 28.274 11.6472L28.284 11.6372ZM28.284 8.29837C28.1541 8.29837 28.0141 8.32836 27.8942 8.38834C27.6743 8.4983 27.5043 8.67824 27.4243 8.90816C27.3444 9.13808 27.3544 9.38799 27.4643 9.60791C27.5743 9.82783 27.7542 9.99777 27.9841 10.0777C28.454 10.2477 28.9838 9.99777 29.1437 9.52794C29.2237 9.29802 29.2137 9.04811 29.1038 8.82818C28.9938 8.60826 28.8139 8.43832 28.5839 8.35835C28.484 8.31836 28.384 8.30837 28.274 8.30837L28.284 8.29837Z" />
</svg>
