<svg width="32" height="32" viewBox="0 0 32 32"  xmlns="http://www.w3.org/2000/svg">
<g id="Lens" clip-path="url(#clip0_32_1847)">
<g id="Group 1">
<path id="Vector" d="M11.725 31.4062L17.1573 22.0014H1.17383C3.024 26.5704 6.91953 30.0756 11.725 31.4062ZM4.79445 4.58832L10.2268 14.0014L18.2075 0.170447C17.4872 0.0714776 16.7505 0 15.9999 0C11.6316 0 7.68105 1.75395 4.79445 4.58832ZM31.4749 12H20.6185L28.6048 25.8309C30.7243 23.1175 31.9972 19.7113 31.9972 16C31.9972 14.6199 31.8048 13.2811 31.4721 12H31.4749Z" />
<path id="Vector_2" opacity="0.4" d="M0 16C0 17.3828 0.195189 18.7189 0.525086 20H11.3814L3.39244 6.16907C1.2756 8.88247 0 12.2887 0 16ZM20.2749 0.596558L14.8426 10.0014H30.8234C28.9732 5.43505 25.0804 1.92989 20.2749 0.596558ZM13.7869 31.8323C14.5127 31.9313 15.1918 32 16 32C20.3656 32 24.3189 30.246 27.2055 27.4117L21.7732 17.9986L13.7869 31.8295V31.8323Z" />
</g>
</g>
<defs>
<clipPath id="clip0_32_1847">
<rect width="32" height="32" fill="white"/>
</clipPath>
</defs>
</svg>
