<svg width="32" height="32" viewBox="0 0 32 32" xmlns="http://www.w3.org/2000/svg">
<g id="Metis" clip-path="url(#clip0_32_1853)">
<g id="Group 2">
<path id="Vector" d="M11.9994 18.0022C11.4497 18.0022 10.9989 18.453 10.9989 19.0027V19.709C11.8812 20.0965 12.4996 20.976 12.4996 22.0012C12.4996 23.3809 11.381 24.4995 10.0013 24.4995C8.62154 24.4995 7.50293 23.3809 7.50293 22.0012C7.50293 20.976 8.12133 20.0965 9.00357 19.709V19.0027C9.00357 17.3481 10.3476 16.0041 12.0021 16.0041H15.0007V10.007H12.2962C11.9087 10.8893 11.0292 11.5077 10.004 11.5077C8.62429 11.5077 7.50568 10.3891 7.50568 9.00935C7.50568 7.62964 8.62429 6.51103 10.004 6.51103C11.0292 6.51103 11.9087 7.12942 12.2962 8.01167H15.0007V3.50699H16.9988V8.00617H19.9973C21.6519 8.00617 22.9958 9.35016 22.9958 11.0047V11.7111C23.8781 12.0986 24.4965 12.9781 24.4965 14.0033C24.4965 15.383 23.3779 16.5016 21.9982 16.5016C20.6185 16.5016 19.4998 15.383 19.4998 14.0033C19.4998 12.9781 20.1182 12.0986 21.0005 11.7111V11.0047C21.0005 10.455 20.5497 10.0043 20.0001 10.0043H17.0015V22.0012H21.2066C21.5941 21.1189 22.4736 20.5005 23.4988 20.5005C24.8785 20.5005 25.9971 21.6192 25.9971 22.9989C25.9971 24.3786 24.8785 25.4972 23.4988 25.4972C22.4736 25.4972 21.5941 24.8788 21.2066 23.9966H17.0015V28.4957H15.0034V17.9995H12.0049L11.9994 18.0022ZM10.0013 10.0043C10.5509 10.0043 11.0017 9.55354 11.0017 9.00385C11.0017 8.45417 10.5509 8.00342 10.0013 8.00342C9.45157 8.00342 9.00083 8.45417 9.00083 9.00385C9.00083 9.55354 9.45157 10.0043 10.0013 10.0043ZM10.0013 23.0016C10.5509 23.0016 11.0017 22.5509 11.0017 22.0012C11.0017 21.4515 10.5509 21.0008 10.0013 21.0008C9.45157 21.0008 9.00083 21.4515 9.00083 22.0012C9.00083 22.5509 9.45157 23.0016 10.0013 23.0016ZM22.9986 14.0033C22.9986 13.4536 22.5479 13.0028 21.9982 13.0028C21.4485 13.0028 20.9977 13.4536 20.9977 14.0033C20.9977 14.5529 21.4485 15.0037 21.9982 15.0037C22.5479 15.0037 22.9986 14.5529 22.9986 14.0033ZM23.4988 23.9993C24.0485 23.9993 24.4992 23.5486 24.4992 22.9989C24.4992 22.4492 24.0485 21.9984 23.4988 21.9984C22.9491 21.9984 22.4984 22.4492 22.4984 22.9989C22.4984 23.5486 22.9491 23.9993 23.4988 23.9993Z" />
<path id="Vector_2" opacity="0.4" d="M11.4994 0.00824523C13.4288 0.00824523 14.9982 1.57485 14.9982 3.507V8.00618H12.2937C11.9062 7.12394 11.0267 6.50554 10.0015 6.50554C8.62183 6.50554 7.50322 7.62415 7.50322 9.00387C7.50322 10.3836 8.62183 11.5022 10.0015 11.5022C11.0267 11.5022 11.9062 10.8838 12.2937 10.0015H14.9982V15.9986H11.9997C10.3451 15.9986 9.00112 17.3426 9.00112 18.9972V19.7035C8.11887 20.091 7.50047 20.9705 7.50047 21.9957C7.50047 23.3754 8.61908 24.494 9.9988 24.494C11.3785 24.494 12.4971 23.3754 12.4971 21.9957C12.4971 20.9705 11.8787 20.091 10.9965 19.7035V18.9972C10.9965 18.4475 11.4472 17.9967 11.9969 17.9967H14.9954V28.493C14.9954 30.4224 13.4261 31.9918 11.4967 31.9918C9.69097 31.9918 8.20407 30.623 8.01718 28.8613C7.69286 28.9492 7.34931 28.9932 6.99751 28.9932C4.78777 28.9932 2.99854 27.2012 2.99854 24.9942C2.99854 24.5325 3.07824 24.0818 3.22391 23.6695C1.33849 22.9577 0 21.1327 0 18.9972C0 17.0046 1.16808 15.2785 2.86112 14.4787C2.32243 13.7971 2.00086 12.8792 2.00086 11.9969C2.00086 10.0785 3.35034 8.47891 5.15056 8.08589C5.05162 7.74233 4.9994 7.37404 4.9994 6.99751C4.9994 5.12583 6.28567 3.55647 8.01718 3.11947C8.20407 1.36597 9.69097 0 11.4967 0L11.4994 0.00824523ZM23.9773 3.12772C25.7088 3.56472 26.9951 5.13407 26.9951 7.00575C26.9951 7.37954 26.9456 7.75058 26.8439 8.09413C28.6442 8.48716 29.9936 10.0867 29.9936 12.0052C29.9936 12.8874 29.6748 13.8054 29.1306 14.487C30.8237 15.2868 31.9918 17.01 31.9918 19.0054C31.9918 21.1409 30.656 22.9659 28.7678 23.6777C28.9108 24.09 28.9932 24.5408 28.9932 25.0025C28.9932 27.2067 27.2012 29.0015 24.9942 29.0015C24.6452 29.0015 24.3016 28.9575 23.9746 28.8695C23.7877 30.6313 22.3008 32 20.4951 32C18.5657 32 16.9963 30.4306 16.9963 28.5012V24.0021H21.2014C21.5889 24.8843 22.4684 25.5027 23.4936 25.5027C24.8733 25.5027 25.9919 24.3841 25.9919 23.0044C25.9919 21.6247 24.8733 20.5061 23.4936 20.5061C22.4684 20.5061 21.5889 21.1245 21.2014 22.0067H16.9963V10.007H19.9948C20.5445 10.007 20.9953 10.4578 20.9953 11.0075V11.7138C20.113 12.1013 19.4946 12.9808 19.4946 14.006C19.4946 15.3857 20.6132 16.5043 21.993 16.5043C23.3727 16.5043 24.4913 15.3857 24.4913 14.006C24.4913 12.9808 23.8729 12.1013 22.9906 11.7138V11.0075C22.9906 9.35292 21.6467 8.00893 19.9921 8.00893H16.9936V3.507C16.9936 1.57485 18.5629 0.00824523 20.4923 0.00824523C22.298 0.00824523 23.7849 1.37422 23.9718 3.12772H23.9773Z" />
</g>
</g>
<defs>
<clipPath id="clip0_32_1853">
<rect width="32" height="32" fill="white"/>
</clipPath>
</defs>
</svg>
