<svg width="32" height="32" viewBox="0 0 32 32" xmlns="http://www.w3.org/2000/svg">
<g id="Notebook">
<g id="Group 3">
<g id="Group">
<path id="Vector" opacity="0.4" d="M20.9384 9.72178L12.2139 1V9.72178H20.9384Z" />
<path id="Vector_2" d="M20.9383 11.828V9.72453H12.2138V1H3.48926C1.56178 1 0 2.56178 0 4.48926V25.4248C0 27.3496 1.56178 28.9141 3.48926 28.9141H17.4463C17.625 28.9141 17.8065 28.8976 17.9742 28.8756C15.5436 27.1296 13.957 24.2837 13.957 21.0612C13.957 16.6673 16.9074 12.9636 20.9356 11.8252L20.9383 11.828ZM11.3147 22.2628H2.62588C2.1447 22.2628 1.75425 21.8696 1.75425 21.3911C1.75425 20.9127 2.1447 20.5195 2.62588 20.5195H11.3147C11.7958 20.5195 12.1863 20.9127 12.1863 21.3911C12.1863 21.8696 11.7931 22.2628 11.3147 22.2628ZM11.3147 17.5747H2.62588C2.1447 17.5747 1.75425 17.1815 1.75425 16.703C1.75425 16.2246 2.1447 15.8314 2.62588 15.8314H11.3147C11.7958 15.8314 12.1863 16.2246 12.1863 16.703C12.1863 17.1815 11.7931 17.5747 11.3147 17.5747ZM11.3147 12.8866H2.62588C2.1447 12.8866 1.75425 12.4934 1.75425 12.015C1.75425 11.5365 2.1447 11.1433 2.62588 11.1433H11.3147C11.7958 11.1433 12.1863 11.5365 12.1863 12.015C12.1863 12.4934 11.7931 12.8866 11.3147 12.8866Z" />
</g>
<g id="Ydjhri.tif">
<g id="Group_2">
<path id="Vector_3" d="M16.201 23.7008C16.2147 23.7118 16.234 23.7228 16.245 23.7366C16.7867 24.336 17.4273 24.8034 18.134 25.1856C19.0413 25.6778 20.0092 26.0023 21.0156 26.2112C21.6782 26.3487 22.3491 26.4257 23.0283 26.4532C23.7267 26.4807 24.4196 26.4587 25.1125 26.3735C26.4131 26.2167 27.6614 25.8758 28.83 25.2764C29.5614 24.8997 30.2295 24.435 30.7959 23.8328C30.8179 23.8081 30.8427 23.7833 30.8647 23.7586C30.8867 23.7338 30.9087 23.7091 30.9334 23.6788C30.9279 23.9813 30.114 25.3836 29.6026 25.9858C29.0197 26.6732 28.346 27.2478 27.5706 27.707C26.7953 28.1662 25.9621 28.4824 25.0795 28.6556C21.3015 29.3898 17.5593 27.3111 16.1982 23.7036L16.201 23.7008Z" />
<path id="Vector_4" d="M30.9309 18.2841C30.788 18.1494 30.6285 17.9926 30.4662 17.8414C29.9246 17.3465 29.3142 16.956 28.657 16.6371C27.8101 16.2246 26.9192 15.9442 25.9954 15.7627C25.0962 15.5867 24.1916 15.5152 23.276 15.5345C22.7316 15.5455 22.1899 15.5922 21.651 15.672C20.7326 15.8094 19.8417 16.0432 18.9839 16.4006C18.137 16.7526 17.3533 17.2117 16.6714 17.8304C16.5257 17.9624 16.3937 18.1081 16.2562 18.2456C16.2397 18.2621 16.2205 18.2786 16.1875 18.3061C17.2434 15.4162 20.1662 13.0956 23.7929 13.2001C27.3674 13.3045 30.0153 15.7077 30.9309 18.2813V18.2841Z" />
<path id="Vector_5" d="M19.2036 29.8215C19.1981 30.6463 18.563 31.3255 17.7078 31.3337C16.8472 31.342 16.2093 30.6491 16.1955 29.8572C16.1818 29.0571 16.8087 28.3339 17.6996 28.3257C18.53 28.3147 19.1981 28.9856 19.2036 29.8242V29.8215Z" />
<path id="Vector_6" d="M29.3334 13.9287C28.6652 13.9232 28.1401 13.3843 28.1456 12.7134C28.1538 12.0562 28.6982 11.5338 29.3774 11.542C30.0235 11.5475 30.5405 12.0865 30.5377 12.7436C30.5322 13.4008 29.9905 13.9342 29.3334 13.9287Z" />
<path id="Vector_7" d="M20.6831 21.9768V23.3736H20.2129V19.7469H20.6171C20.6253 19.8844 20.6308 20.0218 20.6391 20.1648C20.7023 20.0933 20.7546 20.0246 20.8151 19.9641C21.244 19.5434 22.0826 19.5654 22.4566 20.1978C22.6381 20.503 22.682 20.8357 22.6518 21.1822C22.6353 21.3884 22.5831 21.5864 22.4841 21.7706C22.1734 22.359 21.5245 22.4635 21.1175 22.315C20.9635 22.26 20.8371 22.1665 20.7326 22.04C20.7188 22.0235 20.7051 22.0098 20.6803 21.9768H20.6831ZM20.6693 21.0612C20.6693 21.0612 20.6803 21.0612 20.6858 21.0612C20.6858 21.1437 20.6858 21.2262 20.6858 21.3087C20.6968 21.6386 20.9195 21.9081 21.2385 21.9851C21.5602 22.062 21.8902 21.9301 22.0441 21.6414C22.2449 21.2647 22.2559 20.8715 22.0799 20.4838C21.9699 20.2391 21.7747 20.0851 21.4997 20.0631C21.156 20.0356 20.8096 20.283 20.7188 20.6322C20.6831 20.7697 20.6831 20.9182 20.6693 21.0612Z" />
<path id="Vector_8" d="M29.8885 22.2215C29.5861 22.3508 29.2781 22.3865 28.9619 22.3865C28.7254 22.3865 28.5 22.3288 28.302 22.1968C27.9198 21.9411 27.7356 21.5836 27.7466 21.1217C27.7521 20.8742 27.7823 20.635 27.884 20.4095C28.1618 19.7799 28.7694 19.5984 29.3028 19.7441C29.5256 19.8046 29.6933 19.9394 29.817 20.1346C30.0067 20.437 30.0342 20.7725 30.026 21.1244H28.2057C28.2167 21.2207 28.2195 21.3087 28.2415 21.3912C28.335 21.7541 28.6677 22.0071 29.0416 22.0071C29.2946 22.0071 29.5421 21.9796 29.7785 21.8833C29.7868 21.8806 29.7978 21.8806 29.8115 21.8778C29.839 21.9906 29.8638 22.1033 29.8913 22.2215H29.8885ZM29.5943 20.7587C29.619 20.4728 29.5201 20.2473 29.2808 20.0988C29.0334 19.9449 28.7859 19.9779 28.5549 20.1373C28.3405 20.2858 28.2305 20.4948 28.2167 20.7587H29.5943Z" />
<path id="Vector_9" d="M17.147 19.7469H17.6172C17.6172 19.7771 17.6172 19.8074 17.6172 19.8349C17.6172 20.327 17.6199 20.8165 17.6254 21.3087C17.6254 21.3856 17.6419 21.4626 17.6584 21.5369C17.7629 21.9521 18.0873 22.0263 18.3926 21.9411C18.6675 21.8641 18.8545 21.6111 18.8572 21.3252C18.86 20.822 18.8572 20.3188 18.8572 19.8156C18.8572 19.7881 18.8572 19.7634 18.8572 19.7331H19.3274V22.3095H18.9205C18.9122 22.1803 18.904 22.051 18.893 21.9026C18.8682 21.9356 18.8545 21.9576 18.838 21.9796C18.5795 22.3315 18.0956 22.4717 17.6914 22.3123C17.4054 22.1995 17.2597 21.9741 17.1937 21.6881C17.1662 21.5671 17.1497 21.4406 17.147 21.3142C17.1415 20.8055 17.147 20.2995 17.147 19.7909C17.147 19.7771 17.147 19.7634 17.147 19.7441V19.7469Z" />
<path id="Vector_10" d="M22.9814 19.7331C23.1492 19.7331 23.3032 19.7331 23.4599 19.7331C23.5121 19.7331 23.5149 19.7716 23.5259 19.8019C23.6963 20.2583 23.8696 20.7147 24.0373 21.1712C24.1088 21.3664 24.172 21.5671 24.238 21.7678C24.2985 21.5809 24.3535 21.3939 24.4167 21.2069C24.5762 20.7367 24.7384 20.2665 24.8952 19.7964C24.9089 19.7524 24.9309 19.7386 24.9777 19.7386C25.1179 19.7414 25.2581 19.7386 25.4039 19.7386C25.4011 19.7579 25.3984 19.7744 25.3929 19.7881C25.0877 20.569 24.7852 21.3526 24.4717 22.1335C24.3425 22.458 24.1913 22.7769 23.9548 23.0437C23.7623 23.2609 23.5314 23.4176 23.2372 23.4863C23.1987 23.3571 23.1602 23.2306 23.1217 23.0959C23.1519 23.0849 23.1822 23.0739 23.2097 23.0602C23.5589 22.9089 23.7981 22.6477 23.9521 22.3013C23.9878 22.2215 23.9603 22.15 23.9301 22.0785C23.6991 21.5066 23.4681 20.932 23.2372 20.36C23.1547 20.1538 23.0722 19.9503 22.9842 19.7331H22.9814Z" />
<path id="Vector_11" d="M17.3673 14.2807C17.3618 14.7646 16.9713 15.155 16.4956 15.1523C16.0172 15.1495 15.6323 14.7508 15.6378 14.2669C15.6433 13.794 16.0419 13.409 16.5231 13.4173C16.9906 13.4228 17.3755 13.816 17.37 14.2807H17.3673Z" />
<path id="Vector_12" d="M26.1959 20.0933H25.8027V19.7441H26.2042V19.1145C26.3609 19.076 26.5066 19.043 26.6634 19.0045V19.7414H27.3398V20.0906H26.6716C26.6716 20.1181 26.6661 20.1401 26.6661 20.1593C26.6661 20.602 26.6661 21.0447 26.6661 21.4874C26.6661 21.5836 26.6826 21.6799 26.7074 21.7733C26.7486 21.9108 26.8448 21.9796 26.9878 21.9796C27.0841 21.9796 27.1803 21.9713 27.293 21.9658C27.2958 22.0291 27.3013 22.1006 27.304 22.1693C27.3123 22.315 27.3123 22.315 27.1665 22.3425C26.9961 22.3755 26.8256 22.3893 26.6579 22.337C26.3884 22.2573 26.2729 22.0483 26.2179 21.7926C26.2014 21.7211 26.1987 21.6441 26.1987 21.5699C26.1987 21.0859 26.1987 20.602 26.1987 20.1181C26.1987 20.1098 26.1987 20.1043 26.1959 20.0878V20.0933Z" />
<path id="Vector_13" d="M15.1589 23.4149C15.1396 23.2856 15.1259 23.1756 15.1094 23.0629C15.1754 23.0519 15.2414 23.0437 15.3018 23.0272C15.5823 22.9557 15.7308 22.7962 15.761 22.5102C15.783 22.2903 15.794 22.0676 15.794 21.8448C15.7968 21.1684 15.794 20.492 15.794 19.8129C15.794 19.7854 15.794 19.7606 15.794 19.7276H16.2697V19.8101C16.2697 20.5415 16.2697 21.2757 16.2697 22.0071C16.2697 22.183 16.267 22.359 16.2395 22.5322C16.2092 22.7385 16.1157 22.9254 15.9783 23.0822C15.8435 23.2361 15.662 23.3159 15.4668 23.3654C15.3706 23.3901 15.2689 23.3956 15.1589 23.4121V23.4149Z" />
<path id="Vector_14" d="M31.9998 20.1071C31.8926 20.1208 31.7908 20.1208 31.6974 20.1456C31.4334 20.2171 31.2712 20.393 31.2189 20.6625C31.1997 20.767 31.1914 20.8742 31.1887 20.9787C31.1859 21.3911 31.1887 21.8063 31.1887 22.2188C31.1887 22.2463 31.1887 22.271 31.1887 22.304H30.7295V19.7441H31.1419V20.2308C31.3042 19.8486 31.5846 19.6671 31.9998 19.6754V20.1071Z" />
<path id="Vector_15" d="M20.6689 21.0612C20.6854 20.9182 20.6827 20.7697 20.7184 20.6323C20.8092 20.2831 21.1556 20.0356 21.4993 20.0631C21.7743 20.0851 21.9695 20.2391 22.0795 20.4838C22.2555 20.8715 22.2445 21.2647 22.0438 21.6414C21.8898 21.9301 21.5598 22.0648 21.2381 21.9851C20.9192 21.9081 20.6964 21.6359 20.6854 21.3087C20.6827 21.2262 20.6854 21.1437 20.6854 21.0612C20.6799 21.0612 20.6744 21.0612 20.6689 21.0612Z" />
<path id="Vector_16" d="M29.5944 20.756H28.2168C28.2305 20.492 28.3378 20.2831 28.555 20.1346C28.786 19.9751 29.0334 19.9449 29.2809 20.0961C29.5201 20.2446 29.6191 20.4673 29.5944 20.756Z" />
</g>
</g>
</g>
</g>
</svg>
