<svg width="32" height="32" viewBox="0 0 32 32" xmlns="http://www.w3.org/2000/svg">
<g id="Operations" clip-path="url(#clip0_32_1888)">
<g id="Group 6">
<path id="Vector" d="M3.27179 3.27276C1.9055 4.63905 1.9055 6.85756 3.27179 8.2266C4.63808 9.59015 6.85659 9.59015 8.22014 8.2266C9.58643 6.86031 9.58643 4.64455 8.22014 3.27825C6.85659 1.90921 4.64083 1.90921 3.27179 3.27551V3.27276Z" />
<path id="Vector_2" d="M15.9455 11.9984C13.7957 11.9984 11.9455 13.7908 12.0033 15.9983C12.0033 18.203 13.7957 19.9982 16.0032 19.9404C18.2079 19.8855 20.0031 18.203 20.0031 15.9983C19.9481 13.7908 18.2107 11.9984 15.9482 11.9984H15.9455Z" />
<path id="Vector_3" d="M24.4864 11.7564C25.6575 10.5853 25.6575 8.6857 24.4864 7.51459C23.3153 6.34348 21.4157 6.34348 20.2445 7.51459C19.0734 8.6857 19.0734 10.5853 20.2445 11.7564C21.4129 12.9303 23.3125 12.9303 24.4891 11.7564H24.4864Z" />
<path id="Vector_4" d="M28.7308 23.7727C27.3645 22.4064 25.1487 22.4064 23.7797 23.7727C22.4106 25.139 22.4134 27.3547 23.7797 28.7238C25.146 30.09 27.3617 30.09 28.7308 28.7238C30.0943 27.3602 30.0943 25.1417 28.7308 23.7754V23.7727Z" />
<path id="Vector_5" opacity="0.4" d="M24.4865 11.7564C23.8239 12.419 22.936 12.6636 22.0728 12.5784C23.571 15.245 23.2219 18.6841 20.9539 20.8971C18.235 23.6682 13.7843 23.7067 11.016 20.9878C8.24763 18.269 8.2009 13.821 10.9197 11.1076C13.1575 8.82866 16.6488 8.34207 19.4199 9.92554C19.3347 9.06233 19.5821 8.17712 20.2419 7.51735C20.3738 7.38539 20.5388 7.32491 20.6872 7.22319C19.222 6.43971 17.622 6.0026 16.0028 6.0026C10.4854 6.0026 6.00438 10.4754 6.00438 16.001C6.00438 21.5239 10.4826 25.9444 16.0028 25.9444C18.6557 25.9444 21.1958 24.8888 23.0707 23.0139C26.2596 19.825 26.8012 15.0388 24.7806 11.2588C24.6816 11.4623 24.6184 11.6245 24.4892 11.7564H24.4865ZM21.0556 27.9733C16.1815 30.0268 10.5486 28.9272 6.80711 25.1912C2.45807 20.8421 1.85052 14.1591 4.96248 9.14755C3.91783 8.92488 3.04637 8.21836 2.60102 7.25068C-1.45938 13.4554 -0.766606 21.8621 4.68482 27.2557C9.44073 32.0254 16.6791 33.29 22.771 30.4199C22.6336 30.3072 22.4906 30.211 22.3642 30.0846C21.7676 29.532 21.3113 28.787 21.0556 27.976V27.9733ZM27.318 4.68579C22.5621 -0.0838644 15.376 -1.34844 9.2263 1.5216C9.36376 1.63431 9.50671 1.73053 9.63317 1.85699C10.2325 2.46453 10.6833 3.20679 10.9445 4.02051C15.8186 1.96695 21.4515 3.06658 25.193 6.80258C29.542 11.1516 30.1496 17.8319 27.0376 22.8462C28.0795 23.0689 28.9537 23.7754 29.3991 24.7431C33.4567 18.5412 32.7694 10.1345 27.318 4.68579Z" />
</g>
</g>
<defs>
<clipPath id="clip0_32_1888">
<rect width="32" height="32" fill="white"/>
</clipPath>
</defs>
</svg>
