<svg width="32" height="32" viewBox="0 0 32 32" fill="none" xmlns="http://www.w3.org/2000/svg">
<g id="Workbench">
<g id="Group 7">
<path id="Vector" d="M26.7955 3.95664C27.733 3.01683 29.2593 3.01442 30.1967 3.95664L31.2951 5.05269C32.2421 5.99972 32.2325 7.53803 31.2807 8.47544L29.2833 10.432L24.8029 5.94924L26.7955 3.95664ZM28.1344 11.5569L20.849 18.686C20.5029 19.0273 20.0822 19.2821 19.6207 19.4383L16.0345 20.6378C15.5586 20.7844 15.126 20.669 14.8015 20.3469C14.4794 20.0248 14.3688 19.5489 14.5106 19.1139L15.7052 15.5373C15.8615 15.0662 16.1259 14.6335 16.484 14.2826L23.6684 7.08615L28.1392 11.5569H28.1344ZM8.02569 19.2076C8.02569 20.0945 7.30941 20.8132 6.42007 20.8132C5.53073 20.8132 4.81445 20.0969 4.81445 19.2076C4.81445 18.3183 5.53073 17.602 6.42007 17.602C7.30941 17.602 8.02569 18.3183 8.02569 19.2076ZM9.6313 19.2076C9.6313 18.3207 10.3476 17.602 11.2369 17.602C12.1263 17.602 12.8425 18.3183 12.8425 19.2076C12.8425 20.0969 12.1263 20.8132 11.2369 20.8132C10.3476 20.8132 9.6313 20.0969 9.6313 19.2076Z" />
<g id="Group" opacity="0.4">
<path id="Vector_2" d="M0 13.5879C0 11.3694 1.79791 9.57389 4.01404 9.57389H13.6453C14.5323 9.57389 15.251 10.2902 15.251 11.1795C15.251 12.0689 14.5347 12.7851 13.6453 12.7851H4.01404C3.56937 12.7851 3.21123 13.1457 3.21123 13.5879V24.8249C3.21123 25.2671 3.56937 25.6277 4.01404 25.6277H24.8847C25.3269 25.6277 25.6875 25.2671 25.6875 24.8249V18.4024C25.6875 17.5154 26.4037 16.7968 27.2931 16.7968C28.1824 16.7968 28.8987 17.513 28.8987 18.4024V24.8249C28.8987 27.0434 27.1032 28.8389 24.8847 28.8389H4.01404C1.79791 28.8389 0 27.0434 0 24.8249V13.5879Z" />
</g>
<g id="Group_2">
<path id="Vector_3" d="M2.60273 3.82685C2.37679 3.92299 2.25661 4.07201 2.22056 4.27151C2.19412 4.43015 2.21335 4.53351 2.24219 4.60321C2.27344 4.67532 2.33113 4.74262 2.42967 4.81233C2.646 4.96376 2.97289 5.0623 3.38631 5.17768C3.39833 5.18008 3.40795 5.18489 3.41996 5.18729C3.78772 5.29305 4.23239 5.42044 4.55688 5.64638C4.73474 5.76897 4.89338 5.93482 4.99193 6.15355C5.09048 6.37708 5.11452 6.62706 5.06644 6.90107C4.98472 7.37939 4.66744 7.70869 4.25642 7.88415C3.85742 8.05481 3.36468 8.08606 2.86233 8.00674C2.59072 7.96347 2.15566 7.81445 1.87444 7.7183C1.81915 7.69907 1.77108 7.68225 1.73022 7.67023C1.54034 7.60774 1.43938 7.40343 1.50188 7.21354C1.56437 7.02366 1.76868 6.92271 1.95856 6.9852C2.01385 7.00443 2.07394 7.02366 2.13884 7.04529C2.42487 7.14143 2.77339 7.26161 2.9777 7.29527C3.39352 7.36016 3.73724 7.32411 3.9752 7.22316C4.20114 7.12701 4.32132 6.97799 4.35738 6.77849C4.38382 6.61985 4.36459 6.51649 4.33574 6.44679C4.3045 6.37468 4.24681 6.30738 4.14826 6.23767C3.93194 6.08625 3.60504 5.9877 3.19162 5.87232C3.1796 5.86992 3.16999 5.86511 3.15797 5.86271C2.79022 5.75695 2.34555 5.62956 2.02106 5.40362C1.84319 5.28103 1.68455 5.11518 1.586 4.89645C1.48746 4.67292 1.46342 4.42294 1.51149 4.14893C1.59321 3.67061 1.91049 3.34131 2.32151 3.16585C2.72051 2.99519 3.21325 2.96395 3.71561 3.04327C3.86223 3.0649 4.3069 3.15143 4.46554 3.19469C4.65783 3.24517 4.7708 3.44467 4.72032 3.63696C4.66985 3.82925 4.47035 3.94222 4.28046 3.89174C4.15547 3.85809 3.73724 3.77637 3.60264 3.75714C3.18681 3.69224 2.8431 3.7283 2.60514 3.82925L2.60273 3.82685Z" />
<path id="Vector_4" d="M9.25579 7.6486C8.8616 7.90098 8.3953 8.0476 7.89294 8.0476C6.49884 8.0476 5.36914 6.9179 5.36914 5.5238C5.36914 4.1297 6.49884 3 7.89294 3C9.28704 3 10.4167 4.1297 10.4167 5.5238C10.4167 6.15595 10.1836 6.73522 9.80141 7.17749L10.335 7.81685C10.4624 7.97068 10.4432 8.19662 10.2893 8.32401C10.1355 8.45141 9.90958 8.43218 9.78218 8.27835L9.25819 7.6486H9.25579ZM6.09023 5.5238C6.09023 6.5189 6.89784 7.32651 7.89294 7.32651C8.21743 7.32651 8.52509 7.23998 8.78709 7.08855L7.97466 6.11509C7.84727 5.96126 7.8665 5.73532 8.02033 5.60793C8.17416 5.48053 8.4001 5.49976 8.52749 5.65359L9.3255 6.61264C9.55624 6.30978 9.69085 5.93241 9.69085 5.5238C9.69085 4.5287 8.88323 3.72109 7.88813 3.72109C6.89303 3.72109 6.08542 4.5287 6.08542 5.5238H6.09023Z" />
<path id="Vector_5" d="M11.2414 3C11.4409 3 11.6019 3.16104 11.6019 3.36054V7.32651H13.7652C13.9647 7.32651 14.1257 7.48756 14.1257 7.68706C14.1257 7.88656 13.9647 8.0476 13.7652 8.0476H11.2414C11.0419 8.0476 10.8809 7.88656 10.8809 7.68706V3.36054C10.8809 3.16104 11.0419 3 11.2414 3Z" />
</g>
</g>
</g>
</svg>
