<svg xmlns="http://www.w3.org/2000/svg" viewBox="0 0 512 640" x="0px" y="0px"><title>Education &amp;amp; Science Vol.2</title><g><path d="M111.08,341.84a5.06,5.06,0,0,1-2-.4,5,5,0,0,1-2.63-6.57c6.25-14.57,5.23-23.71-17.25-42.65-14.84-12.49-17-25.63-15.08-35.11L66.53,259a4.34,4.34,0,0,1-.61.11c-7.67.9-13.37-.87-17-5.28-6.26-7.69-2.49-19.79-2-21.14l11.32-35c-4.59-5.78-8.4-14.21-8.88-15.28-10.75-24.85-19.6-61-.8-92.33A76.37,76.37,0,0,1,74.7,63.84c3-7.88,16.29-35.92,56.12-47.3,17.94-5.13,40.42-7.73,60.14-7,27.53,1.06,50,8,66.91,20.77C280,47,291.21,72.83,291.21,107.05a5,5,0,1,1-10,0c0-30.91-9.88-54-29.36-68.74C216.9,12,159.2,18.83,133.57,26.16,93.47,37.61,84,67.48,83.57,68.74A5,5,0,0,1,81,71.8,65.54,65.54,0,0,0,56.89,95.61c-13.08,22.17-12.53,50,1.64,82.74,1.26,2.83,5.36,11.07,8.89,14.6A5,5,0,0,1,68.64,198L56.43,235.8c-.87,2.67-1.93,9,.3,11.72,1.54,1.89,5,2,7.72,1.68L81.31,245a5,5,0,0,1,5.23,7.81c-1.06,1.51-10.09,15.54,9.13,31.72,24.06,20.26,28.92,33.44,20,54.24A5,5,0,0,1,111.08,341.84Z"/><path d="M210.45,237.51a4.85,4.85,0,0,1-1.3-.18,5,5,0,0,1-3.53-6.13c.73-2.72,1.32-6.38,0-8.36-1.93-2.85-8.48-3.6-14.82-4.33a74.7,74.7,0,0,1-13.16-2.31c-5.12-1.56-11.49-4.08-15.32-9.73s-4.26-13.79-1-21.11c2.85-6.44,7.6-11,12.19-15.47,4.39-4.23,8.53-8.23,10.39-13.4,3.26-9,1.61-20.19-7.83-24.06s-22.48-2.89-31.43-.65c-13.67,3.38-41.33,3.37-48.26-20.87C88,81.77,107.35,67.56,108.17,67A5,5,0,0,1,114,75.08c-.66.49-14.37,11-8.06,33.08,6,21.09,35,14.22,36.22,13.91,5.08-1.27,22.85-4.95,37.64,1.11a24.43,24.43,0,0,1,14.33,16,33.45,33.45,0,0,1-.88,20.71c-2.65,7.36-7.84,12.36-12.85,17.21-4.08,3.94-7.94,7.66-10,12.32-1.83,4.13-1.76,8.61.15,11.44,2.08,3.07,6.42,4.7,10,5.79a67.07,67.07,0,0,0,11.38,1.93c8.57,1,17.44,2,22,8.65,2.83,4.16,3.29,9.59,1.4,16.58A5,5,0,0,1,210.45,237.51Z"/><path d="M82,500H16a5,5,0,0,1-5-5.12c0-.47,1.1-47.94,0-77.51-1.15-31,10.07-53.82,10.55-54.78.25-.49,24.55-49.11,31.12-63.35,7.07-15.31,21.62-20.74,23.94-21.52L82,275.4A5,5,0,0,1,86,284.6L80.35,287a4.84,4.84,0,0,1-.49.18c-.11,0-12.48,4.08-18.1,16.25-6.64,14.39-30.25,61.63-31.25,63.63A114.43,114.43,0,0,0,21,417c.9,24.09.36,59.82.11,73H76.25l-9.2-65.3A5,5,0,0,1,71.38,419c1.07-.15,27.18-4.38,23.64-48.64a4.93,4.93,0,0,1,.66-2.91c2.14-3.71,5.55-11.05,5.55-14.92a5,5,0,0,1,7.24-4.47,72.27,72.27,0,0,0,23.77,6.17,5,5,0,0,1,4.6,4.66l2.23,33.41a3.84,3.84,0,0,1,0,.83h0a5.37,5.37,0,0,0,1.29,3.55c1.64,1.73,4.76,2.09,7.1,2.09,9.11,0,10.42-8,10.6-9.83.11-2.12,1.72-36-.75-49.86-2.82-1.87-11.15-6.39-26.81-7.17a5,5,0,0,1,.5-10c23.82,1.19,33.82,10.26,34.24,10.65a5,5,0,0,1,1.46,2.51c3.36,14.3,1.43,52.84,1.35,54.47a.53.53,0,0,0,0,.13c-.51,6.6-5.47,19.09-20.58,19.09-6.39,0-11.29-1.83-14.57-5.45a15.35,15.35,0,0,1-3.81-10.66l-1.93-28.92a84.24,84.24,0,0,1-17.1-4.23,65.61,65.61,0,0,1-4.94,11.58c1,15.17-.78,35.31-14.12,48.21a37.11,37.11,0,0,1-13.41,8.34L87,494.3a5,5,0,0,1-5,5.7Z"/><path d="M92.21,203.05a35.85,35.85,0,0,1-5.84-.44,5,5,0,0,1,1.78-9.84h0c.12,0,11.56,1.93,18.46-4.44a5,5,0,0,1,6.78,7.34C106.69,201.87,97.92,203.05,92.21,203.05Z"/><path d="M61.76,430.73a35.79,35.79,0,0,1-17.13-4.33,5,5,0,0,1,4.74-8.8,25.91,25.91,0,0,0,20.74,1.77,5,5,0,0,1,3.81,9.25A34.08,34.08,0,0,1,61.76,430.73Z"/><path d="M318.3,210.19h-.18a5,5,0,0,1,.17-10c.07,0,12.45,0,20.12-8.07,4.77-5,6.89-12.35,6.3-21.74-.41-6.61-2.59-11.64-6.49-14.95-6.82-5.8-17-5-17.14-5a5,5,0,0,1-1-9.95c.59-.06,14.48-1.32,24.61,7.29,6,5.14,9.4,12.52,10,21.94.77,12.33-2.29,22.2-9.1,29.33C335.31,209.85,320.19,210.19,318.3,210.19Z"/><path d="M497,500H114.22a5,5,0,0,1-5-5V473.78c0-63.66,22.21-76.86,24.74-78.16l4.55,8.9.1,0c-.05,0-4.8,2.82-9.54,12.54-4.49,9.19-9.85,26.51-9.85,56.77V490H492l.15-187.94L492,218a5,5,0,0,1,5-5h0a5,5,0,0,1,5,5l.15,84.06L502,495A5,5,0,0,1,497,500Z"/><path d="M378.26,250c-18.71,0-30.46-6.48-31.17-6.89-43.1-24.82-42.33-70.85-42.27-72.8a5,5,0,0,1,1.2-3.11c7.5-8.76,11.05-20.4,9.26-30.39-1.48-8.2-6.35-14.82-14.11-19.13-19.09-10.6-33.91,1.79-34.06,1.91A5,5,0,0,1,260.6,112c.82-.7,20.32-17,45.43-3.06,10.47,5.82,17.07,14.84,19.09,26.11,2.24,12.49-1.6,26.26-10.29,37.18.23,8,3.25,42.64,37.22,62.2.18.09,22,11.91,53.19.63a5,5,0,0,1,3.4,9.41A89.07,89.07,0,0,1,378.26,250Z"/><path d="M242.49,500a5,5,0,0,1-5-4.6c-2.55-31.58,7.28-64.47,7.69-65.85a5,5,0,0,1,9.58,2.9c-.1.32-9.7,32.5-7.31,62.15A5,5,0,0,1,242.9,500Z"/><path d="M47.15,166.63a5,5,0,0,1-4.43-2.69c-2.79-5.34-2.91-15.54,2.35-23.91,4.23-6.74,13.23-14.63,32.09-14,7.92.26,13.37-1.47,16.21-5.13,4.35-5.62,1.87-14.65,1.84-14.74a5,5,0,1,1,9.6-2.81c.17.56,4,14-3.54,23.67-4.91,6.34-13.13,9.37-24.43,9s-19.23,2.87-23.3,9.35c-3.53,5.61-3,12-2,14a5,5,0,0,1-4.43,7.32Z"/><path d="M81,186a5,5,0,0,1-2.74-9.19c1-.67,25.61-16.4,48.88-5.32a5,5,0,1,1-4.3,9c-18.15-8.64-38.92,4.55-39.13,4.68A4.93,4.93,0,0,1,81,186Z"/><path d="M431,151a5,5,0,0,1-.72-10C466.05,135.8,492,109.71,492,79c0-34.74-34.09-63-76-63s-76,28.26-76,63c0,24.45,17.33,46.91,44.14,57.2a5,5,0,0,1-3.58,9.34C349.84,133.75,330,107.63,330,79c0-40.25,38.58-73,86-73s86,32.75,86,73c0,35.72-29.55,66-70.26,71.93A4.59,4.59,0,0,1,431,151Z"/><path d="M187.72,382.88c-7.71,0-14.14-3.17-18.25-9.05-6.49-9.29-6.34-23.88.39-39,2.37-5.34,2.6-9.58.69-13-3.28-5.8-12.66-8.9-20.34-9.86-14.65-1.83-23-8.84-25.48-40.6-.66-8.53-3.1-14.15-7.24-16.68-6-3.66-14.32-.25-14.4-.21a5,5,0,0,1-3.92-9.2c.53-.23,13.06-5.47,23.46.83,7.09,4.29,11.15,12.53,12.07,24.5,2.28,29.63,9.3,30.51,16.75,31.44,6.28.78,21.56,3.8,27.8,14.87,3.53,6.23,3.44,13.61-.26,21.93-5.13,11.56-5.65,23-1.32,29.24,2.43,3.48,6.24,5.07,11.33,4.73a5,5,0,1,1,.66,10C189,382.86,188.36,382.88,187.72,382.88Z"/><path d="M272.5,500a5,5,0,0,1-2.71-9.2c36.92-23.8,66.74-53,88.62-86.68a271.76,271.76,0,0,0,37.15-89c12.2-54.62,4.6-96.83,4.52-97.25a5,5,0,0,1,3.78-5.78c61-14.23,93.44.71,94.79,1.36a5,5,0,0,1-4.28,9h0c-.3-.14-29.38-13.28-83.72-1.66,1.71,12.85,5,50-5.33,96.48a281.72,281.72,0,0,1-38.52,92.22c-22.66,34.92-53.47,65.08-91.59,89.64A5,5,0,0,1,272.5,500Z"/><path d="M405,179c-17.09,0-31-12.11-31-27a24.62,24.62,0,0,1,6.37-16.42,5,5,0,1,1,7.51,6.6A14.77,14.77,0,0,0,384,152c0,9.37,9.42,17,21,17s21-7.63,21-17a14.49,14.49,0,0,0-2.29-8.43,5,5,0,1,1,8.58-5.14A24.25,24.25,0,0,1,436,152C436,166.89,422.09,179,405,179Z"/><path d="M375,218.54c-11.58,0-21-8.32-21-18.54s9.42-18.54,21-18.54,21,8.32,21,18.54S386.58,218.54,375,218.54Zm0-27.08c-6.07,0-11,3.83-11,8.54s4.93,8.54,11,8.54,11-3.83,11-8.54S381.07,191.46,375,191.46Z"/><path d="M445.39,102a28.24,28.24,0,0,1-18.19-6.5c-.13-.1-.24-.21-.36-.32L416,84.13,405.14,95.19c-.11.11-.22.22-.34.32A28.3,28.3,0,0,1,386.61,102c-14.91,0-27-11.21-27-25s12.13-25,27-25a28.07,28.07,0,0,1,18.95,7.16l.21.2,10.28,10.5L427.2,58.53a5.22,5.22,0,0,1,.43-.39A28.35,28.35,0,0,1,445.39,52c14.91,0,27,11.21,27,25S460.3,102,445.39,102ZM433.81,88a18.23,18.23,0,0,0,11.58,4c9.39,0,17-6.73,17-15s-7.65-15-17-15a18.36,18.36,0,0,0-11.28,3.76L423.05,77Zm-47.2-26c-9.39,0-17,6.73-17,15s7.65,15,17,15a18.23,18.23,0,0,0,11.58-4L409,77l-10.3-10.51A18.1,18.1,0,0,0,386.61,62Zm15,29.68h0Z"/><path d="M350.67,500a5,5,0,0,1-2.79-9.15c42.7-28.68,62.2-83.93,62.39-84.48a5,5,0,0,1,9.46,3.26c-.83,2.39-20.74,58.94-66.28,89.52A4.91,4.91,0,0,1,350.67,500Z"/><path d="M229.27,412.58a5,5,0,0,1-4.34-7.48c4.25-7.44,5.35-15.29,3-21.55s-7.66-10.73-15.93-13.63c-20.21-7.07-17-27.33-16-34l.14-.91c2.09-13.33,3.9-24.84-4.91-34.84-4.11-4.65-9-6.06-14.71-7.69-4.29-1.23-9.16-2.62-13.81-5.62-9.81-6.32-10.06-17.6-10.29-27.54-.29-13-1.21-18.06-9.84-19.4a5,5,0,0,1,1.54-9.88c17.71,2.76,18.05,18,18.3,29.05.22,9.9.72,16.15,5.7,19.36,3.41,2.2,7.17,3.28,11.16,4.42,6.28,1.8,13.41,3.84,19.45,10.69,11.92,13.52,9.57,28.51,7.29,43l-.14.9c-2.11,13.45.53,19.9,9.41,23,14,4.89,19.67,13.34,22,19.57,3.38,9.05,2,20-3.7,30A5,5,0,0,1,229.27,412.58Z"/><path d="M227.84,299.61a5.47,5.47,0,0,1-.9-.08,5,5,0,0,1-4-5.82c.63-3.47,1.52-12.33-3.86-19.43-4.08-5.39-10.9-8.58-20.27-9.47-9.73-.93-16.57-4.48-20.32-10.57-5.72-9.29-1.44-20.59-1.25-21.06a5,5,0,0,1,9.33,3.6c-.07.18-2.65,7.27.46,12.26,2,3.24,6.31,5.2,12.73,5.81C212,256,221.19,260.53,227,268.24c5.47,7.23,7.56,17.17,5.72,27.26A5,5,0,0,1,227.84,299.61Z"/><path d="M271.65,380.24a5.34,5.34,0,0,1-.69-.05c-.64-.09-15.81-2.34-24.18-16.48-7.43-12.53-7-29.88,1.24-51.58,6.6-17.38,7.14-32.12,1.59-43.82-7-14.8-21.75-19.85-21.9-19.9a5,5,0,0,1,3.11-9.51c.76.25,18.81,6.3,27.75,25,6.84,14.29,6.43,31.72-1.21,51.83-7.11,18.7-7.77,33.14-2,42.92,5.95,10,16.84,11.66,16.95,11.68a5,5,0,0,1-.68,9.95Z"/><path d="M294.75,346.06a5,5,0,0,1-2.63-.76c-13.78-8.56-17.41-25.19-10.8-49.43,5.1-18.71,3.54-33.35-4.65-43.5a30.15,30.15,0,0,0-13.11-9.48,5,5,0,1,1,2.79-9.61,39.87,39.87,0,0,1,18.11,12.82c12.84,15.93,10.63,37.29,6.5,52.4-5.3,19.47-3.14,32.36,6.44,38.31a5,5,0,0,1-2.65,9.25Z"/><path d="M290.6,191.79a5,5,0,0,1-1.12-9.87,18.61,18.61,0,0,0,13-12.22,16.6,16.6,0,0,0-3.45-16.48c-4.88-5.77-14.89-5.8-22.44-4.82a82.38,82.38,0,0,0-16.57,4,5,5,0,0,1-3.55-9.35c1.46-.56,35.81-13.33,50.2,3.67a26.67,26.67,0,0,1,5.3,26.09,28.79,28.79,0,0,1-20.26,18.81A4.9,4.9,0,0,1,290.6,191.79Z"/><path d="M270.54,224.13a4.89,4.89,0,0,1-.66,0,5,5,0,0,1-4.31-5.6c.9-6.9,0-11.91-2.57-14.88-4.5-5.12-14.69-5.12-23.69-5.12-6.95,0-16.94-.92-23.39-8.83s-7.79-21.33-3.81-40.67c2.63-12.77,1.18-22.43-4.43-29.51-7.73-9.76-24.15-15.07-48.8-15.77-13.36-.39-22-4.33-25.63-11.74-6-12.27,4.85-27.9,6.11-29.65a5,5,0,0,1,8.1,5.87c-2.28,3.17-8.13,13.53-5.24,19.37,2.35,4.75,10.51,6,16.94,6.15,28.14.8,46.58,7.2,56.36,19.56,7.45,9.42,9.6,22.11,6.38,37.74-3.29,16-2.69,26.86,1.77,32.33,2.9,3.56,7.73,5.15,15.64,5.15,10.57,0,23.72,0,31.2,8.52,4.66,5.3,6.29,12.75,5,22.77A5,5,0,0,1,270.54,224.13Z"/><path d="M238.19,114.85a5,5,0,0,1-5-4.73c-1.31-24.18-15.26-26.25-31.41-28.64-7.83-1.16-15.92-2.36-22.12-6.5-5.26-3.5-8.37-8.3-9-13.88-.6-5.33,1-11.2,4.78-17.43A50.07,50.07,0,0,1,181,36.16,5,5,0,0,1,188.31,43c-2.4,2.56-8.44,10.58-7.71,17,.31,2.62,1.81,4.8,4.61,6.67,4.34,2.89,11,3.88,18,4.93,16.11,2.39,38.18,5.66,39.93,38a5,5,0,0,1-4.73,5.26Z"/><path d="M259.37,88.09a5,5,0,0,1-4.94-4.32c-2.24-16.19-7.63-17-16.56-18.41-6.12-.94-13.74-2.12-20.08-9a18.56,18.56,0,0,1-5.23-15c.65-5.54,3.77-11.19,9.26-16.78a54.2,54.2,0,0,1,7.7-6.52,5,5,0,1,1,5.58,8.29c-3.24,2.2-11.82,9.38-12.61,16.19-.29,2.53.55,4.77,2.65,7.05,4,4.3,8.74,5,14.26,5.89,9.66,1.49,21.68,3.35,24.93,26.92A5,5,0,0,1,260.06,88,5.34,5.34,0,0,1,259.37,88.09Z"/></g><text x="0" y="527"  font-size="5px" font-weight="bold" font-family="'Helvetica Neue', Helvetica, Arial-Unicode, Arial, Sans-serif">Created by Jino</text><text x="0" y="532" font-size="5px" font-weight="bold" font-family="'Helvetica Neue', Helvetica, Arial-Unicode, Arial, Sans-serif">from the Noun Project</text></svg>